<?xml version="1.0" standalone="no"?>
<!DOCTYPE svg PUBLIC "-//W3C//DTD SVG 1.1//EN" "http://www.w3.org/Graphics/SVG/1.1/DTD/svg11.dtd" >
<svg xmlns="http://www.w3.org/2000/svg" xmlns:xlink="http://www.w3.org/1999/xlink" version="1.1">
<metadata>
Created by FontForge 20170731 at Fri Jun 28 13:01:48 2019
 By Aleksey,,,
(c) Edri Studio
</metadata>
<defs>
<font id="ONNICCutting" horiz-adv-x="431" >
  <font-face 
    font-family="ONNIC Cutting"
    font-weight="400"
    font-stretch="normal"
    units-per-em="1000"
    panose-1="0 0 0 0 0 0 0 0 0 0"
    ascent="800"
    descent="-200"
    x-height="609"
    cap-height="700"
    bbox="13 -198 707.25 961"
    underline-thickness="50"
    underline-position="-200"
    unicode-range="U+000A-2265"
  />
<missing-glyph horiz-adv-x="527" 
d="M50 700h427v-700h-427v700zM78 680l185 -309l186 309h-371zM251 350l-180 300v-601zM264 329l-185 -308h370zM276 350l181 -303v605z" />
    <glyph glyph-name=".notdef" horiz-adv-x="527" 
d="M50 700h427v-700h-427v700zM78 680l185 -309l186 309h-371zM251 350l-180 300v-601zM264 329l-185 -308h370zM276 350l181 -303v605z" />
    <glyph glyph-name=".null" horiz-adv-x="0" 
 />
    <glyph glyph-name=".null" horiz-adv-x="0" 
 />
    <glyph glyph-name="nonmarkingreturn" horiz-adv-x="333" 
 />
    <glyph glyph-name="controlLF" unicode="&#xa;" horiz-adv-x="0" 
 />
    <glyph glyph-name="controlCR" unicode="&#xd;" horiz-adv-x="0" 
 />
    <glyph glyph-name="space" unicode=" " horiz-adv-x="205" 
 />
    <glyph glyph-name="exclam" unicode="!" horiz-adv-x="151" 
d="M114 114h-78v582h78v-582zM114 0h-78v76h78v-76z" />
    <glyph glyph-name="quotedbl" unicode="&#x22;" horiz-adv-x="131" 
d="M43 660v40h20v-53h-27zM75 700h20v-53h-27q2 1 4 4.5t2 6.5l1 2v40z" />
    <glyph glyph-name="quotedbl" unicode="&#x201d;" horiz-adv-x="131" 
d="M43 660v40h20v-53h-27zM75 700h20v-53h-27q2 1 4 4.5t2 6.5l1 2v40z" />
    <glyph glyph-name="quotedbl" unicode="&#x201c;" horiz-adv-x="131" 
d="M43 660v40h20v-53h-27zM75 700h20v-53h-27q2 1 4 4.5t2 6.5l1 2v40z" />
    <glyph glyph-name="numbersign" unicode="#" horiz-adv-x="421" 
d="M383 549h-36v-405h36v-59h-36v-85h-60v85h-132v-85h-60v85h-59v59h59v405h-59v60h59v91h60v-91h132v91h60v-91h36v-60zM287 144v405h-132v-405h132z" />
    <glyph glyph-name="dollar" unicode="$" horiz-adv-x="308" 
d="M246 351q24 -36 24 -83v-98q0 -31 -11 -58t-30 -45.5t-43 -25.5v-41h-65v44q-33 14 -54 48.5t-21 77.5v53h67v-27q0 -26 14 -45t33 -19q13 0 24 9t17.5 23.5t6.5 31.5v48q0 31 -18 50q-13 14 -30 14q-5 0 -14 -2t-21 -1q-46 2 -64 30q-25 36 -25 83v98q0 41 19.5 75
t51.5 48v59h65v-52q36 -9 60.5 -42t27.5 -77q1 -5 1 -11v-45h-67v21q0 20 -8 35q-14 29 -40 29q-20 0 -34 -19t-14 -45v-48q0 -33 20 -52q12 -12 28 -12q4 0 19 2t23 0q22 -2 34 -8t24 -23z" />
    <glyph glyph-name="percent" unicode="%" horiz-adv-x="412" 
d="M98.5 477q-17.5 0 -30 12.5t-12.5 29.5v137q0 17 12.5 29.5t30 12.5t30 -12.5t12.5 -29.5v-137q0 -17 -12.5 -29.5t-30 -12.5zM79 637v-99q0 -13 5.5 -22.5t14 -9.5t14 9.5t5.5 22.5v99q0 13 -5.5 22.5t-14 9.5t-14 -9.5t-5.5 -22.5zM332 222q18 0 30.5 -12.5t12.5 -30.5
v-136q0 -18 -12.5 -30.5t-30.5 -12.5t-30.5 12.5t-12.5 30.5v136q0 18 12.5 30.5t30.5 12.5zM352 61v100q0 13 -6 22t-14 9q-5 0 -9.5 -4t-7 -11.5t-2.5 -15.5v-100q0 -13 5.5 -22t13.5 -9t14 9t6 22zM290 698h73l-254 -698h-73z" />
    <glyph glyph-name="ampersand" unicode="&#x26;" horiz-adv-x="503" 
d="M383 135q9 -13 84 -118h-79q-18 24 -47 66q-63 -77 -149 -77q-71 0 -113.5 54.5t-42.5 133.5q0 108 76 177l29 -51q-42 -48 -42 -113q0 -58 29.5 -96.5t74.5 -38.5q63 0 105 60q-93 136 -143 212l-41 71q-31 60 -31 119q0 66 34.5 116t94.5 50q49 0 81 -39.5t32 -103.5
q0 -96 -89 -163l-29 48q60 52 60 111q0 35 -15 61t-44 26q-31 0 -47.5 -28.5t-16.5 -69.5q0 -44 21 -88l60 -98q80 -122 112 -169q2 5 10 21t10 20.5t8 17.5t9 23t7.5 25.5t8.5 34.5l45 -17q-11 -58 -17.5 -83t-15.5 -43.5t-29 -50.5z" />
    <glyph glyph-name="quotesingle" unicode="'" horiz-adv-x="100" 
d="M43 700h20v-53h-27q2 1 4 4.5t3 6.5v2v40z" />
    <glyph glyph-name="quotesingle" unicode="&#x2019;" horiz-adv-x="100" 
d="M43 700h20v-53h-27q2 1 4 4.5t3 6.5v2v40z" />
    <glyph glyph-name="quotesingle" unicode="&#x2018;" horiz-adv-x="100" 
d="M43 700h20v-53h-27q2 1 4 4.5t3 6.5v2v40z" />
    <glyph glyph-name="parenleft" unicode="(" horiz-adv-x="311" 
d="M76 379q0 -47 9 -94t23.5 -83.5t32 -70t35 -57.5t32.5 -41.5t23.5 -26t9.5 -8.5h-32q-4 3 -10.5 8.5t-24 25.5t-34 42t-36.5 57t-34 71t-24 83t-10 94q0 66 21.5 123t51.5 91.5t60.5 59.5t51.5 36l21 10h33q-8 -3 -21.5 -10.5t-48 -35t-60.5 -60.5t-47.5 -90.5
t-21.5 -123.5z" />
    <glyph glyph-name="parenright" unicode=")" horiz-adv-x="312" 
d="M68 699q5 -2 12 -5.5t28.5 -17t41 -29.5t43.5 -43.5t41 -58.5t29 -74.5t12 -91.5q0 -65 -18 -128.5t-43.5 -107t-50.5 -78t-43 -51.5l-18 -16h-32q3 3 9 8.5t23.5 25.5t33 42t34.5 57t32.5 71t23 83t9.5 94.5t-11 91t-28.5 74.5t-38.5 58t-42.5 44t-39 29.5t-28.5 17.5
l-11 5h32z" />
    <glyph glyph-name="asterisk" unicode="*" horiz-adv-x="194" 
d="M158 615v-24h-42l28 -49h-24l-11 19v-19h-24v19l-11 -19h-24l28 49h-42v24h42l-28 49h24l11 -19v19h24v-19l11 19h24l-28 -49h42z" />
    <glyph glyph-name="plus" unicode="+" horiz-adv-x="403" 
d="M226 328h140v-49h-140v-141h-50v141h-140v49h140v141h50v-141z" />
    <glyph glyph-name="comma" unicode="," horiz-adv-x="151" 
d="M36 106h78v-67l-2.5 -5t-7.5 -10t-13.5 -12.5t-20.5 -9t-28 -2.5q4 2 7.5 5t3 13t-16.5 21v67z" />
    <glyph glyph-name="hyphen" unicode="-" horiz-adv-x="403" 
d="M366 279h-330v49h330v-49z" />
    <glyph glyph-name="period" unicode="." horiz-adv-x="151" 
d="M114 0h-78v67h78v-67z" />
    <glyph glyph-name="slash" unicode="/" horiz-adv-x="400" 
d="M290 697h73l-254 -698h-73z" />
    <glyph glyph-name="zero" unicode="0" horiz-adv-x="331" 
d="M216 214l77 218v-284q0 -60 -37.5 -102.5t-91 -42.5t-91 42.5t-37.5 102.5v407q0 29 10 56t27.5 46.5t41 31t50.5 11.5q22 0 42 -8t36.5 -22.5t28 -34.5t17.5 -43l-73 -188l-93 -256q15 -45 42 -45q21 0 36 31.5t15 75.5v4zM113 511v-212l96 265q-6 25 -18 40t-26 15
q-22 0 -37 -31.5t-15 -76.5z" />
    <glyph glyph-name="one" unicode="1" horiz-adv-x="282" 
d="M243 702l2 -4v-696h-90v548l-30 -52h-89l118 204h89z" />
    <glyph glyph-name="two" unicode="2" horiz-adv-x="374" 
d="M162 551v-28h-102v40q0 58 41 98.5t98 40.5t98 -41q40 -40 40 -98q3 -82 -4 -108q-5 -18 -25 -55t-38 -65l-17 -28l-84 -145h-95l81 141l43 75l1 1l37 66l8 12q7 16 7 34v60q0 26 -13 45t-31.5 19t-31.5 -19t-13 -45zM36 97h301v-85h-301v85z" />
    <glyph glyph-name="three" unicode="3" horiz-adv-x="356" 
d="M170 614q-16 0 -29 -14.5t-15 -36.5h-90q0 41 18 75t49 53.5t67 19.5q56 0 95 -43t39 -105v-42h-88v31q0 26 -13.5 44t-32.5 18zM281 389q38 -48 38 -116v-103q0 -70 -39 -119t-94.5 -49t-95 49t-39.5 119v75h89v-45q0 -30 13 -50.5t32 -20.5t32 20.5t13 50.5v43
q0 30 -13 51t-32 21l-70 -1v136h55h1h132q-5 -33 -22 -61z" />
    <glyph glyph-name="four" unicode="4" horiz-adv-x="338" 
d="M130 700l-1 -199q0 -83 25 -124v-105q-50 6 -84 53t-34 110v210v55h94zM302 700v-4.5v-4.5v-4v-4v-680h-73v680v17h73z" />
    <glyph glyph-name="five" unicode="5" horiz-adv-x="322" 
d="M178 523q46 -6 76 -41t30 -81v-275q0 -51 -36 -87.5t-87.5 -36.5t-88 36.5t-36.5 87.5v113h75v-75q0 -18 3.5 -34.5t10.5 -29t16 -19.5t19 -7q21 0 35.5 26.5t14.5 63.5v199q0 18 -4 35t-11.5 29t-16.5 19v77zM36 701h248v-82h-172v-236h-76v318z" />
    <glyph glyph-name="six" unicode="6" horiz-adv-x="335" 
d="M118 521v-336q0 -42 14.5 -73.5t34.5 -31.5t34.5 26t14.5 63v133q0 28 -9 51t-23 32v78q49 -7 81.5 -43.5t32.5 -86.5v-195q0 -54 -38.5 -92.5t-92.5 -38.5t-92.5 38.5t-38.5 92.5v438q0 54 38.5 92.5t92.5 38.5t92.5 -38.5t38.5 -92.5v-15h-85q-6 26 -18 43t-27 17
q-21 0 -35.5 -29.5t-14.5 -70.5z" />
    <glyph glyph-name="seven" unicode="7" horiz-adv-x="360" 
d="M185 481l22 129h-171v92h276l-16 -92l-23 -129h-88zM301 415l23 -63h-74l-61 -350h-89l62 350h-45l-23 63h207z" />
    <glyph glyph-name="eight" unicode="8" horiz-adv-x="347" 
d="M309 576v-91q0 -55 -39 -94q28 -46 28 -104v-117q0 -70 -38 -119t-92.5 -49t-93 49t-38.5 119v117q0 69 38 118q-27 35 -27 80v91q0 30 12.5 56.5t35 45t50.5 25.5v-110q-11 -17 -11 -37v-40q0 -24 13 -41t32 -17q12 0 22.5 7.5t16.5 21t6 29.5v40q0 20 -11 37v109
q42 -11 69 -46t27 -80zM213 210v51q0 31 -13 52.5t-31.5 21.5t-31.5 -21.5t-13 -52.5v-51q0 -31 13 -52.5t31.5 -21.5t31.5 21.5t13 52.5z" />
    <glyph glyph-name="nine" unicode="9" horiz-adv-x="339" 
d="M169 713q36 0 66.5 -18t48.5 -48.5t18 -66.5v-445q0 -55 -39 -94t-94 -39t-94 39t-39 94v15h86q6 -27 18.5 -44t27.5 -17q10 0 19.5 8t16 22t10.5 32.5t4 39.5v341q0 42 -14.5 74t-34.5 33q-14 0 -25.5 -12t-18 -33t-6.5 -45v-136q0 -29 9 -52t23 -33v-78q-49 6 -82 43.5
t-33 87.5v199q0 55 39 94t94 39z" />
    <glyph glyph-name="colon" unicode=":" horiz-adv-x="151" 
d="M114 409h-78v67h78v-67zM114 241h-78v67h78v-67z" />
    <glyph glyph-name="semicolon" unicode=";" horiz-adv-x="151" 
d="M114 409h-78v67h78v-67zM36 260v67h78v-67l-2.5 -5t-7.5 -10t-13.5 -12.5t-20.5 -9t-28 -1.5q4 1 7.5 4t3 13t-16.5 21z" />
    <glyph glyph-name="less" unicode="&#x3c;" horiz-adv-x="391" 
d="M354 523l-220 -191l220 -169l-70 1l-248 168l248 191h70z" />
    <glyph glyph-name="equal" unicode="=" horiz-adv-x="395" 
d="M358 345h-322v43h322v-43zM358 266h-322v43h322v-43z" />
    <glyph glyph-name="greater" unicode="&#x3e;" horiz-adv-x="391" 
d="M105 523l249 -191l-249 -168l-69 -1l220 169l-220 191h69z" />
    <glyph glyph-name="question" unicode="?" horiz-adv-x="339" 
d="M169 686q55 0 94 -39t39 -94v-200q0 -52 -35.5 -90.5t-87.5 -41.5v-117h-78v196h78q29 8 29 33v231q0 16 -11.5 28t-27.5 12q-11 0 -20 -5.5t-14 -14.5t-5 -20v-58h-94v47q0 55 39 94t94 39zM179 0h-78v67h78v-67z" />
    <glyph glyph-name="at" unicode="@" horiz-adv-x="744" 
d="M616 621q50 -61 72.5 -123.5t18 -115t-26.5 -98t-60 -76t-85 -43.5q-41 -11 -62.5 15t-26.5 79l-7 -8q-60 -59 -131.5 -71t-113.5 30t-29.5 113.5t72.5 130.5q55 55 121.5 70t109.5 -17l2 9l64 -12q-12 -42 -21 -81q-10 -36 -16 -88q-15 -121 38 -123q11 0 19 4
q3 1 8.5 4.5t19.5 16t25 28t21.5 42.5t13.5 57.5t-5 74t-28 92.5q-29 69 -96.5 100t-144 16.5t-146 -56t-108 -124t-24.5 -182.5q9 -60 28 -106.5t44.5 -73t56 -43.5t62.5 -21.5t63 -4t58 6.5t48 12t33 11l12 6l16 -38q-15 -10 -43 -18.5t-64 -14t-76.5 -3t-81 11t-77.5 31
t-66.5 55t-47.5 84.5t-20 118q-2 87 28.5 163t81 126.5t116 82t130 37.5t125 -16t100.5 -70zM384 306q27 27 33 60t-13 52.5t-52 13.5t-60.5 -33t-33 -59.5t13.5 -52t52 -14t60 32.5z" />
    <glyph glyph-name="A" unicode="A" 
d="M271 700l124 -700h-102l-23 152l-55 358l-55 -358l-24 -152h-100l123 700h112z" />
    <glyph glyph-name="B" unicode="B" horiz-adv-x="342" 
d="M305 485q0 -22 -7 -43t-19.5 -37.5t-29.5 -29.5q17 -14 29.5 -33.5t19.5 -43t7 -49.5v-92q0 -38 -7 -66t-18.5 -45t-29.5 -27t-36.5 -14t-42.5 -4h-14.5t-15.5 -0.5t-16 -0.5h-89v700h89v-251q18 -30 46 -30q24 0 41 24t17 58v48q0 41 -23 65v81q29 -8 51.5 -26.5
t35 -45.5t12.5 -58v-80zM229 175v56q0 39 -17 66.5t-41 27.5q-28 0 -46 -35v-174q18 -35 46 -35q24 0 41 27.5t17 66.5z" />
    <glyph glyph-name="C" unicode="C" horiz-adv-x="347" 
d="M309 563v-64h-87v27q0 44 -15 74.5t-36 30.5t-35.5 -30.5t-14.5 -74.5v-327q0 -12 1 -24t3.5 -22t6 -19t8 -16.5t9.5 -12.5t10.5 -7.5t11.5 -2.5q21 0 36 30.5t15 73.5v12h87v-74q0 -57 -40 -97t-96.5 -40t-96.5 40t-40 97v426q0 57 40 97t97 40q37 0 68.5 -18.5
t49.5 -49.5t18 -69z" />
    <glyph glyph-name="D" unicode="D" horiz-adv-x="387" 
d="M301 652q48 -48 48 -116v-372q0 -68 -48 -116t-116 -48h-13h-24.5h-22.5h-89v700h89v-625q11 -3 60 -3q38 0 64.5 38.5t26.5 92.5v297q0 55 -27 93q-18 26 -43 35l1 71q55 -8 94 -47z" />
    <glyph glyph-name="E" unicode="E" horiz-adv-x="347" 
d="M125 309v-227h184v-82h-273v545h89v-154h96l30 -82h-126zM36 700h273v-82h-273v82z" />
    <glyph glyph-name="F" unicode="F" horiz-adv-x="391" 
d="M92 700h263v-80h-263v80zM182 405h116l30 -80h-146v-325h-90v325h-27l-29 80h56v140h90v-140z" />
    <glyph glyph-name="G" unicode="G" horiz-adv-x="392" 
d="M114 183q0 -29 6.5 -53.5t18.5 -39t26 -14.5h1h1v-76q-55 2 -93 41.5t-38 94.5v428q0 56 40 96t96 40t96 -40t40 -96v-43h-93q0 29 -6.5 53.5t-18.5 39t-25 14.5q-21 0 -36 -31.5t-15 -75.5v-338zM308 368h48v-77h-48v-155q0 -1 -1 -8h-99q7 26 7 55v108h-56v77h149z" />
    <glyph glyph-name="H" unicode="H" horiz-adv-x="351" 
d="M315 348h-89v352h89v-352zM125 270h190v-270h-89v195h-101v-195h-89v700h89v-430z" />
    <glyph glyph-name="I" unicode="I" horiz-adv-x="162" 
d="M125 0h-89v700h89v-700z" />
    <glyph glyph-name="J" unicode="J" horiz-adv-x="374" 
d="M337 699q-1 0 -0.5 -20t0.5 -21v-518q0 -56 -45 -97.5t-97 -41.5h-11.5h-12h-11t-12 1t-11 2.5t-12 3.5t-10.5 5t-11.5 7t-10.5 9q-57 54 -57 110v8l90 1q4 -12 10 -24q18 -36 43.5 -36t43.5 36t18 87v454v34h96z" />
    <glyph glyph-name="K" unicode="K" horiz-adv-x="413" 
d="M264 700h89l-191 -330l-37 -67v-303h-89v700h89v-239zM204 297l172 -297h-90l-89 155v125z" />
    <glyph glyph-name="L" unicode="L" horiz-adv-x="326" 
d="M125 154h-89v546h89v-546zM36 86h253v-86h-253v86z" />
    <glyph glyph-name="M" unicode="M" horiz-adv-x="485" 
d="M393 700l-34 -187l-77 -400h-82l-75 394v-507h-89v700h136l69 -392l69 392h83zM359 172l89 453v-625h-89v172z" />
    <glyph glyph-name="N" unicode="N" horiz-adv-x="407" 
d="M36 700h89l93 -271v-250l-93 265v-444h-89v700zM281 700h89v-700h-89v700z" />
    <glyph glyph-name="O" unicode="O" horiz-adv-x="344" 
d="M171 700q37 0 68 -18t49.5 -49.5t18.5 -67.5v-430q0 -56 -40 -95.5t-96 -39.5t-95.5 39.5t-39.5 95.5v430q0 56 39.5 95.5t95.5 39.5zM213 190v320q0 42 -12 71.5t-30 29.5q-11 0 -21 -13.5t-15.5 -36.5t-5.5 -51v-320q0 -42 12.5 -71.5t30 -29.5t29.5 29.5t12 71.5z" />
    <glyph glyph-name="P" unicode="P" horiz-adv-x="363" 
d="M191 700q56 -4 95 -45.5t39 -99.5v-119q0 -57 -39 -98.5t-95 -45.5v87q23 5 38 28t15 54v69q0 31 -15 54t-38 28v88zM36 700h88l1 -398v-302h-89v700z" />
    <glyph glyph-name="Q" unicode="Q" horiz-adv-x="356" 
d="M285 62l64 -112h-89l-35 61q-26 -11 -54 -11q-56 0 -95.5 39.5t-39.5 95.5v430q0 56 39.5 95.5t95.5 39.5q37 0 68 -18t49.5 -49.5t18.5 -67.5v-406l-94 166v185q0 42 -12 71.5t-30 29.5q-11 0 -21 -13.5t-15.5 -36.5t-5.5 -51v-320q0 -42 12.5 -71.5t29.5 -29.5q4 0 8 2
q11 4 20 23q14 30 14 75z" />
    <glyph glyph-name="R" unicode="R" horiz-adv-x="398" 
d="M249 309l112 -309h-89l-108 299q-5 1 -17.5 1.5t-21.5 1.5v-302h-89v700h89v-279q9 -19 23.5 -31t32.5 -12q26 0 44.5 24.5t18.5 58.5v69q0 28 -12.5 50t-32.5 30v89q54 -7 90 -48t36 -96v-119q0 -41 -20.5 -75t-55.5 -52z" />
    <glyph glyph-name="S" unicode="S" horiz-adv-x="380" 
d="M154 307q-70 4 -90 34q-28 41 -28 95v112q0 34 6 59.5t21.5 47.5t46 33.5t74.5 11.5q38 0 65 -7.5t42 -18.5t24 -31t12 -37t5 -45q1 -6 1 -13v-52h-97v24q0 23 -9 41q-16 33 -46 33q-22 0 -38 -21.5t-16 -52.5v-54q0 -38 23 -59l4 -4v-96zM315 360q29 -42 29 -95v-113
q0 -34 -6 -59.5t-21.5 -47.5t-46 -33.5t-75.5 -11.5q-82 0 -115 41t-33 111v61h96v-30q0 -31 16 -52t39 -21t39 21t16 52v54q0 35 -21 58q-3 2 -7 5v96h2.5t2.5 -1q22 -2 33 -4.5t27.5 -10.5t24.5 -20z" />
    <glyph glyph-name="T" unicode="T" horiz-adv-x="395" 
d="M244 0h-90v551h90v-551zM36 700h323v-82h-323v82z" />
    <glyph glyph-name="U" unicode="U" horiz-adv-x="384" 
d="M128 699v-467q0 -60 22 -103v-121q-47 15 -80 56t-33 91v490v54h91zM347 699v-54v-490q0 -34 -16 -64.5t-41.5 -52t-55.5 -31.5v125q19 41 19 100v467h94z" />
    <glyph glyph-name="V" unicode="V" horiz-adv-x="417" 
d="M291 700h89l-89 -508l-44 259zM125 700l83 -468l38 -232h-87l-123 700h89z" />
    <glyph glyph-name="W" unicode="W" horiz-adv-x="618" 
d="M501 700h80l-76 -480l-41 246zM354 700l74 -468l38 -232h-82l-75 482l-76 -482h-87l-110 700h80l73 -468l74 468h91z" />
    <glyph glyph-name="X" unicode="X" horiz-adv-x="341" 
d="M234 701h70l-198 -702h-70l91 351l-91 351h70l64 -247zM203 121l36 129l65 -251h-70z" />
    <glyph glyph-name="Y" unicode="Y" horiz-adv-x="345" 
d="M236 700h71l-70 -321l-37 153zM106 700l65 -299l38 -167l-2 -234h-71l-3 254l-97 446h70z" />
    <glyph glyph-name="Z" unicode="Z" horiz-adv-x="409" 
d="M87 700h285l-25 -70h-260v70zM182 179l-39 -109h191v-70h-298l65 179h-55v56h76l118 326h82l-119 -326h46v-56h-67z" />
    <glyph glyph-name="bracketleft" unicode="[" horiz-adv-x="364" 
d="M328 701v-60l-217 -2l1 -574h216v-66h-292v702h292z" />
    <glyph glyph-name="backslash" unicode="\" horiz-adv-x="401" 
d="M109 697l254 -698h-73l-254 698h73z" />
    <glyph glyph-name="bracketright" unicode="]" horiz-adv-x="364" 
d="M36 696h292v-702h-292v65h216l1 575l-217 1v61z" />
    <glyph glyph-name="asciicircum" unicode="^" horiz-adv-x="249" 
d="M147 700l66 -182h-45l-44 121l-43 -121h-45l66 182h45z" />
    <glyph glyph-name="underscore" unicode="_" horiz-adv-x="356" 
d="M319 2h-283v33h283v-33z" />
    <glyph glyph-name="grave" unicode="`" horiz-adv-x="104" 
d="M58 623q-1 -10 4 -14l-7 1l-19 5l12 51l19 -4z" />
    <glyph glyph-name="a" unicode="a" horiz-adv-x="359" 
d="M223 617l98 -617h-80l-19 134l-43 315l-44 -315l-19 -134h-80l98 617h89z" />
    <glyph glyph-name="b" unicode="b" horiz-adv-x="288" 
d="M250 427q0 -61 -45 -97q45 -41 45 -111v-81q0 -79 -28 -108t-79 -29q-5 0 -16.5 -0.5t-19.5 -0.5h-71v617h71v-221q14 -27 36 -27q10 0 18.5 5.5t14.5 15.5t10 23t4 28v43q0 35 -19 57v71q17 -5 31.5 -16t25 -25.5t16.5 -33.5t6 -39v-71zM190 154v49q0 35 -14 59t-33 24
q-22 0 -36 -31v-153q14 -31 36 -31q19 0 33 24t14 59z" />
    <glyph glyph-name="c" unicode="c" horiz-adv-x="290" 
d="M253 439h-69v24q0 39 -12 66t-28.5 27t-28.5 -27t-12 -66v-288q0 -38 12 -65t28.5 -27t28.5 27t12 65v11h69v-66q0 -50 -31.5 -85t-76.5 -35t-77 35t-32 85v376q0 50 32 85.5t77 35.5q22 0 42 -10t34.5 -26t23 -38t8.5 -47v-57z" />
    <glyph glyph-name="d" unicode="d" horiz-adv-x="322" 
d="M247 574q38 -42 38 -102v-327q0 -60 -38 -102.5t-92 -42.5h-48h-71v617h71v-551q8 -3 48 -3q29 0 50.5 34t21.5 82v262q0 48 -22 82q-14 22 -33 30v62q44 -6 75 -41z" />
    <glyph glyph-name="e" unicode="e" horiz-adv-x="290" 
d="M107 272v-200h146v-72h-217v484h71v-140h76l24 -72h-100zM36 617h217v-73h-217v73z" />
    <glyph glyph-name="f" unicode="f" horiz-adv-x="327" 
d="M81 617h209v-71h-209v71zM152 356h93l23 -70h-116v-286h-71v286h-22l-23 70h45v128h71v-128z" />
    <glyph glyph-name="g" unicode="g" horiz-adv-x="328" 
d="M98 161q0 -39 12 -67t28 -28l1 1h1v-67q-43 1 -73.5 36t-30.5 83v378q0 49 31.5 84t76.5 35t76.5 -35t31.5 -84v-38h-73q0 39 -12 66.5t-28.5 27.5t-28.5 -27.5t-12 -66.5v-298zM134 323h157v-67h-39v-137v-6h-79q6 22 6 48v95h-45v67z" />
    <glyph glyph-name="h" unicode="h" horiz-adv-x="295" 
d="M258 306h-71v311h71v-311zM107 238h151v-238h-71v172h-80v-172h-71v617h71v-379z" />
    <glyph glyph-name="i" unicode="i" horiz-adv-x="144" 
d="M107 0h-71v617h71v-617z" />
    <glyph glyph-name="j" unicode="j" horiz-adv-x="312" 
d="M276 615v-36v-456q0 -50 -36 -86.5t-78 -36.5h-8.5h-9.5h-8.5t-9.5 1t-9 2t-9.5 3t-8.5 4.5t-9.5 6t-8.5 8.5q-45 48 -45 96v8l72 1q3 -11 7 -21q15 -32 35 -32q13 0 24.5 14.5t18 39.5t6.5 54v400v10v11v9h77z" />
    <glyph glyph-name="k" unicode="k" horiz-adv-x="343" 
d="M217 617h71l-152 -291l-29 -59v-267h-71v617h71v-211zM170 262l136 -262h-71l-71 137v110z" />
    <glyph glyph-name="l" unicode="l" horiz-adv-x="275" 
d="M107 136h-71v481h71v-481zM36 76h202v-76h-202v76z" />
    <glyph glyph-name="m" unicode="m" horiz-adv-x="401" 
d="M320 617l-27 -165l-62 -352h-64l-60 346v-446h-71v617h108l55 -346l55 346h66zM293 151l71 400v-551h-71v151z" />
    <glyph glyph-name="n" unicode="n" horiz-adv-x="339" 
d="M36 617h71l74 -239v-220l-74 233v-391h-71v617zM231 617h71v-617h-71v617z" />
    <glyph glyph-name="o" unicode="o" horiz-adv-x="289" 
d="M144 617q44 0 75.5 -35t31.5 -85v-378q0 -49 -31.5 -84t-76 -35t-76 35t-31.5 84v378q0 33 14.5 60.5t39 43.5t54.5 16zM177 167v282q0 37 -9.5 63t-23.5 26t-24 -26t-10 -63v-282q0 -24 4.5 -44.5t12.5 -32.5t17 -12t16.5 12t12 32.5t4.5 44.5z" />
    <glyph glyph-name="p" unicode="p" horiz-adv-x="303" 
d="M159 616q45 -3 76 -40t31 -87v-105q0 -50 -31 -87t-76 -40v77q12 3 21.5 13t15.5 25.5t6 33.5v61q0 27 -12.5 47.5t-30.5 24.5v77zM36 617h70l1 -351v-266h-71v617z" />
    <glyph glyph-name="q" unicode="q" horiz-adv-x="292" 
d="M234 98l51 -98h-71l-28 54q-20 -10 -42 -10q-45 0 -76.5 35t-31.5 84v378q0 50 31.5 85t76 35t76 -35t31.5 -85v-357l-74 146v163q0 37 -9.5 63t-23.5 26t-24 -26t-10 -63v-282q0 -24 4.5 -44.5t12 -32.5t17.5 -12q2 0 6 2q8 4 16 20q11 27 11 66z" />
    <glyph glyph-name="r" unicode="r" horiz-adv-x="332" 
d="M205 272l90 -272h-71l-86 263q-5 1 -10.5 1t-10.5 0.5t-10 1.5v-266h-71v617h71v-246q15 -38 44 -38q21 0 36 21.5t15 51.5v61q0 24 -10.5 43.5t-26.5 26.5v78q29 -3 52 -21t36 -45.5t13 -59.5v-105q0 -36 -16.5 -66t-44.5 -46z" />
    <glyph glyph-name="s" unicode="s" horiz-adv-x="295" 
d="M107 270q-56 3 -71 30q-23 36 -23 83v99q0 30 5 52.5t17 42t36.5 29.5t59.5 10q37 0 61 -8.5t35.5 -27.5t15.5 -37.5t6 -48.5v-12v-45h-77v21q0 20 -7 36q-13 29 -36 29q-18 0 -31 -19t-13 -46v-48q0 -33 19 -52q0 -1 3 -3v-85zM235 316q23 -36 23 -83v-99q0 -64 -25 -99
t-93 -35q-118 0 -118 134v53h76v-26q0 -27 13 -46t31 -19t30.5 19t12.5 46v47q0 32 -16 51l-5 5v84h1.5h1.5q17 -3 26 -4.5t22 -9t20 -18.5z" />
    <glyph glyph-name="t" unicode="t" horiz-adv-x="329" 
d="M201 0h-71v485h71v-485zM36 617h257v-73h-257v73z" />
    <glyph glyph-name="u" unicode="u" horiz-adv-x="320" 
d="M37 609h72v-412q0 -53 17 -90v-107q-24 9 -44 27.5t-32.5 45.5t-12.5 57v432v47zM284 609v-47v-432q0 -45 -26.5 -81t-64.5 -49v109q16 37 16 88v412h75z" />
    <glyph glyph-name="v" unicode="v" horiz-adv-x="347" 
d="M239 617h71l-72 -448l-34 228zM107 617l66 -413l30 -204h-69l-98 617h71z" />
    <glyph glyph-name="w" unicode="w" horiz-adv-x="507" 
d="M406 617h64l-60 -424l-33 217zM289 617l59 -413l30 -204h-65l-60 424l-61 -424h-68l-88 617h63l59 -413l59 413h72z" />
    <glyph glyph-name="x" unicode="x" horiz-adv-x="286" 
d="M194 618h55l-158 -618h-55l73 309l-73 309h55l52 -218zM169 107l28 114l52 -221h-55z" />
    <glyph glyph-name="y" unicode="y" horiz-adv-x="289" 
d="M195 616h56l-55 -283l-30 135zM92 616l52 -263l30 -147l-2 -206h-57l-2 223l-77 393h56z" />
    <glyph glyph-name="z" unicode="z" horiz-adv-x="340" 
d="M77 617h226l-20 -62h-206v62zM152 157l-31 -95h152v-62h-237l52 157h-44v50h60l95 287h64l-94 -287h36v-50h-53z" />
    <glyph glyph-name="braceleft" unicode="{" horiz-adv-x="270" 
d="M215 -1h1q8 -1 15 -1q-25 0 -43 1.5t-37 5t-32 11.5t-23.5 19.5t-16 29.5t-5.5 41q0 27 9 78t9 77q0 4 1.5 20t0.5 25.5t-5.5 22t-17.5 18.5t-35 6q18 0 30.5 5t18 12t8 19t2 21t-1.5 21.5t-1 18.5q0 26 -9 79.5t-9 78.5q0 65 44 84.5t116 -11.5l-19 -2q-66 -7 -66 -80
q0 -27 7 -67q8 -42 8 -73q0 -32 -3.5 -51t-16.5 -32.5t-36 -18.5v-2q34 -7 45.5 -31t10.5 -72q0 -33 -8 -73q-7 -41 -7 -68q0 -41 16 -73t50 -39z" />
    <glyph glyph-name="verticalbar" unicode="|" horiz-adv-x="129" 
d="M92 6h-56v693h56v-693z" />
    <glyph glyph-name="braceright" unicode="}" horiz-adv-x="271" 
d="M178 261q0 -26 8.5 -77t8.5 -78q0 -28 -8 -48t-21 -31.5t-34 -18t-42 -8.5t-51 -2q7 0 15 1h1q33 7 49.5 39t16.5 73q0 27 -8 68q-7 40 -7 73q-1 32 3 51.5t16.5 33t36.5 18.5v2q-35 8 -46 31t-10 71q0 31 7 73q8 40 8 67q0 73 -66 80l-19 2q72 31 115.5 11.5t43.5 -83.5
q0 -26 -8.5 -79t-8.5 -80q0 -6 -1 -18.5t-1.5 -21.5t2 -21t8 -19t17.5 -12t31 -5q-22 0 -35.5 -6t-17.5 -18.5t-5 -22t0.5 -25.5t1.5 -20z" />
    <glyph glyph-name="asciitilde" unicode="~" horiz-adv-x="287" 
d="M116 409q27 -16 45 -23.5t43 -6t46 20.5v-26q-16 -14 -33 -19t-35 -0.5t-32 11t-34 18.5q-23 11 -40.5 5t-28.5 -19l-11 -13v26q1 1 2.5 3t6 6.5t9.5 9t12 8.5t14.5 5.5t17 0.5t18.5 -7z" />
    <glyph glyph-name="nonbreakingspace" unicode="&#xa0;" horiz-adv-x="205" 
 />
    <glyph glyph-name="sterling" unicode="&#xa3;" horiz-adv-x="469" 
d="M286.5 701q60.5 0 103.5 -47.5t43 -114.5v-49h-68q-4 37 -15 66.5t-27.5 46t-35.5 16.5q-34 0 -57.5 -48.5t-23.5 -116.5v-31h157v-44h-157v-36h157v-43h-157v-251q0 -23 4 -45q-32 22 -50.5 58.5t-18.5 79.5v158h-105v43h105v36h-105v44h105v116q0 67 42.5 114.5
t103 47.5z" />
    <glyph glyph-name="copyright" unicode="&#xa9;" horiz-adv-x="665" 
d="M332 548q33 0 56 -23t23 -56v-38h-51v16q0 25 -8.5 43t-20.5 18t-21 -18t-9 -43v-190q0 -25 9 -43t21 -18t20.5 18t8.5 43v7h51v-44q0 -33 -23 -56t-56 -23q-16 0 -31 6t-25.5 17t-17 25.5t-6.5 30.5v249q0 33 23.5 56t56.5 23zM425 640q84 0 143 -59t59 -143v-186
q0 -84 -59 -143.5t-143 -59.5h-186q-55 0 -102 27t-74 74t-27 102v186q0 84 59.5 143t143.5 59h186zM559 273v143q0 65 -45.5 110.5t-110.5 45.5h-143q-64 0 -109.5 -45.5t-45.5 -110.5v-143q0 -64 45.5 -109.5t109.5 -45.5h143q65 0 110.5 45.5t45.5 109.5z" />
    <glyph glyph-name="softhyphen" unicode="&#xad;" horiz-adv-x="0" 
 />
    <glyph glyph-name="plusminus" unicode="&#xb1;" horiz-adv-x="261" 
d="M145 362h80v-28h-80v-80h-29v80h-80v28h80v80h29v-80zM225 215h-189v28h189v-28z" />
    <glyph glyph-name="Agrave" unicode="&#xc0;" 
d="M271 700l124 -700h-102l-23 152l-55 358l-55 -358l-24 -152h-100l123 700h112zM259 780h-85l-82 65l70 60z" />
    <glyph glyph-name="Aacute" unicode="&#xc1;" 
d="M271 700l124 -700h-102l-23 152l-55 358l-55 -358l-24 -152h-100l123 700h112zM338 845l-82 -65h-84l97 125z" />
    <glyph glyph-name="Acircumflex" unicode="&#xc2;" 
d="M271 700l124 -700h-102l-23 152l-55 358l-55 -358l-24 -152h-100l123 700h112zM215 845l-50 -61h-78l82 117h93l82 -117h-78z" />
    <glyph glyph-name="Atilde" unicode="&#xc3;" 
d="M271 700l124 -700h-102l-23 152l-55 358l-55 -358l-24 -152h-100l123 700h112zM170 827q-24 0 -32 -50l-58 29q5 24 13 43t19 31t24 18t28 6q21 0 37.5 -12t30.5 -24t28 -12q32 0 35 53l56 -28q-21 -100 -86 -100q-12 0 -23 3.5t-18.5 8.5t-15 11t-13 11t-12.5 8.5
t-13 3.5z" />
    <glyph glyph-name="Adieresis" unicode="&#xc4;" 
d="M271 700l124 -700h-102l-23 152l-55 358l-55 -358l-24 -152h-100l123 700h112zM140 792q-21 0 -36 15t-15 36t15 36t36 15q14 0 25.5 -7t18.5 -18.5t7 -25.5q0 -21 -15 -36t-36 -15zM291 792q-14 0 -26 6.5t-18.5 18.5t-6.5 26q0 21 15 36t36 15t36 -15t15 -36t-15 -36
t-36 -15z" />
    <glyph glyph-name="Aring" unicode="&#xc5;" 
d="M271 700l124 -700h-102l-23 152l-55 358l-55 -358l-24 -152h-100l123 700h112zM215 725q-48 0 -83 34t-35 84q0 48 34 83t84 35q49 0 83.5 -34t34.5 -84t-34 -84t-84 -34zM215 899q-23 0 -39.5 -16t-16.5 -40q0 -15 7.5 -28t20.5 -20.5t28 -7.5q23 0 39.5 16t16.5 40
q0 15 -7 28t-20 20.5t-29 7.5z" />
    <glyph glyph-name="AE" unicode="&#xc6;" horiz-adv-x="556" 
d="M336 309v-227h183v-82h-273v545h90v-154h95l30 -82h-125zM171 700h348v-82h-281l-113 -618h-89z" />
    <glyph glyph-name="Ccedilla" unicode="&#xc7;" horiz-adv-x="346" 
d="M309 499h-87v27q0 44 -15 74.5t-36 30.5t-35.5 -30.5t-14.5 -74.5v-327q0 -43 14.5 -73.5t35.5 -30.5t36 30.5t15 73.5v12h87v-74q0 -50 -31 -87.5t-78 -46.5l-19 -21q36 -5 57.5 -29.5t21.5 -60.5q0 -38 -25.5 -64t-67.5 -26q-51 0 -82 34l36 48q18 -27 45 -27
q15 0 25 9.5t10 25.5q0 18 -10.5 27.5t-24.5 9.5q-20 0 -30 -13l-38 37l38 52q-44 12 -72 48.5t-28 83.5v426q0 57 40 97t96.5 40t96.5 -40t40 -97v-64z" />
    <glyph glyph-name="Egrave" unicode="&#xc8;" horiz-adv-x="346" 
d="M125 309v-227h184v-82h-273v545h89v-154h96l30 -82h-126zM36 700h273v-82h-273v82zM216 780h-84l-82 65l69 60z" />
    <glyph glyph-name="Eacute" unicode="&#xc9;" horiz-adv-x="346" 
d="M125 309v-227h184v-82h-273v545h89v-154h96l30 -82h-126zM36 700h273v-82h-273v82zM296 845l-83 -65h-84l97 125z" />
    <glyph glyph-name="Ecircumflex" unicode="&#xca;" horiz-adv-x="346" 
d="M125 309v-227h184v-82h-273v545h89v-154h96l30 -82h-126zM36 700h273v-82h-273v82zM173 845l-51 -61h-78l82 117h93l82 -117h-78z" />
    <glyph glyph-name="Edieresis" unicode="&#xcb;" horiz-adv-x="346" 
d="M125 309v-227h184v-82h-273v545h89v-154h96l30 -82h-126zM36 700h273v-82h-273v82zM98 792q-22 0 -37 15t-15 36q0 14 7 25.5t19 18.5t26 7q13 0 25 -7t18.5 -18.5t6.5 -25.5q0 -21 -15 -36t-35 -15zM248 792q-21 0 -36 15t-15 36t15 36t36 15t36 -15t15 -36t-15 -36
t-36 -15z" />
    <glyph glyph-name="Igrave" unicode="&#xcc;" horiz-adv-x="241" 
d="M204 0h-90v700h90v-700zM202 780h-84l-82 65l69 60z" />
    <glyph glyph-name="Iacute" unicode="&#xcd;" horiz-adv-x="241" 
d="M125 0h-89v700h89v-700zM204 845l-82 -65h-85l97 125z" />
    <glyph glyph-name="Icircumflex" unicode="&#xce;" horiz-adv-x="330" 
d="M209 0h-89v700h89v-700zM211 901l82 -117h-78l-51 61l-50 -61h-78l82 117h93z" />
    <glyph glyph-name="Idieresis" unicode="&#xcf;" horiz-adv-x="327" 
d="M201 0h-89v700h89v-700zM138 843q0 -21 -15 -36t-35 -15q-22 0 -37 15t-15 36t15 36t37 15q13 0 25 -7t18.5 -18.5t6.5 -25.5zM238 894q21 0 36 -15t15 -36t-15 -36t-36 -15t-36 15t-15 36t15 36t36 15z" />
    <glyph glyph-name="Eth" unicode="&#xd0;" 
d="M347 652q47 -48 47 -116v-372q0 -68 -48 -116t-116 -48h-59h-90v308h-45v84h45v308h90v-308h103v-84h-103v-233q10 -3 59 -3q38 0 64.5 38.5t26.5 92.5v297q0 55 -27 93q-17 26 -42 35v71q55 -8 95 -47z" />
    <glyph glyph-name="Ntilde" unicode="&#xd1;" horiz-adv-x="408" 
d="M36 700h89l93 -271v-250l-93 265v-444h-89v700zM281 700h89v-700h-89v700zM339 881q-21 -100 -86 -100q-22 0 -39.5 11.5t-31 23t-24.5 11.5q-24 0 -32 -50l-59 29q6 24 14 43t19 31t24 18t28 6q21 0 37.5 -12t30.5 -24t28 -12q32 0 34 53z" />
    <glyph glyph-name="Ograve" unicode="&#xd2;" horiz-adv-x="343" 
d="M171 700q56 0 96 -39.5t40 -95.5v-430q0 -56 -40 -95.5t-96 -39.5t-95.5 39.5t-39.5 95.5v430q0 56 39.5 95.5t95.5 39.5zM213 190v320q0 42 -12 71.5t-30 29.5q-8 0 -16 -8t-13.5 -21.5t-9 -32t-3.5 -39.5v-320q0 -42 12.5 -71.5t29.5 -29.5q12 0 21.5 13.5t15 36.5
t5.5 51zM215 780h-85l-82 65l70 60z" />
    <glyph glyph-name="Oacute" unicode="&#xd3;" horiz-adv-x="343" 
d="M171 700q56 0 96 -39.5t40 -95.5v-430q0 -56 -40 -95.5t-96 -39.5t-95.5 39.5t-39.5 95.5v430q0 56 39.5 95.5t95.5 39.5zM213 190v320q0 42 -12 71.5t-30 29.5q-8 0 -16 -8t-13.5 -21.5t-9 -32t-3.5 -39.5v-320q0 -42 12.5 -71.5t29.5 -29.5q12 0 21.5 13.5t15 36.5
t5.5 51zM294 845l-82 -65h-84l97 125z" />
    <glyph glyph-name="Ocircumflex" unicode="&#xd4;" horiz-adv-x="343" 
d="M171 700q56 0 96 -39.5t40 -95.5v-430q0 -56 -40 -95.5t-96 -39.5t-95.5 39.5t-39.5 95.5v430q0 56 39.5 95.5t95.5 39.5zM213 190v320q0 42 -12 71.5t-30 29.5q-8 0 -16 -8t-13.5 -21.5t-9 -32t-3.5 -39.5v-320q0 -42 12.5 -71.5t29.5 -29.5q12 0 21.5 13.5t15 36.5
t5.5 51zM171 845l-50 -61h-78l82 117h93l82 -117h-78z" />
    <glyph glyph-name="Otilde" unicode="&#xd5;" horiz-adv-x="344" 
d="M172 700q56 0 95.5 -39.5t39.5 -95.5v-430q0 -56 -39.5 -95.5t-95.5 -39.5t-96 39.5t-40 95.5v430q0 56 40 95.5t96 39.5zM214 190v320q0 42 -12.5 71.5t-30 29.5t-29.5 -29.5t-12 -71.5v-320q0 -42 12 -71.5t29.5 -29.5t30 29.5t12.5 71.5zM126 827q-24 0 -32 -50
l-58 29q10 49 32 73.5t52 24.5q21 0 37.5 -12t30.5 -24t28 -12q32 0 35 53l56 -28q-20 -100 -86 -100q-14 0 -26.5 5t-21 11.5t-16 13t-15.5 11.5t-16 5z" />
    <glyph glyph-name="Odieresis" unicode="&#xd6;" horiz-adv-x="343" 
d="M171 700q56 0 96 -39.5t40 -95.5v-430q0 -56 -40 -95.5t-96 -39.5t-95.5 39.5t-39.5 95.5v430q0 56 39.5 95.5t95.5 39.5zM213 190v320q0 42 -12 71.5t-30 29.5q-8 0 -16 -8t-13.5 -21.5t-9 -32t-3.5 -39.5v-320q0 -42 12.5 -71.5t29.5 -29.5q12 0 21.5 13.5t15 36.5
t5.5 51zM96 792q-21 0 -36 15t-15 36t15 36t36 15t36 -15t15 -36t-15 -36t-36 -15zM247 792q-21 0 -36 15t-15 36t15 36t36 15t36 -15t15 -36t-15 -36t-36 -15z" />
    <glyph glyph-name="multiply" unicode="&#xd7;" horiz-adv-x="343" 
d="M306 427l-100 -99l99 -99l-36 -35l-98 99l-100 -98l-35 35l100 99l-99 99l35 35l99 -99l100 98z" />
    <glyph glyph-name="Oslash" unicode="&#xd8;" horiz-adv-x="571" 
d="M482 693l52 -35l-114 -166v-357q0 -36 -18 -67.5t-49 -49.5t-68 -18q-47 0 -83.5 29t-47.5 74l-66 -96l-52 35l114 166v357q0 56 39.5 95.5t95.5 39.5q47 0 83.5 -29t47.5 -74zM327 190v166l-84 -123v-43q0 -42 12.5 -71.5t30 -29.5t29.5 29.5t12 71.5zM327 467v43
q0 42 -12 71.5t-29.5 29.5t-30 -29.5t-12.5 -71.5v-166z" />
    <glyph glyph-name="Ugrave" unicode="&#xd9;" horiz-adv-x="384" 
d="M128 699v-467q0 -60 22 -103v-121q-47 15 -80 56t-33 91v490v54h91zM347 699v-54v-490q0 -50 -33 -91t-80 -57v125q19 41 19 100v467h94zM138 905l97 -125h-84l-82 65z" />
    <glyph glyph-name="Uacute" unicode="&#xda;" horiz-adv-x="384" 
d="M128 699v-467q0 -60 22 -103v-121q-47 15 -80 56t-33 91v490v54h91zM347 699v-54v-490q0 -50 -33 -91t-80 -57v125q19 41 19 100v467h94zM245 905l70 -60l-82 -65h-85z" />
    <glyph glyph-name="Ucircumflex" unicode="&#xdb;" horiz-adv-x="385" 
d="M128 699v-467q0 -60 22 -103v-121q-47 15 -80 56t-33 91v490v54h91zM347 699v-26.5v-27.5v-490q0 -34 -16 -64.5t-41.5 -52t-55.5 -31.5v125q19 41 19 100v467h94zM320 784h-78l-50 61l-51 -61h-78l82 117h93z" />
    <glyph glyph-name="Udieresis" unicode="&#xdc;" horiz-adv-x="385" 
d="M128 699v-467q0 -60 22 -103v-121q-47 15 -80 56t-33 91v490v54h91zM347 699v-26.5v-27.5v-490q0 -34 -16 -64.5t-41.5 -52t-55.5 -31.5v125q19 41 19 100v467h94zM117 894q20 0 35 -15t15 -36q0 -14 -6.5 -26t-18.5 -18.5t-25 -6.5q-22 0 -37 15t-15 36q0 14 7 25.5
t19 18.5t26 7zM318 843q0 -21 -15 -36t-36 -15t-36 15t-15 36t15 36t36 15t36 -15t15 -36z" />
    <glyph glyph-name="Yacute" unicode="&#xdd;" horiz-adv-x="343" 
d="M236 700h71l-70 -321l-37 153zM106 700l65 -299l38 -167l-2 -234h-71l-3 254l-97 446h70zM294 845l-82 -65h-84l97 125z" />
    <glyph glyph-name="Thorn" unicode="&#xde;" horiz-adv-x="467" 
d="M210 580q92 -4 156 -71t64 -159q0 -93 -65 -160t-157 -70h-83v-120h-89v700h89v-120h85zM210 210q36 2 66 21.5t47.5 50.5t17.5 68q0 56 -39 97t-94 44h-83v-282q82 0 85 1z" />
    <glyph glyph-name="agrave" unicode="&#xe0;" horiz-adv-x="359" 
d="M223 617l98 -617h-80l-19 134l-43 315l-44 -315l-19 -134h-80l98 617h89zM234 697h-85l-82 65l70 59z" />
    <glyph glyph-name="aacute" unicode="&#xe1;" horiz-adv-x="359" 
d="M223 617l98 -617h-80l-19 134l-43 315l-44 -315l-19 -134h-80l98 617h89zM299 762l-83 -65h-84l97 124z" />
    <glyph glyph-name="acircumflex" unicode="&#xe2;" horiz-adv-x="359" 
d="M223 617l98 -617h-80l-19 134l-43 315l-44 -315l-19 -134h-80l98 617h89zM176 762l-51 -62h-78l82 118h93l82 -118h-78z" />
    <glyph glyph-name="atilde" unicode="&#xe3;" horiz-adv-x="359" 
d="M223 617l98 -617h-80l-19 134l-43 315l-44 -315l-20 -134h-79l98 617h89zM138 743q-24 0 -32 -50l-58 29q10 49 32 74t52 25q21 0 37.5 -12.5t30.5 -24.5t28 -12q32 0 35 53l56 -28q-20 -100 -86 -100q-22 0 -39.5 11.5t-31 23t-24.5 11.5z" />
    <glyph glyph-name="adieresis" unicode="&#xe4;" horiz-adv-x="359" 
d="M223 617l98 -617h-80l-19 134l-43 315l-44 -315l-19 -134h-80l98 617h89zM101 708q-22 0 -37 15t-15 36t15 36t37 15q13 0 25 -7t18.5 -18.5t6.5 -25.5q0 -21 -15 -36t-35 -15zM251 708q-21 0 -36 15t-15 36t15 36t36 15t36 -15t15 -36t-15 -36t-36 -15z" />
    <glyph glyph-name="aring" unicode="&#xe5;" horiz-adv-x="359" 
d="M223 617l98 -617h-80l-19 134l-43 315l-44 -315l-19 -134h-80l98 617h89zM176 641q-49 0 -83.5 34t-34.5 84q0 49 34 83.5t84 34.5q23 0 45 -9t38 -24.5t25.5 -37.5t9.5 -47q0 -49 -34.5 -83.5t-83.5 -34.5zM176 815q-24 0 -40 -16t-16 -40q0 -23 16 -39.5t40 -16.5
q23 0 39.5 16t16.5 40q0 23 -16.5 39.5t-39.5 16.5z" />
    <glyph glyph-name="ae" unicode="&#xe6;" horiz-adv-x="477" 
d="M292 272v-199h147v-73h-139h-79v484l71 1v-140h76l24 -73h-100zM300 617h139v-73h-104h-121l-99 -544h-79l119 617h145z" />
    <glyph glyph-name="ccedilla" unicode="&#xe7;" horiz-adv-x="290" 
d="M253 496v-57h-69v24q0 39 -12 66t-28.5 27t-28.5 -27t-12 -66v-288q0 -18 3.5 -35.5t8.5 -29.5t12.5 -19.5t15.5 -7.5q17 0 29 27t12 65v11h69v-66q0 -27 -10 -51t-28.5 -41t-41.5 -24l-20 -22q36 -5 57.5 -29.5t21.5 -60.5q0 -39 -25 -64.5t-68 -25.5q-51 0 -82 34
l36 48q18 -27 46 -27q14 0 24 9.5t10 25.5q0 18 -10.5 27.5t-24.5 9.5q-20 0 -30 -13l-38 37l39 53q-21 9 -37.5 25.5t-26 39.5t-9.5 49v376q0 50 32 85.5t77 35.5q29 0 54 -16.5t39.5 -44t14.5 -60.5z" />
    <glyph glyph-name="egrave" unicode="&#xe8;" horiz-adv-x="305" 
d="M121 272v-200h147v-72h-218v484h71v-140h76l24 -72h-100zM50 617h218v-73h-218v73zM202 697h-84l-82 65l69 59z" />
    <glyph glyph-name="eacute" unicode="&#xe9;" horiz-adv-x="305" 
d="M107 272v-200h146v-72h-217v484h71v-140h76l24 -72h-100zM36 617h217v-73h-217v73zM268 762l-82 -65h-85l97 124z" />
    <glyph glyph-name="ecircumflex" unicode="&#xea;" horiz-adv-x="331" 
d="M127 272v-200h146v-72h-217v484h71v-140h76l23 -72h-99zM56 617h217v-73h-217v73zM164 762l-50 -62h-78l82 118h93l82 -118h-78z" />
    <glyph glyph-name="edieresis" unicode="&#xeb;" horiz-adv-x="327" 
d="M125 272v-200h146v-72h-217v484h71v-140h76l24 -72h-100zM54 617h217v-73h-217v73zM138 759q0 -21 -15 -36t-35 -15q-22 0 -37 15t-15 36t15 36t37 15q13 0 25 -7t18.5 -18.5t6.5 -25.5zM238 810q21 0 36 -15t15 -36t-15 -36t-36 -15t-36 15t-15 36t15 36t36 15z" />
    <glyph glyph-name="igrave" unicode="&#xec;" horiz-adv-x="239" 
d="M195 0h-72v617h72v-617zM105 821l97 -124h-84l-82 65z" />
    <glyph glyph-name="iacute" unicode="&#xed;" horiz-adv-x="239" 
d="M115 0h-71v617h71v-617zM133 821l69 -59l-82 -65h-84z" />
    <glyph glyph-name="icircumflex" unicode="&#xee;" horiz-adv-x="330" 
d="M200 0h-71v617h71v-617zM211 818l82 -118h-78l-51 62l-50 -62h-78l82 118h93z" />
    <glyph glyph-name="idieresis" unicode="&#xef;" horiz-adv-x="327" 
d="M198 0h-71v617h71v-617zM88 810q13 0 24.5 -7t18.5 -18.5t7 -25.5q0 -21 -15 -36t-35 -15q-22 0 -37 15t-15 36q0 14 7 25.5t19 18.5t26 7zM238 810q21 0 36 -15t15 -36t-15 -36t-36 -15t-36 15t-15 36t15 36t36 15z" />
    <glyph glyph-name="eth" unicode="&#xf0;" horiz-adv-x="344" 
d="M283 497v-36v-3.5v-3.5v-335q0 -49 -31.5 -84t-76.5 -35q-29 0 -54 16t-39.5 43.5t-14.5 59.5v378q0 50 32 85t76 35q4 0 9 -1q-10 25 -25 44l-75 -54l-29 40l70 50q-33 27 -89 57l44 62q73 -32 113 -69l84 61l29 -40l-81 -58q47 -67 55 -187q3 -12 3 -25zM209 167v282v5
l-1 3v4v3q-2 32 -11.5 53t-21.5 21q-14 0 -23.5 -26t-9.5 -63v-282q0 -24 4.5 -44.5t12 -32.5t16.5 -12q7 0 13 7t10.5 19t7.5 28.5t3 34.5z" />
    <glyph glyph-name="ntilde" unicode="&#xf1;" horiz-adv-x="344" 
d="M39 617h71l74 -239v-220l-74 233v-391h-71v617zM234 0v617h71v-617h-71zM307 797q-20 -100 -86 -100q-12 0 -22.5 3.5t-18 8.5t-15 11t-13.5 11t-12.5 8.5t-13.5 3.5q-24 0 -32 -50l-58 29q10 49 32 74t52 25q21 0 37.5 -12.5t30.5 -24.5t28 -12q32 0 35 53z" />
    <glyph glyph-name="ograve" unicode="&#xf2;" horiz-adv-x="304" 
d="M159 617q45 0 76.5 -35t31.5 -85v-378q0 -49 -31.5 -84t-76.5 -35t-76.5 35t-31.5 84v378q0 50 31.5 85t76.5 35zM193 167v282q0 25 -4.5 45.5t-12.5 32t-17 11.5q-14 0 -24 -26t-10 -63v-282q0 -24 4.5 -44.5t12.5 -32.5t17 -12q7 0 13 7t10.5 19t7.5 28.5t3 34.5z
M202 697h-84l-82 65l69 59z" />
    <glyph glyph-name="oacute" unicode="&#xf3;" horiz-adv-x="305" 
d="M143.5 617q44.5 0 76 -35t31.5 -85v-378q0 -49 -31.5 -84t-76 -35t-76 35t-31.5 84v378q0 50 31.5 85t76 35zM177 167v282q0 25 -4.5 45.5t-12 32t-16.5 11.5q-14 0 -24 -26t-10 -63v-282q0 -24 4.5 -44.5t12.5 -32.5t17 -12q6 0 12.5 7t11 19t7 28.5t2.5 34.5zM267 762
l-83 -65h-84l97 124z" />
    <glyph glyph-name="ocircumflex" unicode="&#xf4;" horiz-adv-x="331" 
d="M164 617q30 0 54.5 -16t39 -43.5t14.5 -60.5v-378q0 -49 -31.5 -84t-76 -35t-76 35t-31.5 84v378q0 50 31.5 85t75.5 35zM198 167v282q0 25 -4.5 45.5t-12.5 32t-17 11.5q-14 0 -23.5 -26t-9.5 -63v-282q0 -24 4.5 -44.5t12 -32.5t16.5 -12q7 0 13.5 7t11 19t7 28.5
t2.5 34.5zM164 762l-50 -62h-78l82 118h93l82 -118h-78z" />
    <glyph glyph-name="otilde" unicode="&#xf5;" horiz-adv-x="344" 
d="M172 617q29 0 54 -16t39 -43.5t14 -60.5v-378q0 -49 -31.5 -84t-76 -35t-76 35t-31.5 84v378q0 50 31.5 85t76.5 35zM205 167v282q0 25 -4.5 45.5t-12 32t-16.5 11.5q-14 0 -24 -26t-10 -63v-282q0 -24 4.5 -44.5t12.5 -32.5t17 -12q7 0 13 7t10.5 19t7 28.5t2.5 34.5z
M126 743q-24 0 -32 -50l-58 29q7 33 19 55t28.5 33t36.5 11q21 0 37.5 -12.5t30.5 -24.5t28 -12q32 0 35 53l56 -28q-20 -100 -86 -100q-14 0 -26.5 5t-21 11.5t-16 13.5t-15.5 11.5t-16 4.5z" />
    <glyph glyph-name="odieresis" unicode="&#xf6;" horiz-adv-x="326" 
d="M162.5 617q44.5 0 76 -35t31.5 -85v-378q0 -49 -31.5 -84t-75.5 -35q-30 0 -54.5 16t-39 43.5t-14.5 59.5v378q0 50 31.5 85t76 35zM196 167v282q0 25 -4.5 45.5t-12 32t-16.5 11.5q-14 0 -24 -26t-10 -63v-282q0 -24 4.5 -44.5t12 -32.5t17.5 -12q6 0 12.5 7t11 19
t7 28.5t2.5 34.5zM138 759q0 -21 -15 -36t-35 -15q-22 0 -37 15t-15 36t15 36t37 15q20 0 35 -15t15 -36zM238 810q21 0 36 -15t15 -36t-15 -36t-36 -15t-36 15t-15 36t15 36t36 15z" />
    <glyph glyph-name="divide" unicode="&#xf7;" horiz-adv-x="403" 
d="M366 304h-330v49h330v-49zM201 383q-25 0 -42 17.5t-17 42t17 42t42 17.5t42.5 -17.5t17.5 -42t-17.5 -42t-42.5 -17.5zM201 155q-25 0 -42 17.5t-17 42t17 42t42 17.5t42.5 -17.5t17.5 -42t-17.5 -42t-42.5 -17.5z" />
    <glyph glyph-name="oslash" unicode="&#xf8;" horiz-adv-x="516" 
d="M426 611l52 -36l-113 -165v-291q0 -49 -31.5 -84t-76.5 -35q-39 0 -69 28t-37 70l-63 -93l-52 36l114 166v290q0 50 31.5 85t75.5 35q40 0 69.5 -28t36.5 -71zM291 167v134l-67 -97v-37q0 -24 4.5 -44.5t12 -32.5t16.5 -12q6 0 11 4.5t9 12.5t7 19t5 24.5t2 28.5z
M291 413v36q0 37 -10 63t-24 26t-23.5 -26t-9.5 -63v-134z" />
    <glyph glyph-name="ugrave" unicode="&#xf9;" horiz-adv-x="320" 
d="M37 609h72v-412q0 -53 17 -90v-107q-37 14 -63 50t-26 80v431v48zM284 609v-24v-24v-431q0 -45 -26.5 -81t-64.5 -49v109q16 37 16 88v412h75zM203 697h-84l-82 65l69 59z" />
    <glyph glyph-name="uacute" unicode="&#xfa;" horiz-adv-x="320" 
d="M37 609h72v-412q0 -53 17 -90v-107q-37 14 -63 50t-26 80v431v48zM284 609v-24v-24v-431q0 -45 -26.5 -81t-64.5 -49v109q16 37 16 88v412h75zM283 762l-82 -65h-85l97 124z" />
    <glyph glyph-name="ucircumflex" unicode="&#xfb;" horiz-adv-x="329" 
d="M41 609h72v-412q0 -53 18 -90v-107q-37 14 -63.5 50t-26.5 80v431v48zM213 609h75v-24v-24v-431q0 -45 -26.5 -81t-63.5 -49v109q15 37 15 88v412zM293 700h-78l-51 62l-50 -62h-78l82 118h93z" />
    <glyph glyph-name="udieresis" unicode="&#xfc;" horiz-adv-x="326" 
d="M39 609h73v-412q0 -53 17 -90v-107q-37 14 -63.5 50t-26.5 80v431v48zM211 609h75v-48v-431q0 -45 -26.5 -81t-63.5 -49v109q15 37 15 88v412zM88 810q20 0 35 -15t15 -36t-15 -36t-35 -15q-22 0 -37 15t-15 36t15 36t37 15zM238 708q-21 0 -36 15t-15 36t15 36t36 15
t36 -15t15 -36t-15 -36t-36 -15z" />
    <glyph glyph-name="yacute" unicode="&#xfd;" horiz-adv-x="305" 
d="M166 468l29 148h56l-55 -283zM92 616l52 -263l30 -147l-2 -206h-57l-2 223l-77 393h56zM267 762l-82 -65h-85l97 124z" />
    <glyph glyph-name="thorn" unicode="&#xfe;" horiz-adv-x="416" 
d="M188 505q80 -4 135.5 -62t55.5 -138q0 -81 -56.5 -139.5t-136.5 -61.5h-72v-104h-78v609h78v-104h74zM187 182q48 4 81 39t33 84q0 48 -33.5 83.5t-81.5 38.5h-72v-245h73z" />
    <glyph glyph-name="ydieresis" unicode="&#xff;" horiz-adv-x="327" 
d="M185 468l29 148h56l-55 -283zM111 616l52 -263l30 -147l-2 -206h-57l-2 223l-77 393h56zM138 759q0 -21 -15 -36t-35 -15q-22 0 -37 15t-15 36q0 14 7 25.5t19 18.5t26 7q13 0 25 -7t18.5 -18.5t6.5 -25.5zM238 810q21 0 36 -15t15 -36t-15 -36t-36 -15t-36 15t-15 36
t15 36t36 15z" />
    <glyph glyph-name="Amacron" unicode="&#x100;" 
d="M271 700l124 -700h-102l-23 152l-55 358l-55 -358l-24 -152h-100l123 700h112zM334 804h-237v78h237v-78z" />
    <glyph glyph-name="amacron" unicode="&#x101;" horiz-adv-x="359" 
d="M223 617l98 -617h-80l-19 134l-43 315l-44 -315l-19 -134h-80l98 617h89zM294 720h-237v78h237v-78z" />
    <glyph glyph-name="Abreve" unicode="&#x102;" 
d="M271 700l124 -700h-102l-23 152l-55 358l-55 -358l-24 -152h-100l123 700h112zM221 767q-59 0 -98 38t-39 94v19h73v-19q0 -24 17 -41t41 -17t41 17t17 41v19h74v-19q0 -35 -17 -65.5t-46 -48.5t-63 -18z" />
    <glyph glyph-name="abreve" unicode="&#x103;" horiz-adv-x="359" 
d="M223 617l98 -617h-80l-19 134l-43 315l-44 -315l-19 -134h-80l98 617h89zM181 684q-59 0 -98 37.5t-39 94.5v18h74v-18q0 -24 17 -41.5t40 -17.5q24 0 41 17.5t17 41.5v18h74v-18q0 -55 -37 -93.5t-89 -38.5z" />
    <glyph glyph-name="Aogonek" unicode="&#x104;" horiz-adv-x="470" 
d="M293 0l-23 152l-55 358l-55 -358l-24 -152h-100l123 700h112l124 -700h-102zM382 -86l51 -58q-46 -54 -91 -54q-40 0 -71.5 29.5t-31.5 73.5q0 60 54 95h90q-77 -9 -77 -75q0 -17 8.5 -26t22.5 -9q25 0 45 24z" />
    <glyph glyph-name="aogonek" unicode="&#x105;" horiz-adv-x="418" 
d="M241 0l-19 134l-43 315l-44 -315l-19 -134h-80l98 617h89l98 -617h-80zM329 -86l52 -58q-46 -54 -91 -54q-26 0 -50 13t-38.5 37t-14.5 53q0 60 54 95h78q-23 -3 -37.5 -10t-20 -19t-7 -21t-1.5 -25q0 -17 9 -26t23 -9q24 0 44 24z" />
    <glyph glyph-name="Cacute" unicode="&#x106;" horiz-adv-x="346" 
d="M309 499h-87v27q0 44 -15 74.5t-36 30.5t-35.5 -30.5t-14.5 -74.5v-327q0 -43 14.5 -73.5t35.5 -30.5t36 30.5t15 73.5v12h87v-74q0 -57 -40 -97t-96.5 -40t-96.5 40t-40 97v426q0 57 40 97t96.5 40t96.5 -40t40 -97v-64zM296 845l-83 -65h-84l97 125z" />
    <glyph glyph-name="cacute" unicode="&#x107;" horiz-adv-x="305" 
d="M145 617q29 0 54 -16.5t39.5 -44t14.5 -60.5v-57h-69v24q0 39 -12 66t-28.5 27t-28.5 -27t-12 -66v-288q0 -38 12 -65t28.5 -27t28.5 27t12 65v11h69v-66q0 -50 -31.5 -85t-76.5 -35t-77 35t-32 85v376q0 50 32 85.5t77 35.5zM268 762l-82 -65h-85l97 124z" />
    <glyph glyph-name="Ccaron" unicode="&#x10c;" horiz-adv-x="346" 
d="M309 499h-87v27q0 44 -15 74.5t-36 30.5t-35.5 -30.5t-14.5 -74.5v-327q0 -43 14.5 -73.5t35.5 -30.5t36 30.5t15 73.5v12h87v-74q0 -57 -40 -97t-96.5 -40t-96.5 40t-40 97v426q0 57 40 97t96.5 40t96.5 -40t40 -97v-64zM219 780h-93l-82 125h78l51 -69l50 69h78z" />
    <glyph glyph-name="ccaron" unicode="&#x10d;" horiz-adv-x="330" 
d="M164 617q22 0 42.5 -10t35 -26t23 -38t8.5 -47v-57h-70v24q0 39 -11.5 66t-28 27t-28.5 -27t-12 -66v-288q0 -38 12 -65t28.5 -27t28 27t11.5 65v11h70v-66q0 -50 -32 -85t-77 -35t-76.5 35t-31.5 85v376q0 50 31.5 85.5t76.5 35.5zM211 697h-93l-82 124h78l50 -68l51 68
h78z" />
    <glyph glyph-name="Dcaron" unicode="&#x10e;" horiz-adv-x="386" 
d="M301 652q48 -48 48 -116v-372q0 -68 -48 -116t-116 -48h-60h-89v700h89v-625q11 -3 60 -3q38 0 64.5 38.5t26.5 92.5v297q0 55 -27 93q-18 26 -43 35l1 71q55 -8 94 -47zM219 780h-93l-82 125h78l51 -69l50 69h78z" />
    <glyph glyph-name="dcaron" unicode="&#x10f;" horiz-adv-x="471" 
d="M172 615q44 -6 75 -41q38 -42 38 -102v-327q0 -60 -38 -102.5t-92 -42.5h-48h-71v617h71v-551q8 -3 48 -3q29 0 50.5 34t21.5 82v262q0 48 -22 82q-14 22 -33 30v62zM339 617h95l-62 -183h-51z" />
    <glyph glyph-name="dmacron" unicode="&#x111;" horiz-adv-x="322" 
d="M247 574q38 -42 38 -102v-327q0 -60 -38 -102.5t-92 -42.5h-48h-71v617h71v-551q8 -3 48 -3q29 0 50.5 34t21.5 82v262q0 48 -22 82q-14 22 -33 30v62q44 -6 75 -41zM279 720h-237v78h237v-78z" />
    <glyph glyph-name="Emacron" unicode="&#x112;" horiz-adv-x="346" 
d="M125 309v-227h184v-82h-273v545h89v-154h96l30 -82h-126zM36 700h273v-82h-273v82zM291 804h-237v78h237v-78z" />
    <glyph glyph-name="emacron" unicode="&#x113;" horiz-adv-x="310" 
d="M117 272v-200h146v-72h-217v484h71v-140h76l24 -72h-100zM46 617h217v-73h-217v73zM273 720h-237v78h237v-78z" />
    <glyph glyph-name="Edot" unicode="&#x116;" horiz-adv-x="347" 
d="M125 309v-227h184v-82h-273v545h89v-154h96l30 -82h-126zM36 700h273v-82h-273v82zM173 792q-21 0 -36.5 15t-15.5 36t15.5 36t36.5 15q14 0 25.5 -7t18.5 -18.5t7 -25.5t-7 -26t-18.5 -18.5t-25.5 -6.5z" />
    <glyph glyph-name="edot" unicode="&#x117;" horiz-adv-x="290" 
d="M107 272v-200h146v-72h-217v484h71v-140h76l24 -72h-100zM36 617h217v-73h-217v73zM145 708q-21 0 -36 15t-15 36t15 36t36 15t36 -15t15 -36q0 -14 -7 -25.5t-18.5 -18.5t-25.5 -7z" />
    <glyph glyph-name="Eogonek" unicode="&#x118;" horiz-adv-x="397" 
d="M309 82v-82h-273v545h89v-154h96l30 -82h-126v-227h184zM309 618h-273v82h273v-82zM309 -86l51 -58q-45 -54 -91 -54q-26 0 -49.5 13t-38.5 37t-15 53q0 60 55 95h89q-77 -9 -77 -75q0 -17 8.5 -26t22.5 -9q25 0 45 24z" />
    <glyph glyph-name="eogonek" unicode="&#x119;" horiz-adv-x="342" 
d="M253 544h-217v73h217v-73zM253 -86l51 -58q-45 -54 -91 -54q-40 0 -71.5 29.5t-31.5 73.5q0 60 55 95h-129v484h71v-140h76l24 -72h-100v-200h146v-72h1q-77 -9 -77 -75q0 -17 8.5 -26t22.5 -9q25 0 45 24z" />
    <glyph glyph-name="Ecaron" unicode="&#x11a;" horiz-adv-x="346" 
d="M125 309v-227h184v-82h-273v545h89v-154h96l30 -82h-126zM36 700h273v-82h-273v82zM219 780h-93l-82 125h78l51 -69l50 69h78z" />
    <glyph glyph-name="ecaron" unicode="&#x11b;" horiz-adv-x="331" 
d="M127 272v-200h146v-72h-217v484h71v-140h76l23 -72h-99zM56 617h217v-73h-217v73zM211 697h-93l-82 124h78l50 -68l51 68h78z" />
    <glyph glyph-name="Gbreve" unicode="&#x11e;" horiz-adv-x="392" 
d="M114 183q0 -44 15 -75.5t36 -31.5h1h1v-76q-55 2 -93 41.5t-38 94.5v428q0 56 40 96t96 40t96 -40t40 -96v-43h-93q0 44 -14.5 75.5t-35.5 31.5t-36 -31.5t-15 -75.5v-338zM308 368h48v-77h-48v-155q0 -1 -1 -8h-99q7 26 7 55v108h-56v77h149zM182 767q-60 0 -99 38
t-39 94v19h74v-19q0 -24 17 -41t41 -17t41 17t17 41v19h74v-19q0 -54 -37.5 -93t-88.5 -39z" />
    <glyph glyph-name="gbreve" unicode="&#x11f;" horiz-adv-x="353" 
d="M122 161q0 -39 12 -67t29 -28l1 1h1v-67q-44 1 -74.5 36t-30.5 83v378q0 32 14.5 59.5t39.5 43.5t54 16q45 0 76.5 -35t31.5 -84v-38h-73q0 25 -5.5 47t-14.5 34.5t-20 12.5q-17 0 -29 -27.5t-12 -66.5v-298zM158 323h157v-67h-39v-137v-6h-79q6 22 6 48v95h-45v67z
M173 684q-59 0 -98 37.5t-39 94.5v18h74v-18q0 -24 17 -41.5t40 -17.5q24 0 41.5 17.5t17.5 41.5v18h73v-18q0 -55 -37 -93.5t-89 -38.5z" />
    <glyph glyph-name="Imacron" unicode="&#x12a;" horiz-adv-x="310" 
d="M199 0h-89v700h89v-700zM273 804h-237v78h237v-78z" />
    <glyph glyph-name="imacron" unicode="&#x12b;" horiz-adv-x="311" 
d="M190 0h-71v617h71v-617zM273 720h-237v78h237v-78z" />
    <glyph glyph-name="Idot" unicode="&#x130;" horiz-adv-x="175" 
d="M132 0h-90v700h90v-700zM88 792q-22 0 -37 15t-15 36t15 36t37 15q13 0 25 -7t18.5 -18.5t6.5 -25.5q0 -21 -15 -36t-35 -15z" />
    <glyph glyph-name="dotlessi" unicode="&#x131;" horiz-adv-x="144" 
d="M107 0h-71v617h71v-617z" />
    <glyph glyph-name="Lslash" unicode="&#x141;" horiz-adv-x="372" 
d="M82 154v92l-46 -36v73l46 37v380h89v-309l124 99v-73l-124 -100v-163h-89zM82 86h253v-86h-253v86z" />
    <glyph glyph-name="lslash" unicode="&#x142;" horiz-adv-x="314" 
d="M75 136v72l-39 -30v73l39 30v336h71v-280l129 102v-74l-129 -101v-128h-71zM75 76h201v-76h-201v76z" />
    <glyph glyph-name="Nacute" unicode="&#x143;" horiz-adv-x="408" 
d="M36 700h89l93 -271v-250l-93 265v-444h-89v700zM281 700h89v-700h-89v700zM257 905l69 -60l-82 -65h-84z" />
    <glyph glyph-name="nacute" unicode="&#x144;" horiz-adv-x="339" 
d="M36 617h71l74 -239v-220l-74 233v-391h-71v617zM231 617h71v-617h-71v617zM223 821l69 -59l-82 -65h-84z" />
    <glyph glyph-name="Ncaron" unicode="&#x147;" horiz-adv-x="408" 
d="M36 700h89l93 -271v-250l-93 265v-444h-89v700zM281 700h89v-700h-89v700zM254 905h78l-83 -125h-92l-82 125h77l51 -69z" />
    <glyph glyph-name="ncaron" unicode="&#x148;" horiz-adv-x="339" 
d="M36 617h71l74 -239v-220l-74 233v-391h-71v617zM231 617h71v-617h-71v617zM220 821h77l-82 -124h-92l-82 124h77l51 -68z" />
    <glyph glyph-name="Omacron" unicode="&#x14c;" horiz-adv-x="343" 
d="M171 700q56 0 96 -39.5t40 -95.5v-430q0 -56 -40 -95.5t-96 -39.5t-95.5 39.5t-39.5 95.5v430q0 56 39.5 95.5t95.5 39.5zM213 190v320q0 42 -12 71.5t-30 29.5q-8 0 -16 -8t-13.5 -21.5t-9 -32t-3.5 -39.5v-320q0 -42 12.5 -71.5t29.5 -29.5q12 0 21.5 13.5t15 36.5
t5.5 51zM290 804h-237v78h237v-78z" />
    <glyph glyph-name="Ohungarumlaut" unicode="&#x150;" horiz-adv-x="404" 
d="M171 700q56 0 96 -39.5t40 -95.5v-430q0 -56 -40 -95.5t-96 -39.5t-95.5 39.5t-39.5 95.5v430q0 56 39.5 95.5t95.5 39.5zM213 190v320q0 42 -12 71.5t-29.5 29.5t-30 -29.5t-12.5 -71.5v-320q0 -42 12.5 -71.5t30 -29.5t29.5 29.5t12 71.5zM285 780h-84l97 125l69 -60z
M221 845l-82 -65h-84l97 125z" />
    <glyph glyph-name="ohungarumlaut" unicode="&#x151;" horiz-adv-x="387" 
d="M152.5 617q44.5 0 76 -35t31.5 -85v-378q0 -49 -31.5 -84t-76 -35t-76 35t-31.5 84v378q0 50 31.5 85t76 35zM186 167v282q0 25 -4.5 45.5t-12 32t-16.5 11.5q-14 0 -24 -26t-10 -63v-282q0 -24 4.5 -44.5t12 -32.5t17.5 -12q6 0 12.5 7t11 19t7 28.5t2.5 34.5zM279 821
l70 -59l-82 -65h-85zM202 762l-82 -65h-84l97 124z" />
    <glyph glyph-name="OE" unicode="&#x152;" horiz-adv-x="527" 
d="M490 618h-184v-42q1 -6 1 -11v-174h94l30 -82h-124v-174q0 -4 -1 -11v-42h184v-82h-313h-3h-3q-56 0 -95.5 39.5t-39.5 95.5v430q0 56 39.5 95.5t95.5 39.5h3h3h313v-82zM213 190v320q0 42 -12 71.5t-30 29.5q-8 0 -16 -8t-13.5 -21.5t-9 -32t-3.5 -39.5v-320
q0 -42 12.5 -71.5t29.5 -29.5q12 0 21.5 13.5t15 36.5t5.5 51z" />
    <glyph glyph-name="oe" unicode="&#x153;" horiz-adv-x="432" 
d="M251 544v-199h73l24 -73h-97v-199h144v-73h-205h-46q-45 0 -76.5 35t-31.5 84v378q0 48 29.5 82t71.5 37v1h258v-73h-144zM177 167v282q0 37 -9.5 63t-23.5 26t-24 -26t-10 -63v-282q0 -24 4.5 -44.5t12.5 -32.5t17 -12q6 0 12.5 7t11 19t7 28.5t2.5 34.5z" />
    <glyph glyph-name="Racute" unicode="&#x154;" horiz-adv-x="399" 
d="M249 309l112 -309h-89l-108 299q-5 1 -17.5 1.5t-21.5 1.5v-302h-89v700h89v-279q9 -19 23.5 -31t32.5 -12q26 0 44.5 24.5t18.5 58.5v69q0 19 -6 35t-16 28t-23 17v89q54 -7 90 -48t36 -96v-119q0 -41 -20.5 -75t-55.5 -52zM262 845l-82 -65h-84l97 125z" />
    <glyph glyph-name="racute" unicode="&#x155;" horiz-adv-x="332" 
d="M205 272l90 -272h-71l-86 263q-4 1 -14 1.5t-17 1.5v-266h-71v617h71v-246q15 -38 44 -38q21 0 36 21.5t15 51.5v61q0 24 -10.5 43.5t-26.5 26.5v78q43 -5 72 -41t29 -85v-105q0 -36 -16.5 -66t-44.5 -46zM268 762l-82 -65h-84l97 124z" />
    <glyph glyph-name="Rcaron" unicode="&#x158;" horiz-adv-x="405" 
d="M254 309l113 -309h-90l-108 299q-4 1 -17 1.5t-21 1.5v-302h-89v700h89v-279q8 -19 23 -31t32 -12q27 0 45.5 24.5t18.5 58.5v69q0 19 -6 35t-16.5 28t-23.5 17v89q54 -7 90.5 -48t36.5 -96v-119q0 -41 -21 -75t-56 -52zM211 780h-93l-82 125h78l50 -69l51 69h78z" />
    <glyph glyph-name="rcaron" unicode="&#x159;" horiz-adv-x="351" 
d="M224 272l90 -272h-71l-87 263q-3 1 -13 1.5t-17 1.5v-266h-71v617h71v-246q14 -38 44 -38q21 0 35.5 21.5t14.5 51.5v61q0 24 -10 43.5t-26 26.5v78q43 -5 72 -41t29 -85v-105q0 -36 -16.5 -66t-44.5 -46zM211 697h-93l-82 124h78l50 -68l51 68h78z" />
    <glyph glyph-name="Sacute" unicode="&#x15a;" horiz-adv-x="380" 
d="M154 307q-70 4 -90 34q-28 41 -28 95v112q0 34 6 59.5t21.5 47.5t46 33.5t74.5 11.5q38 0 65 -7.5t42 -18.5t24 -31t12 -37t5 -45q1 -6 1 -13v-52h-97v24q0 23 -9 41q-16 33 -46 33q-22 0 -38 -21.5t-16 -52.5v-54q0 -38 23 -59l4 -4v-96zM315 360q29 -42 29 -95v-113
q0 -34 -6 -59.5t-21.5 -47.5t-46 -33.5t-75.5 -11.5q-82 0 -115 41t-33 111v61h96v-30q0 -31 16 -52t39 -21t39 21t16 52v54q0 36 -21 58q-3 2 -7 5v96h2q2 0 3 -1q22 -2 33 -4.5t27.5 -10.5t24.5 -20zM293 845l-82 -65h-85l97 125z" />
    <glyph glyph-name="sacute" unicode="&#x15b;" horiz-adv-x="319" 
d="M130 270q-55 3 -71 30q-23 36 -23 83v99q0 64 25 99t93 35q37 0 61 -8.5t35.5 -27.5t15.5 -37.5t6 -48.5v-12v-45h-77v21q0 20 -7 36q-13 29 -36 29q-12 0 -22 -9t-16 -23.5t-6 -32.5v-48q0 -33 19 -52q0 -1 3 -3v-85zM190 348q17 -3 26 -4.5t22 -9t20 -18.5
q23 -36 23 -83v-99q0 -64 -25 -99t-93 -35q-118 0 -118 134v53h76v-27q0 -13 3.5 -24.5t9.5 -20.5t14 -14t17 -5q18 0 30.5 19t12.5 45v48q0 32 -16 51l-5 5v84h1h2zM281 762l-82 -65h-84l97 124z" />
    <glyph glyph-name="Scedilla" unicode="&#x15e;" horiz-adv-x="380" 
d="M154 307q-70 4 -90 34q-28 41 -28 95v112q0 34 6 59.5t21.5 47.5t46 33.5t74.5 11.5q38 0 65 -7.5t42 -18.5t24 -31t12 -37t5 -45q1 -6 1 -13v-52h-97v24q0 23 -9 41q-16 33 -46 33q-22 0 -38 -21.5t-16 -52.5v-54q0 -38 23 -59l4 -4v-96zM315 360q29 -42 29 -95v-113
q0 -32 -5.5 -56t-19 -45.5t-39.5 -34t-65 -15.5l-17 -19q36 -5 57.5 -29.5t21.5 -60.5q0 -38 -25 -64t-68 -26q-51 0 -81 34l35 48q18 -27 46 -27q14 0 24.5 9.5t10.5 25.5q0 18 -11 27.5t-25 9.5q-20 0 -30 -13l-38 37l37 51q-105 19 -105 148v61h96v-30q0 -31 16 -52
t39 -21t39 21t16 52v54q0 36 -21 58q-3 2 -7 5v96h2q2 0 3 -1q22 -2 33 -4.5t27.5 -10.5t24.5 -20z" />
    <glyph glyph-name="scedilla" unicode="&#x15f;" horiz-adv-x="319" 
d="M130 270q-55 3 -71 30q-23 36 -23 83v99q0 64 25 99t93 35q37 0 61 -8.5t35.5 -27.5t15.5 -37.5t6 -48.5v-12v-45h-77v21q0 20 -7 36q-13 29 -36 29q-9 0 -17 -5.5t-14 -14t-9.5 -20.5t-3.5 -25v-48q0 -33 19 -52q0 -1 3 -3v-85zM258 316q23 -36 23 -83v-100
q0 -58 -20.5 -92t-76.5 -40l-17 -19q35 -5 57 -29.5t22 -60.5q0 -39 -25.5 -64.5t-67.5 -25.5q-51 0 -82 34l36 48q18 -27 45 -27q15 0 25 9.5t10 25.5q0 18 -10.5 27.5t-25.5 9.5q-20 0 -30 -13l-37 37l38 52q-77 20 -77 129v53h76v-27q0 -13 3.5 -24.5t9.5 -20.5t14 -14
t17 -5q18 0 30.5 19t12.5 45v48q0 32 -16 51l-5 5v84h1.5h1.5q17 -3 26 -4.5t22 -9t20 -18.5z" />
    <glyph glyph-name="Scaron" unicode="&#x160;" horiz-adv-x="380" 
d="M154 307q-70 4 -90 34q-28 41 -28 95v112q0 34 6 59.5t21.5 47.5t46 33.5t74.5 11.5q38 0 65 -7.5t42 -18.5t24 -31t12 -37t5 -45q1 -6 1 -13v-52h-97v24q0 23 -9 41q-16 33 -46 33q-22 0 -38 -21.5t-16 -52.5v-54q0 -38 23 -59l4 -4v-96zM315 360q29 -42 29 -95v-113
q0 -34 -6 -59.5t-21.5 -47.5t-46 -33.5t-75.5 -11.5q-82 0 -115 41t-33 111v61h96v-30q0 -31 16 -52t39 -21t39 21t16 52v54q0 36 -21 58q-3 2 -7 5v96h2q2 0 3 -1q22 -2 33 -4.5t27.5 -10.5t24.5 -20zM236 780h-93l-82 125h78l51 -69l50 69h78z" />
    <glyph glyph-name="scaron" unicode="&#x161;" horiz-adv-x="331" 
d="M136 270q-55 3 -71 30q-23 36 -23 83v99q0 64 25 99t93 35q37 0 61 -8.5t35.5 -27.5t15.5 -37.5t6 -48.5v-12v-45h-77v21q0 20 -7 36q-13 29 -36 29q-9 0 -17 -5.5t-14 -14t-9.5 -20.5t-3.5 -25v-48q0 -33 19 -52q0 -1 3 -3v-85zM196 348q18 -3 26.5 -4.5t21.5 -9
t20 -18.5q23 -36 23 -83v-99q0 -64 -25 -99t-93 -35q-118 0 -118 134v53h76v-27q0 -17 6 -32t16 -23.5t22 -8.5q18 0 30.5 19t12.5 45v48q0 32 -16 51l-5 5v84h1.5h1.5zM211 697h-93l-82 124h78l50 -68l51 68h78z" />
    <glyph glyph-name="Umacron" unicode="&#x16a;" horiz-adv-x="385" 
d="M128 699v-467q0 -60 22 -103v-121q-47 15 -80 56t-33 91v490v54h91zM347 699v-26.5v-27.5v-490q0 -34 -16 -64.5t-41.5 -52t-55.5 -31.5v125q19 41 19 100v467h94zM310 804h-237v78h237v-78z" />
    <glyph glyph-name="umacron" unicode="&#x16b;" horiz-adv-x="320" 
d="M37 609h72v-412q0 -53 17 -90v-107q-37 14 -63 50t-26 80v431v48zM284 609v-24v-24v-431q0 -45 -26.5 -81t-64.5 -49v109q16 37 16 88v412h75zM278 720h-237v78h237v-78z" />
    <glyph glyph-name="Uring" unicode="&#x16e;" horiz-adv-x="384" 
d="M37 699h91v-467q0 -60 22 -103v-121q-47 15 -80 56t-33 91v490v54zM347 699v-54v-490q0 -50 -33 -91t-80 -57v125q19 41 19 100v467h94zM310 843q0 -50 -34.5 -84t-83.5 -34q-32 0 -59 15t-43 42.5t-16 60.5q0 48 34 83t84 35q23 0 45 -9t38 -25t25.5 -38t9.5 -46z
M192 787q23 0 39.5 16t16.5 40q0 23 -16.5 39.5t-39.5 16.5q-24 0 -40 -16t-16 -40q0 -15 7 -28t20 -20.5t29 -7.5z" />
    <glyph glyph-name="uring" unicode="&#x16f;" horiz-adv-x="320" 
d="M37 609h72v-412q0 -53 17 -90v-107q-37 14 -63 50t-26 80v431v48zM284 609v-24v-24v-431q0 -45 -26.5 -81t-64.5 -49v109q16 37 16 88v412h75zM278 759q0 -49 -34.5 -83.5t-83.5 -34.5t-83.5 34t-34.5 84q0 49 34 83.5t84 34.5q24 0 45.5 -9t37.5 -24.5t25.5 -37.5
t9.5 -47zM160 703q23 0 39.5 16t16.5 40q0 23 -16 39.5t-40 16.5q-23 0 -39.5 -16t-16.5 -40q0 -23 16 -39.5t40 -16.5z" />
    <glyph glyph-name="Uhungarumlaut" unicode="&#x170;" horiz-adv-x="425" 
d="M37 699h91v-467q0 -60 22 -103v-121q-47 15 -80 56t-33 91v490v54zM253 699h94v-54v-490q0 -34 -16 -64.5t-41.5 -52t-55.5 -31.5v125q19 41 19 100v467zM388 845l-82 -65h-85l97 125zM172 905l69 -60l-82 -65h-84z" />
    <glyph glyph-name="uhungarumlaut" unicode="&#x171;" horiz-adv-x="386" 
d="M49 609h72v-412q0 -53 18 -90v-107q-37 14 -63.5 50t-26.5 80v431v48zM221 609h75v-48v-431q0 -45 -26.5 -81t-63.5 -49v109q15 37 15 88v412zM349 762l-82 -65h-85l97 124zM202 762l-82 -65h-84l97 124z" />
    <glyph glyph-name="Uogonek" unicode="&#x172;" horiz-adv-x="385" 
d="M37 699h91v-467q0 -60 22 -103v-121q-47 15 -80 56t-33 91v490v54zM296 -86l51 -58q-45 -54 -91 -54q-26 0 -49.5 13t-38.5 37t-15 53q0 57 50 92l31 18v117q19 41 19 100v467h94v-54v-490q0 -48 -32 -89h1l-28 -44l-14 -22q-24 -13 -39 -34.5t-15 -40.5q0 -17 8.5 -26
t22.5 -9q25 0 45 24z" />
    <glyph glyph-name="uogonek" unicode="&#x173;" horiz-adv-x="333" 
d="M245 -86l51 -58q-45 -54 -91 -54q-40 0 -71.5 29.5t-31.5 73.5q0 57 50 92q1 0 14.5 8l13.5 8q6 4 13 10v86q16 37 16 88v412h75v-48v-411v-17v-51h-1q-17 -37 -64 -88q-3 -4 -8.5 -10t-8.5 -9.5t-7.5 -8.5t-7.5 -8.5t-6 -7.5t-5 -7t-4 -6.5t-2.5 -6t-0.5 -5.5
q0 -17 8.5 -26t22.5 -9q25 0 45 24zM126 107v-107q-37 14 -63 50t-26 80v431v48h72v-412q0 -53 17 -90z" />
    <glyph glyph-name="Ydieresis" unicode="&#x178;" horiz-adv-x="343" 
d="M236 700h71l-70 -321l-37 153zM106 700l65 -299l38 -167l-2 -234h-71l-3 254l-97 446h70zM96 792q-21 0 -36 15t-15 36q0 14 7 25.5t18.5 18.5t25.5 7t25.5 -7t18.5 -18.5t7 -25.5q0 -21 -15 -36t-36 -15zM247 792q-21 0 -36 15t-15 36t15 36t36 15t36 -15t15 -36
t-15 -36t-36 -15z" />
    <glyph glyph-name="Zacute" unicode="&#x179;" horiz-adv-x="409" 
d="M87 700h285l-25 -70h-260v70zM182 179l-39 -109h191v-70h-298l65 179h-55v56h76l118 326h82l-119 -326h46v-56h-67zM327 845l-82 -65h-84l97 125z" />
    <glyph glyph-name="zacute" unicode="&#x17a;" horiz-adv-x="340" 
d="M77 617h226l-20 -62h-206v62zM152 157l-31 -95h152v-62h-237l52 157h-44v50h60l95 287h64l-94 -287h36v-50h-53zM293 762l-82 -65h-85l97 124z" />
    <glyph glyph-name="Zdot" unicode="&#x17b;" horiz-adv-x="409" 
d="M87 700h285l-25 -70h-260v70zM182 179l-39 -109h191v-70h-298l65 179h-55v56h76l118 326h82l-119 -326h46v-56h-67zM244 792q-21 0 -36 15t-15 36t15 36t36 15q14 0 25.5 -7t18.5 -18.5t7 -25.5q0 -21 -15 -36t-36 -15z" />
    <glyph glyph-name="zdot" unicode="&#x17c;" horiz-adv-x="340" 
d="M77 617h226l-20 -62h-206v62zM152 157l-31 -95h152v-62h-237l52 157h-44v50h60l95 287h64l-94 -287h36v-50h-53zM210 708q-21 0 -36.5 15t-15.5 36t15.5 36t36.5 15t36 -15t15 -36t-15 -36t-36 -15z" />
    <glyph glyph-name="zcaron" unicode="&#x17e;" horiz-adv-x="375" 
d="M77 617h226l-20 -62h-206v62zM152 157l-31 -95h152v-62h-237l52 157h-44v50h60l95 287h64l-94 -287h36v-50h-53zM256 697h-93l-82 124h78l50 -68l51 68h78z" />
    <glyph glyph-name="Euro" unicode="&#x20ac;" horiz-adv-x="506" 
d="M314 602q-27 0 -46.5 -32.5t-19.5 -79.5v-60h110v-43h-110v-36h110v-43h-110v-97q0 -46 19.5 -78.5t46.5 -32.5q23 0 40.5 23t23.5 59h90v-22q0 -63 -45 -108.5t-109 -45.5t-109 45.5t-45 108.5v148h-124v43h124v36h-124v43h124v115q0 64 45 109t109 45t109 -45t45 -109
v-31h-89q-5 38 -23 63t-42 25z" />
    <glyph glyph-name="notequal" unicode="&#x2260;" horiz-adv-x="395" 
d="M358 362h-119l-28 -35h147v-43h-182l-63 -78l-34 27l42 51h-85v43h119l29 35h-148v43h182l64 79l33 -27l-41 -52h84v-43z" />
    <glyph glyph-name="lessequal" unicode="&#x2264;" horiz-adv-x="557" 
d="M519 666l-367 -508h343v-60h-459l435 603zM495 5h-455v60h455v-60z" />
    <glyph glyph-name="greaterequal" unicode="&#x2265;" horiz-adv-x="557" 
d="M60 158h343l-367 508l48 35l435 -603h-459v60zM516 5h-456v60h456v-60z" />
    </font>
</defs>
</svg>
