<?xml version="1.0" standalone="no"?>
<!DOCTYPE svg PUBLIC "-//W3C//DTD SVG 1.1//EN" "http://www.w3.org/Graphics/SVG/1.1/DTD/svg11.dtd" >
<svg xmlns="http://www.w3.org/2000/svg" xmlns:xlink="http://www.w3.org/1999/xlink" version="1.1">
<metadata>
Created by FontForge 20170731 at Fri Jun 28 13:03:48 2019
 By Aleksey,,,
(c) Edri Studio
</metadata>
<defs>
<font id="ONNICTexture" horiz-adv-x="344" >
  <font-face 
    font-family="ONNIC Texture"
    font-weight="400"
    font-stretch="normal"
    units-per-em="1000"
    panose-1="0 0 0 0 0 0 0 0 0 0"
    ascent="800"
    descent="-200"
    x-height="609"
    cap-height="696"
    bbox="13 -202 732 958"
    underline-thickness="50"
    underline-position="-200"
    unicode-range="U+000A-2265"
  />
<missing-glyph horiz-adv-x="527" 
d="M50 700h427v-700h-427v700zM78 680l185 -309l186 309h-371zM251 350l-180 300v-601zM264 329l-185 -308h370zM276 350l181 -303v605z" />
    <glyph glyph-name=".notdef" horiz-adv-x="527" 
d="M50 700h427v-700h-427v700zM78 680l185 -309l186 309h-371zM251 350l-180 300v-601zM264 329l-185 -308h370zM276 350l181 -303v605z" />
    <glyph glyph-name=".null" horiz-adv-x="0" 
 />
    <glyph glyph-name=".null" horiz-adv-x="0" 
 />
    <glyph glyph-name="nonmarkingreturn" horiz-adv-x="333" 
 />
    <glyph glyph-name="controlLF" unicode="&#xa;" horiz-adv-x="0" 
 />
    <glyph glyph-name="controlCR" unicode="&#xd;" horiz-adv-x="0" 
 />
    <glyph glyph-name="space" unicode=" " horiz-adv-x="205" 
 />
    <glyph glyph-name="exclam" unicode="!" horiz-adv-x="151" 
d="M36 -4v76h78v-76h-78zM107 32zM65 66zM53 32zM114 567q-4 1 -4 -3q2 -3 4 -4v-419h-2q-4 -6 2 -8v-24h-78v66v0v8q1 1 2 3q3 5 -2 5v137q2 -1 6 1q4 1 1 4l-3 1q-3 -2 -4 -4v27q7 8 0 15v72q2 -1 4 -1q2 11 -4 15v97q1 2 0 3v133h78v-124zM74 677v-8h8v8h-8zM78 397l3 -3
h1q-2 2 -6 4h1zM82 330zM49 631v-8h8v8h-8zM36 665q1 -3 0.5 -6.5t0.5 -6.5t3 -4q5 4 4 10t-8 7zM40 485zM40 317zM40 388q0 -9 9 -12v2q-1 4 -1 6t-2 3.5t-6 0.5zM49 460zM53 434zM61 581zM57 610q5 1 7.5 -6.5t9.5 -5.5q2 9 -8 15q-6 4 -9 -3zM70 166zM74 271
q-1 -3 0 -5.5t3 -3.5t3.5 -1.5t5.5 -1t5 -1.5q0 8 -4 11t-13 2zM78 552q16 -10 13 4h-5t-6 -1t-2 -3zM107 254zM107 623z" />
    <glyph glyph-name="quotedbl" unicode="&#x22;" horiz-adv-x="131" 
d="M43 636v40h20v-34q-1 2 -4 2q-2 -6 0 -8q2 0 4 3v-16h-27zM54 648q9 5 2 9q-7 6 -10 -1v-8h8zM75 676h20v-53h-27l7 13v27q3 -3 3 -2.5t-3 4.5v0v11z" />
    <glyph glyph-name="quotedbl" unicode="&#x201d;" horiz-adv-x="131" 
d="M43 636v40h20v-34q-1 2 -4 2q-2 -6 0 -8q2 0 4 3v-16h-27zM54 648q9 5 2 9q-7 6 -10 -1v-8h8zM75 676h20v-53h-27l7 13v27q3 -3 3 -2.5t-3 4.5v0v11z" />
    <glyph glyph-name="quotedbl" unicode="&#x201c;" horiz-adv-x="131" 
d="M43 636v40h20v-34q-1 2 -4 2q-2 -6 0 -8q2 0 4 3v-16h-27zM54 648q9 5 2 9q-7 6 -10 -1v-8h8zM75 676h20v-53h-27l7 13v27q3 -3 3 -2.5t-3 4.5v0v11z" />
    <glyph glyph-name="numbersign" unicode="#" horiz-adv-x="420" 
d="M347 604h36v-59h-36v-29v-1v-53q-2 1 -5 2q-4 -5 -2.5 -11.5t6.5 -9.5q0 4 1 8v-149q-6 0 -6 -9q3 -5 5 -5l1 1v-102q-9 0 -11 -4t2 -13q6 0 9 4v-34h36v-60h-20q1 4 -2 4q-4 -1 -6 -4h-8v-73q-3 -2 -5 -4v-4.5v-2.5h-34q-1 4 -3 7q2 0 2 2l-2 2q-1 -1 -8.5 -2t-8.5 -9
h-1v84h-20q-1 14 -4 15q-9 -8 -1 -15h-13q-2 2 -3 2v-0.5v-1.5h-91v-84h-11q2 1 2 4t-5 3q-1 -5 0 -7h-46v84h-50v2q-6 4 -8 -2h-1v60h59v142q7 4 8 10q-3 0 -8 -2v98q7 -5 13 -0.5t8 13.5q-4 -1 -7.5 -3t-7 -5t-6.5 -4v12v42q5 -2 13 -4q-2 9 -13 13v53h1l1 -1l-1 1h-1v40
h-59v59h59v92h33q0 -5 2 -5q2 1 3 5h22v-92h132v9q1 -5 5 0q3 4 -2 5q-1 1 -2 1q-1 -2 -1 -4v37q1 -4 4 -1q6 6 -3 10q0 -1 -1 -4v39h18v-0.5v-1.5q2 2 5 0.5t5 -3.5t3.5 -1.5t2.5 4.5l-2 2h23q2 -18 0 -31q3 0 5 1v-62zM99 552q0 2 2.5 5.5t1.5 6.5q-7 5 -9 -5q1 -7 5 -7z
M103 665zM108 548zM45 95q6 4 11.5 2.5t9 0t4.5 10.5q-8 2 -13.5 -3t-7.5 -6q-1 3 1.5 8t3.5 7.5t-5 5.5q-3 -3 -4 -4.5t-1.5 -4t-0.5 -3.5t0.5 -5.5t1.5 -7.5zM87 112zM91 82zM108 321zM108 154v8h-9v-8h9zM103 242zM120 191zM124 45zM129 422zM129 531zM338 141zM330 694z
M296 158zM300 145zM317 330zM317 292zM313 346zM317 367zM313 380zM313 304q0 5 -2.5 9.5t-1.5 7.5h-9q0 -2 -2 -5.5t-2 -6.5q12 0 17 -5zM309 91zM305 187q7 5 7.5 17t-7.5 17q-8 -16 0 -34zM313 284zM321 216zM317 145zM321 409q0 3 2 5t2 4q-2 0 -4.5 2t-3.5 2
q0 -2 -2 -4.5t-2 -4.5q2 0 5 -2q2 -1 3 -2zM317 589zM313 430zM305 476zM300 363zM258 560zM233 598q-9 5 -9 -9q0 -13 5 -12q-2 6 1.5 11t2.5 10zM229 569zM191 569zM179 560zM141 183q11 0 11 5.5t2 11.5q-4 0 -6 -0.5t-3 -3t-1.5 -3.5t-1.5 -5t-1 -5zM145 175zM141 250z
M145 313h9v8h-9v-8zM145 380zM137 309zM141 216q-8 5 -9 -5q0 -6 5 -7q0 2 2.5 5.5t1.5 6.5zM137 154zM141 82zM145 137zM145 24zM158 124zM158 87zM191 103zM175 120q1 3 4 5t6.5 2.5t6.5 3t4 6.5q-2 -1 -7 -3q-16 -5 -17 -9q-1 -3 3 -5zM208 91zM200 112h8v8h-8v-8z
M246 95zM267 124q8 5 12 16h8v56q7 2 5 12h-5v337h-132v-405h120v-3q-8 3 -11 -8q0 -4 3 -5zM284 112q8 -5 9 7q-1 9 -5 10q0 -5 -2.5 -9.5t-1.5 -7.5zM292 45q11 8 21 -2t17 2q-1 11 -10.5 17t-18.5 1.5t-9 -18.5zM325 229zM330 388zM338 246zM346 346q-1 1 -4 2.5t-5 1.5
t-3 -4q1 0 4 -1.5t5 -1.5t3 3zM342 564zM363 589zM372 577z" />
    <glyph glyph-name="dollar" unicode="$" horiz-adv-x="307" 
d="M270 242h-4h-4v-9h8v-17v-51q0 -71 -50 -110v2q-4 3 -7 0t-2 -8q-8 -5 -16 -8q-1 3 -4 4q1 -4 0 -6q-1 0 -2.5 -1t-3.5 -1v-4q-3 -2 -3 -5q2 -1 3 -1v-31h-64v29q6 2 0 6v9q-13 5 -26 16q-1 1 -2 4.5t-1.5 5t-2 3.5t-3.5 3.5t-4 1.5v-6q-8 9 -14 18q-4 20 -11 30v-8
q-11 27 -11 57v53h66v-26q0 -13 5 -26h-0.5h-1.5q2 -5 3.5 -9t3 -7l2.5 -5q1 1 2 3q14 -20 34 -20q13 0 24 8.5t17.5 23.5t6.5 32v48q0 31 -18 50q-13 13 -30 13q-5 0 -9.5 -1t-10.5 -1.5t-15 -0.5q-11 1 -19 2q-2 5 -7 7v-5q-24 6 -38 26q-25 36 -25 83v99q0 37 17 69
q5 0 8.5 2.5t4 3.5l3.5 7q-1 0 -6 3q18 26 44 38v59h65v-53q36 -9 60.5 -41.5t27.5 -76.5q1 -6 1 -11v-45h-67v21q0 19 -8 35q-14 29 -40 29q-29 0 -42 -35q-1 6 -3 6q-5 0 -3 -9q1 -3 3 -6q-3 -11 -3 -20v-48q0 -33 20 -52q8 -8 18 -10q-1 -5 1 -6q3 1 4 5q4 -1 5 -1h1h1
q0 -4 2 -4q4 0 4 5q29 2 34 1q15 -2 23.5 -4.5t17.5 -9t17 -17.5q18 -27 23 -60q-2 0 -3 -3q2 -1 3 -2q1 -11 1 -18v-22zM203 493zM199 501zM216 518q0 -2 -2 -8t-1 -8.5t7 -4.5q5 4 4 12.5t-8 8.5zM224 476q6 -2 10 2.5t3.5 11t-4.5 7.5q1 -6 -5.5 -9t-3.5 -12zM245 518z
M228 598zM241 548q-6 1 -10.5 4t-10.5 9t-8 7q0 -6 7.5 -17t4.5 -24q5 0 8 3t5.5 9.5t3.5 8.5zM208 623zM208 527zM203 598q-17 -3 -21 -13q4 -3 6.5 -4t3.5 -1t5 0.5t6 0.5q-4 1 -4.5 3t1.5 3.5t3.5 4.5t-0.5 6zM187 573q-1 -4 -7.5 -6t-5.5 -7q6 -10 15 0q7 8 -2 13z
M161 577zM136 648zM136 631zM115 669zM40 409zM57 493zM86 460zM69 359zM65 334q0 -10 8 -13v3v5.5t-2 3.5t-6 1zM78 589zM82 338zM78 422h2q4 0 6 0.5t3.5 2.5t0.5 5q-9 1 -12 -8zM94 485zM97 389q0 -1 2 -1v0q-1 0 -2 1zM107 338q0 2 2 4.5t2 3.5q-2 0 -3 1t-2.5 2t-2.5 2
q0 -2 -1 -3.5t-2 -2.5t-1 -3q2 0 4.5 -2t3.5 -2zM153 346zM161 367zM178 355zM199 321zM203 342zM48 154q8 -5 9 5q0 7 -5 7q0 -5 -4 -4v-8zM61 154zM69 120zM78 191zM94 78q8 -5 9 5q0 7 -4 8q-1 -5 -5 -4v-9zM107 162zM153 116zM149 91zM149 116q-16 -1 -17 -17
q20 -3 17 17zM140 49q22 4 21 25l-4.5 -2t-5.5 -3t-4 -3t-4 -4t-2 -5.5t-1 -7.5zM168 125q2 -1 3 -1h-1q-1 0 -2 1zM178 78zM195 95zM199 108q0 2 2.5 5t1.5 7q-6 -4 -9 7q-1 3 -2 1q0 -1 -1 -4q2 -1 3 -8.5t5 -7.5zM199 141q0 -9 9 -13q-1 1 -1 3v4.5t-1 3.5t-2.5 2.5
t-4.5 -0.5zM249 338zM220 351v-13q6 0 10.5 6t6.5 7h-17zM233 300zM228 309l-4 -0.5t-6 -1t-2 -3.5q15 -10 12 5zM220 267q8 -5 9 5q0 7 -5 7q0 -5 -4 -4v-8zM245 242q-7 -2 -14.5 -9t-10.5 -15.5t0 -13.5q2 10 12.5 22t12.5 16zM237 204q7 -8 8 4q0 8 -4 8q0 1 -0.5 -2.5
t-1.5 -7t-2 -2.5zM228 145zM224 95zM228 120zM237 141v-6v-7q11 0 8 13h-8zM245 95zM241 112zM245 162zM245 267z" />
    <glyph glyph-name="percent" unicode="%" horiz-adv-x="412" 
d="M98 472q-17 0 -29.5 12.5t-12.5 30.5v43q3 2 0 5v88q0 18 12.5 30.5t30 12.5t30 -12.5t12.5 -30.5v-136q0 -24 -21 -37q-2 2 -4 3v-5q-9 -4 -18 -4zM99 497zM129 585zM120 527zM78 615q-7 -18 1 -18v-64q0 -13 5.5 -22t13.5 -9q6 0 10.5 4t7 11.5t2.5 15.5v100
q0 7 -1.5 12.5t-4 10t-6.5 7t-8 2.5q-8 0 -13.5 -9.5t-5.5 -22.5v-19zM56 634q1 -1 1 -3q0 2 -1 3zM66 501zM274 450q-1 1 -3 1q-1 -7 1 -7l-15 -42q-3 2 -7 10q-6 11 -8 6q1 -2 2.5 -9t4 -11t6.5 -1l-9 -25q0 7 -4 8q-4 -4 -3.5 -9t4.5 -7l-42 -114h-1q-1 -3 -1 -6
l-90 -248h-73l11 30q2 1 1 4l6 14q1 -7 8 -8q-1 4 1.5 8.5t2.5 8.5h-9l38 104q0 -4 3 -2q3 4 -2 7l52 142q1 1 1 2l57 158q14 1 11 12h-6l79 218h73l-47 -130h-3q-1 -6 0 -7zM53 3v8h-8v-8h8zM70 87zM87 78zM133 258zM116 95zM129 61zM124 141q1 2 6.5 5.5t2.5 11.5
q-9 3 -11 -10q0 -6 2 -7zM137 170zM162 288q0 3 4 4.5t5 3.5q-7 4 -13 -2q-4 -5 4 -6zM191 388v9h-8v-9h8zM204 346zM225 476zM229 434zM238 451zM296 527zM288 640v-9q8 -5 9 5q-1 7 -5 8q0 -5 -4 -4zM284 531zM279 585zM246 455zM254 439zM250 493q8 -3 12 6q2 8 -3 11
q0 -4 -5 -7.5t-4 -9.5zM263 560zM267 476q2 0 4.5 0.5t3.5 1t3 2.5t2 2.5t2 3.5l2 3q-3 0 -5 -0.5t-3.5 -1t-3 -2.5t-2 -2.5t-2 -3.5zM332 218q18 0 30.5 -13t12.5 -30v-136q0 -18 -12.5 -30.5t-30.5 -12.5t-30.5 12.5t-12.5 30.5v56h7v8h-7v72q0 21 17 34q1 -2 2.5 -5.5
t3.5 -5.5t5 -2q2 10 -3 18q9 4 18 4zM305 133zM305 36zM309 95zM352 57v100q0 7 -2.5 14t-6 11t-8.5 6q2 0 2 1.5t-3 1.5q-1 -1 -2 -3q-3 0 -6 -2t-5.5 -4.5t-4.5 -6.5t-2.5 -8.5t-0.5 -9.5v-100q0 -13 5.5 -22.5t13.5 -9.5t14 9.5t6 22.5z" />
    <glyph glyph-name="ampersand" unicode="&#x26;" horiz-adv-x="503" 
d="M436 56q25 -35 31 -44h-79q-17 24 -44 62q0 5 4 4q0 -1 0.5 -3.5t1 -3.5t2.5 -1q-4 20 -8 20q-2 1 -5 -4q7 1 2 -5l-2 -5q-62 -74 -147 -74q-78 0 -122 66q1 1 1 2h-2q-11 16 -18 35q2 -1 3 -2v21q-5 0 -9 -1q-6 21 -8 43h5q-1 2 -1.5 5t-1 5t-1.5 4.5t-2 3.5v3v3v2.5
v2.5q9 1 10 9q-5 1 -9 4q2 27 8 51q1 0 7 2t11 1v13q-4 3 -12 2q14 38 40 69q3 0 4.5 1t0.5 4v0q8 9 16 16l29 -51q-13 -16 -22 -33h-0.5h-1.5v-4q-15 -29 -17 -63v-2l-1 -11q0 -58 29.5 -97t74.5 -39q2 0 3 0.5t2.5 0.5h2.5q-4 -3 -1 -4q4 -2 7 1q1 2 -1 3q55 7 92 60
q-25 37 -42 62q1 2 3 7t3 7q-3 3 -5 3.5t-6 -1t-5 -1.5q-52 76 -91 134l-41 72q-1 0 -1.5 1.5t-0.5 2.5q0 3 -2 5q-7 14 -10 23q8 -1 10 3q2 5 -4 8t-7 -4v-3q-2 5 -4 13q3 3 4.5 10.5t-4.5 9.5q1 -10 -3 -12q-9 32 -9 62q0 24 5 47h11v12q-5 1 -8 -1q18 67 67 94
q-6 -7 0 -13q2 3 9 10t8 10q18 6 37 6q13 0 25 -3q-4 -23 4 -23q6 0 12 18q27 -12 45.5 -39t24.5 -65q-7 3 -7.5 -3.5t5.5 -6.5q1 0 3 1v-8l-3 3q-1 -11 4 -15v-1q0 -13 -2 -28q-3 0 -6 -3q6 -3 0 -10.5t1 -9.5q-3 -12 -8 -24q-1 0 -2.5 3t-3.5 4q-5 -3 -3 -7.5t6 -5.5
q-8 -17 -21 -34q-2 1 -3 1v-5q-6 -6 -10 -11q-3 3 -6 3v-5v-4q-9 -9 -20 -18q10 17 -1 19q-1 -3 -2 -3.5t-2.5 0.5t-4 2t-4.5 1q2 -17 12 -21q-1 -1 -4 -3.5t-5 -3.5l-29 48q22 19 35 36q6 -1 7 3q1 2 -3 3q21 32 21 69q0 20 -6 39q6 11 -3 14q0 -1 -1 -3q-3 6 -7 12
q6 10 4 20q-8 0 -13 -9q-14 14 -33 14q-25 0 -42 -21q-1 2 -4 4q-5 -3 -3 -5t6 -1q-21 -28 -21 -75q0 -39 16 -78h-2q-5 -9 2 -13q3 -2 5 2l5 -8q-1 -5 1 -6q1 0 2 1l31 -49q-3 -1 -4 -3q0 -2 -0.5 -7t-0.5 -6.5t1.5 -5.5t4 -3t7.5 1q-1 4 1 9l12 -21q4 -4 7 -9
q-5 -8 -7 -12q5 2 11 6q1 -2 11 -17q-1 -5 -4.5 -12.5t-4 -10t2.5 -8.5q3 3 5.5 6l5 6t4.5 5q15 -24 19 -30h0.5t0.5 -1q38 -58 61 -91q30 62 39 88h4q0 2 -0.5 5.5t-0.5 5.5q1 3 3 10q10 -12 14 -4q-4 1 -12 10q3 14 6 27l45 -17q-15 -78 -24 -104t-33 -65q-2 2 -3 2v-6
l-2 -4l0.5 -1t1.5 -2h-12q-2 -18 12 -16q-1 4 3 13q1 -3 4.5 -8t5.5 -7v-1q14 -18 33 -45q-22 -17 -12 -28q0 6 3 9t7.5 6t6.5 5zM406 191q14 -1 13 13q-14 1 -13 -13zM423 309q-11 1 -11 -6.5t7 -10.5q0 4 2 8.5t2 8.5zM406 246q9 -1 0.5 -4t-0.5 -5q2 2 11.5 4.5t9.5 8.5
q-13 14 -21 -4zM386 166zM318 543q-8 6 -20 5q-1 -12 7 -11.5t13 6.5zM293 493q0 2 -2 3l-2 -3q3 0 4.5 -4t4.5 -4q-1 2 3 5.5t5 6t-4 4.5q-1 -4 -9 -8zM289 652zM285 434zM281 522zM277 514zM268 661zM260 661q-9 5 -10 -7q1 -9 6 -10q-1 4 1.5 8.5t2.5 8.5zM243 644z
M230 640v2v6t-2 3.5t-6 0.5q0 -9 8 -12zM193 673q0 -4 -2.5 -9.5t-5 -9t-4 -7.5t0 -8t7.5 -8q-1 5 5 20.5t-1 21.5zM172 640zM101 510h6h6q-1 13 -8 17q0 -1 -3 -6.5t-1 -10.5zM159 447q2 12 -10 18q-5 3 -7 -1q2 -1 6.5 -9t10.5 -8zM155 657zM147 606q-2 -20 8 -21
q1 21 -8 21zM142 510zM142 543zM142 627zM117 627zM122 606q-2 -19 16 -21q-1 2 -3.5 8t-5.5 9t-7 4zM126 489q7 -8 8 3q0 9 -4 9l-0.5 -3.5t-2 -6.5t-1.5 -2zM138 422v8h-8v-8h8zM134 443q-1 -4 0.5 -6t3.5 -3t4.5 -1.5t4.5 -2.5q1 14 -13 13zM151 388q-4 -7 4.5 -8.5
t8.5 4.5q0 2 -1 4h-12zM168 367zM176 405zM193 413zM205 338zM222 317q2 15 -8 17q0 -2 -0.5 -8.5t1 -8.5t7.5 0zM222 359zM226 346zM226 317q1 -3 0 -8t-0.5 -9t4.5 -4q15 14 -4 21zM239 284q-5 -5 -0.5 -10t12.5 -7q1 6 -5 10.5t-7 6.5zM285 166zM293 162zM289 237
q1 -2 2 -9.5t4 -10t11 -1.5q-5 20 -17 21zM306 154zM306 175zM42 225zM50 154q11 -1 9 12h-9v-12zM109 313q0 3 -0.5 5t-2.5 3t-5 0q3 -16 25 -17q6 6 4.5 19t-13.5 11q0 -3 0.5 -10t-1 -10t-7.5 -1zM101 342zM113 300q-5 0 -11 2t-9 1.5t-5 -7.5h6.5t6.5 -1t4 -3v-5t1 -5.5
t3 -2.5q5 5 2.5 11.5t1.5 9.5zM88 334zM88 292zM84 242v-9h8v9h-8zM71 170zM75 108v8h-8v-8h8zM75 246zM75 292zM80 309zM84 95zM88 137zM101 95v8h-9v-8h9zM109 45zM105 70zM105 87zM113 95zM126 95zM130 70zM155 20zM172 45zM180 66zM222 40zM256 32zM264 57zM281 87z
M285 61q16 -10 13 5q-1 0 -5 -0.5t-6 -1t-2 -3.5zM302 95zM310 141zM327 208q-5 -5 -4 -25q8 -4 9 8q1 15 -5 17zM332 139l-1 -2l0.5 1zM331 103zM360 116zM356 191zM360 95zM365 78zM373 57zM381 74q-9 -10 0 -12q9 -3 12 2q1 3 -3 6q-2 -5 -6 1zM427 28zM440 20z" />
    <glyph glyph-name="quotesingle" unicode="'" horiz-adv-x="100" 
d="M43 676h20v-53h-18v0h-9q2 1 4 4.5t3 6.5v2v40z" />
    <glyph glyph-name="quotesingle" unicode="&#x2019;" horiz-adv-x="100" 
d="M43 676h20v-53h-18v0h-9q2 1 4 4.5t3 6.5v2v40z" />
    <glyph glyph-name="quotesingle" unicode="&#x2018;" horiz-adv-x="100" 
d="M43 676h20v-53h-18v0h-9q2 1 4 4.5t3 6.5v2v40z" />
    <glyph glyph-name="parenleft" unicode="(" horiz-adv-x="311" 
d="M107 198q14 -37 32.5 -71.5t35.5 -58.5t32.5 -42t24.5 -27l9 -9h-33q-7 6 -18.5 17.5t-41.5 50.5t-52 81q4 3 4.5 8.5t-3.5 6.5q2 -7 -5 -9q-56 110 -56 227q4 6 2 12h-1h-1q2 46 14 87.5t30.5 71.5t40 56t43 42.5t39 28t28.5 16.5l11 5h33q-31 -13 -68 -43h-1.5t-1.5 1
q1 0 3 -1q-58 -47 -92 -111q-3 3 -10 2v-12h5q-24 -50 -31 -108q-1 -1 -2 -3q-12 -27 -1 -37v-3.5v-3.5q0 -84 28 -165q-3 -6 -3 -11q3 0 6 2zM227 669zM185 636zM143 598zM130 585zM122 581zM109 577zM97 565zM76 518zM84 497h-6h-6v-6.5t0.5 -6.5t3.5 -3v4.5t1 6t3 1.5
q5 1 4 4zM59 489q0 -4 -3.5 -9.5t-3 -8.5t6.5 -7q-2 4 1 10t4 8.5t-5 6.5zM47 338zM55 405zM42 435q0 -3 0.5 -5t1 -3.5t2.5 -3t2.5 -2t3.5 -2l3 -1.5q-1 10 14 21t11 17q-20 -17 -38 -21zM59 401zM76 212zM80 229zM118 145zM122 133zM126 99zM151 74zM210 -1z" />
    <glyph glyph-name="parenright" unicode=")" horiz-adv-x="311" 
d="M68 691q5 -2 12 -5.5t28.5 -17t41 -29.5t43.5 -43.5t41 -58.5t29 -74.5t12 -90.5q0 -157 -99 -297l-2 -1v-1v-2q-17 -23 -35 -43.5t-27 -28.5l-10 -9h-32l16.5 16.5t38 47t49 76t40 100.5t20.5 123q6 0 0 5q0 1 0.5 6t0.5 8q0 161 -120 267q-1 9 -4 14q-7 0 -10 -3
q-10 8 -20.5 15l-18 12t-14 8t-9.5 5l-3 1h32zM232 468v9h-8v-9h8zM232 493q5 5 2 12t-10 9q0 -2 1.5 -7.5t2.5 -8.5t4 -5zM161 66q0 2 2.5 5.5t1.5 6.5q-8 5 -9 -5q1 -7 5 -7zM165 95zM203 183zM207 196zM262 401zM253 422zM253 376q5 1 6.5 -3t2 -8.5t4.5 -5.5q9 6 0 16
t-13 1z" />
    <glyph glyph-name="asterisk" unicode="*" horiz-adv-x="195" 
d="M116 589q-9 -5 -3 -6q2 0 4 1l27 -46h-24l-11 19v-19h-24v19l-11 -19h-2l-2 1q-1 0 -1.5 -0.5l-0.5 -0.5h-18l28 49h-42v24h42l-28 48h20q-1 -3 0 -7h8l7 -12v19h24v-19l11 19h24l-28 -48v8h-8v-9h8v1h42v-24h-39q0 1 -3 2zM74 602v8h-8v-8h8zM91 589q8 -4 9 6q-1 6 -5 7
q-1 -5 -4 -4v-9zM116 577z" />
    <glyph glyph-name="plus" unicode="+" horiz-adv-x="404" 
d="M362 321h4v-50h-33q-5 10 -9 13q-2 -6 0 -13h-19q-2 3 -6 4v-2v-2h-38q-1 4 -4 4q-1 -1 -1 -4h-30v-140h-50v38q7 0 6 9q-2 4 -5 5q0 -2 -1 -3v91h-8q2 3 1 9h-9v-9h-124v50h36q0 -5 2.5 -9t6.5 -3q1 6 -2 12h26q1 -5 5 0h48q0 -2 -0.5 -3t-1.5 -1q7 -7 8 4h12v13h5
q1 20 -4 25h-1v102h26q1 -11 13 -10q1 7 -1 10h12v-53q-1 1 -3 1q-9 -5 -3 -6q4 0 6 2v-67q-16 -3 -20 -12q6 -5 11.5 -3t8.5 8v-10h30q1 -4 5 -4q-1 1 -1 4h93v-12q10 -1 9 12zM39 309zM85 275zM106 305q-5 -8 5 -9q7 0 7 4q-2 1 -5 3t-7 2zM148 296zM211 305zM215 447z
M206 418q-3 0 -5 -0.5t-3.5 -3t-2 -3.5t-1 -5t-0.5 -5q8 -1 10.5 3.5t1.5 13.5zM190 460zM177 414q10 0 15 12q3 6 -2 9q-2 -3 -4.5 -6.5t-5 -7.5t-3.5 -7zM185 221zM198 359q-4 -8 4.5 -9t9.5 5q0 2 -1 4h-13zM206 133zM198 192q2 -1 5 -3.5t5 -4.5t4 -3.5t4 0t3 6.5
q-4 -1 -8.5 3t-6.5 6t-6 -4zM219 225zM261 300zM273 296q10 1 17 13q-2 0 -4.5 -0.5t-3.5 -1t-2.5 -2.5t-2 -2.5t-2 -3.5t-2.5 -3zM307 296v9h-8v-9h8zM336 292q1 4 4.5 8.5t3.5 7.5t-8 5q-3 -3 -4.5 -11t4.5 -10zM353 305q-3 -7 5 -12q6 -4 8 3q-3 1 -6.5 4.5t-6.5 4.5z
M366 309z" />
    <glyph glyph-name="comma" unicode="," horiz-adv-x="151" 
d="M36 111h78v-67l-2.5 -5t-7.5 -10t-13.5 -12.5t-20.5 -9t-28 -1.5q4 1 7.5 4t3 13t-16.5 21v67zM91 88z" />
    <glyph glyph-name="hyphen" unicode="-" horiz-adv-x="404" 
d="M224 271zM186 313q6 -2 11 1.5t10 2.5q-1 -2 -1.5 -5l-0.5 -3v-2v-2l0.5 -3.5t1.5 -5.5q-4 0 -7.5 -5t-9.5 -3q0 -11 3 -17h-7q-6 26 -18 50h17v-4zM290 321h76v-50h-79q0 2 1.5 9.5t0.5 11t-7 4.5q0 -1 -1 -6l-2 -10t-1 -9h-27q-2 6 -2 9q10 3 12 17t-3 24h17q1 -3 3 -4
q1 1 2.5 1.5t4.5 1t5 1.5zM274 271v6.5v6.5q-14 1 -13 -13h13zM265 300q8 -4 10 6q-1 6 -5 7q-1 -5 -5 -4v-9zM312 296q7 1 15 8.5t10 8.5q-5 3 -9.5 2.5t-11.5 1.5q-6 -8 -4 -21zM345 280q11 -1 9 12h-9v-12zM349 313zM253 309q-4 0 -8.5 1t-7 1.5t-5 -1t-4.5 -5.5
q-3 1 -6 -0.5t-4.5 -3t-3.5 -1.5t-3 5q4 3 5 16h15h2h15q-2 -4 -1 -6t6 -6zM228 305q11 -6 17 -17q-7 3 -8.5 -4t-8.5 -4q4 9 0 25zM89 321h77q8 -22 9 -50h-22q12 13 4 21q-5 -10 -20 -21h-23q2 4 6 4t7 -4q-2 18 -12 21q-7 -6 -5 -21h-74v50h53zM73 305zM98 275v9h-9v-9h9
zM123 300zM140 296q11 -2 11 9q-2 11 -11 12v-21z" />
    <glyph glyph-name="period" unicode="." horiz-adv-x="151" 
d="M114 5h-78v67h78v-67z" />
    <glyph glyph-name="slash" unicode="/" horiz-adv-x="400" 
d="M328 695h35l-39 -106q-1 2 -2 1q-6 -8 -5 -20l-70 -194v1h-1v-5l-71 -194q-1 7 -8 10q-1 -9 7 -12l-65 -179h-73l3 7h2v6l249 685h27q-1 -13 5 -12q7 4 6 12zM116 180zM112 62zM116 104q11 0 9 13h-9v-13zM125 196zM141 268zM154 146zM154 251zM284 616zM187 284z
M192 322zM208 331v8h-8v-8h8zM204 389q0 2 2.5 5.5t1.5 7.5q-7 5 -9 -5q1 -7 5 -8zM238 515q-11 1 -11.5 -6.5t7.5 -10.5q-1 4 1.5 8.5t2.5 8.5zM242 486q-9 5 -9 -7q0 -9 5 -10l2.5 5.5t1.5 11.5zM242 427zM234 528q0 -1 2 -3l3.5 -3.5t3.5 -3t4 0t3 4.5q-2 0 -5.5 4t-6 5
t-4.5 -4zM246 553zM255 557q-3 9 4.5 13t7.5 8q-6 8 -15 -5q-8 -14 3 -16zM267 465q0 2 1.5 3.5t2.5 3.5t0 5q-7 5 -9 -5q1 -7 5 -7zM280 490q-1 4 1.5 8.5t2.5 8.5q-2 -1 -5 -1h-5.5t-4 -1t-2.5 -3q3 1 5 -1t2 -4.5t1.5 -4.5t4.5 -2zM284 544zM301 616q-9 3 -13 -7
q-3 -8 4 -10q1 1 6 5t3 12zM288 519q8 1 11.5 7.5t5 16.5t4.5 14q-10 0 -13.5 -4.5t-2.5 -10.5t0.5 -13t-5.5 -10zM330 628q6 5 5.5 14.5t2.5 19.5q-3 -5 -10 -10.5t-11 -8.5t-5.5 -9.5t5.5 -13.5q2 3 0.5 8t-0.5 9t5 4q3 0 4 -6t4 -7zM347 687z" />
    <glyph glyph-name="zero" unicode="0" horiz-adv-x="331" 
d="M293 558v-153q-2 2 -4 3q0 -7 4 -11v-148v-9v-89q0 -41 -19 -75.5t-50 -53.5q-4 1 -6 -3q-26 -13 -53 -13q-54 0 -91.5 42.5t-37.5 102.5v56h1q0 3 -1 6v159q1 0 5 2l1 1l-1 -1h-1l-1 -1h-1l-2 -1v186q0 60 37.5 102.5t91.5 42.5l7 -1h-0.5t-0.5 -1q4 -1 7 1
q21 -3 40 -13q-8 -10 4 -17q-4 7 3 14q31 -19 49.5 -53t18.5 -75zM41 203zM251 609q2 -6 2 -8.5t-1 -6.5t-1 -10q5 0 10.5 -2t8 -3.5t5.5 0.5t5 9q-10 0 -18 10t-11 11zM280 433zM243 504q-3 -3 -4.5 -10.5t4.5 -10.5q-1 8 0 8t5 -2t7 -1q1 6 -5 10t-7 6zM247 437zM234 257
q0 -1 -0.5 -7.5t1.5 -8.5t8 -1v17h-9zM238 362zM243 479zM230 429q1 2 3.5 5t3.5 4.5t-0.5 3.5t-6.5 4l-1.5 -2.5t-2 -4.5t-1 -4.5t0.5 -4t4 -1.5zM204 444q0 -1 5 -11l1 -1q-1 1 -2 4zM205 404zM205 504q15 7 25 26q-1 -1 -4 -2.5l-4 -2t-4 -2.5t-4 -3l-3 -3t-3 -3.5t-2 -4
t-1 -5.5zM230 571zM230 471zM230 555zM226 291zM226 349zM222 412zM226 454zM217 471zM217 261zM222 245q-5 -4 -2.5 -11t10.5 -6q2 15 -8 17zM230 634zM226 613zM217 571zM217 622q1 19 -12 25q2 -7 2.5 -17.5t1.5 -11.5q2 5 8 4zM188 647q2 14 -17 12q0 -3 0.5 -5t3 -3.5
t3.5 -2t5 -1t5 -0.5zM209 566q-6 25 -18 40t-26 15q-27 0 -43 -46q2 7 -1 9q-1 -5 -4.5 -9t-6 -8.5t-2.5 -11.5q7 1 12 14q-7 -26 -7 -55v-212zM176 425q-2 6 -0.5 8.5t2 2.5t4 -1t6.5 -2v9q-5 7 -16 -2q-9 -11 4 -15zM192 425q-7 5 -9 -5q1 -7 5 -8q0 2 2.5 5.5t1.5 7.5z
M167 412q-9 1 -12 -8h2q4 0 6 0.5t3.5 2.5t0.5 5zM150 253q-3 0 -5 -0.5t-3.5 -3t-2 -3.5t-1 -5t-0.5 -5q8 -1 10.5 3.5t1.5 13.5zM138 354zM150 287zM121 106zM150 664zM146 647zM150 630q-11 0 -16 4v-4.5v-5t1 -4.5t3 -2q1 1 3 1.5t3.5 1t3.5 2.5t2 7zM104 676zM108 630z
M125 597q-3 -1 -10.5 0t-12 -0.5t-2.5 -8.5q19 1 25 9zM100 530zM104 266q1 9 -8 12v-2q0 -3 0.5 -4.5t1 -3.5t2 -2.5t4.5 0.5zM88 609v-12q10 -1 8 12h-8zM71 463q-4 -8 5 -11h3q-1 1 -4 2q1 12 -2 11q-1 0 -2 -2zM54 341q9 -1 17 6.5t0 14.5q-2 -3 -6.5 -5.5t-8 -6
t-2.5 -9.5zM67 576v-13q10 -1 8 13h-8zM67 504zM54 622zM67 421q-14 0 -16 -10.5t7 -15.5q-1 7 5 12t4 14zM58 245q-4 -1 -8 -9q10 -1 15 -10.5t-3 -18.5q7 1 9 5t0 9.5t-4 12t0 11.5h-9zM46 131v-2q0 -4 0.5 -6t2 -3.5t5.5 -0.5q0 9 -8 12zM54 190v-8h8v8h-8zM58 148z
M58 73q12 0 17 -4q1 9 -8 11q-8 1 -9 -7zM75 261zM83 152zM83 236zM83 517zM92 584zM92 98zM100 148q0 2 0.5 8.5t-1.5 8.5t-7 0q1 -13 8 -17zM104 31zM108 48zM113 412q-8 5 -9 -5q0 -7 4 -7q1 2 3 5.5t2 6.5zM117 35q0 3 4 6.5t4 6.5h-12v-9q0 -5 4 -4zM138 81zM180 52
l2 -2.5t3.5 -4t4 -2.5t4 0t2.5 5q-2 -1 -5.5 3t-5.5 5t-5 -4zM188 81zM192 69zM216 213v83q5 4 0 6v105l-93 -256q15 -46 42 -46q21 0 36 31.5t15 76.5zM217 81zM222 39zM222 136zM230 148zM234 60q11 -1 9 13h-9v-13zM243 341zM255 253v8h-8v-8h8zM255 475zM259 551z
M272 253v2q0 4 -0.5 6t-2.5 3.5t-5 1.5q-1 -10 8 -13zM259 211q11 -1 9 13h-9v-13zM272 77zM268 287zM289 282zM289 307zM285 270zM285 228zM276 299q0 4 5.5 10t7.5 9.5t-4 9.5q0 -5 -8 -14.5t-1 -14.5z" />
    <glyph glyph-name="one" unicode="1" horiz-adv-x="282" 
d="M245 596l-1 1q-2 -8 1 -8v-124q-1 -1 -1 -2t0.5 -1h0.5v-458h-80h-10v92q1 -9 9 -6q-3 5 -1 12t-3 9q-4 -4 -5 -13v121q7 2 9 8t-4 9q0 -4 -5 -7v44q7 0 10 0.5t6 4.5t2 13q-8 -13 -18 -8v36q3 4 0 7v155q2 -1 5 -2q5 5 3.5 11.5t-7.5 9.5l-1 -2v55l-30 -52h-23q0 3 -5 3
v-3h-32q1 2 3 5.5t2.5 5t-1 4t-5.5 5.5q0 -7 -1.5 -10.5t-5.5 -2.5t-5.5 2l-7.5 5l70 121v-6q8 -5 9 5q0 7 -5 8q0 -4 -3 -4l39 65h10q4 -15 13 -19q2 11 -2 19h68l2 -3v-105zM114 525q-4 -7 4.5 -8.5t9.5 4.5q0 2 -1 4h-13zM160 14zM215 416zM219 312q-9 5 -9 -7
q0 -9 5 -10l2.5 5.5t1.5 11.5zM210 362v8h-8v-8h8zM198 316zM206 471zM206 559zM202 584q-5 -4 -4 -12.5t8 -8.5v6t0.5 7.5t-0.5 5.5t-4 2zM194 639zM190 379q-1 1 -1 2v6t-2 3.5t-6 0.5q0 -9 9 -12zM177 475q0 2 3.5 6t5 6t-4.5 5q0 -2 -1.5 -4t-3.5 -3.5t-3 -3.5
t-0.5 -3.5t4.5 -2.5zM181 551zM177 609zM169 563zM160 324h9v9h-9v-9zM169 303zM169 400q-9 2 -10 -8q-1 -12 7 -15q4 -1 7 6q-6 2 -3 7.5t-1 9.5zM169 433q7 3 7 10.5t-12 6.5q1 -3 0.5 -6.5t0.5 -6.5t4 -4zM177 458zM181 303zM185 211zM194 106v9h-9v-9h9zM202 513
q0 9 -8 12v-2q0 -4 0.5 -6t2 -3.5t5.5 -0.5zM198 56zM198 257zM206 31zM219 190q0 5 -1 9t-1 5t1 2.5t5 4.5q-12 3 -13 -10q0 -11 9 -11zM219 236zM240 10zM39 506q8 2 18 -5h-21z" />
    <glyph glyph-name="two" unicode="2" horiz-adv-x="374" 
d="M338 509h-7v-13q4 0 7 2q-2 -28 -5 -40q-5 -19 -26 -59q-1 0 -1 1l-1 -3q-5 -10 -12 -22q-2 6 -8 8q0 -12 5 -13l-37 -60l-1 -1l-120 -209h205v-85h-301v85l52 89v1l67 116l13 22q0 -7 4 -8q-1 1 -1 6v7l27 47l1 2l37 65l1 1q1 1 1 2l6 10q7 16 7 34v60q0 26 -13 44.5
t-31.5 18.5t-31.5 -18.5t-13 -44.5v-29h-48q3 2 3 5q-11 5 -17 -5h-40v41q0 57 41 97.5t98 40.5t97 -40q1 -4 5 -5q16 -17 25 -38q-6 -6 -1 -7l3 1q9 -24 9 -49zM117 655.5q0 -0.5 -0.5 -1t-1.5 -0.5q2 1 4 3l-1 -0.5t-1 -1zM113 639q-4 -8 5 -11h3q-1 1 -4 2q1 12 -2 11
q-1 0 -2 -2zM113 571q0 -9 8 -12v2q0 4 -0.5 6t-2 3.5t-5.5 0.5zM130 576zM138 605.5q0 0.5 0.5 1l0.5 0.5l-0.5 -1.5l-0.5 -1.5v1.5zM180 697zM184 659v9h-8v-9h8zM188 634q0 5 7.5 7.5t5.5 9.5q-9 2 -15 -8q-4 -6 2 -9zM79 173zM88 115zM96 102q8 -7 9 4q-1 8 -5 9
q1 0 0 -3.5l-2 -7t-2 -2.5zM100 194zM117 144zM331 48zM331 27zM180 69zM134 77zM197 370zM197 337zM167 307zM180 215zM184 266zM193 253zM213 249zM234 421zM281 655zM209 701zM213 651zM239 651v8.5v8.5q-11 4 -16 -5q-3 -6 3 -8q2 5 8 5q1 -1 1 -3.5t1 -4t3 -1.5z
M247 655zM251 580zM251 312zM251 341zM264 366zM264 375zM264 433zM264 542zM276 425zM272 467h9v8h-9v-8zM276 534zM281 576q8 9 0 14q-9 5 -12 -6q-1 -2 -1 -4q6 0 13 -4zM281 605zM293 395zM297 551zM314 563h8v9h-8v-9zM315 559h-1h-2h3zM314 605v2q0 3 -0.5 4.5t-1 3.5
t-2 2.5t-4.5 0.5q-1 -10 8 -13zM301 492h4.5h4.5q8 4 2 9q-7 6 -10 -1q-2 -3 -1 -8zM306 442q15 -2 16 8q-15 2 -16 -8zM318 467zM327 525q3 8 -8 12q-4 -1 -5 -3q3 0 5.5 -5t7.5 -4z" />
    <glyph glyph-name="three" unicode="3" horiz-adv-x="357" 
d="M319 276v-61h-1l0.5 -1l0.5 -1v-20q-4 -5 -5 -7q2 -2 5 -2v-11v-17q-1 0 -1 0.5v0.5q-2 -7 -1 -10q-5 -43 -26 -77q-2 4 -7 3q0 -6 3 -9q-21 -30 -49 -45q1 3 0 8h-8v-12q-22 -10 -45 -10q-55 0 -94.5 49t-39.5 119v74h89v-45q0 -9 2 -20h-4q-1 -9 7 -12q13 -39 40 -39
q19 0 32.5 21t13.5 50v44q0 23 -9 41.5t-22 25.5q-2 11 -12 15q-1 -5 0 -11h-1.5h-1.5q-60 0 -70 -4v143q3 -1 27 -2q0 -9 8 -12q0 9 -8 12q19 -1 28 -1q19 0 32.5 18.5t13.5 44.5v38q0 18 -7 33v5h-3q-7 13 -17 20q11 8 9 16q-1 3 -6 2q1 -6 -3.5 -10t-5.5 -6q-7 3 -13 3
q-11 0 -20.5 -6.5t-16 -18.5t-7.5 -26h-90q0 76 56 120q0 -5 4 -6q4 5 3 11q33 23 71 23q9 0 21 -2q-1 -3 1 -6l5 5q46 -10 76.5 -51t30.5 -94v-91q0 -46 -23 -83q28 -36 36 -84q-9 -3 -8 -10q2 -2 5 -3q0 3 3 6q2 -14 2 -25zM50 601zM62 605q0 3 -1 5.5t-1.5 4t-1 3.5
t0.5 4t3 4q-9 2 -9 -7q2 -11 9 -14zM96 580q9 1 16 12.5t0 16.5q-1 -4 -9.5 -11.5t-6.5 -17.5zM129 668zM158 655zM182 645q1 0 1.5 -1l0.5 -1zM200 697zM213 680zM125 421v8h-8v-8h8zM142 341zM150 408zM192 412q5 5 1.5 12t-9.5 9q-5 -5 -2 -11.5t10 -9.5zM200 349z
M70 115zM75 136zM70 178zM91 140zM104 106zM112 148zM142 27zM188 60zM209 43zM217 81zM226 140zM288 245h-8v-9h8v9zM280 580q1 -3 0 -11t0.5 -12t7.5 -2v25h-8zM280 483zM272 207zM276 186zM276 299zM263 592zM242 622v-9h9v9h-9zM242 354v-9h9v9h-9zM230 517
q-17 4 -13 -13q14 -1 13 13zM230 458q-8 5 -9 -5q0 -7 5 -7q0 2 2 5.5t2 6.5zM221 421zM226 404v-5t0.5 -5.5t3.5 -2.5q-1 2 2.5 6.5t4.5 7t-3 3.5q-2 -5 -8 -4zM234 341zM238 169zM255 291q0 7 -3 10t-10 2q0 -4 1 -7t4 -4.5t8 -0.5zM246 257zM246 119zM251 245zM255 659z
M276 551q-5 0 -8 -3t-5 -7.5t-4 -6.5q5 -1 8 2t5 8t4 7zM263 261q26 4 0 30q-6 -6 0.5 -15t-0.5 -15zM267 152q10 0 13 9q-9 0 -13 -9zM284 85q0 3 2.5 6t1.5 7h-4.5t-6 -1t-1.5 -3q3 0 4.5 -4t3.5 -5zM288 115zM288 165zM293 236zM293 320zM297 358v8h-9v-8h9zM318 266z
" />
    <glyph glyph-name="four" unicode="4" horiz-adv-x="338" 
d="M302 703v-17v-58q-3 -5 0 -5v-617h-73v91q2 -2 4 -3q7 8 0 10l-4 -1v188q-28 -18 -60 -18q-57 0 -96 51h5v9h-9v-4q-33 47 -33 109v17q1 2 7.5 8.5t4.5 15.5q-7 1 -12 -9v16q3 -1 5.5 2t2.5 8h-8v10q1 7 4 7q0 -5 4 -4q0 5 -2 7t-6 1v105q11 0 12 4q-2 0 -3 2l-2 4t-3 2
q0 -3 -4 -4v18v10q3 -4 4 -7q5 16 -4 25v27h94l-1 -199q0 -59 14.5 -101t35.5 -42t35.5 42t14.5 101v182q0 1 0.5 8t-0.5 7q6 0 12 -4v6h61zM78 626zM52 488zM73 701q-8 3 -11 -9q-1 -6 3 -7q-3 6 4 8t4 8zM73 643zM65 601zM69 425zM73 429v8h-8v-8h8zM78 530q4 -1 4.5 3
t-0.5 9t0 9q-10 4 -13 -9q-2 -13 9 -12zM86 664zM90 555zM103 509zM103 563zM111 689zM111 651zM111 307q0 -9 9 -12q-1 1 -1 2v6t-2 3.5t-6 0.5zM120 454v9h-9v-9h9zM111 567q6 -10 15 0q7 8 -2 13q0 -5 -6.5 -7t-6.5 -6zM140 387zM153 333zM203 362zM224 404zM291 500z
M279 173zM279 383zM291 370q-7 5 -9 -5q1 -7 5 -7q0 2 2.5 5.5t1.5 6.5zM287 395zM287 316zM291 303zM287 530zM287 580zM279 634q-4 -11 7 -18q4 -3 5 2q-3 -1 -4 2.5t0 7.5t-1 6.5t-7 -0.5zM266 680zM266 102zM233 601zM233 450zM237 400zM233 278q-1 -9 8 -12v2
q0 4 -0.5 6t-2.5 3.5t-5 0.5zM245 375zM245 475q-2 4 0 10t3.5 8t-3.5 3q-5 -2 -9 -7t-2 -9.5t11 -4.5zM245 601zM249 425zM262 488zM266 10v8h-8v-8h8zM262 77zM279 416zM279 144zM279 27q2 0 8 -4.5t9.5 -4.5t3.5 9q-4 -2 -7.5 -1t-6 3t-4.5 2t-3 -4z" />
    <glyph glyph-name="five" unicode="5" horiz-adv-x="322" 
d="M284 622h-172v-104q19 8 41 9q0 -3 1 -4.5t4 -1.5q0 2 2 7q34 0 62.5 -17t45 -45.5t16.5 -62.5v-272h-1q0 -2 -4.5 -4.5t-3.5 -7.5q4 -2 9 2q-3 -46 -35 -79q-5 8 -8 10q0 -3 -3.5 -6.5t-4.5 -6.5q11 1 11 -2q-18 -16 -40 -24v5h-9v-8h1q-18 -5 -36 -5q-50 0 -85.5 34.5
t-38.5 83.5h4q0 7 -4 10v109h75v-75q0 -23 6 -44h-1q-2 -8 1 -8q1 0 2 2q15 -40 41 -40q21 0 35.5 26.5t14.5 63.5v101q1 -2 2 -2l6 12t7 13q-10 1 -15 -11v85q0 10 -2 20q1 1 2 3t1.5 3.5t0.5 3.5h-5q-6 27 -18.5 43.5t-28.5 16.5q-17 0 -30.5 -19.5t-17.5 -49.5h-76v317
l1 1h247v-82zM271 689zM283 676zM266 701zM254 697q-4 -20 0 -25q3 3 4.5 13t-4.5 12zM254 634zM241 697q0 -3 -5 -6.5t-3 -10.5q8 -2 12 9q2 7 -4 8zM241 647q-7 5 -9 -5q1 -7 5 -8q0 3 2.5 6t1.5 7zM204 668zM178 693q1 -6 -5 -1.5t-7 -2.5q5 -1 6.5 -12t10.5 -9
q1 6 -2 11t-3 10q3 0 3 2zM162 685q-8 5 -9 -5q0 -7 4 -8q1 2 3 5.5t2 7.5zM145 643zM137 672zM57 131zM70 194zM74 94zM99 194v-8h8v8h-8zM78 144zM78 157zM86 161zM86 194zM90 211zM95 102zM103 60zM99 85q-4 -11 7 -18t18 2q-8 6 -17 0q-1 13 -8 16zM124 56zM187 27
q10 -1 8 12h-8v-12zM212 341zM212 412zM225 194zM233 102zM233 207zM245 69v8h-8v-8h8zM245 194zM245 215zM250 98zM245 245zM241 261q0 -9 8 -11q8 -1 9 7v4h-17zM245 320zM254 140zM271 144zM279 295q0 -2 -4 -8q-4 -8 0 -9q0 2 3.5 6t5 6t-4.5 5zM254 266q15 -2 17 8
q-4 -1 -8.5 1.5t-8.5 2.5v-12zM254 349zM265 316q-2 7 -4 12q1 -2 1 -4q3 -7 3 -8zM254 391zM250 479q-8 5 -9 -5q0 -7 4 -7q1 2 3 5.5t2 6.5zM250 467zM254 374q-6 -4 -14.5 -1.5t-10.5 -2.5q2 -1 9 -6t12 -6q-1 4 1.5 8.5t2.5 7.5zM229 488zM229 425q-2 10 -4.5 14.5
t-10 12t-10.5 11.5q-2 -9 -1 -15t7 -11t7.5 -6t11.5 -6zM204 492zM170 479q-10 -11 8 -29q0 3 0.5 5.5t0.5 5.5v5.5t-0.5 5t-1.5 4t-2.5 2.5t-4.5 1zM145 488zM132 500zM49 496v-8h8v8h-8zM40 601zM40 546zM44 442zM49 408q-2 -14 12 -13q1 14 -12 13zM57 676zM65 446z
M82 576zM86 416zM86 458zM86 626zM103 551zM74 643q3 -23 20 -3q14 18 9 24l-9.5 -11t-19.5 -10z" />
    <glyph glyph-name="six" unicode="6" horiz-adv-x="335" 
d="M213 563q-9 41 -30 55v4h-6q-5 2 -9 2l-1 -1q-1 4 0 7q-2 -5 -3.5 -6.5t-2.5 -0.5t-2 4q-3 6 -5 7q0 -6 2 -14q-16 -8 -26 -33l-1 1q-5 -6 -2 -9q-5 -14 -7 -33q-10 -2 -12 0q-3 3 -4 5q0 -5 -2.5 -9.5t-1.5 -7.5l5.5 -2.5t10.5 -1.5q0 8 3 14q-1 -10 -1 -21v-40
q-1 3 -5 7.5t-5 5.5q1 -6 -2.5 -9.5t-8 -6t-6.5 -5.5q6 1 10 2.5t5.5 2t4 0t7.5 -3.5v-19q0 -3 0.5 -5.5t2.5 -1.5q0 3 3.5 6t4.5 5q19 6 38 6q33 0 62 -16t47 -43.5t21 -60.5v-2v0q1 -7 1 -9v-196q0 -19 -6 -38q-11 0 -16 4v-8q0 -1 2.5 -2t5.5 -1.5t5 0.5q-7 -19 -19 -35
q-3 4 -6.5 4.5t-4.5 -4.5q5 1 8 -3q-39 -47 -100 -47q-19 0 -38 5q0 1 -0.5 4.5t-0.5 4.5t-1 3.5t-2 3.5t-3.5 2t-5.5 2q1 -3 2.5 -9.5t1.5 -7.5q-18 7 -34 20q4 -2 5 0q3 1 -4 5q-4 -1 -4 -3q-47 39 -47 100v12q2 3 1 9h-1v35q26 21 22 32q-17 -11 -22 -18v28q7 2 9 7
q-1 -1 -9 0v12h1q0 4 -1 8v18q4 -1 9 -1q-4 30 -9 33v88l0.5 0.5l0.5 0.5l-1 -1v86q4 -1 5 -1q0 -5 1.5 -7t2.5 2q1 10 -9 17v20l1 1l-1 -1v13q3 1 5 1q0 -6 6 -8q2 -1 3 2l-1 6q-7 0 -13 3v40q7 2 9 7q-3 0 -5 0.5t-3 2.5t0 5q0 3 1 9h3q2 7 -1 10q3 11 7 21q12 -8 12 -5
q0 2 -6 7q0 1 -1.5 0.5t-2 -0.5t-0.5 1q7 16 18 29l3 -9q6 7 4 16q25 25 60 34q16 5 33 5q22 0 44 -8q-3 -6 -15 -5q1 -2 2 -7.5t2 -8.5t4 -5q-2 9 -0.5 12t6.5 7t6 5q11 -4 22 -11q-3 -12 -13 -4q3 -21 21 -13q1 7 -1 11q53 -39 53 -104v-16h-85zM280 597zM271 651z
M250 622q-5 3 -6 4q1 -1 5 -3.5l4 -2.5zM259 567q4 20 -17 21q-2 -20 17 -21zM229 630zM213 609zM79 563zM74 613zM83 618zM83 592v-2q0 -4 0.5 -6t2 -3.5t5.5 -0.5q0 9 -8 12zM91 651zM87 672zM79 655q0 -4 -2.5 -8.5t-2.5 -7.5q9 -5 10 7q-1 9 -5 9zM83 634q-5 2 -7 -0.5
t-3 -6.5t-3 -5q14 -1 13 12zM74 576h-8q0 -2 -0.5 -8.5t1.5 -8.5t7 0v17zM66 211zM62 299q-5 -4 -4 -10t8 -7v7.5t-1 6t-3 3.5zM62 387q0 4 4 5t8 2.5t5 5.5q-3 2 -5 5.5t-3 7.5t-1.5 8t-0.5 7.5t-1 6t-2 3.5t-4 -1q4 -3 -1 -24.5t1 -25.5zM62 362zM66 521zM66 546zM62 500z
M66 479zM66 467zM66 458q-7 3 -12 -4q-4 -7 4 -8q0 3 3.5 6.5t4.5 5.5zM62 630zM41 592q21 5 21 26q-15 -12 -21 -26zM37 559q0 -3 0.5 -5t1 -3t2 -3t2 -2.5t3.5 -2l3 -1.5q0 3 -0.5 5t-1 3.5t-2.5 3t-2.5 2t-3 2zM45 563q0 3 4 4.5t4 3.5q-6 4 -12 -2q-4 -5 4 -6zM53 307z
M53 333q6 0 13 -5q-1 6 -1 10.5t-0.5 7t-2.5 3.5q0 -3 -3 -5t-5 -4t-1 -7zM41 157zM53 102zM66 115zM66 123q0 6 4 13q-23 -2 -28 -11q-3 -5 5 -9q1 -1 2 -1q-3 11 5 12.5t12 -4.5zM74 190q-11 -2 -10 -12t7 -19.5t12 -14.5q-1 5 -6 19t-3 27zM83 224zM81 333h2q0 -1 1 -1
l-2 1h-1zM79 354q11 -4 17 10q3 6 -1 6q0 -4 -5.5 -2t-10 5t-5.5 -3q3 0 4 -2t1 -8v-6zM91 383zM91 328zM100 110v9h-9v-9h9zM108 219zM112 115h-8v-9h8v9zM108 157h-4h-4v-13q10 -1 8 13zM104 94l0.5 1l0.5 1l-0.5 -1t-0.5 -2v1zM108 31q2 3 5 7t5.5 7t5 7.5t4 9.5t1.5 11
q-16 3 -21.5 -15.5t0.5 -26.5zM146 31q-1 -10 8 -13q0 10 -8 13zM154 69q2 12 -4 21q-15 -2 -12 -12q4 -9 16 -9zM213 22q0 3 2.5 6t1.5 7q-8 5 -9 -5q0 -7 5 -8zM213 77zM213 136zM225 39zM229 119q1 2 3 5.5t2 6.5h-5t-6 -1t-2 -3q2 0 3.5 -2t2.5 -4t2 -2zM229 186z
M234 144zM238 127v-2q0 -4 0.5 -6t2.5 -3.5t5 -0.5q1 9 -8 12zM242 43zM255 73v8h-9v-8h9zM267 148zM280 215zM292 157zM292 295zM280 333zM276 366zM271 383zM271 266q-4 0 -6 -1.5t2 -3.5q4 1 8 2.5t7 1.5t6 -4q2 5 0.5 8t-3 4t-5 2.5t-4.5 2.5q-1 -1 -1 -5t-0.5 -5.5
t-3.5 -1.5zM271 190q5 5 2 11.5t-10 9.5q-1 -16 8 -21zM263 110zM255 303zM238 232q-2 -5 5 -7q3 -1 5 -1q5 1 -2 4q-1 0 -4 2l-7 5q0 -1 3 -3zM238 270zM242 245zM246 412zM242 303q0 -3 -4 -4.5t-4 -3.5q4 -8 10 -1q3 6 -2 9zM234 404zM225 433zM221 412zM204 379z
M196 437zM192 404q-6 2 -7 -5q1 -8 7 -8q2 1 2.5 6.5t-2.5 6.5zM175 458q-9 5 -9 -7q0 -9 5 -9l2.5 5.5t1.5 10.5zM183 429h-8v-8h8v8zM171 408zM162 463q-13 3 -22 -8q-4 -6 1 -9q2 2 11.5 6t9.5 11zM158 416zM141 404zM129 442l-4 -2t-3.5 -1.5t-3 -2l-2.5 -2.5t-2.5 -3.5
t-2 -3t-2 -3.5l-1.5 -3q8 1 11.5 2.5t7 6t2.5 12.5zM112 370q9 5 2 14q-6 8 -10 -1q3 0 4 -6t4 -7zM119 325l-6 3q-3 1 -4 0.5t-3 -6.5q-1 -4 -2 -6q8 0 14 -3v-40l-2 1q-1 -8 2 -8v-79q0 -46 17 -78q-11 -7 -19.5 -19.5t0.5 -16.5q1 7 5.5 12t9.5 10t6 11q13 -23 30 -24
q8 0 16 6q3 -2 5 3q7 7 13 16q3 -2 4 4q0 1 -1 2q12 26 12 59v48q4 -6 5 -9q6 9 -5 24v70q0 50 -24 76v2q-1 0 -1 -1q-12 12 -24 12q-22 0 -37 -30q0 1 -1 2l-5 2q2 -2 6 -5q-8 -17 -11 -38zM104 245zM100 425q-3 3 -6 9.5t-5.5 10.5t-7.5 8t-11 5q-3 -11 1.5 -14.5t9 -8.5
t2.5 -19q13 1 17 9zM91 496q3 3 4.5 11t-4.5 10l-2 -11q0 1 -1 4q-2 14 -5 15q-8 -17 -9 -25q12 1 17 -4zM100 588q20 -1 20 9q-20 1 -20 -9zM116 659q-4 -4 -3 -9.5t7 -6.5q0 3 0.5 6.5t-0.5 6.5t-4 3zM116 697zM136 699q2 -4 3 -5q-1 2 -2 3v1.5t-1 0.5zM146 613zM159 674
q1 1 5 3.5t5 2.5q-1 -1 -7 -4zM171 639v16h-9q1 -1 0.5 -7.5t1 -8.5t7.5 0zM188 651z" />
    <glyph glyph-name="seven" unicode="7" horiz-adv-x="360" 
d="M301 418l23 -64h-74l-4 -23q-5 -1 -10.5 2t-7 5t-3.5 -1q3 -3 6.5 -11t6.5 -10q0 3 7 6l-41 -232q-8 0 -10.5 -6.5t2.5 -10.5q2 -1 5 1l-12 -70h-89l62 350h-44q3 2 3 4.5t-5 3.5v-3l-22 59l0.5 -0.5t0.5 -1.5v1v1h78l34 195h-153h-1v0h-17v91h206q-1 -3 0 -5q1 -5 4 1
q1 3 -1 4h67l-16 -91l-34 -193q-1 0 -3 1q-2 -7 0 -8q3 0 4 5h38zM280 559zM296 685zM284 580zM288 693zM280 630zM271 496zM263 467zM45 618q-1 4 1.5 8.5t2.5 7.5q-9 5 -9 -7q0 -9 5 -9zM166 362zM162 383zM120 94zM154 219q-4 -7 4.5 -8.5t8.5 5.5l-1 3h-12zM162 64z
M166 48zM162 106q8 -5 9 5q0 7 -5 8q0 -5 -4 -4v-9zM154 270h11t8 3t2 9q-5 1 -9 0.5t-7 -1.5t-4.5 -4t-0.5 -7zM175 115zM166 333q-1 0 -3 1q-4 1 -4 0q1 -4 14 -9q3 -1 3 0q0 2 -5 8q-1 0 -2.5 -0.5t-2.5 0.5zM179 240zM187 98zM192 312zM217 500zM112 680q0 -9 8 -12v2
q0 4 -0.5 6t-2 3.5t-5.5 0.5zM133 651zM145 697zM200 622h8v8h-8v-8zM208 576zM208 521zM208 408zM204 588zM200 463zM200 257zM204 136zM200 182q14 -1 12 12q-16 4 -12 -12zM208 274h7.5t6 1t3.5 3h-8q-1 6 4 13q-10 3 -12 -2t-1 -15zM254 664zM242 605zM246 551zM238 349
zM250 437zM254 391q0 3 2.5 6t2.5 7q-8 5 -10 -5q1 -7 5 -8zM263 391z" />
    <glyph glyph-name="eight" unicode="8" horiz-adv-x="347" 
d="M309 567v-91q0 -55 -39 -94q28 -46 28 -104v-45q-3 -2 -7 -9q3 1 7 2v-11v-1v-53q0 -70 -38 -119t-92.5 -49t-93 49t-38.5 119v117q0 25 6 50q5 -3 6 0q-5 0 -3.5 3l3.5 7t-1 6q9 30 27 52q-17 22 -24 51q4 2 4 3l-1 -1l-3 -2q-3 16 -3 29v10q4 4 0 8v73q0 55 38.5 93
t92.5 38t92.5 -38t38.5 -93zM48 504zM257 630zM262 454zM245 148zM203 605zM165 689zM161 639zM127 559zM127 454zM136 425zM136 391h-5t-5.5 -1t-2.5 -3q16 -10 13 4zM127 333zM81 521zM86 366zM90 295q4 4 3 10t-7 7q0 -4 -0.5 -7.5t0.5 -6.5t4 -3zM77 475q-2 -15 9 -17
q-1 2 -0.5 8.5t-1 8.5t-7.5 0zM77 400l2.5 5.5t1.5 10.5q-8 5 -9 -7q1 -9 5 -9zM86 81zM90 35zM94 69zM98 295zM94 421zM119 333zM123 10v8h-8v-8h8zM119 115zM127 18zM148 106zM153 90zM169 77zM165 98zM190 119zM199 60q9 -7 12 4q-6 0 -12 5v-9zM213 201v51
q0 31 -13 52.5t-31.5 21.5t-32 -21.5t-13.5 -52.5v-51q0 -16 4 -30q-8 -3 -8 -6q5 -2 10 -1q13 -37 39 -37q19 0 32 21.5t13 52.5zM178 433zM190 366zM194 437h9v9h-9v-9zM207 379q0 2 2 3l4 2t2 3q-2 0 -5 2.5t-7 1.5v-8q0 -5 4 -4zM215 442zM220 408zM224 507v40
q0 18 -8 32.5t-21 21.5q-1 3 -5 4v-1.5v-1.5q-6 2 -11 2q-19 0 -32 -16.5t-13 -40.5v-35q-1 1 -2 1q0 -7 2 -7q0 -16 6.5 -29t16.5 -20.5t22 -7.5t23 9q0 -6 4 -2q3 3 0 5q18 18 18 46zM249 43q2 19 -13 17q0 -2 0.5 -4.5t1 -3.5t2.5 -2.5t2.5 -2t3.5 -2t3 -2.5zM245 64
q-1 6 3.5 8.5t8 6t0.5 11.5q-9 1 -14.5 -10t2.5 -16zM262 240zM262 295zM287 123l-1 -3.5t-2 -6.5t-2 -2q8 -8 9 3q0 8 -4 9zM266 358q8 -5 9 7q-1 9 -5 10q0 -1 -2.5 -6.5t-1.5 -10.5zM270 416zM290 529q-2 -4 -2 -5q0 1 1 3q1 1 1 2h0.5t0.5 1t1 2q0 -1 -2 -3zM274 530z
M287 509zM287 458q0 -1 -0.5 -7.5t1 -8.5t7.5 0q-1 13 -8 16zM299 563z" />
    <glyph glyph-name="nine" unicode="9" horiz-adv-x="339" 
d="M302 407q-3 1 -6 1q-2 -10 6 -14v-34q-2 1 -6 2q-4 -5 -2.5 -11.5t7.5 -9.5q0 2 1 5v-43h-6v-8h6v-172q0 -50 -33 -87.5t-81 -44.5v1.5t-1 0.5h-8v-3h-10q-55 0 -94 39t-39 94v16h86q6 -28 18.5 -45t27.5 -17q21 0 35.5 30t14.5 72v67q-24 -9 -49 -9q-39 0 -72 21
q2 3 2 8q-7 0 -11 -2q-15 12 -26 28v3h-3q-23 34 -23 75v40q2 3 0 5v153q0 22 7 44q6 0 10 -7.5t9.5 -14.5t16.5 -6q0 11 -13.5 18.5t-12.5 19.5q-3 0 -6 -1q3 8 9 17q3 -5 7 -6.5t7 2.5q-2 1 -3.5 3t-2 6.5t-0.5 5.5q40 52 105 52h3h3h1q26 -1 49 -12t40.5 -29.5
t26.5 -41.5v0q10 -24 10 -50v-161zM45 110zM53 73zM100 106q-12 -14 0 -21q3 4 4.5 11.5t-4.5 9.5zM108 14zM95 27q14 -1 24 13q6 10 -3 12q0 -7 -11.5 -11t-9.5 -14zM129 18zM133 56q11 -1 8 13h-8v-13zM167 48zM296 127zM292 580v-9h9v9h-9zM276 601zM267 643zM259 437
q-2 -1 -5.5 -4.5t-5.5 -7t-2 -9.5q8 0 13 15q3 7 0 6zM250 488q-3 -8 -2 -12.5t11 -4.5q-1 13 -9 17zM255 379v-9h8v9h-8zM250 538q-1 -5 1 -7t6.5 -3t5.5 -3q1 4 0.5 5.5t-2.5 2.5t-3.5 1.5t-4 1.5t-3.5 2zM246 584q11 -1 9 13h-9v-13zM246 500zM229 551q1 0 1 1
q2 3 2.5 4.5l1.5 4.5t0 4.5t-5 1.5l-1 -2.5t-2 -4t-1.5 -4t0.5 -4t4 -1.5zM225 525h9v9h-9v-9zM225 496zM225 605zM221 689q2 -6 -2 -12t-6.5 -9t4.5 -9q0 2 3 6.5t4.5 8.5t1 8t-4.5 7zM217 580zM221 597zM158 697v-8h9v8h-9zM154 672zM175 651q-3 -11 -15 -8t-14 -13
q4 2 16.5 3.5t16.5 5.5v4t-1 6t-3 2zM137 668q-1 -20 9 -25q0 3 1 7.5t1 6.5t-0.5 4.5t-3 4t-7.5 2.5zM137 626zM125 613zM108 597v-9h8v9h-8zM112 538l-1 -1q-8 -15 1 -16l1.5 2.5t2 4.5t1 4.5t-0.5 4t-4 1.5zM116 521zM108 509zM99 651zM104 626zM91 374zM95 425
q-8 5 -9 -7q1 -9 5 -10q0 4 2.5 8.5t1.5 8.5zM91 488q-6 -7 -2.5 -15.5t10.5 -9.5q0 1 0.5 6t0 7t-1 5.5t-2.5 5t-5 1.5zM83 534zM91 576h8v8h-8v-8zM74 626q4 3 9 5t10 2.5t6 0.5q-3 0 -6.5 5t-9.5 4q2 -7 -4.5 -8.5t-4.5 -8.5zM58 576q0 -3 -4.5 -6t-8.5 -4t-5 -4t5 -7
q1 0 2.5 2t3.5 3t4 3t3 4t2 3.5t0.5 3t-2.5 2.5zM49 509zM49 333h8.5h8.5q1 9 -8 11q-8 1 -9 -7v-4zM62 425zM62 463zM74 467zM79 433zM79 312q15 -5 24 8q3 6 1 8q0 -7 -13 -8t-12 -8zM104 425zM108 479q8 -5 9 5q-1 7 -5 8q0 -5 -4 -4v-9zM129 278q8 -5 9 7q0 9 -5 10
l-2.5 -6t-1.5 -11zM129 337zM141 249zM158 253zM146 312q0 -5 1.5 -8.5t5.5 -7.5l5 -5q-1 2 -1.5 8.5t-3 9.5t-7.5 3zM162 282zM171 261zM169 311q13 0 24 11t17.5 30t7.5 41v54q2 -1 3 -1q0 2 2.5 5.5t1.5 6.5h-7v63q0 56 -23 89q1 4 1 8q-1 -1 -5 -3q-4 5 -9 8q2 1 2 4
t-5 3q-1 -3 0 -5q-5 2 -10 2q-16 0 -29 -17t-18 -44q-4 -3 -4.5 -7t2.5 -4q-1 -9 -1 -18v-136q0 -9 1 -19q-1 -6 1 -7q5 -28 18 -46t30 -18zM221 345zM213 349zM213 299q-1 -9 8 -13v3q0 4 -0.5 6t-2.5 3.5t-5 0.5zM179 52zM187 69zM217 22zM221 203zM221 278zM234 48z
M238 35zM250 647q0 -3 -4.5 -5.5t-3.5 -7.5q8 -3 11 8q0 4 -3 5zM242 458v-8q8 -5 9 5q0 7 -5 8q0 -5 -4 -5zM246 131zM250 211zM255 48zM263 278zM271 207v8h-8v-8h8zM271 559zM267 605q7 6 7 12.5t-11 8.5q-1 -4 1.5 -8.5t2.5 -8.5q-2 0 -3 -2zM276 374zM284 425zM301 387
zM284 513q-1 -5 1 -7t6 -3t5 -3q0 6 5 13q-3 2 -5 2.5t-2.5 0t-3 -1.5t-6.5 -1z" />
    <glyph glyph-name="colon" unicode=":" horiz-adv-x="152" 
d="M69 301v5h45v-23q-1 1 -3 1q-2 -8 1 -7q1 0 2 1v-39h-17q-2 0 -4.5 4.5t-7.5 3.5q-1 -4 3 -8h-52v67h24q1 -7 9 -5zM48 289zM56 293v-9h9v9h-9zM60 264zM106 474h8v-67h-78v67h62v-5h8v5zM60 456zM77 460q8 -4 9 6q0 6 -5 7q0 -5 -4 -4v-9zM98 427z" />
    <glyph glyph-name="semicolon" unicode=";" horiz-adv-x="152" 
d="M66 474h48v-67h-78v67h20q0 -1 10 -18v18zM49 444zM36 258v67h78v-67l-2.5 -5t-7.5 -10t-13.5 -12.5t-20.5 -9t-28 -1.5q4 1 7.5 4t3 13t-16.5 21z" />
    <glyph glyph-name="less" unicode="&#x3c;" horiz-adv-x="432" 
d="M353 189q2 0 3 1l40 -24l-56 1l-13 6h7v5h-9v-3l-4 2q4 2 4 5q-6 0 -11 -1l-35 19q5 1 3 4l-5 2q-1 -3 0 -4l-86 47h1q-5 4 6 7q7 2 -1 4q-1 -1 -24 -1l-19 11v3h-6l-5 3q4 2 1 3q-1 0 -4 1q-1 -1 -1 -2l-103 58l219 137l7 2q-1 1 -3 1l81 51h56l-36 -25l-1 0.5l-1 0.5
q-1 -1 -1 -2l-227 -155q-6 7 -9 5q4 -5 2.5 -5.5t-6.5 -2.5t-6 -5h6l-3 -2l25 -15q-4 0 -8 -0.5t-7.5 -1.5t-7.5 0q0 -4 4 -5t10.5 -2t9.5 -2q-9 6 -3 6q8 -1 10 0l14 -9q1 -4 7 -3l28 -17q-2 -1 -6.5 0t-7.5 1.5t-4 -2.5q3 0 10 -2.5t13 -1.5h1l1 1l30 -19q-6 -1 -17 0
t-15 0q3 -1 7 -4.5t8.5 -6t13.5 -2.5q4 2 5.5 4t1 3.5t-0.5 3.5l17 -10q-4 -1 -9 2q4 -5 15 -6l17 -10q0 -2 -13 -15q5 0 10 1t9 1q-1 1 0 9l66 -39q2 -6 5 -6zM320 483q-3 16 -19 0h19zM268 453v-4h9v4h-9zM230 440zM239 453q2 -2 0.5 -3t-5 -1t-5 -1t0.5 -4q6 1 13.5 3.5
l10.5 3.5q-5 1 -5 2h-10zM230 433zM187 418q-20 -1 -24 -6q19 -2 24 6zM135 362zM121 375zM73 334zM92 358v4h-9v-4h9zM97 362v-1q1 -7 9 -6q1 5 -9 7zM106 323zM135 295q1 1 5 3t4 3h-14v-4q1 -3 5 -2zM173 264q0 3 5 7q-11 1 -13 -1t4 -4zM173 284l-6 1l19 -6q1 1 -8 5h-3
h-2zM230 247q0 -2 2 -4t6.5 -4t5.5 -3q-1 1 -2 4.5t-3.5 5t-8.5 1.5zM254 234z" />
    <glyph glyph-name="equal" unicode="=" horiz-adv-x="395" 
d="M36 386h322v-43h-30q-1 4 -7 4q0 -2 1 -4h-97q-2 1 -5 0h-184v43zM94 347q0 1 2.5 6.5t1.5 10.5q-8 5 -9 -7q1 -9 5 -10zM161 377zM170 364zM178 356zM191 377zM195 352q9 -2 15 8q2 6 -3 8q0 -3 -7 -6t-5 -10zM233 381q-1 -10 8 -13q0 10 -8 13zM253 356zM346 377z
M338 307h17q3 -6 3 -8v-35h-322q5 3 4 12h-4v31h84q-1 -2 -1.5 -5.5t1 -6.5t4.5 -2q-1 9 3 14h206q1 -3 4 -6q1 3 1 6zM44 297zM203 301zM212 280q0 3 2 6t2 7q-8 5 -9 -5q0 -7 5 -8zM270 301zM283 280zM304 268v8h-9v-8h9zM295 293q7 -3 12 5q4 6 -3 7q-1 -3 -4.5 -6.5
t-4.5 -5.5zM333 280v9h-8v-9h8z" />
    <glyph glyph-name="greater" unicode="&#x3e;" horiz-adv-x="432" 
d="M177 474l219 -138l-104 -58v2q-5 -1 -5.5 -2t1.5 -2l-5 -3h-5v-3l-20 -11q-22 0 -23 1q-8 -2 -2 -4q11 -3 7 -7h1l-86 -47q1 1 -1 4q-5 -1 -5 -3t4 -3l-36 -19q-5 1 -10 1q0 -3 3 -5l-3 -2v3h-10v-5h7l-12 -6l-56 -1l39 24q1 -1 4 -1t4 6l66 39q1 -8 1 -9q4 0 9 -1t10 -1
q-13 13 -14 15l17 10q12 1 16 6q-5 -3 -9 -2l16 10q0 -1 0.5 -2.5t0.5 -2.5t1.5 -2.5t4.5 -3.5q8 0 13 2.5t9 6t6 4.5q-3 1 -14.5 0t-16.5 0l30 19q0 -1 1 -1q7 0 14 2t10 2q-1 3 -4 2.5t-8 -1.5t-6 0l28 17q5 -1 6 3l14 9q3 -1 9 0q5 0 5 -1l-6 -5q2 1 9 2t11 2t4 5
q-5 0 -11.5 1t-11.5 1l24 15l-3 2h6q0 3 -5.5 5t-7 2.5t3.5 5.5q-3 2 -10 -5l-227 155v2q-1 0 -2 -1l-36 25h56l80 -51q-8 -2 2 -2q2 -1 3 0zM112 483h19q-16 16 -19 0zM164 449v4h-10v-4h10zM183 453q0 -1 -1 -1.5t-4 -0.5l10.5 -3.5t13.5 -3.5q2 3 0 4t-5 1t-5 1t0 3h-9z
M202 440zM202 433zM244 418q6 -8 24 -6q-4 5 -24 6zM297 362zM311 375zM178 234zM188 236q1 1 5.5 3t6.5 4t2 4q-5 0 -8 -1t-3.5 -2.5t-1 -4t-1.5 -3.5zM254 284l-8 -4l18 4v1q-2 0 -5 -1h-3h-2zM259 264q8 2 8 6q-1 2 -13 1q5 -4 5 -7zM301 297v2v2h-14q1 -1 5 -3l5 -3
q4 -1 4 2zM325 323zM325 355q9 -1 9 6q1 0 1 1q-10 -2 -10 -7zM349 358v4h-10v-4h10zM358 334z" />
    <glyph glyph-name="question" unicode="?" horiz-adv-x="339" 
d="M138 5h-37v67h78v-41l-2 1q-9 -5 -3 -6q3 0 5 1v-22h-28q-3 5 -7 6q-4 -2 -6 -6zM134 26l4 -2l-1.5 1t-2.5 1zM131 61zM123 45zM232 675q32 -17 51 -48t19 -69v-200q0 -52 -35.5 -90t-87.5 -42v-117h-78v196h78q29 8 29 33v231q0 17 -11.5 28.5t-27.5 11.5
q-11 0 -20 -5.5t-14 -14.5t-5 -20v-7q-1 2 -3 2q-1 -11 3 -10v-43h-94v47q0 26 9 49q4 2 2 5q11 24 29 41.5t42 27.5t51 10q30 0 58 -13q0 -6 5 -5v2zM89 627zM39 539zM43 556zM56 598q8 -5 9 7q-1 9 -5 10q0 -4 -2.5 -9t-1.5 -8zM77 627zM89 543zM102 535zM106 598z
M173 690zM169 627q15 -10 12 4h-4.5t-6 -1t-1.5 -3zM114 116zM114 175zM139 242zM144 120zM173 196zM173 263zM211 673zM215 497q9 0 12 9q-4 4 -8.5 2t-3.5 -11zM240 531v8h-8v-8h8zM236 640zM248 372zM253 560q0 2 2 5.5t2 7.5q-8 5 -9 -5q0 -7 5 -8zM261 589q0 -9 8 -12
q-2 13 -8 12z" />
    <glyph glyph-name="at" unicode="@" horiz-adv-x="743" 
d="M661 246zM653 259v-3q0 -4 0.5 -6t2.5 -3.5t5 -0.5q-10 -15 -22 -27q-36 -37 -84 -55q1 6 -3 7q-6 1 -7 -6q0 -2 1 -4q-7 -2 -11 -4q-41 -11 -62.5 15t-26.5 79l-3.5 -3.5t-3.5 -4.5q-32 -31 -71 -50q0 2 -4 3q-1 -4 -1 -6q-52 -25 -100 -19h-1q-42 4 -68 31
q-42 42 -29.5 113.5t72.5 131.5q55 54 121.5 69t109.5 -17l2 9l24 -4v-7q0 -5 4 -4q0 5 4 4l0.5 -2.5t1 -4t2.5 -1.5q1 9 -1 13l29 -6q-12 -42 -21 -80q-10 -37 -16 -88q-8 -67 5 -98q-9 -6 -8 -18q9 1 14 8q13 -19 36 -15v-1q3 0 5 -5t8 -3q2 6 -5 11l2 1q18 9 38 30
q-2 -3 -2 -5q16 11 13 19q16 21 25 45q2 -1 4 -1l-2 6q33 92 -21 221q-40 96 -149 116v1q-4 3 -7 0q-54 8 -112.5 -5.5t-110 -45.5t-89.5 -85.5t-50 -119.5h-4v-8h3q-7 -48 0 -98v-1.5v-0.5q-2 -3 -3 -5h4q12 -75 40 -127q-2 1 -6 1q-2 -6 -0.5 -9t7.5 -4t7 -1
q25 -41 59 -64t74 -32l-0.5 -1t-0.5 -2q4 0 7 2q10 -3 23 -4v-6h8v5q36 -2 76 3v-8q9 -1 8 10q26 4 51.5 11.5t37.5 13.5l13 5l4 -10q-5 -7 -5 -13q4 1 9 5l8 -19q-15 -11 -43 -19.5t-64 -14t-76.5 -3t-81 11.5t-77.5 31.5t-66.5 54.5t-47.5 84t-20 118q-2 78 22.5 147.5
t67 119t97 84t114 49t115.5 8.5q104 -11 165 -85q22 -27 39 -55q-2 -3 -1 -4.5t4 -0.5q21 -35 32.5 -70t14.5 -67.5t-1.5 -63t-15 -57t-27.5 -49.5q1 10 -8 13zM674 288zM682 317zM682 347zM699 363h1q-1 0 -2 1q1 0 1 -0.5v-0.5zM699 409zM691 338zM695 389zM691 372v6v6
q-14 1 -13 -12h13zM682 456q1 -7 -2.5 -14.5t-1.5 -15.5q8 -3 9 9q2 17 -5 21zM674 502zM674 405q0 -4 -2.5 -8.5t-1.5 -7.5q6 -3 16 12q-5 0 -12 4zM661 497zM661 447zM657 380zM464 32zM360 7q-6 9 -17 0q-9 -8 0 -12q0 3 8.5 4.5t8.5 7.5zM183 49zM163 66q1 -4 -0.5 -8.5
t-0.5 -8.5t5 -4q-1 3 0 8t0.5 9t-4.5 4zM137 116v-8h9v8h-9zM125 83v-9q0 -5 4 -4q2 8 16 -7q2 -3 2 -1q0 1 -1 4q0 9 -4.5 12t-16.5 5zM108 137zM95 225zM100 162v3q-1 4 -1 5.5t-2 3.5t-6 1q0 -10 9 -13zM54 309zM54 242zM58 296zM57.5 413.5l1 1t1.5 0.5q-1 0 -2 -1
l-2 -2l0.5 0.5zM70 321zM70 351zM70 468zM100 506zM87 418zM95 439zM103 488q-1 0 -3.5 1t-4.5 2q-1 0 -1 1q0 -1 2 -1q5 -2 7 -3zM150 569zM175 594zM297 632zM456 690zM506 665zM552 615zM552 644zM573 602zM582 611zM590 573q0 -10 8 -13q1 10 -8 13zM603 594zM515 481z
M502 430zM506 393q-8 5 -9 -5q1 -7 5 -8q0 2 1.5 4t2.5 4t0 5zM230 355zM196 259zM171 271q7 1 10.5 12t6.5 13q-17 -3 -17 -25zM204 217q3 7 -4 11t-8 -3q3 0 5 -5t7 -3zM213 246zM230 271zM230 313zM389 472zM343 443zM334 435zM301 481zM297 460v-6.5v-6.5q10 -1 8 13h-8
zM271 405zM259 397zM259 359zM246 439q-4 -8 5 -9t9 5l-1 4h-13zM242 221zM242 384zM255 229zM259 275q0 -9 8 -12q1 9 -8 12zM301 200zM355 233q-7 3 -11 -4q-2 -6 3 -8q0 3 4 6.5t4 5.5zM355 204q-1 3 0.5 6t3 4.5t1.5 3.5t-5 3q-8 -16 0 -17zM364 242zM389 233zM389 254z
M389 217zM401 233q5 5 4 10.5t-8 6.5q1 -3 0.5 -6.5t0.5 -6.5t3 -4zM393 284q16 -10 13 4h-5t-6 -1t-2 -3zM427 280zM427 284v8h-9v-8h9zM418 380q3 -1 6 0t3 4q-3 0 -6 2t-5 2q-3 14 -12 23q-19 19 -52 13.5t-60.5 -33t-33 -60t13.5 -52t52 -14t60 32.5q39 39 34 82z
M427 497zM439 397zM456 481zM460 233q-1 5 0 10.5t0.5 10t-4.5 5.5q1 -3 0.5 -7.5t-1 -8t0.5 -6.5t4 -4zM464 254zM460 313zM468 267zM473 292zM481 372zM485 200zM502 171q11 -3 11 8q-1 15 -10 19q-3 1 -5 -2q4 0 4.5 -5t-0.5 -10.5t0 -9.5zM536 204zM603 212zM615 225v8
h-8v-8h8zM632 263zM615 590zM619 556q1 -2 0 -9t0.5 -10.5t8.5 -1.5q-1 2 -2 7.5t-2.5 9t-4.5 4.5zM640 456q3 -1 4 3q5 13 -1 17q-1 1 -3 1q-6 -1 -9 -13q-1 -8 7 -9q1 0 2 1zM644 271z" />
    <glyph glyph-name="A" unicode="A" horiz-adv-x="431" 
d="M374 111l21 -115h-90l-11 62h-83v5h-9v-5h-66l-1 -9q-2 1 -4 1q0 -7 3 -7l-9 -47h-76q8 1 7 8q-10 0 -13 -8h-7l123 700h18q0 -3 2 -3t3 3h89l17 -95q-4 -4 1 -9l8 -44q-1 0 -2 1q0 -12 4 -13l75 -423h-8v-8h8v6zM52 54zM81 130zM68 50zM68 113zM81 0q0 2 2.5 5.5
t1.5 6.5q-8 5 -9 -5q0 -7 5 -7zM85 172q6 -3 10 2t3.5 11t-5.5 8q2 -6 0.5 -9.5t-4.5 -6t-4 -5.5zM98 285zM106 109zM106 218zM299 335q0 10 -9 13q0 -10 9 -13zM286 381v-8h9v8h-9zM284 535q-3 -4 -5 -8l1 2t2 3q1 2 2 3zM269 268zM274 222zM265 536zM261 461q-7 0 -10 -3
t-3 -10q14 -1 13 13zM253 402zM223 482zM211 633zM211 507zM207 486zM169 465zM165 348zM148 276zM131 117zM135 105zM135 222q1 0 1.5 0.5l0.5 0.5l-3 -2zM135 318zM135 344zM144 465zM144 490zM148 130zM165 79q6 1 12 -4v7.5t-0.5 6t-3.5 3.5q0 -3 -4 -6.5t-4 -6.5z
M169 134v-5t1 -5.5t3 -2.5q0 4 1 6t4 4t3 3h-12zM177 109zM181 63zM215 105q3 8 -8 11q-4 -1 -5 -3q3 0 4.5 -2.5t3 -4.5t5.5 -1zM228 113zM248 79q5 1 7.5 4t3.5 7t2.5 8t3.5 7q-16 -4 -17 -26zM274 67zM145 148h140l-70 358l-30 -155l-7 -37h-1v-5l-2 -10q-1 0 -3 1l1 -1
h2zM299 251q-4 8 -2 14.5t3.5 8t-5.5 7.5q1 -5 0.5 -7.5t-2.5 -3.5t-4 -2.5t-3 -3.5q3 0 5 -1.5t2.5 -4t1.5 -5t4 -2.5zM336 205zM336 167zM324 247q-4 -8 4.5 -9t8.5 5q1 2 -1 4h-12zM332 331zM332 293zM320 369zM307 79zM307 121zM307 163zM307 293zM311 356zM320 193z
M332 38zM336 84q0 -10 9 -13q0 10 -9 13zM349 214zM353 96zM378 8z" />
    <glyph glyph-name="B" unicode="B" horiz-adv-x="342" 
d="M305 481q0 -34 -15 -62.5t-41 -47.5q2 -2 8 -7q1 -2 3 -3q19 -19 30 -44q0 -1 1 -3q14 -33 14 -69v-28q-1 1 -3 1q0 -7 3 -7v-59q0 -33 -5 -59q-2 3 -6 3q-1 -10 3 -14q-7 -27 -21 -44l2 9l-1 -1q-1 -1 -6.5 -5.5t-7.5 -8.5t-2 -10q-14 -11 -34 -17q1 3 -4 3q-1 -3 -1 -5
q-21 -6 -51 -6q-7 0 -21.5 -0.5t-24.5 -0.5h-11q-2 7 -6 9.5t-7 -1.5q5 0 5 -8h-70v700h89v-251q18 -30 46 -30q16 0 29.5 11t21 29.5t7.5 41.5v48q0 34 -17 58t-41 24h-5v6q3 4 2 8h-2v55h2.5h2.5q13 0 27 -3q-1 -3 -7 -4.5t-6 -5.5q3 -4 6.5 -3t6 5.5t2.5 7.5
q43 -10 72 -43q-1 -1 -4 -3.5t-3 -5.5q6 -3 11 4q29 -37 29 -84v-80zM290 444zM292 461q0 1 -3 3q3 -2 3 -3zM277 423zM273 603zM269 628zM193 637zM118 587zM110 473zM105 96q1 -2 0 -6v-5.5t1 -4t2.5 -2t5.5 0.5q2 16 -9 17zM110 201q-8 5 -9 -5q0 -7 4 -8q1 3 3 6t2 7z
M105 239zM105 306q1 -1 1 -3.5t1 -4t3 -1.5q2 19 -13 17v-8q1 -5 4 -4q1 5 4 4zM101 641zM76 608zM72 570zM59 549zM59 499zM38 520zM43 205zM45 666h3h-1h-2zM55 507zM64 448q-8 5 -10 -5q1 -7 5 -7q0 2 1.5 3.5t2.5 3.5t1 5zM55 394v-9q8 -4 9 5q0 7 -5 8q0 -5 -4 -4z
M59 289zM64 42q-2 4 -0.5 9.5t0.5 10.5t-5 5q2 -4 0.5 -9.5t-1 -10.5t5.5 -5zM68 63zM64 121zM72 75zM72 398zM72 511h1h-3h2zM76 100zM85 180zM89 641zM89 8zM93 419q0 -10 8 -13v3q0 4 -0.5 6t-2 3.5t-5.5 0.5zM97 21q18 1 17 21q-18 -5 -17 -21zM114 59zM118 142z
M118 289zM244 285q-7 -1 -9 -12q-2 -9 6 -9h3q3 -1 4 4q4 12 -2 16q-1 1 -2 1zM240 507zM235 633zM202 654q3 0 7.5 0.5t5.5 1t3.5 0t4 -2l4.5 -4.5q0 3 1.5 7t2 6.5t0 6t-3.5 6.5q-8 1 -12 -8t-9 -9q0 4 -3 2q-2 -1 -1 -6zM223 595zM227 608h8v8h-8v-8zM231 344
q0 1 -1.5 6.5t-2.5 9t-4 4.5q0 -2 -0.5 -9t1 -10t7.5 -1zM219 398zM206 402zM202 369q0 9 -9 12q0 -9 9 -12zM189 356zM177 411zM164 398zM156 385zM139 335v-8h8v8h-8zM126 92zM139 12zM143 71zM160 4q3 7 -5 12q-6 1 -8 -4q3 0 5.5 -4.5t7.5 -3.5zM193 42zM206 21zM219 33
v9h-9v-9h9zM235 71zM235 105q-3 9 0 15.5t0 9.5q-1 -7 -5 -1q-3 4 -5 5q4 18 4 37v56q0 39 -17 66.5t-41 27.5q-28 0 -46 -35v-174q18 -35 46 -35q17 0 31 14.5t21 38.5v-3q1 -22 12 -22zM242 28q1 -1 2.5 -1.5l1.5 -0.5q-1 0 -4 2zM277 96zM286 126zM286 155zM294 147z
M298 197zM294 180v6.5v6.5q-14 1 -13 -13h13zM286 264q1 -6 -2.5 -14t-2.5 -15q8 -3 10 8q1 18 -5 21zM277 310zM277 214q1 -4 -1.5 -9t-2.5 -8q6 -3 17 12q-6 0 -13 5zM265 306zM265 256zM261 188zM265 54q0 10 -9 13v-3q1 -4 1 -5.5t2 -3t6 -1.5zM248 79zM252 633z
M256 532zM265 582z" />
    <glyph glyph-name="C" unicode="C" horiz-adv-x="347" 
d="M51 92q-2 0 -3 -6.5t0 -8.5q-4 9 -7 19q5 0 10 -4zM309 559v-3q-3 0 -6 -3q3 0 6 -4v-31q-6 0 -10 -11q6 1 10 3v-10q-2 -2 -3 -5h-45h-39v27q0 44 -15 74.5t-36 30.5q-12 0 -23 -12t-18 -32.5t-9 -45.5q0 -1 -3 -3q-7 -8 1 -10q-1 1 2 4v-3v-3v-124q-5 -2 -6.5 -6.5
t4.5 -6.5q0 3 2 5v-123q-4 -6 -7 -7q5 -2 5 -9l1 1h1v-57q0 -43 14.5 -73.5t35.5 -30.5q20 0 35 29q1 -4 3 -1q3 4 -1 6q14 30 14 70v12h44q-4 -3 -5 -6q11 1 17 -4q-2 7 3 10h28v-20q-1 1 -2 1q1 -8 2 -10v-45q0 -21 -6 -41q1 12 -4 13q1 -3 0 -12t0 -11q-1 -2 -2 -6
q-8 1 -10 -4t1 -12l-6 -10q-4 0 -6.5 -3.5t-2.5 -5.5q-40 -45 -100 -45q-41 0 -75 23v2h-4q-23 16 -38 41v1h-1q-4 7 -7 13l3 3q4 13 0 26q-7 1 -12 1q-3 13 -3 27v339q3 -3 7 -3q1 14 -7 20v70q0 57 40 97t97 40q19 0 38 -5v-4q3 0 5 2q8 -3 16 -7q-2 -6 0 -7q3 0 4 5
q50 -26 67 -80v-1q6 -19 6 -40zM295 167q-10 1 -12 -11q-1 -10 7 -9q-2 6 1.5 11t3.5 9zM236 29v-2q0 -4 0.5 -6t2.5 -3.5t5 -0.5q1 9 -8 12zM274 134zM265 96zM265 75q-1 -5 -8 0q1 -4 0 -9.5t-0.5 -10.5t4.5 -5q-1 4 2 10.5t4.5 9.5t-2.5 5zM248 155v-21q12 -2 12 8
q-2 11 -12 13zM248 84q5 4 4 10t-8 6q1 -3 0.5 -6.5t0.5 -6.5t3 -3zM236 134zM244 75h-5h-5t-4 -1t-3 -3q3 0 5 -2l4 -4t4 -2q1 5 4 4v8zM202 100zM123 12q0 2 1.5 4.5t2.5 4.5l2 4l2 4q-8 3 -12 -9q-2 -7 4 -8zM119 46zM127 75zM156 71v-8h9v8h-9zM152 21zM148 79zM135 96z
M131 109zM123 105q-1 -2 -5.5 -10t-3.5 -16q6 5 10.5 3.5t8 -1.5t2.5 7q-5 -3 -7 -0.5t-1 6.5t0 7.5t-4 3.5zM110 603zM98 603zM89 666zM85 641zM85 553zM72 499zM72 452q-2 -14 0 -29q3 1 6 0t5 -3t3.5 -1.5t2.5 4.5q-11 6 -17 17q9 -2 9 4q-2 8 -9 8zM81 356zM72 398
q1 0 0 -3.5t-2 -6.5t-2 -3q8 -7 9 4q-1 8 -5 9zM77 281zM56 455zM51 616zM39 570q15 -10 12 4h-4t-6 -1t-2 -3zM43 499zM43 427zM43 411zM43 239zM43 130zM51 364zM60 151v8h-9v-8h9zM56 184zM60 599zM64 293q0 -9 8 -12v2q0 4 -0.5 6t-2 3.5t-5.5 0.5zM72 222zM72 184z
M77 84zM85 67zM77 230q11 -2 12 8q1 9 -8 9q-1 -3 -4 -6t-3.5 -4.5t3.5 -6.5zM85 264zM93 591zM93 134zM98 235zM102 268q-1 -9 8 -12q0 9 -8 12zM110 134zM106 92zM114 432zM114 490h-8v-8h8v8zM152 670v9h-8v-9h8zM219 670zM219 645zM226 654h1h1h-1h-1zM232 628zM240 507
zM248 612q2 2 5.5 6t5 6.5t1.5 7t-3 9.5q-6 1 -8.5 -6t-2.5 -15t2 -8zM269 637zM265 574q8 -3 10 9q1 17 -6 20q2 -7 -1.5 -15t-2.5 -14zM274 553zM282 536v9h-8v-9h8zM286 616q4 9 -4 15q-3 3 -4 -3q3 0 3.5 -2.5t1.5 -6t3 -3.5z" />
    <glyph glyph-name="D" unicode="D" horiz-adv-x="387" 
d="M349 419q-13 1 -9 -13q6 0 9 3v-53q-3 0 -4.5 3t-1.5 6.5t-1.5 5.5t-6.5 2v-21q3 1 8 -1.5t6 -2.5v-135q-1 -1 -1 -4t-2 -10q-1 -2 -0.5 -1.5t2.5 3.5h1v-41q0 -56 -34 -100v3h-9v-9h4q-35 -41 -87 -53l-1 3q-7 2 -9 -5q-15 -3 -28 -3h-10.5h-14.5q-1 2 -5 4q-4 -2 -3 -4
h-27h-89v17q2 2 2.5 4t-2.5 3v630q1 0 2 -1q1 8 6.5 0.5t5.5 -0.5q-4 0 -5.5 3t-1.5 6.5t-1 7.5t-4 4q3 -5 -2 -12v38h61v0q4 -1 8 0h20v-625q9 -3 59 -3l1 -1v1q29 0 51.5 23t32.5 60q6 0 8 8q-3 0 -6 -1q5 20 5 41v183q3 0 4.5 2.5t-3.5 5.5q-1 -1 -1 -1.5v-0.5v73h1
q1 7 -1 12v23q0 37 -14 70q4 0 2 8h-4h-2q-5 10 -9 15q-26 39 -64 39q-10 0 -20 -4v71q10 1 20 1h12v-1v1q31 -3 59 -16q0 -9 4 -10q2 3 3 6q21 -11 38 -28q7 -7 14 -16q0 -2 2 -3q32 -43 32 -97v-113zM218 662q-9 -4 -7 -11t11 -10q-3 5 -1 12t-3 9zM227 616zM264 616z
M256 616q0 4 7 9t5 12q-3 0 -6.5 -1t-5.5 -3.5t-3.5 -5.5t-0.5 -6t4 -5zM273 549zM97 666q-1 4 -0.5 7t-0.5 6t-4 4q1 -3 0.5 -6.5t0.5 -6.5t4 -4zM92 465v-13q2 1 4.5 1h4t3 1t1.5 3q-3 0 -6.5 3.5t-6.5 4.5zM97 193zM88 339zM88 448zM82 672q-2 2 -5 7q2 -4 2.5 -4.5
t1 -1.5t1.5 -1zM76 549zM67 235zM67 427zM59 637zM59 520zM59 486q-5 5 -9 2.5t-4 -10.5q10 -1 13 8zM38 276v-8v-8q9 2 11.5 0t5.5 -5.5t8 -3.5q-1 3 0.5 6.5t2 4t-2.5 2.5q-5 -5 -7 -1t-7 9.5t-11 3.5zM38 50zM59 218q-7 1 -10.5 -1.5t-4.5 -5.5t-2 -10q16 1 17 17z
M50 105zM50 130zM55 46zM63 54zM76 151v6v6q-20 -1 -21 -21q6 -1 9 5.5t12 3.5zM80 29zM80 109zM80 184zM92 255q-7 -5 -7.5 -14.5t7.5 -14.5q-1 5 0 13t2.5 11.5t-2.5 4.5zM92 142zM97 100zM105 33zM113 675zM118 214zM118 415zM118 624zM143 0q5 9 -1 13q-6 5 -8 -4
q-1 -3 0 -9h9zM151 42q-1 4 0 9.5t0.5 10.5t-4.5 5q-2 -1 -3 -5.5t-3 -6.5t-7 -1q0 3 -2 3l-2 -3q3 -4 21 -12zM210 63q-1 -8 5 -6q2 1 9 5q8 5 11 5q-5 1 -4 8q-8 3 -11 -5.5t-10 -6.5zM231 21zM239 29zM235 54zM256 79zM260 38v-3q0 -4 0.5 -6t2.5 -3.5t5 -0.5q1 9 -8 13z
M264 96zM268 117zM340 473zM335 578zM335.5 532q-1.5 1 -1.5 -1q0 -10 6 -16q2 3 -0.5 9.5t-4 7.5zM323 486q-7 2 -14.5 -1t-10.5 -3q1 -5 4.5 -9l7 -8t5.5 -8q1 3 1 8.5t1.5 10.5t5.5 10zM315 394zM302 419zM285 138zM294 654zM294 608zM294 553zM294 440zM298 50zM298 159
zM294 205q10 -2 12 7t-4 14q-4 1 -6 0t-2.5 -3.5t-0.5 -5.5t0.5 -6t0.5 -6zM310 84zM310 138zM310 188zM319 264zM331 214zM331 255zM344 180v8h-9v-8h9zM335 306zM331 448q10 -1 12 6q1 5 -5 6q-1 1 -3 1q1 -6 -4 -13z" />
    <glyph glyph-name="E" unicode="E" horiz-adv-x="347" 
d="M125 603h-1h-1v-8h2v-208h96l30 -82h-126v-153v-3v-71h35h1h11q-3 -1 -3 -3l4 -2t4.5 -1.5t4 1t0.5 5.5h127v-82h-273v25h7v8h-7v240q2 -4 3 -5q1 3 5 9t4 12q-7 -6 -12 -2v413h234h8h31v-82h-50q-1 0 -1 0.5t-1 1.5q0 -1 -1 -2h-131v-11zM291 654zM270 662zM236 691z
M224 679q0 9 -9 12v-2q1 -4 1 -6t2 -3.5t6 -0.5zM182 645zM173 670q0 -2 -1.5 -4.5t-2.5 -3.5q3 0 5 -2t4 -2q0 2 1.5 4.5t2.5 3.5q-2 0 -3.5 1t-2.5 2t-3 1zM148 637q-8 5 -9 -7q0 -9 5 -10q0 4 2 8.5t2 8.5zM136 683v2q-1 4 -1 6t-2 3.5t-6 1.5q0 -10 9 -13zM295 12z
M291 33q3 9 -4 16q-4 3 -5 -3q4 0 5 -6t4 -7zM282 71zM270 29zM266 63q1 -5 -1.5 -10.5t-3.5 -8.5t5 -6q-1 2 2 13q3 13 1 14q-1 0 -3 -2zM261 12zM249 17zM228 54zM224 42zM236 327zM224 318zM219 339zM219 359q-2 -4 -3 -4q1 1 3 4v1l2 2q-2 -2 -2 -3zM178 327zM115 628z
M115 247zM115 452zM106 432zM106 272zM102 281zM98 545zM85 381zM90 109q-1 9 -1 11v-2v-3.5t1 -5.5zM85 310zM94 670l-2 1q1 -1 3 -1h-1zM90 628zM85 494q2 16 -8 17q-5 -4 -2.5 -10.5t10.5 -6.5zM77 549zM73 624zM64 469zM60 587zM43 411q4 -1 8.5 -2.5t6 -0.5t2.5 7
q-3 -1 -6.5 -0.5t-6.5 -0.5t-4 -3zM56 297h-8v-8h8v8zM48 247zM43 235q-3 -16 10 -15q9 0 10 6q0 3 -3 4q-3 -5 -5 -4t-5.5 5t-6.5 4zM60 130zM52 147h8v8h-8v-8zM56 29v9h-8v-9h8zM56 67q-5 -7 -1 -10q5 -3 8 5q1 2 1 5h-8zM64 17zM73 33v9h-9v-9h9zM94 46q3 7 -3.5 20
t-17.5 13q5 -4 11.5 -16.5t9.5 -16.5zM98 205zM102 79zM106 96v9h-8v-9h8zM106 260v-9h9v9h-9zM111 222zM131 25q7 1 10 2t6 4.5t1 10.5q-6 0 -12 4q1 -13 -5 -21zM161 21zM144 75zM136 63q-4 -3 -8.5 -1t-5.5 2t-4 3.5l-3 3.5q-9 -20 3 -26q11 -5 16 11z" />
    <glyph glyph-name="F" unicode="F" horiz-adv-x="391" 
d="M245 616l-4 2l2 -2h-14q-1 1 -5 4q-5 -2 -3 -4h-39v-29q-1 -6 -4 -9h4v-177h42q0 -6 -4 -11h13v8q-2 0 -6 3h71l30 -80h-45q-2 4 -8 2v-1.5v-0.5h-93v-236q-7 -3 0 -9v-80h-90v325h-27l-5 14h9q1 14 -12 13v-4l-8 21q2 -1 4 3q1 3 -2 4l-3 1v-5l-5 14q2 2 1.5 4.5
t-4.5 3.5l-4 11h56v283q2 -1 5.5 -1.5t6 -1t3.5 -2.5q-2 7 -0.5 8.5t5 3.5t3.5 5q-5 0 -11.5 -5t-11.5 -1v6h88q0 -6 5 -10t10 1q-9 1 -6 9h89q0 -6 2 -7q2 -2 3 4q1 1 0 3h64h1h7v-80h-43v0h-67zM317 645zM354 637q1 9 -8 12v-2q0 -4 0.5 -6t2.5 -3.5t5 -0.5zM325 670
q-10 1 -13 -8h3q4 0 6 0.5t3.5 2.5t0.5 5zM61 385zM249 364zM233 344zM199 377q1 -5 -6 -7q-2 -1 -3 -1t-2 -1.5t-1 -3.5q10 -4 16 6q0 5 -4 7zM136 268q7 7 19 10t19 3q-5 1 -8 8q-3 -1 -9 -3.5t-9 -4t-6.5 -5t-5.5 -8.5zM161 71zM136 444zM153 327q7 2 2 11t-10 10v-21h8z
M149 285zM166 494zM166 314zM170 339v-6.5t0.5 -6.5t3.5 -3q5 4 4 9.5t-8 6.5zM170 666zM161 570zM161 595q1 0 1 1t1 1q-1 0 -1 -1t-1 -1zM161 616zM157 696zM149 511v-8q2 0 4.5 -2t3.5 -2q0 6 4 12h-12zM149 385zM141 666zM141 616zM141 306zM136 507zM115 461
q10 -2 14.5 2.5t2.5 14.5q-6 -1 -9.5 -2t-6 -5t-1.5 -10zM124 243q5 4 2.5 14.5t-11.5 10.5q3 -5 4 -9.5t2 -8t3 -7.5zM128 126h-8v-9h8v9zM107 310q1 -2 4 -8.5t6 -10.5t7 -6q-2 18 -17 25zM107 256zM103 318q16 4 25 17h-13q2 -7 -5.5 -9.5t-6.5 -7.5zM115 658zM120 587z
M115 532q-9 0 -12 -8h2q4 0 6 0.5t3.5 2t0.5 5.5zM103 473zM99 641zM94 406zM94 465zM73 390zM82 394zM115 364q0 -9 -6 -5t-12 10.5t-11 -0.5q4 -2 11.5 -10t12 -10t14.5 3q-4 0 -5 6t-4 6zM90 356zM99 348q-1 -3 -3 -6.5t-4 -6t-3.5 -5t0 -4.5t5.5 -3q1 1 3 5t4 7.5t2 7
t-4 5.5zM107 42zM111 100zM113 110l2.5 -0.5t4.5 -0.5q3 -1 4 -1zM124 79zM128 88zM128 310q-1 4 0.5 6t4 3.5t3.5 3.5q-7 2 -11 -5q-2 -6 3 -8zM132 260zM153 235q-14 1 -12 -13q13 -1 12 13zM149 17zM153 126zM149 159q8 6 7.5 15t-11.5 10q1 -4 0 -9.5t-0.5 -10.5t4.5 -5
zM157 38zM170 126v-9h8v9h-8zM174 50zM174 159zM178 478zM182 633zM203 628q9 -4 10 8q-1 8 -5 9q-1 0 -3.5 -5.5t-1.5 -11.5zM262 696v-9h8v9h-8zM266 633zM241 696v-9h8v9h-8zM224 687zM229 675q-1 -10 8 -13q0 10 -8 13z" />
    <glyph glyph-name="G" unicode="G" horiz-adv-x="393" 
d="M292 364h64v-69q-9 5 -10 -8h-38v-51q-7 -9 -8 -14q3 0 8 3v-93q0 -56 -40 -96t-96 -40q-43 0 -78 24q3 6 -4 9v-5q-45 34 -53 89h7v8h-7q-1 8 -1 11v149v275q1 2 0 3v1q0 28 11 53t29 43t43 29t53 11q24 0 48 -9q-1 -1 0.5 -1.5t3.5 -0.5q38 -15 61 -49t23 -76v-43h-93
q0 22 -4 42.5t-11.5 35t-17.5 22.5q1 11 -3 11q-4 -2 -2 -7q-7 3 -12 3q-21 0 -36 -31.5t-15 -75.5v-162q-2 1 -3 1q0 -7 3 -7v-170q0 -21 4 -41h-3v-8h5q6 -26 18 -42t27 -16q21 0 35.5 31.5t14.5 75.5v21q1 -5 4 -2q5 5 -1 7h-2q-1 -3 -1 -5v80h0.5t0.5 1h-1v6h-7
q1 5 0.5 10t-5.5 5q-1 -6 -8 -5q0 -5 2 -10h-28q-1 2 -3 2l-0.5 -0.5t-0.5 -1.5h-6v38q4 0 6 1.5t-3 4.5q-1 0 -3 -2v35h122q-2 -5 2 -8q1 1 4 3.5t5 4.5zM191 306zM191 314zM212 339v9h-9v-9h9zM300 570zM296 587zM279 624v-8h8v8h-8zM275 574v-13q3 0 5.5 1.5t4 4t2.5 3.5
q0 -2 2 -3l2 3l-5.5 2.5t-10.5 1.5zM258 570zM254 654zM250 603zM241 540zM229 666zM229 536zM220 628zM203 670zM191 620zM178 696zM69 377zM69 302q5 5 2 11.5t-10 9.5q1 -2 2 -7.5t2.5 -9t3.5 -4.5zM40 582zM48 502l2 3l-2 -2v-1q-2 -4 -3 -5q0 1 2 3zM61 285v-9h8v9h-8z
M65 205zM69 167zM166 637q2 18 -13 17q0 -1 1 -5t1.5 -5.5t1.5 -3.5t3.5 -2.5t5.5 -0.5zM145 683zM111 557zM111 574zM103 390q8 16 0 16q1 -2 -0.5 -5t-3 -5t-1 -3.5t4.5 -2.5zM90 318q6 -9 9 0q2 7 -5 9q1 -3 -1 -5t-3 -4zM99 209zM94 306zM99 507zM99 482q-8 5 -9 -5
q0 -7 4 -8l2 4l2 4t1 5zM82 528zM86 452l3 -4q2 2 -2 7q-2 2 -5 2q-4 -7 -3 -7.5t7 2.5zM90 230zM94 50zM103 167q9 6 0 17q-8 9 -13 0q5 1 6.5 -3t2 -8.5t4.5 -5.5zM111 21l2 -1l-1 0.5zM107 79q7 -5 12.5 -2t8.5 11q-20 1 -21 -9zM141 21zM178 0zM208 84zM296 251z
M291 297zM296 344q-3 2 -13 3.5t-13 4.5q-2 -9 10 -12.5t16 4.5zM283 243zM275 255zM262 293v-8h9v8h-9zM262 159zM262 239v8h-8v-8h8zM258 314zM258 344q-8 1 -11.5 -11t3.5 -15q7 17 8 26zM245 235v-13h5.5h5t4.5 1t2 3q-8 -3 -11.5 2.5t-5.5 6.5zM241 214zM241 297z
M233 318zM241 272h-6h-6q-1 -7 2 -10t10 -2v12zM220 235zM229 113q-5 -8 5 -9q7 0 7 5q-2 0 -5.5 2.5t-6.5 1.5zM229 134zM224 163q10 1 17 -7.5t13 -8.5q-2 2 -3.5 12t-5.5 13q0 -9 -8.5 -6t-12.5 -3zM266 138q-7 4 -12 -2q-4 -5 4 -6q0 2 2 3l4 2t2 3zM270 105zM270 151z
M270 247zM287 193q-13 1 -12 -13q13 -1 12 13zM287 176zM279 126q7 -8 8 3q0 8 -4 9l-4 -13v1zM283 75q11 0 8 13h-8v-13zM304 142q1 20 -4 25h-13q-5 -6 0.5 -16t16.5 -9zM333 331zM342 348zM356 287h-1q0 1 1 2v-2z" />
    <glyph glyph-name="H" unicode="H" horiz-adv-x="352" 
d="M283 88q4 9 0 25q11 -6 17 -17q-7 3 -8.5 -4t-8.5 -4zM226 114q2 -11 3.5 -22t2 -25.5t0.5 -20.5q-1 0 -3 -0.5t-3 -0.5v69zM315 309q-1 1 -3 1q0 -7 3 -7v-27h-3q0 -7 3 -7v-146q-3 12 -11 15q0 -5 -1 -8.5t-1 -5t1 -3t5 -4.5q-4 0 -7.5 0.5t-5.5 1.5t-4 0.5t-4 -2
t-4 -4.5q-3 1 -6 0t-4.5 -3t-3.5 -1.5t-3 4.5q4 4 5 17t-5 17q-8 -11 -14 -8q-2 4 1 12q-12 -2 -14 -10.5t2 -19.5q6 -1 11 2t10 3q-2 -10 -2 -11t2 -10q-4 0 -7.5 -5t-9.5 -4q0 -12 3.5 -17t8 -5.5t7.5 -3.5t2 -12q2 2 5 10.5t8 10.5q-5 -10 5.5 -11.5t10.5 -4.5v-5t-1 -6
t-3 -2q0 10 -8 13q0 -4 3 -11t1 -14q7 -3 10 0.5t5.5 6.5t9.5 1q1 8 -1 15t-4.5 14t-2.5 13q8 2 11 13v-105h-13q5 2 6 6.5t-4 5.5q0 -3 -5 -5t-4 -7h-16q2 2 7 8t9 10t9 7q-5 4 -12.5 -1t-11.5 -13t-2 -11h-52v4q48 19 48 54q-3 -5 -21 -18t-21 -28q-1 2 -1.5 12.5
t-2.5 17.5q13 1 14.5 16.5t-3.5 33.5t-13 35v62q2 -1 6 -1q-3 10 0.5 17t12.5 14t13 11h-21q0 -1 -0.5 -5t-1 -5.5t-3.5 -1.5q-1 1 -11.5 2t-13.5 10v-17q8 2 11.5 0t3.5 -4t-0.5 -7t-0.5 -7h-22v6q-7 0 -10 -6h-29q-2 1 -3 2v-1l-1 -1h-16q0 9 -4 10q-1 -5 1 -10h-12v-195
h-70l1 2.5t2.5 5t1.5 3.5q-1 -1 -4 -7l-1 -4h-19v110q2 -5 6.5 -6t5.5 5q-2 0 -4 1.5t-4 3.5t-4 3v4q10 0 8 13h-8v260v6v300h89v-41l-2 1q1 -1 2 -3v-213h-2q0 -6 2 -9v-165h58l-1 -2h17v2h27v171h2l4 -1q1 11 -6 11v249h89v-387zM107 687zM107 335zM103 297zM98 566
q1 9 -8 12v-2q0 -4 0.5 -6t2.5 -3.5t5 -0.5zM90 620zM86 406zM86 352zM82 289q-8 5 -10 -5q1 -7 5 -8q0 3 2.5 6t2.5 7zM82 268zM73 167zM73 385zM77 444q-1 0 -4 2t-5 1.5t-3 -3.5q1 0 4 -2t5 -1.5t3 3.5zM65 696zM52 390q1 -3 0 -10t0.5 -10t8.5 -1v21h-9zM56 536zM52 658
zM56 603zM61 327q-12 7 -18 0q-4 -7 5 -13q-1 5 5.5 7t7.5 6zM48 297q2 0 4.5 -1.5t4.5 -1.5t4 3l-5 2.5t-5 1.5t-3 -4zM56 268zM48 117zM52 201q0 6 4.5 12.5t4.5 12.5q-8 2 -11.5 -10.5t2.5 -14.5zM56 167zM65 63q-1 2 1.5 8.5t3 9.5t-4.5 7q-1 -4 -4.5 -2.5t-4.5 -1.5
q10 -1 6.5 -9t2.5 -12zM56 142q-3 -14 9 -19q5 -2 8 5v2q-4 0 -6.5 2.5l-5.5 5.5t-5 4zM73 63q-4 -8 4.5 -9.5t9.5 5.5l-1 4h-13zM90 38zM94 29zM98 222zM103 180zM103 243q-11 -3 1 -12q12 -8 11 -1q-5 1 -4 13h-8zM107 344q10 -1 8 12h-8v-12zM132 209v9h-9v-9h9zM165 255
q1 -1 0.5 -7.5t1 -8.5t7.5 0q-1 13 -9 16zM174 205zM186 251v9h-8v-9h8zM191 230q7 -5 9 5q-1 7 -5 8q-1 -5 -4 -4v-9zM232 549zM228 226q0 4 1 8.5t2 7.5t0.5 6.5t-2 6.5t-5.5 5q-2 -6 -2.5 -16t-5.5 -18h12zM232 289zM228 385zM237 167zM312 12zM295 507zM295 176z
M287 444zM291 549zM291 256q4 2 3 5.5t-2.5 5t-4.5 5t-4 4.5q-1 -15 8 -20zM287 628zM279 608zM283 310zM279 239zM266 247q11 -1 8 13h-8v-13zM266 335q9 -5 9 9q1 13 -5 12q2 -6 -1.5 -11t-2.5 -10zM249 369q0 -10 9 -13q0 1 -1 3v5t-2 3.5t-6 1.5zM253 318zM249 419
q1 -10 8.5 -22.5t8.5 -15.5q0 26 -17 38zM262 478q-2 3 3 21q1 3 -1 2l-2 -2q0 -4 -4.5 -9.5t-7 -8.5t2.5 -8q2 6 9 5zM262 436zM253 465zM270 415zM262 532zM258 587zM249 637zM253 499zM245 465zM241 687zM245 310q-4 -10 -3 -16t7.5 -5.5t12.5 8.5q-4 1 -7 3t-5.5 5.5
t-4.5 4.5zM253 201q2 -1 7 -11.5t14 -9.5q1 6 -4 12t-10.5 8.5t-6.5 0.5zM274 222q1 -1 3 -3.5l4 -5t4.5 -4t5 -0.5t4.5 5q-5 0 -4 12h-5h-5.5t-4 -1t-2.5 -3zM287 130zM295 151zM291 151q-1 2 0 4l2 4t2 3.5t0.5 3t-4.5 2.5q-8 -17 0 -17zM304 457zM308 628zM312 427z" />
    <glyph glyph-name="I" unicode="I" horiz-adv-x="162" 
d="M36 696h89v-198v-3v-271q-10 4 -12 -6q7 -2 12 -4v-31q-1 1 -3 1q-2 -8 1 -8l2 2v-8q-2 2 -3 2q-2 -7 3 -14v-80l-3.5 -7t-3.5 -8q4 -3 7 -1v-66h-89v270l2 -2q33 31 8 33q1 -5 -4.5 -14.5t-5.5 -10.5v424zM105 364zM105 218zM105 201q-4 5 -10.5 2.5t-6.5 -10.5
q13 1 17 8zM97 117zM84 247zM88 448zM88 184zM93 226zM93 251zM97 314zM97 574q-4 0 -7.5 5t-9.5 3v-4.5v-5t1 -4.5t3 -2q0 3 6 4t7 4zM84 427q0 -3 -5 -6.5t-3 -9.5h12q0 3 0.5 6.5t-0.5 6.5t-4 3zM76 461zM59 515zM51 683zM51 670zM55 561v3q0 4 -0.5 6t-2.5 3.5t-6 0.5
q0 -9 9 -13zM52 338q4 -2 5 -2q-4 2 -5 2q0 1 -1 1zM55 369zM42 385q10 -8 18 7q9 17 -5 23q4 -13 -4 -19.5t-9 -10.5zM59 339zM46 260q-3 -8 5 -9q9 -2 9 5q0 2 -1 4h-13zM58 111q-4 3 -10 6q1 -1 7 -4q1 -1 2 -1zM38 201zM46 180zM46 8zM59 75q0 3 2 5t2 4q-2 0 -4.5 2
t-3.5 2q0 -2 -2 -4.5t-2 -4.5q2 0 4.5 -1.5t3.5 -2.5zM63 545q0 -10 9 -13q0 10 -9 13zM67 302zM67 193zM67 239zM67 251zM76 364q-5 -7 5 -9q7 1 7 5q-2 0 -5 2.5t-7 1.5zM76 159zM84 100zM84 29q10 -3 12 2t1 15q-6 2 -7.5 -1.5t-2 -9t-3.5 -6.5zM109 50zM105 180z
M109 452zM122 696zM122 654zM118 612zM118 339z" />
    <glyph glyph-name="J" unicode="J" horiz-adv-x="374" 
d="M337 695q-1 0 -0.5 -20t0.5 -21v-364q-3 3 -5 3q-3 -12 5 -15v-142q0 -13 -3 -26q-4 3 -9 2t-6 -7q7 -7 13 -2q-11 -38 -42 -66q-16 -5 -17 -14q-20 -14 -43 -21q3 3 -3 6q-7 -6 -2 -7q-16 -4 -30 -4h-10.5h-10.5h-10t-10.5 0.5t-10 1.5t-10.5 2.5t-10 3.5t-10.5 5
t-10 6.5t-9.5 8.5q-17 16 -29 33q1 3 -3 4q-14 21 -20 41v0q-5 17 -5 32v5l2 2l-1 1l89 1q4 -12 10 -24q18 -36 43 -36q26 0 44 36t18 87v63l3 -6l-3 3q0 -1 1 -1q1 -2 2 -2q4 -7 8 -13q2 5 11.5 2t9.5 7q-11 -5 -18.5 4t-6.5 25h-7v372v34h45v-8h8v8h43zM244 549h8v8h-8v-8
zM252 302h3q4 0 5.5 0.5t3.5 2t1 5.5q-10 0 -13 -8zM51 121zM89 121zM93 42q-1 -8 3.5 -11t13.5 -2q0 3 -0.5 5.5t-3 3.5t-3.5 1.5t-5 1.5t-5 1zM105 113q9 -4 16 4q3 3 -3 4q0 -5 -4 -4q-1 10 -9 9v-13zM139 71zM143 17zM193 54zM206 33zM223 21zM219 63h4.5t6 1t1.5 3
q-3 0 -6.5 4t-5.5 4v-12zM256 209zM244 247zM244 96q-1 -3 0 -5t3 -3.5t3.5 -2t5.5 -1t5 -0.5q-1 8 -6.5 13t-10.5 -1zM265 155zM269 360zM273 419zM273 582zM286 628q0 4 3.5 7t4.5 6h-13v-8q1 -5 5 -5zM307 595v2q-1 4 -1 6t-2 3.5t-6 1.5q0 -10 9 -13zM298 121zM298 201z
M302 452zM302 532zM302 184zM302 348zM302 561zM311 63zM315 339zM319 205q11 -1 9 13h-9v-13zM328 235zM332 553z" />
    <glyph glyph-name="K" unicode="K" horiz-adv-x="413" 
d="M261 200l115 -199h-90l-52 90q1 3 -2 4l-39 68h7v4.5t-1 6t-3 1.5q0 -3 -5 -8l-66 113v-279h-89v700h84q2 -3 4 0h1v-239l48 83q3 1 3 4l88 152h89l-191 -330l22 -37q-2 -8 1 -7q1 0 2 1l42 -73h-3v-9h8v1l24 -42q-7 -2 -8 -9q0 -3 5 -4q0 2 6 8zM267 607zM263 598
q-5 10 -8 1q-1 -7 4 -9q0 2 2 4.5t2 3.5zM234 586zM230 619zM217 527q-2 -8 7 -9t10 -3q2 7 -7 8.5t-10 3.5zM196 557zM112 485zM108 557q-12 4 -11 -6q1 -7 7 -15q-1 4 2.5 9t1.5 12zM112 376q8 5 2 10q-7 5 -10 -2q-1 -3 0 -8h8zM96 502v-8h8v8h-8zM70 443q1 4 1.5 7.5
t-0.5 6.5t-2 4.5t-3.5 3.5t-3.5 3t-4 2.5t-4 2.5q-1 -7 3 -11.5t8 -8.5t5 -10zM54 691zM41 527zM37 460v-2q0 -4 0.5 -6t2.5 -3.5t5 -0.5q1 9 -8 12zM41 498zM54 234zM54 418q-4 -3 -4 -6t1 -5t3.5 -5t3.5 -5q6 1 9.5 2t6 4.5t1.5 10.5q-6 -3 -7.5 -4t-3.5 -1t-2 1t-2.5 3.5
t-5.5 4.5zM66 24q11 0 9 13h-9v-13zM75 184l1 2.5t2 4t1.5 4t-0.5 4t-4 1.5q-8 -16 0 -16zM79 422zM87 686zM96 8l2.5 -1.5t4 -2.5t4 -1.5t4 1t1.5 4.5q-2 -2 -5 -0.5t-5 3.5t-3.5 1.5t-2.5 -4.5zM104 62zM100 326q6 0 12 -4q0 6 5 12q-3 5 -4.5 6t-3 0t-3 -3t-3.5 -5.5
t-3 -5.5zM117 37zM121 443zM146 397q-1 4 0 8.5t0.5 9t-4.5 3.5q-5 -4 -4.5 -12t8.5 -9zM142 473q1 -13 8 -17v6.5v6.5t-2 4t-6 0zM150 364zM150 297q11 -1 8 12h-8v-12zM150 414q0 -6 6 -10.5t7 -6.5q-1 2 -1 5t0.5 5.5t0.5 5t-1 4t-4 1.5q-1 -5 -8 -4zM196 242zM225 209z
M246 142zM272 54zM305 58q-3 -12 5 -15q6 -3 8 6q-3 1 -6.5 4.5t-6.5 4.5zM309 62q0 6 8 10.5t5 14.5q-8 0 -14 -10t1 -15zM334 37z" />
    <glyph glyph-name="L" unicode="L" horiz-adv-x="326" 
d="M289 36l-0.5 0.5l-0.5 0.5q-2 -9 1 -8v-28h-253v591q2 1 0 3v106h89v-69q-3 -3 -5 -4q3 2 5 3v-166l-1 -1h1v-377h16q4 -2 7 0h141v-51zM124 582q-7 17 -19.5 29t-22.5 0q14 2 22 -14t20 -15zM91 510zM87 557q11 -5 17 8q3 6 -1 8q1 -4 -2 -5.5t-7 -1.5t-6.5 -2t-0.5 -7z
M103 297q-1 -3 -4 -8.5t-4 -8.5q8 -4 12 6q4 9 -4 11zM99 330q13 -2 12 4q-2 7 -12 9v-13zM103 657q-1 -3 -2 -6.5t-0.5 -6.5t1 -5t3 -5.5t3.5 -5t4 -5t4 -4.5q0 2 -0.5 9t-1 10t-2 7.5t-3.5 7.5t-6 4zM95 657zM82 645q1 -3 0 -10t1 -10t8 -1q-1 1 -2 6.5t-2.5 9t-4.5 5.5z
M78 586zM41 590v-4v-4q7 -5 9 5q-1 7 -5 7q-1 -5 -4 -4zM45 536zM49 552zM66 305v21h-9q1 -2 0 -9t0.5 -10.5t8.5 -1.5zM53 523q5 -1 7 1t3 6t3 6q-17 3 -13 -13zM49 628q5 3 10 -0.5t6.5 -6.5t4.5 3q-9 5 -8 21q-8 0 -11 -4t-2 -13zM66 657zM66 678zM74 368zM78 230
q-3 -12 5 -16q6 -3 8 7q-3 1 -6.5 4.5t-6.5 4.5zM91 112zM99 70zM108 238zM112 464zM124 435zM162 3v9h-8v-9h8zM141 24q11 -1 18 9.5t11 11.5q-21 1 -29 -21zM170 8q7 -3 12 4q4 7 -3 8q-1 -3 -4.5 -6.5t-4.5 -5.5zM183 70q-4 -4 -3.5 -10t7.5 -6v4.5v5t-1 4.5t-3 2z
M225 54zM233 70zM263 20zM275 62q0 -10 9 -13q0 10 -9 13z" />
    <glyph glyph-name="M" unicode="M" horiz-adv-x="486" 
d="M448 586h-3h-3v-13q4 0 6 2v-115h-1v-8h1v-451h-89v149q6 3 8 12.5t-4 12.5q-1 -3 -4 -8v51q2 2 4 3h-2.5h-1.5v269v1v23l-4 -21l-1 1v-6l-47 -245q-3 5 -7 8q-1 -12 5 -18l-23 -118h-53q-4 6 -5 6h-4q-1 -3 1 -6h-21l-3 16q7 0 -1 6l-4 21h7v9h-8v-3l-15 78q6 3 6 4
q-2 6 -7 3l-50 259v-129l-1 1q-1 -4 -1 -6.5t0.5 -3.5t1.5 0v-369h-59q-1 8 -8 10.5t-10 -3.5q2 -1 7 -7h-19v355q13 17 0 20v21q4 5 7 17.5t5 16.5q-8 0 -12 -4v50q7 4 4 12q-2 1 -4 1v96h2h2l2.5 5.5t1.5 11.5l-8 -2v100h58v-6q5 -2 7 0t3 6h68l4 -23h-2q0 -7 3 -7l3 -14
l-2 -4q1 0 3 -2l7 -44q-12 -1 -10 -21q9 -1 12 11l10 -55q-11 -3 -13 -11q2 0 3 -1.5t2 -4t3 -2.5q1 4 7 9l32 -181h-1v-8h2l6 -34l64 364q1 -1 2.5 -2t3.5 -1t3.5 2t2.5 6q-8 1 -11 -1l4 24h126q-2 -6 2 -6q0 4 4 6h6v-115zM191 510zM187 548zM174 540zM174 498zM166 661z
M153 674v-7v-7t1 -5t2.5 -4.5t4.5 -1.5q2 20 -8 25zM136 699zM107 548q0 -5 -4 -4v-8q8 -5 9 5q-1 7 -5 7zM107 628zM107 682zM99 657q-1 -2 -3 -8.5t-0.5 -9t7.5 -3.5q5 4 4 12.5t-8 8.5zM99 498q-6 -5 -3.5 -11.5t11.5 -5.5q2 15 -8 17zM65 670zM69 628q-19 3 -16 -17h16
v17zM53 674zM40 163zM44 284zM48 577q8 3 9 -2.5t-0.5 -11.5t4.5 -6q12 7 4 20q-7 13 -15 4zM78 536q-3 -5 -10.5 -10.5t-11.5 -8.5t-5.5 -9.5t6.5 -13.5q1 3 0 8t-0.5 9t4.5 4t4.5 -6.5t3.5 -6.5q7 5 6.5 14.5t2.5 19.5zM78 318v8h-9v-8h9zM78 293zM57 443q9 -4 9 10
q0 12 -5 11q-6 -8 -4 -21zM57 297zM57 410v-3q0 -4 0.5 -5.5t2 -3.5t5.5 -1q0 10 -8 13zM69 83zM73 209zM82 16zM82 418zM86 561zM86 670q-1 2 0 5t3 5t1.5 4t-4.5 2l-1.5 -2.5t-2 -4t-1 -4t0.5 -4t4 -1.5zM99 146zM99 41zM107 263q4 4 3.5 10t-7.5 7q0 -4 -2 -8t-1 -5.5
t7 -3.5zM99 326q-1 -11 6 -11q10 1 15 11h-21zM120 510v9h-9v-9h9zM124 557v8h-9v-8h9zM124 636q4 4 3 10t-7 7q0 -3 -0.5 -6.5t0.5 -6.5t4 -4zM149 682q-4 -1 -7.5 0t-6 3t-4.5 1.5t-3 -4.5q10 0 7 -9t1 -12q1 4 7.5 9t5.5 12zM132 632q-2 -15 9 -17q0 4 6 10t8.5 9.5
t-2.5 10.5q-5 -17 -21 -13zM153 611zM136 577q0 -9 9 -12v2q-1 4 -1 6t-2 3.5t-6 0.5zM145 561q-4 -8 4.5 -9.5t8.5 5.5q0 2 -1 4h-12zM153 544zM153 510zM162 485v9h-9v-9h9zM162 582v8h-9v-8h9zM162 619q7 -5 9 5q-1 7 -5 8q-1 -5 -4 -4v-9zM174 276zM174 431zM178 477h9
v8h-9v-8zM195 376q-11 3 -12 -7q-1 -9 8 -9l2.5 5.5t1.5 10.5zM187 209q-2 -14 12 -13v13h-12zM203 175q2 16 -8 17q0 -2 -0.5 -8.5t1.5 -8.5t7 0zM195 330zM203.5 435h2.5h-5h2.5zM212 334q8 -4 9 5q-1 7 -5 8q-1 -5 -4 -4v-9zM229 205zM233 246q-5 -4 -4 -10t8 -6v4.5v5
t-1 4.5t-3 2zM233 301zM430 435zM431 391q0 -1 -3 -5l-2 -4q1 1 4 7zM430 494zM405 577zM409 531zM400 594zM392 686q-6 -5 -3.5 -15.5t11.5 -9.5q-5 6 -5.5 14t-2.5 11zM388 318zM388 251q-8 5 -9 -5q0 -7 5 -8q0 2 1 4l2 4t1 5zM384 414zM375 649zM312 469q0 -3 -4.5 -8
t-6 -8t2.5 -5q1 2 5.5 4.5t7.5 4t2.5 4.5t-7.5 8zM300 489q-3 0 -6.5 1.5t-6 3t-5 1t-3.5 -5.5q5 -1 4 -8q6 0 13 4v-3t1 -4t3 -1v12zM275 364q2 13 -13 21q0 -8 0.5 -11.5t3.5 -7t9 -2.5zM262 259zM270 326q-4 5 -9.5 4t-6.5 -8h5h5t4 1t2 3zM245 158zM250 246zM262 158
q2 0 5.5 -2t7.5 -2q-1 1 -1 4v4.5t-1 3t-3 1.5q0 -3 -4 -5q-3 -2 -4 -4zM270 217q-1 -8 5 -8q2 0 4 4q-2 12 -14 11q-10 -1 -6 -10q1 -3 3 -5q1 10 8 8zM283 318q5 4 4.5 14.5t-8.5 10.5q-3 -3 -3.5 -6t0.5 -5t3.5 -5t3.5 -5q-2 0 -3 -2zM287 456l3 -2l-3 2v0zM296 284
q5 -1 7 1t3 6t2 6q-16 3 -12 -13zM304 355zM304 389q6 -2 10 2.5t3.5 10.5t-5.5 8q0 -4 -4.5 -8t-6 -5.5t2.5 -7.5zM317 376zM321 544zM321 666zM333 649zM354 598zM363 209zM367 66zM384 515zM379 108zM379 125zM388 79zM388 37q-2 -19 12 -17q0 1 -0.5 5t-1 5t-2 3.5
t-3.5 3t-5 0.5zM405 330v4q0 8 -0.5 12t-3.5 7t-9 2q1 -5 13 -25zM400 422q8 -4 9 5q0 7 -4 8q-1 -5 -5 -4v-9zM417 640q10 -4 15 7q3 6 -2 6q0 -3 -2.5 -4t-6 -0.5t-5 -1.5t0.5 -7zM421 548v-8h9v8h-9zM434 62zM426 230q1 -3 2 -7t2 -7.5l2 -7t4 -5.5t6 -3q0 16 -16 30z
M438 276zM434 376h2q3 1 4.5 1t3.5 0.5t2.5 2.5t-0.5 5q-9 0 -12 -9zM442 502h2q-6 1 -8 1q3 0 6 -1z" />
    <glyph glyph-name="N" unicode="N" horiz-adv-x="407" 
d="M370 313q-1 9 -4 10q-5 0 -1 -7q2 -3 5 -6v-11q-3 -3 -3 -6q0 -1 3 -1v-256q-1 1 -3 1q-2 -9 1 -8l2 2v-25q-2 -3 -1 -5h-88l-10 30q0 5 -1 10h-3l-43 122q7 8 1 9q-2 1 -4 0l-21 59q2 6 9 -8q2 -5 3 -6q-2 6 3 9.5t5 7.5q-5 5 -22 4l-24 69v2h-1l-14 42q4 -4 7 -1
q2 1 -5 5q-3 -1 -3 -3l-33 94v-167l-1 1l1 -15v-149h-1q1 -7 -1.5 -8t-5.5 1.5t-6 3t-4 -4.5q3 -1 6 -2.5t6 -3.5t6 -2v-43l-1 1q-3 -3 -15 -2t-27 -7q-3 -24 21 -29q6 4 -3 14.5t-1 14.5q2 -6 4.5 -8t8 -2.5t8.5 -1.5q-4 7 5 14v-50h-64v6q-14 0 -14 -6h-10h-1v44
q5 0 7.5 1.5t0.5 7.5q-4 0 -8 -1v35q2 -2 4 2q2 5 -4 5v17h4v9h-4v128q1 -8 8 -7q0 9 -8 13v53q1 2 0 3v93q3 -2 4 -3q0 2 2 5t1.5 5t-3.5 3q0 -3 -4 -4v100q1 1 0 2v166h4v8h-4v11q2 -2 4 2v2h17q2 -5 8 -6v6h60l33 -94h-1v-9q2 -1 4 -1l21 -62q-8 -16 0 -16q-1 3 3 9
l43 -127q-3 -4 -3 -6.5t2 -3t4 0.5l50 -145v454h89v-388zM166 536zM153 502zM128 607zM115 691zM124 665q-4 2 -11.5 9t-13.5 8q1 -2 2.5 -6t2.5 -7t2.5 -6.5t4 -6t4.5 -3.5q1 3 4.5 6.5t4.5 5.5zM73 154q-5 9 -4.5 10.5t5 0.5t8.5 2q-5 1 -4 8q-8 2 -15 -1t-11 -3
q0 -8 10 -11.5t11 -5.5zM78 137h-6.5h-6.5v-8q1 -5 4 -4q1 3 4.5 6.5t4.5 5.5zM73 200q-7 5 -9 -5q1 -7 5 -7q0 2 2.5 5.5t1.5 6.5zM69 255zM78 531q0 -5 3 -7.5t9.5 -5t8.5 -3.5q-2 4 0.5 10.5t3.5 10t-4 8.5q-1 -1 -2.5 -4.5t-2 -4.5t-2 -3t-2.5 -2.5t-3 -1t-4 0.5t-5 2z
M90 573q8 1 10.5 5.5t-1 9.5t-9.5 6v-21zM111 485q-1 -8 -10 -5.5t-11 -6.5q13 -13 21 -17q4 3 5 15t-5 14zM111 598zM99 640q-8 5 -10 -5q1 -7 5 -7q0 2 2.5 5.5t2.5 6.5zM86 678zM78 628zM69 611zM52 389v-9h9v9h-9zM57 460zM57 334zM57 280zM65 368zM61 557zM61 661
q-14 1 -13 -12q4 -1 5.5 -0.5t2.5 2.5t1.5 3.5t1.5 3.5t2 3zM57 234q4 -6 3 -9.5t-3 -4t-5 -4t-4 -7.5q4 0 8.5 -2.5t8.5 -2.5q9 11 -3 27q-4 5 -5 3zM44 179zM57 33zM73 54v6v6q-4 0 -8 -0.5t-5.5 -1t-4 0l-7.5 1.5q0 -4 2.5 -8.5t1.5 -8.5q5 0 10 3t11 2zM73 96zM86 75v8
h-8v-8h8zM82 418zM111 452q-2 -3 -7 -5.5t-8 -4.5t-6 -7t0 -13q9 2 17.5 13t3.5 17zM103 150zM103 196zM103 66q0 6 4 13q-12 2 -11.5 -3.5t7.5 -9.5zM103 104q-2 1 -3 1q-2 1 -3 1l11 -9q6 -3 6 -1.5t-7 8.5h-2h-2zM94 351q17 -4 21 13q-17 -3 -21 -13zM107 272
q4 -9 1.5 -16.5t-0.5 -14t12 -7.5q-3 4 -3 13.5t-1.5 16.5t-8.5 8zM120 192q5 11 4.5 16t-9.5 13q3 -7 2 -17t3 -12zM120 305zM124 485q11 -2 12 8q1 8 -8 9l-2.5 -5.5t-1.5 -11.5zM140 439v9h-8v-9h8zM124 544q15 -2 17 8q-2 0 -8.5 0.5t-8.5 -1t0 -7.5zM153 393zM153 406z
M153 414q5 1 11.5 6t9.5 7q-5 0 -4 4h-9q3 -7 -4 -8.5t-4 -8.5zM178 477zM212 326zM187 431v-9h8v9h-8zM195 326q-12 1 -9 -12q3 -12 9 -13q3 0 4 4q-2 0 -3.5 1.5t-1 4t0.5 5.5t0.5 5.5t-0.5 4.5zM203 267zM212 288zM220 276zM220 339zM220 380zM245 179zM363 557l-1.5 -3
t-2.5 -4.5t-1.5 -4t1 -4t4.5 -1.5q1 2 3 5l3 4.5t0 3.5t-6 4zM354 494q-8 5 -9 -5q1 -7 5 -8q0 2 2.5 5.5t1.5 7.5zM350 502q-2 7 1 15.5t3 14t-8 8.5q-5 -5 -5 -21t9 -17zM333 460zM350 661zM342 636q1 11 -6.5 11.5t-10.5 -7.5q3 0 6.5 -3.5t5.5 -4.5q1 5 5 4zM325 293z
M325 682zM321 561zM317 397zM308 129zM296 137q10 0 8 13h-8v-13zM308 171zM308 188zM304 552zM308 293q-11 2 -12 -8q-1 -9 8 -9l2.5 5.5t1.5 11.5zM283 33zM287 62zM287 443zM296 510zM300 16zM296 54q8 0 14 9.5t-2 15.5q-1 -5 -6.5 -12t-5.5 -13zM312 104q12 11 -8 17
q1 -13 8 -17zM333 3q2 7 -0.5 10t-6.5 6t-5 5q-7 -6 -2 -13.5t14 -7.5zM329 79zM342 418zM354 213zM358 221q0 1 3 6.5t2 10.5q-9 5 -10 -7q1 -9 5 -10zM367 473z" />
    <glyph glyph-name="O" unicode="O" 
d="M307 420q-3 0 -14 7q-2 -5 3 -9t11 -4v-115q-1 -2 -2 -2q1 -1 2 -1v-53q-1 -1 -4 -1.5t-4.5 -1t-1.5 -2.5q2 -5 10 -2v-100q0 -48 -31 -85q-1 3 -4 3q-1 -5 -4 -5v-7q-40 -41 -97 -41q-29 0 -55 12q0 2 1 3q-5 2 -9 1q-14 7 -26 18l0.5 0.5t0.5 1.5h-3q-24 22 -36 53
q2 2 2 6q-2 1 -4 1q-6 19 -6 39v67q1 7 0 11v130q6 6 4 10q-1 2 -3 1q0 -1 -1 -2v83q2 3 0 7v32q2 3 1 10h-1v81q0 9 2 20v1q8 49 45.5 81.5t87.5 32.5q7 0 13 -1v-1q2 0 4 -2l4 -4t4 -2q2 3 -1 8q50 -9 81 -48q-4 3 -9 0t-3 -11q11 1 16 -4q2 5 0 10q27 -36 27 -80v-146z
M276 422zM280 238q11 -1 9 13h-9v-13zM280 217zM284 301v8h-8v-8h8zM268 406zM259 376q0 -4 1.5 -7t3 -5t0.5 -9q-3 0 -3 -2l3 -2q15 7 -5 25zM264 427zM272 334q-13 5 -14 -9q-1 -15 9 -16q2 -1 5 0q0 5 -2 14t2 11zM268 276q-19 2 -17 -13q18 -2 17 13zM247 385zM255 360
q-14 1 -12 -13q5 -1 7 1t3 6t2 6zM243 326q-9 -4 -2 -14q6 -8 10 1q-4 0 -5 6.5t-3 6.5zM234 351q-10 6 -13 -5q-2 -10 5 -12q0 2 5.5 5.5t2.5 11.5zM217 104zM234 326h-8v-8h8v8zM226 238zM247 209q-4 4 -10 3t-7 -8q3 0 7.5 -1.5t6 -0.5t3.5 7zM238 297zM234 569zM192 615
zM138 678zM100 431q-2 -14 7 -23q6 -4 10 2q-3 1 -5 12.5t-12 8.5zM121 175zM117 569zM117 468zM113 544q-1 -1 -8.5 -6.5t-4.5 -14.5q13 -6 15 13q0 7 -2 8zM108 649q-5 1 -7 -1t-3 -6.5t-2 -5.5q14 -1 12 13zM92 489v-16q9 -1 11 8q1 8 -7 9q-2 0 -4 -1zM92 448zM79 167
q7 -3 12 5q1 5 -3 7q-1 -3 -4.5 -6.5t-4.5 -5.5zM79 196zM83 607zM71 502q-1 -20 8 -21q0 2 -1.5 7.5t-2.5 8.5t-4 5zM75 468zM88 443q-3 17 -14 11.5t-6 -16.5l3 -3q4 9 5 10t12 -2zM79 427q-9 0 -12 -9h2q4 0 6 0.5t3.5 2.5t0.5 6zM67 573zM58 569zM62 506q-7 5 -9 -5
q1 -7 5 -7q0 2 2.5 5.5t1.5 6.5zM37 230zM37 544q0 -10 9 -13v3q-1 4 -1 6t-2 3.5t-6 0.5zM50 452q0 -12 -4 -17h12q-1 13 -8 17zM54 175zM67 154zM62 330q0 3 2 5t3 4q-3 0 -5 1.5t-4 2.5q0 -3 -2 -5t-2 -4q2 0 4.5 -1.5t3.5 -2.5zM62 355q-1 -11 8.5 -11.5t12.5 7.5
q-12 -2 -21 4zM71 121q10 -1 8 12h-8v-12zM79 142h9v8h-9v-8zM92 121q3 1 3 6t-3 6q-6 2 -7 -5q1 -8 7 -7zM96 200q2 2 5 0.5t5 -3.5t4 -1.5t3 4.5q-5 2 -2 11.5t-7 9.5q4 -8 -3 -11.5t-5 -9.5zM113 41v8h-9v-8h9zM117 154v9h-8v-9h8zM125 116zM129 66zM142 24zM146 54z
M155 79q-6 -7 -2 -10q6 -4 9 5l1 5h-8zM167 37q-1 3 1.5 8t3.5 7.5t-5 5.5q-3 -3 -4.5 -11t4.5 -10zM180 8v8h-9v-8h9zM188 37v12h-5t-5.5 -1t-1.5 -3q2 0 4.5 -4.5t7.5 -3.5zM176 83q-1 3 1.5 4t6 0.5t5 1t-0.5 7.5h-2q12 11 19.5 36.5t7.5 58.5v103v1v90q10 2 13 8
q-8 1 -13 -2v120q0 15 -2 31q2 6 -2 13q-2 13 -6 23.5t-9 18t-11 11.5t-12 4q-17 0 -29.5 -29t-12.5 -71v-0.5v-0.5v-49q-5 -9 0 -10v-62v-3v-139v-3v-54q0 -54 19 -84q-1 1 -2 1q0 -7 3 -9.5t7 -1.5q8 -7 15 -7h2h1q-4 -7 2 -7zM213 37q8 -4 10 8q1 15 -6 17q2 -7 -1 -14
t-3 -11zM226 200q-9 -7 -1 -14q7 -6 9 6q-2 0 -5 5q-1 3 -3 3zM230 121q-10 -6 1 -12q9 -5 12 3q-6 0 -10 6zM247 24q0 3 2.5 6t1.5 7q-8 5 -9 -5q0 -7 5 -8zM243 58q14 -2 12 17q-8 2 -9 -7t-3 -10zM255 213q3 5 4.5 2.5t5.5 -7t7 -3.5q0 4 -2.5 8.5t-1.5 7.5q-9 4 -15 -3
q-3 -3 0 -5h2zM268 167zM272 255q12 -1 12 29v0q-5 -1 -7 -6.5t-2.5 -12.5t-2.5 -10zM276 70zM280 129zM293 175q3 7 2 13.5t-11 7.5q-1 -20 9 -21zM297 200q3 1 3.5 6.5t-3.5 6.5q-6 2 -7 -5q1 -8 7 -8zM301 406zM305 322q-3 3 -11.5 1.5t-13.5 -5.5q6 -8 13.5 -6.5
t11.5 10.5zM289 339zM297 376zM289 410zM301 510z" />
    <glyph glyph-name="P" unicode="P" horiz-adv-x="363" 
d="M325 539v0.5t-1 0.5q0 -4 -1 -7.5t-1 -5t3 -3.5v-86v1h-1q-7 -8 1 -7q-1 -18 -5 -35q-15 2 -16 -8q1 -1 5 -2.5t6 -2.5q-22 -56 -77 -80q1 3 5 9q7 10 5 10q-1 0 -3 -1q-1 -1 -6 -5.5t-5.5 -7t0.5 -6.5q-23 -9 -48 -10q0 7 -4 8q-1 -5 -8 0q-2 -6 2 -8q-27 1 -51 10v-58
q-1 1 -2 1q0 -5 2 -8v-237h-53q8 5 5 15q-13 1 -18 -15h-23v700h24q1 -3 4 0h60l1 -149v-51q-1 1 -2 1q-1 -8 2 -7v-73q9 -19 23.5 -31t32.5 -12q26 0 44.5 24.5t18.5 58.5v69q0 26 -11 48q5 2 8 7q-10 -1 -15 4l-2.5 2.5l-1.5 1.5q-1 2 -4.5 8t-6.5 9v-7q-12 8 -25 10
q-2 1 -4 1v-1h-1q-12 0 -23 -6v91q12 2 23 2q19 0 38 -5q0 -5 2 -5t3 3q17 -5 33 -15q-1 -6 1 -7q3 0 4 4q29 -20 46 -51.5t17 -68.5v-17zM178 619q2 12 -8 21q-4 4 -5 0q3 -1 3.5 -5t0.5 -8t2 -6.5t7 -1.5zM190 695q-12 2 -16 -9q-1 -9 8 -12q-2 6 0 9t5 6t3 6zM190 632z
M115 489zM102 645zM69 628zM65 674zM86 594q-4 -2 -8 -1t-7.5 2t-6 2t-3.5 -0.5t-1 -6.5q3 -5 12.5 -2.5t13.5 6.5zM77 552q-8 9 1 17t3 13q0 -2 -2.5 -4.5t-4.5 -5t-4.5 -5t-3.5 -5t-0.5 -4.5t3.5 -3.5t8 -2.5zM81 284h-8v-8h8v8zM65 263q0 10 -9 13v-3q1 -4 1 -5.5t2 -3.5
t6 -1zM60 146q2 15 -8 17q1 -14 8 -17zM56 657zM52 594q5 4 4 10t-8 7v-6.5t1 -6.5t3 -4zM56 582zM44 519zM48 91q10 -2 16 8q4 5 -4 9q2 -7 -5.5 -9.5t-6.5 -7.5zM60 33zM69 45zM69 397q0 3 1 6.5t1.5 5t-1 3t-5.5 2.5q-9 -9 4 -17zM77 33l1.5 2.5t2.5 4t1.5 4t-1 4
t-4.5 1.5q-8 -16 0 -16zM86 502zM94 129q0 2 4 7q8 7 0 10q0 -2 -3.5 -6t-5 -6t4.5 -5zM102 251zM98 515zM98 561h9v8h-9v-8zM102 452zM107 288zM111 611zM98 615q0 4 6.5 6t6.5 7q-7 -2 -12 1.5t-9 2.5q1 -13 8 -17zM111 665zM115 196zM123 401v9h-8v-9h8zM195 360z
M203 339zM245 360zM274 498zM253 519zM257 632zM257 540zM262 460zM270 586q-6 1 -10 -5t-2.5 -13t8.5 -7q-2 7 1 14t3 11zM270 368zM270 464q8 -3 11 8q0 4 -3 5q-1 -5 -8 0v-13zM274 376q6 0 9 2t3.5 5.5t0.5 9.5q-3 0 -5.5 -0.5t-3.5 -2.5t-1.5 -3.5t-1.5 -5.5t-1 -5z
M287 456zM312 510zM291 502v-8h8v8h-8zM295 351zM308 380q-10 1 -13 -8h3q4 0 5.5 0.5t3.5 2.5t1 5zM304 611q0 -1 -0.5 -7.5t1 -9t7.5 -0.5v17h-8zM320 485v13q-9 0 -12 -9q6 1 12 -4z" />
    <glyph glyph-name="Q" unicode="Q" horiz-adv-x="356" 
d="M285 63l64 -112h-78q0 5 -3 6q-7 2 -7 -6h-1l-4 7q3 -1 4 3q1 3 -2 4q-1 0 -3 1v-6l-30 52q-16 -7 -34 -9q3 2 -3 4q-5 -4 -4 -5q-7 -1 -13 -1q-56 0 -95.5 39.5t-39.5 95.5v106q4 0 6 4q-4 0 -6 3v44q5 4 6 10.5t-5 9.5l-1 -2v41v1v162h1q1 4 -1 7v44q0 56 39.5 95.5
t95.5 39.5q6 0 13 -1l-1.5 -4t-2.5 -5q7 -2 10 6v3q10 -2 19 -4q-1 -7 1 -8t3 3q1 2 1 3q47 -15 73 -58q-4 -4 -3 -14.5t5 -10.5q4 4 4 13q14 -28 14 -58v-68q-3 -3 -1 -9h1v-353q0 -39 -22 -73zM42 397zM197 691zM188 640q-5 -4 -3 -11t12 -5q2 15 -9 16zM121 313zM121 351
zM121 674zM121 418zM117 582q-9 4 -9 -10q-1 -12 5 -11q6 8 4 21zM117 557zM104 640zM92 552zM100 389h-8v-9h8v9zM92 489q-1 -1 -6 -4.5t-6.5 -5.5t3.5 -6q6 0 12 14q1 5 0 5zM92 448zM88 460zM88 607zM79 561zM88 439q-3 8 -10.5 7.5t-6.5 -11.5h6.5t6.5 1t4 3zM67 385
q16 -4 12 12q-5 2 -7 -0.5t-3 -6.5t-2 -5zM79 322zM71 481q-1 4 0 8.5t0.5 8.5t-4.5 4q0 -4 -2.5 -8t-4 -6.5t0.5 -4t10 -2.5zM63 410zM58 577zM50 552zM50 443zM46 464zM37 179zM37 146zM46 188zM50 259l4 3q-2 2 -7 -2q-2 -2 -1 -5q6 -4 6.5 -3.5t-2.5 7.5zM63 108
q3 -20 7 -21q3 0 5 4q-4 0 -4.5 3.5t0.5 7.5t-1 6.5t-7 -0.5zM58 217q7 1 10 2t5.5 4.5t1.5 10.5q-14 -3 -17 -17zM42 267q8 5 17.5 3t17 1.5t6.5 16.5q-7 2 -9 -5.5t-7 -6.5q3 8 -9 12q-6 0 -8 -4q10 -5 5 -6q-14 0 -14 -6q0 -2 1 -5zM83 414q1 -1 1.5 -5t1 -5t2 -3.5
t3.5 -3t5 -0.5q0 3 -0.5 5t-1 3.5t-2.5 3t-2.5 2t-3 2t-3.5 1.5zM92 301zM96 209zM96 112zM104 523zM121 368zM117 28zM201 91zM213 289q2 -2 5 2q2 4 -2 5q-1 1 -3 1v46v168q0 42 -12 71.5t-29.5 29.5t-30 -29.5t-12.5 -71.5v-281v-2v-20q-11 -3 -12 -16q4 -1 6.5 1
t3.5 6.5t2 5.5v-14l1 -12q-2 -6 0 -7q3 -36 14.5 -59t26.5 -23q4 0 8 2q11 4 20 23q14 30 14 76v98zM264 489zM239 234zM239 376zM247 557zM239 510zM255 393zM260 460zM260 355zM255 523zM251 598l3 -6q3 7 -4 16q-3 4 -7 3q-1 -4 0.5 -6t4 -3.5t3.5 -3.5zM239 665
q-4 -7 4.5 -8.5t8.5 5.5l-1 3h-12zM239 448q-7 1 -7 -6q1 -7 7 -7q2 1 2.5 6t-2.5 7zM234 343q-7 5 -9 -5q1 -7 5 -8q0 2 2.5 5.5t1.5 7.5zM226 276zM226 112zM251 104q3 11 -7 19q-6 2 -10 -2q5 0 6.5 -3t1.5 -6.5t2 -6t7 -1.5zM260 305q0 2 1.5 5t2 5t0.5 7
q-11 1 -11.5 -6.5t7.5 -10.5zM289 200zM293 322zM293 259q0 -10 8 -13q1 10 -8 13zM301 167zM297 280q8 -5 9 5q0 7 -5 8q0 -5 -4 -5v-8zM297 380zM297 422h4q-2 0 -6 1q1 0 2 -1zM289 468zM289 489zM285 531zM280 477zM280 594zM276 577zM276 393zM276 380zM268 213
q13 1 17 8q-2 0 -8.5 0.5t-8.5 -1t0 -7.5zM293 364q-7 3 -12 -5q-4 -7 4 -8q0 3 2 5l3.5 3.5t2.5 4.5z" />
    <glyph glyph-name="R" unicode="R" horiz-adv-x="399" 
d="M361 1h-5q3 1 3 5t-5 6q-2 -9 0 -11h-82l-71 196q4 -1 6 1.5t-4 5.5l-3 -3l-36 99q-5 1 -17.5 1.5t-21.5 2.5v-153q-5 -1 0 -7v-143h-89v250q9 -1 15 8q3 6 -3 8q-1 -4 -6 -8t-6 -7v262q2 0 3 1q0 11 -3 17v45q1 -2 3 -4q8 8 1 10h-4v54q3 1 5 1.5t4 1.5t2.5 3.5t0.5 5.5
q-8 0 -12 -5v57h89v-111q-7 1 -12 -5.5t2 -11.5q0 5 10 5v-43q-1 1 -2 1q-1 -9 2 -8v-54q-1 4 -4.5 5.5t-5.5 -2.5q4 -2 3.5 -5.5t-3.5 -7.5q8 -1 10 3v-45h1h-3q-2 -8 2 -7q2 0 3 3q4 -8 8 -15q-5 -8 4 -10q0 2 2 4q17 -18 39 -18q20 0 36.5 15.5t22.5 40.5q12 9 5 25h-1v1
v1v39q4 0 5.5 4.5t0 9t-4.5 4.5l-1 -2v14q0 9 -1 18q4 1 9 0.5t5 2.5q-3 1 -6 8t-10 5v-7q-9 34 -34 49v0q-13 7 -26 7h-7q8 2 0 5q-10 -6 -3 -6q-5 -1 -11 -4q-1 3 -3 5v85q13 2 24 2q39 0 72.5 -19.5t53 -52.5t19.5 -73v-119q0 -41 -21 -75t-56 -52l41 -113q1 -5 2 -7z
M161 657zM169 699zM178 645zM190 699zM190 624zM195 636q13 -1 12 13q-7 2 -10 -7q-1 -5 -2 -6zM207 624zM48 41zM111 435zM111 544zM107 603v-9h8v9h-8zM94 598zM81 548q11 -1 9 13h-9v-13zM56 695l-3 -6l4 8q0 -1 -1 -2zM52 653v-6.5v-6.5q11 0 8 13h-8zM52 603zM52 582z
M44 368zM52 301zM56 230zM52 531q-2 1 -3 1q-4 2 -4 1q1 -4 14 -9q2 -1 3 0q0 2 -6 7q0 1 -2 0.5zM69 209zM73 498zM65 657h4.5h5.5t4.5 0.5t2.5 2.5t-1 5q-15 2 -16 -8zM77 24zM81 418zM77 456q-5 -9 9 -10q13 0 12 6q-6 -2 -11 1.5t-10 2.5zM98 418zM98 200zM98 309z
M107 536zM111 364zM111 380zM123 96zM127 380v-8h9v8h-9zM169 330zM195 251zM207 255zM253 385q1 2 2.5 4.5t2 5.5t-0.5 6q-8 5 -9 -7q1 -9 5 -9zM316 515zM324 544q5 11 -5 16q-5 3 -7 -3q3 -1 4 -4.5t2.5 -6.5t5.5 -2zM308 494zM299 510zM299 427q2 -13 -4 -21q9 -5 10 9
q0 12 -6 12zM283 368q3 -8 10 -1q6 7 -2 9q0 -3 -4 -4.5t-4 -3.5zM291 401q3 7 -5 12q-6 4 -8 -3q3 -1 6.5 -4.5t6.5 -4.5zM278 640zM274 527zM262 510v-8h8v8h-8zM224 632q0 -10 12 -17q0 1 -0.5 5t-1 5t-2 3.5t-3.5 3t-5 0.5zM232 649zM245 582q2 15 -9 16q-1 -15 9 -16z
M228 661q8 -11 18 0q9 10 -1 17q0 -5 -8.5 -8t-8.5 -9zM253 598zM253 477q0 -5 -4 -4v-9q8 -5 9 5q0 7 -5 8zM236 397q0 -1 1 -2v-6t2 -3.5t6 -0.5q0 9 -9 12zM245 347q-5 -4 -4 -10t8 -7v7.5t-1 6t-3 3.5zM249 280zM303 112zM295 146q1 7 -2.5 10t-9.5 2q-2 -13 12 -12z
M291 41q0 -4 6 -4t6 4q-3 1 -6 3t-5.5 5t-4.5 5q1 -6 -1 -10.5t-4.5 -6.5t-2 -4t7.5 -5v5t1 6t3 2zM295 83q0 4 4 6t8.5 4t4.5 7q-15 -2 -20 -11q-1 -4 3 -6zM329 79z" />
    <glyph glyph-name="S" unicode="S" horiz-adv-x="380" 
d="M315 361q29 -42 29 -95v-113q0 -34 -6 -59t-21.5 -47.5t-46 -34t-75.5 -11.5q-82 0 -115 41t-33 111v45q3 -2 5 -2l2 4q2 5 -2 9h5t6 1t2 3l-4 1h82v-30q0 -20 7.5 -37t20 -26.5t27.5 -9.5q23 0 39 21.5t16 51.5v54q0 36 -21 58q-15 15 -34 15q-6 0 -16.5 -2t-24.5 -1
q-72 4 -93 34q-28 41 -28 95v112q0 34 6 59.5t21.5 47.5t46 33.5t74.5 11.5q49 0 81 -12q-1 -4 1 -7l4 4q28 -12 43 -37h-1v-9h5q10 -23 14 -66q-1 0 -3 1.5t-3 1.5q0 -3 -5 -6.5t-4 -9.5q10 -1 15 10q1 -7 1 -9q1 -6 1 -13v-52h-97v9q3 1 5 2.5t3.5 1t4.5 -3.5q2 4 0 6.5
t-5.5 3t-7.5 -0.5v6q0 20 -7 37q3 -2 8 -1q1 13 -13 12v-1v-1q-11 20 -30 26q10 1 9 10q-17 -1 -20 -8h-1h-1q-8 0 -17 -5q-1 3 -3 4q-1 -3 -3 -7q-31 -20 -31 -66v-42q-1 1 -4 2q-8 -5 -3 -6t7 2v-10q0 -38 23 -59l4 -4l-1 -1q-8 -7 -2 -9q1 -1 2 -1q0 3 1.5 4t4 0.5t4 -1
t4.5 -2l3 -1.5q0 1 -1 3q7 -2 12 -2t22.5 2t26.5 1q22 -3 33 -5.5t27.5 -10.5t24.5 -20zM283 527q4 0 4.5 4t-0.5 9t0 8q-11 7 -14 -7q-2 -13 7 -14h3zM304 515zM295 552zM283 628zM283 653zM270 665zM270 598zM253 536zM249 619v13q-13 -1 -17 -8q1 0 6.5 -3t10.5 -2z
M228 682q-1 -7 0 -10.5t8 -11.5t9 -11q2 29 -17 33zM195 628zM149 632zM123 582q-4 -4 -2 -16.5t11 -13.5q1 25 -9 30zM69 569zM52 582v8h-8v-8h8zM61 515v-4.5v-4.5q7 -5 9 5q-1 7 -5 8q-1 -5 -4 -4zM69 456zM65 393q7 -3 11 5q4 6 -3 8q0 -2 -1.5 -4t-2.5 -3l-2.5 -2.5
t-1.5 -3.5zM86 355v-2q0 -4 0.5 -6t2.5 -3.5t5 -0.5q0 9 -8 12zM82 615q15 -10 12 4h-5t-5.5 -1t-1.5 -3zM98 657zM111 590h-8v-8h8v8zM103 531q7 -3 10 10q3 10 0 10q-1 0 -2 -3q-2 -5 -8 -4v-13zM140 355v9h-8v-9h8zM153 339q13 1 17 8q-1 0 -6.5 2.5t-10.5 1.5v-12z
M191 385zM249 301l2 1q-1 -1 -2 -1zM82 129zM123 96zM115 200zM90 121zM115 167q-14 -1 -7 -10q6 -8 10 -6q2 1 -3 7q-3 -6 -3 -2q-1 8 3 11zM119 45zM136 58q6 10 -5 13q-10 2 -12 -5q7 2 10.5 -3t6.5 -5zM153 133zM153 79zM195 45zM203 104zM249 37zM253 163zM279 116z
M279 267zM283 322q1 5 -1 7t-6 3t-6 2q0 -6 3 -9.5t10 -2.5zM300 116v9h-9v-9h9zM295 280zM316 305zM320 142zM320 188z" />
    <glyph glyph-name="T" unicode="T" horiz-adv-x="395" 
d="M359 660q-7 -1 -12 -5.5t-10.5 -12t-8.5 -10.5q6 -5 11 -2t7 6.5l6 10.5t7 10v-38h-115v-48v-1v-569h-90v95q2 1 2.5 3.5t-2.5 3.5v516h-118v82h79v-1v-1h12v2h63q-1 -5 1 -5q2 -1 3 2q1 2 0 3h96q2 -2 2.5 -2t-0.5 2h67v-41zM106 619q0 4 2.5 9t1.5 8q-8 5 -9 -7
q1 -9 5 -10zM131 661zM211 598q11 0 8 13h-8v-13zM215 657zM224 548q-11 5 -17 -5q-2 -5 4 -7q-1 5 5.5 6.5t7.5 5.5zM215 372zM194 355zM177 494zM169 527zM173 389zM177 368h-8q-5 -7 -1 -10q5 -4 8 5q1 2 1 5zM173 318q0 -2 -1 -4t-2 -3.5t0 -3t3 -2.5q0 2 1.5 4t2 3t0 3
t-3.5 3zM177 301zM173 577zM165 628q-4 -8 5 -11h3q-1 1 -4 2q1 12 -2 11zM161 414v-8h8v8h-8zM161 24q6 1 12.5 -4t12.5 -4q-1 11 -15 14q-9 3 -10 -6zM186 619q7 -7 8 4q0 8 -4 9l-0.5 -3.5t-1.5 -6.5t-2 -3zM194 225zM207 238zM203 112zM207 494zM215 297zM219 87v9h-8
v-9h8zM219 175zM224 200zM228 238zM236 267zM312 674z" />
    <glyph glyph-name="U" unicode="U" horiz-adv-x="384" 
d="M347 695v-54v-98h-1q0 -3 -1.5 -7t-1 -5.5t3.5 -2.5v-148q-3 0 -4 -1t-1 -3q1 0 5 -1v-10l-0.5 -0.5t-0.5 -1.5l0.5 0.5l0.5 0.5v-43h-1q-8 -5 -3 -6q2 0 4 1v-98q-2 2 -5 3q0 -2 -0.5 -7.5t0.5 -8t5 -2.5v-52q0 -20 -6 -41q-11 6 -9 1q2 -3 6 -8q-18 -49 -64 -80
q-2 1 -3 1l-1 -3q-38 -24 -78 -24q-58 0 -106.5 46t-48.5 108v490v54h91v-60q-6 -1 -8 -8q6 1 8 1v-165q-5 1 -9 -6t-4 -14.5t5 -12.5q2 4 2.5 13t5.5 13v-223v-1v-4q0 -59 20 -99.5t44 -40.5q23 0 42 40.5t19 99.5v31q3 -1 4.5 0.5t1 5.5t-4.5 10h-1v-1v202q1 1 0 2v217h94
zM99 372q10 -6 13 5q2 10 -5 11q-1 -3 -4 -8t-4 -8zM107 451q4 15 -4 24q-4 2 -8 -3q9 -1 6.5 -10.5t5.5 -10.5zM90 585zM86 464zM86 418zM74 610zM78 502zM74 346zM74 321zM61 455q0 -3 -5 -6.5t-3 -9.5q8 -4 10 10q1 6 -2 6zM44 502q8 -1 2.5 -9t2.5 -8q0 2 5 7.5t3 13.5
h-8q-5 -1 -5 -4zM40 460v-9h9v9h-9zM44 145zM40 275zM49 217q12 1 10.5 11.5t-10.5 13.5v-25zM53 103q4 4 3 10t-7 7v-5v-5.5t1 -4t3 -2.5zM49 158q6 0 8 4.5t2.5 6.5t9.5 -3q1 3 0 5t-1 3.5t-2 3t-2.5 2t-3.5 2l-3 1.5q-1 -2 -5.5 -9.5t-2.5 -15.5zM65 212zM61 271zM53 275
q7 1 8.5 9t2.5 17t5 12q-6 -2 -9 -7t-5 -17t-2 -14zM74 133zM78 229zM82 204zM78 359h6.5t6.5 1t4 3q-5 0 -6.5 3t-1.5 6.5t-2 6t-7 1.5q0 -3 1 -6.5t2 -5t0.5 -4t-3.5 -5.5zM90 321q-2 -18 13 -16q2 18 -13 16zM90 41q6 -1 10.5 5t6.5 7q-18 2 -17 -12zM103 66zM107 258
q-9 -7 -1 -14q6 -5 9 4q0 1 1 2q-3 0 -5 4t-4 4zM99 359q5 -9 16 0q9 8 1 13q-1 -5 -9 -7t-8 -6zM116 426zM137 129zM170 41q1 0 8 -0.5t9 1t0 7.5q-16 2 -17 -8zM246 149zM216 87zM246 24zM246 87q7 -8 8 3q0 8 -4 9l-1 -3.5t-2 -6.5t-1 -2zM300 342zM275 405zM275 317
q-5 2 -4 8q6 -1 7 7v2l-3 -4q-9 -4 -13 -9q5 -1 0 -8h9q5 0 4 4zM262 535q2 -1 3 -3zM262 103q10 3 14 -5.5t11 -6.5q1 4 0 7t-2 5t-4 4.5t-4 3t-5.5 3t-5.5 2.5q1 -6 -4 -13zM287 141zM300 137q0 -2 -1.5 -4.5t-3 -4.5t-3 -4.5t-0.5 -4.5t4 -3q0 2 2.5 5t4.5 5t3.5 4t0 3.5
t-6.5 3.5zM300 82q-9 -6 -1 -13q8 -8 13 1l1 4q-9 -2 -10.5 0t0 4.5t-2.5 3.5zM321 418zM325 451zM329 556zM342 346zM338 439zM342 481zM342 594z" />
    <glyph glyph-name="V" unicode="V" horiz-adv-x="417" 
d="M380 693q-2 1 -4 1q-1 -8 2 -7l-121 -691h-98v2q0 3 -1 6l-56 317h10v5t-1 6t-3 2q0 -2 -1 -3t-3 -2t-3 -2l-65 369h41q0 -3 -1 -4.5l-1 -1.5q4 -4 6 -1.5t2 7.5h42l83 -468l11 63q6 4 6 5q-2 0 -5 2l56 317q3 -1 4 4q1 2 -2 4l13 73h89v-3zM163 430zM121 615zM108 564
q-2 -4 0 -7.5t3 -4.5t4.5 -2.5t5.5 -1.5q2 18 -13 16zM100 468q0 -1 -0.5 -8t1 -9t7.5 0q-1 13 -8 17zM83 636q0 3 -0.5 5t-3 3.5t-3.5 2t-5 1t-5 0.5q0 -3 0.5 -5t3 -3.5t3.5 -2t5 -1t5 -0.5zM62 636zM75 531v8h-9v-8h9zM79 531zM79 489v-3q0 -4 0.5 -5.5t2 -3t5.5 -1.5
q0 10 -8 13zM79 548v-3v-4.5t1 -3.5t2.5 -2.5t4.5 0.5q0 10 -8 13zM79 657q7 -3 11 4t-3 8q0 -3 -4.5 -5t-3.5 -7zM90 508l1 -2q4 -6 4 -7zM96 384zM104 426zM108 502q8 -3 9 6t4 10q-15 2 -13 -16zM116 292zM129 191zM129 581q-2 1 -3 1l-4 1q-1 -2 11 -8q5 -2 6 -1
q0 1 -6 7h-2h-2zM146 535zM158 334h-8v-9h8v9zM167 267q-16 2 -17 -9q15 -1 17 9zM163 179zM158 49q-2 -5 6 -7q3 -1 5 -1q5 1 -2 4q-3 0 -4.5 2.5t-1.5 3.5t-3 -2zM171 359zM179 70zM196 24q0 -10 8 -13v3v5.5t-2 3.5t-6 1zM213 170q1 4 4 9t4 8q-8 3 -12 -9q-2 -7 4 -8z
M242 334zM234 325zM225 7zM230 212zM234 45q3 -1 5 -0.5t3 2.5t1.5 3.5t1 3.5t1.5 3q-3 1 -5.5 0t-3 -3.5t-1.5 -5t-2 -3.5zM242 221zM242 162zM242 275zM280 518zM276 413zM276 372zM276 346zM255 372zM272 175q7 -4 10.5 1t2.5 12t-5 8q-1 -3 -6 -8.5t-2 -12.5zM313 535
v-8h9v8h-9zM297 573zM293 455zM301 506q0 2 1.5 3t3.5 2t3 2.5t0 4.5q-9 5 -12 -3q-4 -8 4 -9zM309 380zM318 393zM318 548zM330 493zM364 606v9h-9v-9h9z" />
    <glyph glyph-name="W" unicode="W" horiz-adv-x="618" 
d="M513 262q-2 1 -3 1q-1 -8 2 -8l-41 -259h-44q0 1 1.5 4.5t1.5 4.5v6q-4 3 -6.5 0t-2.5 -7.5t2 -7.5h-39l-76 482l-9 -59q-1 2 -3 3q-5 -3 -3 -5t6 -1l-66 -420h-87l-29 187q8 2 7 13q-6 0 -9 -3l-8 52l-46 294v0q1 6 -2 10l-23 147h80l21 -134q-5 3 -9 2v-8q7 -5 10 -2
l51 -326l3 15q3 -2 4 3q-1 2 -3 4l70 446h91l74 -468l73 468h80zM548 694zM539 673zM531 594v-4q0 -9 0.5 -14t4.5 -9t12 -3q-5 5 -7.5 11t-4 11t-5.5 8zM522 627zM145 468zM141 330zM124 514zM70 543q11 -1 15 10q4 9 -7 11q0 -3 -5 -7t-6 -6t3 -8zM87 493zM91 443zM95 476
zM104 355l-1 -0.5l-1 -0.5h1v1h1zM133 305q1 -5 8 -9q1 7 -1.5 10.5t-5.5 4.5t-10 2q1 -4 -0.5 -6.5t-3.5 -3t-5 -1.5t-5.5 -2t-4 -3t-2.5 -5q8 -2 13 0t9 6.5t8 6.5zM141 275zM137 229zM141 61q0 -9 8 -12q1 9 -8 12zM154 162v8h-9v-8h9zM149 443zM162 342zM170 250v-8h9v8
h-9zM183 154q0 -3 -2.5 -6.5t-5 -6.5t-2 -6.5t5.5 -5.5l2 2.5t3 4.5t2.5 4.5t1.5 5t-1 4.5t-4 4zM187 74zM246 560zM204 313zM217 99zM221 254q-1 5 5.5 7t6.5 6q-11 -1 -16 4v-5v-5.5t1 -4t3 -2.5zM242 493q-4 -8 4.5 -9t8.5 5l-1 4h-12zM254 217q3 1 3.5 6t-3.5 6
q-6 2 -7 -5q1 -8 7 -7zM258 422v-6.5v-6.5q11 0 9 13h-9zM263 363v-8h8v8h-8zM271 346zM279 581zM275 677q1 5 6.5 9t6.5 8q-10 2 -16 -7q-4 -6 3 -10zM300 527zM300 548zM321 602v-8q8 -5 9 5q0 7 -5 7q0 -5 -4 -4zM325 393zM321 556q0 -1 1 -5t1.5 -5t1.5 -3.5t3.5 -3
t5.5 -0.5q0 3 -0.5 5t-1 3.5t-2.5 3t-2.5 2t-3.5 2zM346 665zM376 468zM355 569zM363 321zM363 359q6 -9 14 2q7 10 -1 15q-1 -4 -3 -7t-5 -5.5t-5 -4.5zM372 254v-8h8v8h-8zM376 141zM380 36zM393 57zM493 564zM476 476v-8h9v8h-9zM460 413zM468 296q5 11 -5 18q-6 5 -8 -1
q4 0 4.5 -3.5t0 -7t1 -6t7.5 -0.5zM426 154zM430 242zM443 263q-4 -9 6 -13q8 -1 11 4q-2 1 -5.5 6t-11.5 3zM464 91zM451 196q7 2 10 -1t3 -7.5t1.5 -9t6.5 -3.5q-4 24 -4 33q-1 0 -5 -0.5t-5 -1t-3.5 -2t-3 -3.5t-0.5 -5zM472 330zM481 108zM485 384zM497 342v-2
q1 -4 1 -6t2 -3.5t6 -0.5q0 9 -9 12zM485 502q0 -6 6 -8.5t12.5 0t6.5 8.5q-8 -8 -25 0z" />
    <glyph glyph-name="X" unicode="X" horiz-adv-x="341" 
d="M269 36q13 -2 22 11l13 -52h-43v4q-12 -2 -13 -4h-14l-47 181q3 1 3 3.5t-4 3.5l-16 59l-6 -21q-1 2 -4 4q-8 -4 -1 -6h5l-25 -95v0l-20 -79q-2 0 -3.5 1t-2.5 1.5l-3 1.5t-5 0q0 -3 -1.5 -7.5t-0.5 -6t7 -3.5q-1 7 1 8t6 -3l-11 -42h-25q-2 3 -5 4v-4h-40l65 249
q1 -4 4 0q4 5 -3 6l2 5q4 3 1 6l5 18q6 4 7.5 9.5t-2.5 10.5l12 47l-91 351h70l25 -97q-1 2 -5 2q-1 -6 1 -7t4 4l39 -149l12 46q4 2 1 4l51 197h70l-43 -164v-1v-1l-7 -27q-8 1 -6 -11h3l-37 -142q-11 0 -12 -5q5 -5 11 -2l52 -201v-2h1l9 -35q-8 -8 -10 -19q6 1 13 7
l10 -39q-2 -7 -12.5 -6.5l-10.5 0.5q5 -1 4 -13zM294 661zM281 627zM273 644zM240 569q10 -1 8 12h-8v-12zM235 640v-9h9v9h-9zM227 573q2 -11 0 -21q8 -4 9 7q2 15 -6 15q-1 0 -3 -1zM235 493q1 10 -8 13q0 -10 8 -13zM68 610q0 2 1.5 5t1.5 5t-3 3q0 -1 -1.5 -3.5t-2 -3.5
t0 -2.5t3.5 -3.5zM72 598zM93 686zM89 522q11 -2 15 4.5t-3 12.5q-9 0 -12 -13v-4zM105 468zM68 15q-1 -9 8 -12q0 9 -8 12zM72 99zM89 70zM97 217q-1 -20 17 -21q1 15 -17 21zM110 183zM110 91zM122 66zM156 430v-8h8v8h-8zM131 321v-6v-6q10 -1 8 12h-8zM135 288zM139 405
zM147 279l2.5 5t1.5 5t-4 3q0 -2 -1.5 -4.5t-1.5 -4.5t3 -4zM156 288q8 -3 12 9q2 7 -4 8q2 -8 -4 -8q-3 0 -4 3q0 2 1 3.5t2 2.5t4 3q4 4 4.5 5.5t-7.5 2.5q-1 -5 -4 -10.5t-3 -7.5t3 -11zM168 363zM177 317zM206 288zM189 430zM189 321zM189 212zM202 162q0 2 1.5 4t2.5 4
t0 5q-8 5 -9 -5q0 -7 5 -8zM206 225zM231 179q3 0 5 -2t4 -2q0 2 1.5 4.5t2.5 3.5q-3 0 -5 2t-4 2q0 -2 -1.5 -4.5t-2.5 -3.5zM248 158v8h-8v-8h8z" />
    <glyph glyph-name="Y" unicode="Y" 
d="M303 677q-3 0 -4 1v-13h1l-9 -42q-6 -2 -9 -8h7l-26 -118q-3 3 -6 -4q2 1 5 -2l-36 -166q-2 3 -7 5q1 -12 5 -13l-1 -6q-1 1 -4 2q-7 -8 -1 -8q2 0 4 1l-3 -13q-12 1 -13 -5q0 -3 5 -4q1 4 6 1l-7 -32q-9 -7 -7 -15q3 0 6 3v-46q-2 -1 -2 -4h2l-1 -52q-3 -1 -4.5 -3.5
t3.5 -6.5l1 1v1l-1 -118q-6 -4 -4 -10q2 0 4 1v-8h-71v33q3 2 4 7h-5l-1 98q5 4 0 6v49q6 1 10 7q-6 0 -10 -1l-1 55l-70 321q12 -7 10 6l-11 -1l-9 41q3 5 7 6q-4 0 -9 2l-15 71h70l57 -259q-4 -2 -4.5 -7t2.5 -8h5l5 -25l39 176v2l6 26q1 -1 2.5 -5.5t3.5 -7t6 -3.5
q0 6 4 13q-6 -3 -8.5 -0.5t-4.5 5.5t-2 2l19 91h33q0 -6 5 -10q1 6 1 10h32zM52 661q0 1 0.5 7.5t-1.5 8.5t-8 1q-1 -16 9 -17zM266 669zM232 560zM224 535zM199 443zM186 242zM173 384zM165 367q-1 -5 -8 0l-2.5 -5t-3.5 -5t-3.5 -4.5t-2 -4t1 -3.5t5.5 -3q0 5 6 10
t9.5 7.5t-2.5 7.5zM165 250q-1 3 -0.5 7l1 8t-0.5 7t-4 3q1 -5 0 -9.5t-2.5 -7t0 -5t6.5 -3.5zM165 284zM144 393q9 -5 9 7q0 9 -5 9q1 -3 -0.5 -5.5t-2.5 -5t-1 -5.5zM106 631v-8h9v8h-9zM85 581q0 4 2.5 8.5t2.5 8.5q-9 5 -10 -7q1 -9 5 -10zM106 409zM106 543zM115 447
q5 3 5.5 3t3.5 -1.5t7 -1.5q0 3 0.5 6.5t-0.5 6.5t-4 4q1 -5 -10 -11q-7 -4 -2 -6zM123 401q18 1 17 21q-7 1 -9.5 -2.5t-4 -10t-3.5 -8.5zM131 518q-1 -13 13 -12q1 5 -1 7t-6 3t-6 2zM144 45q14 -1 13 12q-17 4 -13 -12zM161 7q0 1 2 3q9 16 -2 22q-1 -1 -2.5 -4l-2 -4
t-1.5 -3.5t-1 -4t0.5 -3.5t2 -3.5t4.5 -2.5zM161 221q3 -1 5.5 -3t3.5 -4.5t3 -5.5t5 -4q3 4 3 6.5t-1.5 6.5t-1.5 8h-5.5h-5t-4.5 -1t-2 -3zM173 108v-9h9v9h-9zM182 57zM182 24q-1 -10 8 -13v3q0 4 -0.5 5.5t-2.5 3.5t-5 1zM194 41zM190 217q11 -1 9 12h-9v-12zM199 284z
M194 330q12 -5 16.5 7.5t-3.5 17.5q-1 -4 -8 -10t-5 -15zM219 564zM215 510q8 -5 9 5q0 7 -5 7q0 -5 -4 -4v-8zM224 351zM228 443zM232 460zM232 522zM245 535v8h-9v-8h9zM240 590zM257 506zM249 539q7 -3 11 5q4 7 -3 8q0 -3 -4.5 -5.5t-3.5 -7.5zM266 598zM253 644
q5 0 8.5 -9t12.5 -8v7.5t-1 6t-3 3.5q-4 -5 -5.5 -2t-6 7.5t-9.5 2.5q-1 -1 -7 -9t-6 -16q4 -1 6.5 0.5t2.5 4.5t0.5 6t2 5t5.5 1z" />
    <glyph glyph-name="Z" unicode="Z" horiz-adv-x="409" 
d="M325 569h-8v-9h5l-20 -55q-1 -1 -2 -3l1 -1l-99 -270h46v-56h-66l-7 -20q-1 3 -5 3q0 -7 3 -7l-15 -42q-2 2 -4 3q0 -8 1 -10l-13 -36h191v-70h-210q-1 4 -3 7q12 -2 17.5 2t3.5 15q-2 -1 -11 5t-15.5 7.5t-15.5 -8.5q5 -1 4 -4q1 -5 5 -5q6 19 11 -7q1 -2 1 -5
q-5 7 -12 8q0 -5 5 -15h-43q14 6 17 36q-8 -3 -12.5 -17.5t-7.5 -18.5h-30l-1 1l39 106h3v9l23 63h-55v12h3v9h-3v35h40v-6q1 -5 4 -2q4 4 0 8h31l39 107q2 2 2 6l36 99q6 -6 10 4q-3 0 -7 2l30 83q1 -1 2 -1q0 3 -1 6l29 79q3 2 2 5l2 5h-79q-1 6 -4 6q-1 1 -2 -1
q0 -2 1 -5h-13l-2 1v-1h-1h-19q0 4 -5 5q0 -2 -1 -5h-53v70h214q1 -2 4 -2q-1 1 -1 2h68l-26 -70zM91 694q-3 -14 8 -19q7 -3 9 7q-3 0 -6.5 7t-10.5 5zM120 644v8h-8v-8h8zM145 652zM87 187q9 7 -1 17q-10 9 -15 -1q-1 -1 -1 -3q3 -1 6.5 -0.5t6.5 -0.5t4 -3q-4 0 -4 -4
t4 -5zM70 49zM74 53v8h-8v-8h8zM95 204h8v8h-8v-8zM108 170zM313 57zM246 36zM229 66q-3 -8 8 -12q4 1 5 3q-3 0 -5.5 5t-7.5 4zM204 53q-12 -5 -17 -22t-17 -20q5 1 9.5 0t7 -2t5 -1.5t5.5 0.5t7 3q-3 6 -4 10t-0.5 7t2 11t2.5 14zM158 15q-8 3 -9 -6t-4 -10q10 -3 12 1.5
t1 14.5zM158 284q-1 3 -0.5 6.5t-0.5 6.5t-3 3v-6.5t0.5 -6.5t3.5 -3zM145 204v-8h9v8h-9zM129 149q4 1 8.5 3.5t6.5 4.5t5 7t5 6q-5 0 -9 -2.5t-6 -4.5t-5.5 -7t-4.5 -7zM154 133q9 -8 12 4q-2 0 -3.5 1.5t-3.5 2.5t-5 0v-8zM238 204q-14 -1 -17 -8q3 -2 7 -9t10 -8
q0 7 2 16.5t2.5 13.5t-2.5 9.5t-11 10.5q-2 -8 3.5 -13.5t5.5 -11.5zM170 263zM175 187q10 -1 8 13h-8v-13zM200 288zM200 321q0 3 2.5 6t1.5 7q-6 -4 -10 7q-1 3 -3 -3q2 -1 3 -3.5t1 -5.5t1 -5t4 -3zM212 380q11 -1 9 13h-9v-13zM229 321l-4 -2q2 -3 7 1q2 2 1 5
q-6 4 -6.5 3.5t2.5 -7.5zM229 342zM221 434q11 1 17 -4q0 12 -10 15q-6 2 -7 -6v-5zM250 426zM275 623zM183 682q-2 0 -3 1q-4 1 -4 0q1 -4 14 -9q2 -1 3 1q0 1 -6 7h-2h-2zM233 652v6.5v6.5q-7 3 -13.5 -1t-7 -10t4.5 -10q5 20 16 8zM263 422zM263 497zM254 678q7 -9 13 -2
q7 8 -1 13q-2 1 -3 1q-1 -3 -5.5 -5t-3.5 -7zM271 665zM275 451zM279 556zM296 514zM342 690zM321 694zM317 661q-8 5 -9 -5q0 -7 5 -8q0 2 2.5 5.5t1.5 7.5zM305 598q15 -10 12 4h-5t-5.5 -1t-1.5 -3z" />
    <glyph glyph-name="bracketleft" unicode="[" horiz-adv-x="364" 
d="M258 637q-3 -2 -5 -3l-143 -1l1 -19v-1v-106v-1v-86q-1 3 -4 4q-2 -12 1 -11l3 2l1 -353v-1v-3h216v-66h-292v166q6 -3 8 2q-2 0 -4.5 1.5t-3.5 1.5v532h292v-61h-67q1 2 -3 3zM275 646q-1 1 -1 2v6t-2 3.5t-6 0.5q0 -9 9 -12zM295 38q-9 0 -12 -8h2q4 0 6 0.5t3.5 2
t0.5 5.5zM220 13q-6 -4 -7.5 -9t7.5 -8q8 17 0 17zM166 51zM52 650zM40 503zM40 541q5 -9 14 2q7 10 -2 15q0 -3 -1 -5t-2.5 -3.5t-3 -2.5t-3 -3t-2.5 -3zM48 436v-8h9v8h-9zM52 323zM57 218zM65 34zM69 239zM94 524zM86 545h8v9h-8v-9zM107 193q-9 5 -9 -7q0 -9 5 -10
q0 2 1 4t2 3.5t1.5 4t-0.5 5.5zM99 101q7 -5 9 5q-1 7 -5 8q-1 -5 -4 -5v-8zM103 336zM103 570q-4 4 -10.5 2.5t-10.5 -6.5q4 1 8 0t6 -2t3.5 0t3.5 6zM107 650zM161 650v8h-8v-8h8zM161 684q0 -6 6.5 -8.5t13 0t6.5 8.5q-8 -8 -26 0zM245 692z" />
    <glyph glyph-name="backslash" unicode="\" horiz-adv-x="401" 
d="M347 35l16 -43h-73l-21 58q2 3 -1 4l-153 420q3 3 3 7.5t-4 5.5q1 -4 -2 -7l-2 8l3 3q4 4 4.5 5.5t-7.5 2.5l-2 -6l-72 197h73l5 -13q0 -8 3 -8l22 -61q0 -3 1 -3l26 -72q-13 -1 -14 -5q3 -3 8 -3t7 5l65 -177q0 -2 1 -5l112 -305q-8 -9 -9 -9q7 -1 11 1zM56 650zM89 587
zM114 604v8h-8v-8h8zM118 545zM127 499zM139 503zM156 470zM156 407zM223 344q2 -4 1 -7.5t-3 -5t-4 -3.5t-2 -5q6 -2 10 2.5t3.5 10.5t-5.5 8zM240 306q-1 -6 -12 -15.5t-13 -21.5q12 2 21 15.5t4 21.5zM185 369q0 -2 -0.5 -3t-1.5 -2.5t-2 -2.5q3 0 5 -2t4 -2q0 2 2 4.5
t2 3.5q-2 0 -4.5 2t-4.5 2zM198 340v8h-8v-8h8zM219 218q6 -1 13 3t9.5 9.5t-1.5 8.5q-4 -7 -9 -8.5t-10 0t-6 0.5q5 -1 4 -13zM261 147zM265 97zM315 26zM328 34zM345 26q-3 -5 -4 -6h1q3 5 4 8q-1 -1 -1 -2z" />
    <glyph glyph-name="bracketright" unicode="]" horiz-adv-x="365" 
d="M216 689h112v-66l-1 -2h1v-282q-4 -6 -5 -7q1 0 5 1v-129q0 1 -5 4t-6 3.5t-5.5 2.5t-7 1t-5.5 -3t-6 -6q5 -1 4 -4q1 -5 5 -5q6 19 11 -7q1 -2 1 -5q-4 7 -12 8q0 -5 3.5 -12t3 -11.5t-6.5 -9.5q11 -1 14.5 8t-2.5 17q9 -1 14 0v-198h-94q3 5 -4 9q0 -2 -9.5 -1.5
t-10.5 -6.5q2 0 4 -1h-67v1h-13v-1h-75q-2 4 -5 5q0 -5 -4 -4v-1h-14v66h73q-4 -4 -4 -6q8 0 13 6h47q2 -2 3 -2v0.5v1.5h84v174q1 -2 3.5 -3.5t5 0.5t3.5 7q-10 1 -12 -2l1 111q2 0 7.5 -0.5t9 0t2.5 4.5q-5 5 -19 10v138q5 0 7 7q-4 0 -7 -1v129l-129 1q3 5 -2 7
q-5 1 -5 -3q0 -2 2 -4l-83 1v1q1 -1 2 -1q5 3 5.5 3t3.5 -1.5t7 -1.5v5v5.5t-1 4t-3 2.5q1 -3 -1.5 -5.5t-7 -5t-5.5 -2.5v56h23q4 -2 8 -1v1h142q2 -7 -4 -14q8 2 11 14zM155 642zM180 688zM180 675q3 1 11 -10q4 -4 6 2q-3 -1 -6.5 4.5t-5 7.5t-5.5 -4zM201 646zM46 47z
M101 34zM88 21q-1 -11 6 -11t11 7q-12 0 -17 4zM109 30zM134 9zM134 34q11 2 6 12q-4 10 -10 1q6 0 1.5 -6t2.5 -7zM151 5v-3q0 -4 0.5 -6t2.5 -3.5t5 -0.5q1 10 -8 13zM193 21zM197 5zM247 34zM289 591v-8q8 -5 9 5q0 7 -5 8q0 -5 -4 -5zM297 474zM293 533zM285 621
q4 13 -2 20q-2 3 -5 -1q-1 -1 -1 -3q3 1 4 -1.5t0 -6.5t-0.5 -6.5t4.5 -1.5zM281 415zM281 575zM268 616q-4 5 -8.5 2.5t-3.5 -10.5q9 0 12 8zM218 633q0 2 1 4l1.5 3t0 2.5t-2.5 3.5q-1 0 -3.5 -0.5t-3.5 -1.5t-1 -2q2 0 3 -2l2 -4t3 -3zM222 663zM247 684q1 -3 2 -9
t3 -9.5t8 -2.5l-1.5 10.5t-3 7t-8.5 3.5zM256 558zM268 466q-6 7 -10 -7q-3 -15 6 -14q6 3 6 11t-2 10zM264 382q3 -1 6.5 -0.5t6.5 -0.5t4 -3q-4 0 -4 -4t4 -5q9 7 -1 17q-10 9 -15 -1zM264 298q0 -6 -4 -13h12v9q-2 0 -4.5 2t-3.5 2zM260 235h8v9h-8v-9zM281 214
q-8 -3 -12.5 -18.5t-8.5 -19.5q17 5 21 38zM256 126q-2 -5 0.5 -7t6.5 -3t5 -2q7 1 5 22q-1 5 -2 5.5t-3 -2.5q1 -7 -0.5 -11t-5 -4.5t-6.5 2.5zM272 55q2 13 -12 21q-2 -6 0.5 -9.5t6.5 -6.5t5 -5zM256 9q6 -2 9 4.5t12 3.5q0 4 -2.5 8.5t-2.5 8.5q-5 -1 -8 -5t-5 -11
t-3 -9zM289 122v8h-8v-8h8zM297 38zM318 30zM314 88zM314 126zM297 118zM314 105q-10 9 -20 0q-8 -7 -1 -12q0 6 3 7t6.5 -0.5t7 -0.5t4.5 6zM289 386h9v8h-9v-8zM302 352zM302 679zM314 633zM310 487zM318 528v9h-8v-9h8zM323 524z" />
    <glyph glyph-name="asciicircum" unicode="^" horiz-adv-x="249" 
d="M207 526l6 -15h-45l-44 120l-25 -71l-18 -49h-45l12 33q0 -8 4 -3q1 5 -3 7l53 144h45l21 -59q-3 -2 -2 -6q2 -1 5 -1l32 -88q-6 -2 -8 -7q6 -5 12 -5zM90 611zM82 623zM86 577q1 3 4.5 6.5t4.5 6.5q-7 3 -12 -5q-4 -7 3 -8zM128 648z" />
    <glyph glyph-name="underscore" unicode="_" horiz-adv-x="355" 
d="M319 24q-9 2 -14 -9q-2 -6 1 -8q0 5 6 7t7 4v-24h-57q-1 3 -2 5q-1 -2 -3 -5h-160q-3 7 -9 5q0 -2 1 -5h-53v33h283v-3zM51 3q9 11 1 21q-5 7 -14 0q1 -8 4 -13.5t9 -7.5zM168 3zM298 20z" />
    <glyph glyph-name="grave" unicode="`" horiz-adv-x="104" 
d="M58 619q-1 -11 4 -15l-7 2l-19 4l12 52l19 -4zM52 644z" />
    <glyph glyph-name="a" unicode="a" horiz-adv-x="385" 
d="M330 101l18 -101h-78l-9 55h-73v3h-7v-3h-58l-1 -9q-1 1 -3 1q0 -5 2 -6l-7 -41h-67q8 1 6 7q-8 0 -11 -7h-6l107 609h15q1 -2 2.5 -2t2.5 2h78l14 -82q-3 -4 2 -8l6 -39q-1 1 -2 1q1 -10 4 -10l65 -369h-7v-7h7v6zM50 51zM75 117zM64 47zM64 102zM75 4q0 2 2 4.5t2 6.5
q-7 4 -8 -5q1 -6 4 -6zM79 153q5 -2 8.5 2t3 9.5t-4.5 6.5q2 -6 -2.5 -11t-4.5 -7zM90 252zM97 98zM97 193zM265 295q0 9 -8 11q0 -8 8 -11zM254 335v-7h7v7h-7zM252 469q-1 0 -2 -2zM239 237zM243 197zM236 470h-1h1zM232 405q-12 1 -11 -11q12 -1 11 11zM225 354zM199 423
zM188 554zM188 445zM184 427zM152 408zM148 306zM133 244zM119 106zM122 95zM122 197l2 1l-3 -2q1 0 1 1zM122 281zM122 303zM130 430zM133 117zM148 73q5 0 11 -4v6t-0.5 5.5t-3.5 3.5q0 -3 -3 -6t-4 -5zM152 120q1 -10 3 -11q0 4 1 5.5t3.5 3t3.5 2.5h-11zM159 98zM163 58
zM192 95q2 6 -6 9q-4 1 -5 -2q2 0 4 -4t7 -3zM203 102zM221 73q5 0 7 4.5t3.5 10t4.5 7.5q-15 -3 -15 -22zM131 133h122l-61 311l-26 -135l-7 -32q-1 -3 -1 -4l-1 -10q-3 1 -3 2l1 -1q1 0 2 -1zM265 222q-4 7 -2 12.5t3.5 7t-5.5 6.5q2 -7 -2.5 -10t-4.5 -5q4 1 6 -4.5
t5 -6.5zM298 182zM298 149zM287 219q-4 -7 4 -8q7 -1 7 4q1 2 0 4h-11zM283 325zM272 73zM272 109zM272 146zM272 259zM276 314zM283 29zM283 171zM294 36zM298 77q-1 -9 7 -11q0 8 -7 11zM308 190zM312 87zM334 11z" />
    <glyph glyph-name="b" unicode="b" horiz-adv-x="308" 
d="M271 422q0 -60 -50 -95q3 -2 7 -7q0 -1 1 -1.5t2 -0.5q16 -17 26 -38q0 -1 1 -3q13 -28 13 -60v-24h-3q0 -5 3 -6v-51q0 -28 -5 -51q-2 2 -5 3q-2 -9 2 -13q-6 -23 -18 -39l1 9v-1q-1 -1 -6 -5t-6.5 -7.5t-1.5 -8.5q-13 -10 -29 -15q0 3 -4 3q-1 -3 -1 -4q-19 -5 -45 -5
q-6 0 -18.5 -1t-20.5 -1h-10q-2 6 -5 8.5t-6 -1.5q4 0 4 -7h-61v609h78v-218q15 -26 39 -26q21 0 36 20.5t15 50.5v42q0 30 -15 51t-36 21q-1 0 -4 -1v6q3 3 2 7h-2v47h2h2q12 0 24 -2q-1 -3 -6 -4.5t-5 -4.5q5 -8 11 3q2 3 2 6q37 -9 62 -37q0 -1 -2.5 -3.5t-3.5 -4.5
q6 -3 10 3q26 -32 26 -73v-70zM257 390zM246 372zM242 529zM239 551zM173 558zM107 514zM100 416zM96 87q1 -1 0.5 -6.5t1 -7.5t6.5 0q1 13 -8 14zM100 179q-7 4 -8 -5q1 -6 4 -6q1 2 3 4.5t1 6.5zM96 212zM96 270q3 -7 4 -7q2 16 -11 14v-7q1 -4 4 -4q0 5 3 4zM93 562z
M67 500zM56 481zM56 438zM38 456zM42 182zM53 445zM60 394q-7 4 -8 -5q1 -5 4 -6q0 2 2.5 5t1.5 6zM53 346v-7q7 -4 8 5q-1 5 -5 6q-2 -3 -3 -4zM56 255zM60 40q-1 4 0 8.5t0.5 9t-4.5 4.5q1 -2 0.5 -6t-1 -7.5t0.5 -6t4 -2.5zM64 58zM60 109zM67 69zM67 350zM71 532zM71 91
zM78 160zM82 562zM82 11zM86 368q-1 -8 7 -11v2q0 4 -0.5 5.5t-2 3t-4.5 0.5zM89 22q16 1 15 18q-16 -4 -15 -18zM104 55zM107 128zM107 255zM217 252q-5 -1 -8 -10q-2 -8 5 -9h3q2 0 4 4q2 12 -4 15zM213 445zM210 554zM180 573q3 0 7 0.5t5 0.5h3t3 -1.5t4 -3.5q1 2 2.5 7
t1 8.5t-3.5 6.5q-7 1 -10 -6.5t-8 -8.5v2q-2 2 -3 -1q-1 -2 -1 -4zM199 522zM202 532h8v8h-8v-8zM206 303q-1 1 -1.5 6t-2 8t-3.5 4v-5t-0.5 -5.5t0 -5t2 -3t5.5 0.5zM195 350zM184 354zM180 325q1 8 -7 10q0 -8 7 -10zM169 314zM158 361zM148 350zM140 339zM126 295v-7h7v7
h-7zM115 84zM126 15zM129 66zM144 7q3 7 -5 11q-4 0 -6 -3q2 -1 3 -3t2.5 -4t5.5 -1zM173 40zM184 22zM195 33v7h-7v-7h7zM210 66zM210 95q-4 8 -1.5 14t1.5 8q-2 -6 -5 -1l-5 4q4 16 4 32v49q0 34 -15 58t-36 24q-24 0 -39 -31v-151q15 -31 39 -31q15 0 27.5 13t18.5 34v-3
q1 -19 11 -19zM213 29q1 0 1.5 -0.5l0.5 -0.5q-1 1 -2 1zM246 87zM253 113zM253 139zM261 131zM264 175zM261 160v6v5q-12 1 -11 -11h11zM253 233q1 -5 -2 -12t-1 -13q6 -3 8 7q1 15 -5 18zM246 274zM246 190q0 -4 -2 -8t-2 -7q6 -3 15 11q-5 0 -11 4zM235 270zM235 226z
M231 168zM235 51q0 8 -7 11q0 -10 4 -11h3zM221 73zM224 554zM228 467zM235 511z" />
    <glyph glyph-name="c" unicode="c" horiz-adv-x="311" 
d="M49 84q-2 0 -3 -6t1 -8q-4 8 -6 17q4 0 8 -3zM274 491v-3q-3 -1 -6 -3q3 0 6 -3v-28q-6 0 -9 -9q5 1 9 3v-9q-2 -2 -3 -5h-39h-34v24q0 38 -13 64.5t-31 26.5q-17 0 -29 -22t-15 -56q0 -1 -3 -3q-6 -6 1 -8q0 1 2 3v-2v-3v-108q-5 -2 -6 -6t4 -5q0 2 2 4v-107
q-4 -5 -6 -6q5 -2 4 -8l0.5 0.5t1.5 0.5v-49q0 -19 3.5 -36t9 -29t14 -19t17.5 -7q17 0 30 25q1 -6 4 0q2 3 -2 5q12 26 12 61v10h38q-3 -3 -4 -5q10 0 14 -4q-1 6 4 9h24v-17l-2 1q0 -8 2 -10v-39q0 -18 -6 -35q2 11 -3 11q0 -3 -0.5 -10.5t0.5 -9.5q-1 -2 -2 -5
q-6 1 -8 -3.5t1 -10.5l-6 -8q-3 -1 -5.5 -4t-1.5 -5q-36 -39 -88 -39q-36 0 -65 20v2h-3q-21 14 -34 36v0l-6 12q1 -1 2 3q4 11 0 22q-6 1 -11 1q-2 11 -2 23v295q2 -2 6 -2q1 12 -6 17v62q0 49 35 83.5t84 34.5q16 0 33 -4v-3q3 0 5 1q7 -2 13 -5q-1 -4 0 -6q2 -2 4 4
q44 -23 58 -70v-1h1q5 -17 5 -34zM261 149q-9 1 -10 -10q0 -8 6 -8q-1 6 2 10t2 8zM210 29v-2q0 -3 0.5 -5t2 -3.5t4.5 -0.5q1 8 -7 11zM243 120zM239 142zM235 87zM235 69q0 -4 -7 0q1 -2 0.5 -5.5l-1 -7t0.5 -6t4 -3.5q-1 4 1.5 9.5t4 8t-2.5 4.5zM221 139v-19q9 -2 10 7
q-1 10 -10 12zM221 77q4 3 3 8t-7 6v-4.5v-4.5t1 -3.5t3 -1.5zM210 120zM217 69h-6t-5.5 -0.5t-2.5 -2.5q2 -1 5 -4t6 -4q0 5 3 4v7zM181 91zM111 15q1 2 2.5 4.5l3 5t2.5 4.5q-8 3 -11 -8q-1 -6 3 -6zM108 44zM115 69zM141 66v-8h7v8h-7zM137 22zM133 73zM122 87zM119 98z
M111 95q0 -1 -4 -8t-3 -14q5 4 9 2.5t7 -1t2 5.5q-5 -2 -6 0t-0.5 5.5t0 6.5t-4.5 3zM90 529zM82 584zM79 562zM71 547v2v-0.5v-1.5zM68 438zM68 398q-2 -13 0 -26q2 1 4.5 0t4 -2.5t3 -1.5t2.5 4q-9 5 -14 15q8 -2 7 3q-2 7 -7 8zM75 314zM68 350l-0.5 -3t-1.5 -5.5
t-2 -2.5q7 -7 7 4q0 6 -3 7zM53 400zM49 540zM49 503q-10 -1 -10 -3q13 -9 10 3zM42 438zM42 376zM42 361zM42 212zM42 117zM49 321zM57 135v7h-8v-7h8zM53 164zM57 398q0 -1 0.5 -1h0.5l-4 2l1 -0.5t2 -0.5zM57 525zM60 259q0 -8 8 -11v2q-1 4 -1 5.5t-1.5 3t-5.5 0.5z
M68 197zM68 164zM71 77zM79 62zM71 204q10 -2 11 7q1 7 -7 8q-1 -3 -3.5 -5.5t-3 -3.5t2.5 -6zM79 233zM86 518zM86 120zM90 208zM93 237q0 -8 8 -11q0 8 -8 11zM101 120zM97 84zM104 379zM104 430h-7v-7h7v7zM137 587v7h-7v-7h7zM195 587zM195 565zM201 573q1 0 2 -1
q0 1 -0.5 1h-1h-0.5zM206 551zM214 445zM221 536q1 2 4 5.5t4.5 5.5t1.5 6t-3 9q-5 0 -7.5 -6t-2 -13t2.5 -7zM239 558zM235 503q7 -2 9 8q1 15 -5 18q2 -7 -1 -13.5t-3 -12.5zM243 485zM250 470v8h-7v-8h7zM254 540q3 8 -4 13q-2 2 -3 0l-1 -2q4 0 4.5 -5.5t3.5 -5.5z" />
    <glyph glyph-name="d" unicode="d" horiz-adv-x="346" 
d="M308 369q-11 1 -8 -12q5 0 8 2v-46q-2 1 -3.5 3.5t-1.5 5t-1.5 5t-4.5 1.5v-18q2 1 6.5 -1l4.5 -2v-118v-3q0 -3 -3 -9q0 -2 0 -1.5t3 3.5v0v-36q0 -49 -30 -87v2h-7v-7h4q-31 -36 -77 -47v3q-6 2 -8 -4q-13 -3 -24 -3h-5h-8h-9q-1 2 -4 4q-4 -2 -3 -4h-23h-78v15
q2 1 2 3t-2 3v549q1 -1 2 -1q0 6 5 -0.5t6 0.5q-4 -1 -5.5 1.5t-1.5 6t-1 7t-3 3.5q2 -4 -2 -10v33h53v-1q4 0 7 1h18v-544q7 -3 51 -3v-1h1v1q25 0 44.5 20t28.5 52q2 0 4 1.5t3 5.5h-5q4 17 4 35v159q3 0 4 2t-3 5q-1 0 -1 -1v63h1q0 6 -1 10v21q0 32 -13 60q4 1 3 7h-4
h-2q-4 9 -8 14q-23 33 -55 33q-9 0 -18 -3v62q9 1 18 1q3 0 10 -1v0q27 -2 51 -14q0 -7 4 -8q2 2 3 5q18 -9 33 -24q6 -6 12 -15q0 -1 1 -2q28 -37 28 -84v-98zM194 580q-7 -4 -5.5 -10t9.5 -8q-3 4 -1 10t-3 8zM202 540zM235 540zM227 540q1 3 6.5 7.5t4.5 10.5
q-4 1 -9 -2.5t-5.5 -8t3.5 -7.5zM242 481zM89 584v4t-0.5 4.5t-1 4t-2.5 1.5v-6t0.5 -5.5t3.5 -2.5zM85 408v-11q11 2 11 4q-2 1 -4 2.5t-3.5 3t-3.5 1.5zM89 171zM81 299zM76 589q-2 1 -5 6q1 0 3 -4l1 -2h1zM70 481zM63 208zM63 376zM56 558zM56 456zM56 427q-4 4 -8 2
t-3 -10q8 0 11 8zM38 244v-14q8 3 12.5 -2.5t8.5 -5.5q0 3 1 5.5t1.5 3.5t-2.5 2q-4 -4 -5.5 -0.5t-6 8.5t-9.5 3zM36 223q1 0 5 -4l2 -2l-2 2q-1 1 -4 3q0 1 -1 1zM56 193q-8 2 -10.5 -2t-4.5 -12q14 0 15 14zM49 95zM49 117zM52 44zM59 51zM70 135v11q-17 -1 -18 -18
q5 -2 8 4t10 3zM74 29zM74 164zM85 226q-6 -5 -6.5 -13t6.5 -12q-1 3 -1 6t1 6.5t1.5 6t0.5 4.5t-2 2zM85 128zM89 91zM96 33zM103 591zM107 190zM107 365zM107 547zM129 4q6 9 -2 12q-6 3 -6 -6v-6h8zM136 40q-1 4 0 8.5t0.5 9t-4.5 4.5l-2.5 -6.5t-7.5 -4.5q0 2 -2 2
q-2 1 -2 -2q2 -4 18 -11zM187 58q-1 -7 5 -5l8 4l9 5q-4 1 -4 7q-7 2 -9.5 -5t-8.5 -6zM205 22zM213 29zM209 51zM227 73zM231 36v-2q0 -3 0.5 -4.5t2 -3t4.5 -1.5q1 9 -7 11zM235 87zM238 106zM300 416zM297 507zM297 467q-2 1 -2 -2q0 -10 5 -13q2 2 1 5.5t-2.5 6
t-1.5 3.5zM286 427q-7 1 -13 -1.5t-9 -2.5q1 -5 7 -11t7 -11q1 1 2 10.5t6 15.5zM278 346zM267 368zM253 124zM260 573zM260 532zM260 485zM260 387zM264 142zM260 182q9 -1 10.5 6.5t-3.5 12.5q-5 1 -6.5 -1.5t-0.5 -9t0 -8.5zM275 77zM275 124zM275 168zM282 233zM293 190
zM293 226zM304 160v8h-7v-8h7zM293 394q9 -2 10 5q-2 4 -6 6q0 -5 -4 -11z" />
    <glyph glyph-name="e" unicode="e" horiz-adv-x="311" 
d="M114 529h-1.5h-0.5v-7h2v-181h83l26 -72h-109v-133q-1 -1 0 -3v-61h30h1h9q-2 -1 -2 -3q11 -7 11 0v3h111v-72h-238v22h6v7h-6v209q2 -4 3 -5q0 3 3.5 8t3.5 11q-6 -6 -10 -2v359h203h8h27v-71h-44l-0.5 0.5l-1.5 1.5q0 -1 -1 -2h-113v-9zM258 573zM239 580zM210 605z
M199 594q1 9 -7 11v-2q0 -3 0.5 -4.5t2 -3t4.5 -1.5zM163 565zM156 587q0 -2 -2 -4t-2 -3q2 0 4 -1.5t3 -2.5q0 2 2 4t2 4q-2 0 -4 1.5t-3 1.5zM134 558q-8 4 -8 -6q0 -8 4 -9q0 4 2 8t2 7zM123 598v2q-1 4 -1 5.5t-1.5 3t-5.5 0.5q0 -8 8 -11zM261 15zM258 33q3 8 -4 13
q-3 2 -4 -2q3 0 4 -5.5t4 -5.5zM250 66zM239 29zM236 58q1 -3 0 -6.5t-3 -6t-1.5 -5t4.5 -4.5q0 3 2 12q3 12 0 12q-1 0 -2 -2zM232 15zM221 18zM203 51zM199 40zM210 288zM199 281zM196 299zM197 319q-1 -1 -2 -3q0 1 0.5 1h0.5q0 1 0.5 1.5zM159 288zM104 551zM104 219z
M104 398zM97 379zM97 241zM90 478zM79 335zM79 274zM83 551zM79 434q2 13 -7 15q-4 -4 -2 -9.5t9 -5.5zM72 481zM68 547zM61 412zM57 514zM42 361q3 0 7 -1.5t5.5 -0.5t2.5 6h-4.5t-4.5 -0.5t-3.5 -1t-2.5 -2.5zM53 263h-7v-8h7v8zM46 219zM42 208q-2 -13 8 -13q8 0 9 5
q1 2 -2 4q-2 -5 -4 -4t-5.5 4.5t-5.5 3.5zM57 117zM50 131h7v8h-7v-8zM53 29v7h-7v-7h7zM53 62q-5 -7 0 -9q6 -2 7 7q1 1 1 2h-8zM61 18zM68 33v7h-7v-7h7zM86 44q3 6 -2.5 17t-15.5 12q4 -3 7 -8.5t6 -11.5t5 -9zM90 182zM94 73zM97 87v8h-7v-8h7zM97 230v-8h7v8h-7z
M101 197zM119 25l6 1.5t5 2t4 4.5t0 7q-6 0 -11 4q1 -11 -4 -19zM145 22zM130 69zM123 58q-4 -2 -7.5 -0.5t-4.5 1.5t-3.5 3t-3.5 4q-8 -20 5 -23q10 -3 13 13q1 1 1 2z" />
    <glyph glyph-name="f" unicode="f" horiz-adv-x="351" 
d="M218 540q-4 3 -4 2t2 -2h-12q0 1 -4 3q-4 -2 -3 -3h-34v-25q-1 -5 -3 -8l3 -1v-153h37q0 -5 -4 -10h11v7q-2 0 -5 3h62l26 -70h-39q-2 3 -7 1v-1h-81v-206q-6 -2 0 -7v-70h-78v283h-24l-4 12h8q1 12 -11 11v-3l-7 19q3 -2 4 3q0 2 -2 3h-2q-1 -2 -1 -4l-4 13q2 1 1.5 3
t-3.5 3l-4 10h49v246q1 -1 6.5 -1.5t6.5 -3.5q-2 4 -1 6.5t2.5 3.5t3.5 2t2 3q-4 0 -10 -4t-10 -1v5h77q-1 -5 3.5 -8.5t8.5 1.5q-7 0 -4 7h77v-5q2 -3 4 1v4h56h1h6v-69h-96zM280 565zM313 558q0 8 -7 11v-2v-5.5t2 -3t5 -0.5zM287 587q-8 0 -10 -7h2q3 0 4.5 0.5t3 2
t0.5 4.5zM58 339zM222 321zM207 303zM178 332q1 -5 -5 -6.5t-6 -4.5q8 -3 13 3t-2 8zM123 237q13 13 33 11q-4 1 -7 7q-2 -1 -7.5 -3t-8 -3.5t-6 -4.5t-4.5 -7zM123 390zM138 288q5 2 1 9.5t-8 8.5v-18h7zM140 401h4h-2h-1.5h-0.5zM134 252zM149 434zM149 277zM153 299v-4.5
v-4.5t0.5 -3.5t2.5 -2.5q4 4 3.5 9t-6.5 6zM153 584zM145 500zM142 609zM134 449v-4.5v-3.5q2 0 4 -1.5t4 -1.5q-1 5 3 11h-11zM134 339zM127 584zM127 540zM123 445zM105 405q9 -1 12.5 2.5t2.5 11.5q-6 0 -8.5 -1t-5 -4t-1.5 -9zM112 215q5 4 3 13t-10 9q3 -6 4.5 -12z
M116 113h-7v-7h7v7zM98 274l2.5 -5t2.5 -5.5t2.5 -4.5l3 -4t3.5 -3q-2 16 -14 22zM94 281q15 3 22 14h-11q2 -6 -4.5 -8t-6.5 -6zM105 576zM109 514zM105 467q-8 0 -11 -7h2h5.5t3 2t0.5 5zM91 562zM87 357zM87 408zM69 343zM76 346zM105 321q-1 -9 -6 -5.5t-10 9.5t-9 0
q3 -2 9.5 -8.5t10.5 -8.5t12 2q-3 0 -3.5 5.5t-3.5 5.5zM83 314zM91 306q-1 -2 -3 -5t-3.5 -5t-3 -4.5t0 -4t5.5 -3.5q0 2 3.5 7.5t4 8.5t-3.5 6zM98 40zM101 91zM103 99q3 0 6 -1h1h-1l-1 1h-1h-2h-1h-1zM112 73zM116 80zM116 274q1 5 7 10q-6 3 -10 -4q-3 -6 3 -6z
M120 230zM138 208q-12 1 -11 -11q12 -1 11 11zM134 18zM138 113zM134 142q7 5 7 13t-10 9q1 -4 0 -8.5t-0.5 -9t3.5 -4.5zM142 36zM153 113v-7h7v7h-7zM156 47zM156 142zM160 419zM163 554zM182 551q7 -5 8 6q-1 7 -5 8l-2 -5t-1 -9zM233 609v-7h7v7h-7zM236 554zM215 609
v-7h7v7h-7zM200 602zM204 591q-1 -8 7 -11q0 8 -7 11z" />
    <glyph glyph-name="g" unicode="g" horiz-adv-x="352" 
d="M160 609h1h-1v0zM272 320h42v-60q-7 5 -8 -6h-34v-45q-5 -8 -6 -12q3 0 6 3v-82q0 -49 -34.5 -83.5t-83.5 -34.5q-37 0 -67 21q2 6 -4 8v-5q-39 30 -46 78h6v7h-7v9v130v240q1 1 0 2v1q0 49 34.5 83.5t83.5 34.5h3h3h1q19 -1 35 -7q0 -1 1 -1.5t3 -0.5q32 -13 52 -42.5
t20 -66.5v-37h-80q0 29 -8 52.5t-21 34.5q1 8 -1.5 9t-3.5 -3q0 -1 1 -3q-6 3 -11 3q-18 0 -31 -27.5t-13 -65.5v-141q-1 1 -3 1q1 -6 3 -7v-148q0 -18 3 -35h-2v-7h4q6 -23 16 -37t23 -14q18 0 31 27.5t13 65.5v19q0 -3 2 -2q5 2 2 5q-1 1 -3 1q-1 -2 -1 -4v69l1 1h-1v6h-7
q1 4 0.5 8t-3.5 4q-2 -4 -8 -3q0 -5 2 -9h-24q-1 1 -3 1v-1h-6v32q3 0 5 1.5t-3 4.5q0 -1 -2 -2v30h106q-2 -4 2 -6q1 1 3.5 3t3.5 3h14zM171 277zM189 299v7h-7v-7h7zM262 514zM247 547v-7h8v7h-8zM244 503v-11q3 0 5 1t3 3.5t3 3.5q0 -2 1 -3q2 0 2 3l-5 2t-9 1zM229 500z
M225 573zM222 529zM215 474zM204 584zM204 470zM196 551zM182 587zM171 543zM65 332zM65 266q4 4 1 10t-8 8q0 -1 1 -6t2.5 -7.5t3.5 -4.5zM39 511zM58 252v-8h7v8h-7zM61 182zM65 149zM149 558q2 16 -11 15q0 -1 0.5 -4.5t1 -4.5l1.5 -3t3 -2.5t5 -0.5zM131 598zM101 489z
M101 503zM94 343q7 14 0 14q1 -2 0 -4.5t-2.5 -4t-1.5 -3t4 -2.5zM83 281q4 -7 7 -2q5 7 -3 9q0 -2 -2 -4t-2 -3zM91 186zM91 445zM91 423q-8 5 -8 -5q1 -5 4 -6q0 2 2 5t2 6zM76 463zM80 397q1 -2 1 -3v5q-3 2 -5 2q-3 -6 -2.5 -6.5t6.5 2.5zM83 204zM94 149q8 5 0 14
q-7 6 -11 1q6 1 7 -6.5t4 -8.5zM98 73q6 -5 11 -2t7 9q-18 1 -18 -7zM127 22zM160 4zM185 77zM262 222zM258 263zM262 303q-2 2 -11 3t-11 4q-2 -7 8.5 -10.5t13.5 3.5zM251 215zM233 259v-7h7v7h-7zM233 142zM233 211v8h-8v-8h8zM229 277zM229 303q-7 1 -10 -9.5t3 -12.5
q6 15 7 22zM218 208v-11h4.5h4.5t3.5 1t2.5 3q-6 -2 -7.5 -1t-3.5 4t-4 4zM215 190zM215 263zM207 281zM215 241h-11q-1 -12 11 -11v11zM196 208zM204 102q-5 -7 4 -8q6 1 7 4q-2 0 -5 2.5t-6 1.5zM204 120zM200 146q8 1 14 -6.5t11 -8.5q-1 2 -2 11t-5 11q0 -8 -7.5 -5
t-10.5 -2zM236 124q-7 4 -11 -3q-1 -2 2 -4h2q0 2 1.5 3t3.5 1.5t2 2.5zM240 95zM240 135zM240 219zM255 171q-12 1 -11 -11q12 -1 11 11zM255 157zM247 113q7 -7 8 4q-1 6 -4 7l-0.5 -3t-1.5 -6t-2 -2zM251 69q9 0 7 11h-7v-11zM269 128q1 17 -3 21h-11q-5 -5 0 -13.5
t14 -7.5zM295 292zM302 306zM314 254h-1q1 0 1 1v-1z" />
    <glyph glyph-name="h" unicode="h" horiz-adv-x="316" 
d="M251 80q4 8 0 22q9 -5 14 -15q-6 3 -7 -3t-7 -4zM201 103q1 -6 6 -59q-1 0 -3 -1h-3v60zM279 273q-1 0 -3 1q1 -6 3 -7v-23h-3q1 -5 3 -6v-127q-3 10 -10 13q0 -4 -1 -7.5t-1 -4.5t1 -2.5t5 -3.5q-4 0 -8 0.5t-6 1t-4 -0.5t-4 -5q-2 1 -5 0t-4.5 -2.5t-3 -1.5t-2.5 4
q4 3 4.5 14.5t-4.5 14.5q-5 -8 -11 -6q-3 2 0 10q-10 -2 -12 -9t1 -17q6 -1 7.5 0.5t4.5 3t6 0.5q-2 -9 0 -18q-3 0 -6 -4.5t-8 -3.5q0 -10 3 -14.5t7 -4.5t6.5 -3t1.5 -10q1 1 4 8.5t7 9.5q-4 -9 5 -10.5t10 -4.5q-2 -10 -4 -11q0 9 -7 11q0 -3 1.5 -6.5t2 -6t-0.5 -9.5
q8 -2 11.5 4t10.5 4q1 9 -2.5 20.5t-4.5 15.5q7 2 10 12v-92h-12q5 2 6 6t-4 5q0 -3 -4 -5t-3 -6h-15l22 22q-4 4 -10.5 -0.5t-10.5 -11.5t-1 -10h-46v4q42 16 42 47q-3 -5 -18.5 -16t-17.5 -24q-1 1 -1.5 10.5t-2.5 14.5q11 2 12.5 15.5t-3 29t-11.5 30.5v54q2 -1 6 -1
q-3 9 0 14.5t11 12t11 10.5h-18q-2 -11 -4 -11q-2 1 -7 1t-9 2t-6 8v-15q6 1 9.5 -0.5t3.5 -3.5t-0.5 -6t-0.5 -6h-19v5q-7 0 -9 -5h-25q-1 1 -3 1v-1h-14q-1 8 -4 9q-1 -5 1 -9h-10v-170h-62q0 1 1 2l-1 -1v-1h-16v96q2 -4 6 -5t4 4q-2 0 -5 3t-5 4v4q9 -1 7 11h-7v226v5
v261h78v-35v-2v-186l-1 0.5l-1 0.5q0 -5 2 -8v-144h50q-1 -1 -1 -2h15v2h23v149l2 -0.5t4 -0.5q1 10 -6 10v216h78v-336zM98 602zM98 295zM94 263zM90 496q1 8 -7 11v-2q0 -4 0.5 -5.5t2 -3t4.5 -0.5zM83 543zM79 357zM79 310zM76 255q-7 5 -8 -5q1 -5 4 -6q0 2 2 5t2 6z
M68 149zM68 339zM72 390q-1 0 -4 2q-5 3 -7 -2q1 0 4 -1.5t4.5 -1.5t2.5 3zM61 609zM46 263q2 -1 4.5 -2.5t4 -1t2.5 3.5q-1 0 -3.5 1.5t-4 1t-3.5 -2.5zM54 237zM50 343q1 -2 0 -8.5t0.5 -9t6.5 -0.5v18h-7zM54 149zM54 470zM50 576zM54 529zM57 288q-11 7 -16 0
q-3 -5 5 -11q0 5 5.5 6.5t5.5 4.5zM46 106zM50 179q0 5 4 10.5t3 11.5q-6 1 -9 -9.5t2 -12.5zM54 4q1 1 1 3q2 2 2 3q0 -1 -1 -2zM61 58q0 3 2 8t2.5 8t-4.5 6q0 -3 -3 -2t-4 -1q8 -1 5 -8t2 -11zM54 128q-3 -13 7 -17q6 -2 7 6q-3 0 -5.5 2t-5 4.5t-3.5 4.5zM68 58
q-3 -7 5 -8q6 0 7 5q0 1 -1 3h-11zM83 36zM87 29zM90 197zM94 160zM94 215q-10 -3 2 -11q9 -6 9 0q-5 1 -4 11h-7zM98 303q9 -1 7 11h-7v-11zM119 186v7h-7v-7h7zM149 226q0 -1 -0.5 -7t1 -7.5t6.5 -0.5q-1 12 -7 15zM156 182zM167 222v8h-7v-8h7zM170 204q8 -4 8 5
q0 5 -4 6q0 -4 -4 -4v-7zM203 201q1 2 1.5 6.5t1 7t0.5 5.5t-1.5 5.5t-4.5 4.5q-2 -5 -2 -10t-1 -9.5t-5 -9.5h11zM207 255zM203 339zM276 15zM262 445zM262 157zM254 390zM258 226q3 2 2.5 5t-2 4.5t-4 4.5t-3.5 4q-1 -13 7 -18zM254 551zM247 532zM251 274zM222 325
q-1 -9 7 -11v2q0 3 -0.5 5t-2 3t-4.5 1zM225 281zM222 368q0 -3 1 -6.5t2 -6t2.5 -5t3 -4.5t3 -5t2.5 -6q1 23 -14 33zM233 419q-2 4 2 19q1 2 0 2l-2 -2q0 -3 -2.5 -6.5t-5 -6t-3.5 -5.5t3 -4q1 4 8 3zM233 383zM236 230v-11q9 -1 7 11h-7zM247 211zM236 295q8 -4 8.5 7.5
t-4.5 11.5q1 -6 -2 -10.5t-2 -8.5zM240 365zM233 467zM229 514zM222 558zM225 438zM218 408zM214 602zM218 274q-4 -9 -3 -14.5t6.5 -5t10.5 8.5q-3 0 -5.5 2t-4.5 4.5t-4 4.5zM225 179q2 -1 6 -10.5t12 -8.5q1 6 -3.5 11t-9 7t-5.5 1zM243 197l3 -3q11 -14 16 -4
q-5 0 -4 11q-3 -1 -6 -0.5t-5.5 -0.5t-3.5 -3zM254 117zM262 135zM258 135q-1 2 0 4.5t2.5 4.5t1.5 3.5t-4 1.5q-7 -14 0 -14zM273 551zM276 376z" />
    <glyph glyph-name="i" unicode="i" horiz-adv-x="151" 
d="M36 609h78v-172v-3v-236q-10 4 -11 -5q6 -1 11 -3v-27q-1 1 -3 1q-2 -7 1 -7l2 2v-7q-2 1 -3 1q-2 -5 3 -12v-69q-1 -2 -3.5 -6.5t-3.5 -7.5q4 -2 7 -1v-57h-78v236q1 -2 2 -3l7.5 7.5t6.5 8.5t2.5 9.5t-9.5 4.5q1 -5 -4 -13.5t-5 -9.5v369zM96 321zM96 193zM96 179
q-3 4 -9 2t-5 -10q11 1 14 8zM89 106zM78 219zM82 394zM85 201zM85 222zM89 277zM89 503q-3 0 -6 4.5t-9 3.5v-4.5v-4.5t1 -4t3 -2q0 3 5 4t6 3zM78 376q0 -3 -4.5 -6t-2.5 -9h11q-1 3 -0.5 6t-0.5 5.5t-3 3.5zM71 405zM49 598zM49 587zM52 492v2v5.5t-2 3t-5 0.5
q0 -8 7 -11zM41 339q9 -7 16 6q7 14 -5 20q4 -11 -3 -16.5t-8 -9.5zM56 299zM52 325zM50 298q4 -2 5 -2q-1 0 -2.5 1t-2.5 1l-1 1v0l0.5 -0.5zM45 230q-3 -7 4 -8t8 4q0 2 -1 4h-11zM55 101l-8 4l5 -3l2 -1h1zM38 179zM45 160zM45 11zM56 69q0 2 1.5 4t2.5 4q-2 0 -4 1.5
t-4 1.5q0 -2 -1.5 -4t-1.5 -3q2 0 4 -1.5t3 -2.5zM60 478q-1 -8 7 -11q0 8 -7 11zM63 266zM63 171zM63 212zM63 222zM71 321q-5 -7 4 -8q6 1 7 4q-2 0 -5 2t-6 2zM71 142zM78 91zM78 29q8 -2 10 2t1 13q-7 2 -8 -6t-3 -9zM96 160zM100 398zM111 609zM111 573zM107 299z
M107 536z" />
    <glyph glyph-name="j" unicode="j" horiz-adv-x="335" 
d="M298 609v-36v-317q-2 2 -5 3q-2 -11 5 -13v-124q0 -11 -3 -23q-3 3 -7.5 2t-5.5 -6q6 -6 12 -2q-10 -33 -37 -57q-14 -4 -14 -12q-18 -12 -38 -18q3 2 -3 5q-5 -5 -2 -7q-14 -3 -26 -3h-9.5h-10.5h-9.5t-10.5 1t-9.5 2t-10.5 3t-9.5 4.5t-10 6t-9.5 8.5q-14 13 -25 28
q1 3 -2 4q-12 17 -18 36l1 -1l-1 1q-4 14 -4 27v5q2 1 2 2h-1l78 1q3 -10 8 -21q15 -31 37.5 -31t38 31.5t15.5 75.5v55q2 -3 3 -6q-1 1 -1.5 2t-1.5 1q1 0 2 -1t1 -2q3 -6 7 -11q1 5 9.5 2t8.5 6q-9 -4 -16 3.5t-6 21.5h-6v324q0 4 0.5 10t0.5 11t-1 9h39v-7h8v7h37z
M217 481h7v8h-7v-8zM224 266h2q4 0 5.5 0.5t3 2t0.5 5.5q-8 0 -11 -8zM49 109zM82 109zM86 40q-1 -7 2.5 -9.5t11.5 -1.5q1 8 -10 10zM96 102q9 -3 14 4q2 3 -3 3q0 -4 -3 -3q-1 3 -1 4.5t-2 2.5t-5 0v-11zM126 66zM129 18zM173 51zM184 33zM199 22zM195 58q11 2 11 4
q-3 0 -6 3.5t-5 3.5v-11zM228 186zM217 219zM217 87q-1 -2 0 -4t3 -3l3 -1.5t4.5 -1l3.5 -0.5q0 7 -5 11t-9 -1zM235 139zM239 317zM242 368zM242 511zM253 551q1 2 4 5t4 6h-11v-8q2 -3 3 -3zM272 522q-1 0 -1 2q0 9 -5 9q-1 0 -2 -1q0 -8 8 -10zM264 179zM268 467z
M268 164zM268 306zM268 492zM275 58zM275 116q2 -3 3 -4l-3 4q0 1 -0.5 1.5t-0.5 1.5q0 -1 0.5 -1.5l0.5 -0.5v-1zM279 299zM282 182q10 0 8 11h-8v-11zM290 208z" />
    <glyph glyph-name="k" unicode="k" horiz-adv-x="368" 
d="M232 178l100 -173h-78l-45 78q0 2 -2 3l-34 59h6q-1 11 -4 11q0 -2 -4 -7l-57 98v-242h-78v609h74q0 -3 3 0h1v-208l42 72q2 1 2 4l76 132h78l-166 -287l18 -32q-1 -7 1 -7q1 0 3 1l36 -64h-3v-7h7v1l22 -37q-8 -2 -7 -8q0 -3 3 -3q1 2 6 7zM237 532zM234 525q-4 6 -7 1
q-5 -7 3 -9q0 2 2 4t2 4zM208 514zM205 543zM194 463q-2 -7 5.5 -8t8.5 -3q2 6 -5.5 7.5t-8.5 3.5zM175 488zM102 426zM99 488q-12 4 -9 -7q1 -6 5 -11q0 4 2.5 8.5t1.5 9.5zM102 331q9 5 1 9q-7 4 -8 -3v-6h7zM88 441v-8h7v8h-7zM66 390q1 3 1 6t-1 5.5t-1.5 4t-2.5 3
t-3 2.5t-4 2.5t-4 1.5q0 -8 7 -14.5t8 -10.5zM51 605zM37 404v-2q0 -3 0.5 -5t2 -3t4.5 -1q0 9 -7 11zM40 437zM51 207zM51 368q-2 -3 -2.5 -5.5t0.5 -4l3 -4.5t3 -5q6 1 8.5 2t5 4t1.5 9q-6 -3 -7.5 -3.5t-2.5 -0.5t-3 2.5t-6 5.5zM62 25q10 -1 8 11h-8v-11zM70 163
q6 15 0 15q-7 -14 0 -15zM73 371zM81 601zM88 10q14 -6 14 0q-2 -1 -4.5 0t-4 3t-3 1.5t-2.5 -4.5zM95 58zM92 287q5 1 10 -3q0 5 4 11q-2 3 -3.5 4.5t-3 0.5t-2.5 -3l-2.5 -5zM106 36zM110 390l1 -1zM135 401q0 1 0.5 6.5t-1 7.5t-6.5 0q1 -11 7 -14zM132 349
q-1 2 -0.5 4.5t0.5 5v4.5t-1 3.5t-3 1.5q-4 -4 -3.5 -11t7.5 -8zM135 320zM135 262q10 -1 8 11h-8v-11zM135 364q0 -5 5 -9t6 -6q-1 4 0 8t0.5 7.5t-3.5 3.5q-2 -5 -8 -4zM175 215zM201 185zM219 127zM241 50zM270 54q-2 -11 5 -13q5 -2 6 6q-3 0 -5.5 3t-5.5 4zM274 58
q-1 5 6.5 9t4.5 13q-7 -1 -12 -9.5t1 -12.5zM296 36z" />
    <glyph glyph-name="l" unicode="l" horiz-adv-x="294" 
d="M256 35l-1 1q-1 -7 1 -7v-24h-220v514q2 1 0 3v92h78v-60q-3 -3 -5 -4q2 2 5 3v-144l-1 -1h1v-328h14q3 -2 5 0h123v-45zM113 510q-7 15 -17.5 25.5t-19.5 -0.5q13 2 19.5 -12t17.5 -13zM84 448zM80 488q10 -4 16 7q3 6 -1 8q0 -4 -2.5 -5.5t-6 -1.5t-5.5 -2t-1 -6z
M95 262l-2 -4t-2 -3.5t-2 -3.5l-2 -4q9 -3 12 7q1 7 -4 8zM91 291q11 -2 10 4q-1 7 -10 7v-11zM95 576q-2 -3 -2.5 -6t0 -5.5t1 -4.5t2.5 -5t3 -4t3.5 -4.5t3.5 -3.5q-1 2 -1.5 7.5t-0.5 8t-1.5 7t-3 6.5t-4.5 4zM87 576zM76 565q1 -2 0 -8.5t0.5 -9t7.5 -1.5q-1 2 -2 7
t-2 7.5t-4 4.5zM73 514zM40 517v-7q7 -5 8 5q-1 5 -4 6q-1 -4 -4 -4zM44 470zM47 484zM62 269v9v9h-7q0 -2 -0.5 -8t0.5 -8.5t7 -1.5zM51 459q4 -1 6 1t3 5.5t2 4.5q-14 3 -11 -11zM47 550q5 3 9.5 0t5.5 -5.5t3 1.5q-8 5 -7 19q-7 0 -9.5 -3.5t-1.5 -11.5zM62 576zM62 594z
M69 324zM73 204q-3 -11 4 -14q5 -2 7 6q-3 1 -6 4t-5 4zM84 101zM91 65zM98 211zM102 408zM113 382zM146 7v7h-8v-7h8zM127 25q10 -2 16 7.5t10 10.5q-19 0 -26 -18zM153 10q6 -2 10 5q3 5 -3 6q0 -3 -3 -5.5t-4 -5.5zM164 65q-4 -4 -3 -9t7 -6q-1 3 -0.5 6t-0.5 5.5t-3 3.5
zM200 50zM208 65zM233 21zM244 58q0 -9 7 -11q1 8 -7 11z" />
    <glyph glyph-name="m" unicode="m" horiz-adv-x="432" 
d="M395 514h-5v-11q3 -1 5 1v-100h-2v-7h2v-392h-78v130q6 2 7 10.5t-4 10.5q0 -3 -3 -7v45q2 1 3 2h-1.5h-1.5v234v1v20l-3 -18h-1q-1 -3 0 -5l-42 -213q-1 5 -5 7q-1 -11 4 -16l-20 -103h-46q0 1 -1 2q-2 5 -7 4q-1 -3 1 -6h-18l-3 15q6 0 -1 5l-3 19h6v7h-7v-2l-13 67
q5 3 5 4q-2 5 -6 3l-43 225v-112l-0.5 0.5t-1.5 0.5q-2 -10 2 -10v-320h-52q-1 6 -7 8.5t-8 -3.5l5 -5h-16v308q12 15 0 18v19q3 2 4.5 7.5t3 11.5t3.5 10q-8 0 -11 -4v44q6 3 3 11h-3v84l1.5 -0.5t2 0t2.5 5.5t1 9q-3 0 -7 -1v87h51v-6q4 -2 6 0t2 6h59l4 -21l-2 1
q1 -6 3 -6l2 -13q-1 -2 -1 -3l1 -0.5t1 -1.5l7 -38q-11 -1 -9 -18q7 -1 10 9l9 -47q-9 -3 -12 -10q3 0 4 -4l3 -3q1 4 6 7l28 -157h-1v-7h2l5 -30l56 318q1 -2 3 -3t4.5 1t2.5 6q-7 1 -9 -1l4 21h109q-1 -5 2 -6q0 4 3 6h6v-100zM171 448zM167 481zM156 473zM156 437z
M149 579zM138 590v-5.5v-6.5t0.5 -4.5t2.5 -4t4 -1.5q2 18 -7 22zM123 612zM98 481q-2 -3 -4 -4v-7q7 -5 8 5q-1 5 -4 6zM98 550zM98 597zM91 576q-1 -2 -2.5 -7.5t-0.5 -7.5t6 -4q4 4 3.5 11t-6.5 8zM91 437q-5 -4 -3 -10t10 -5q1 14 -7 15zM61 587zM65 550
q-9 1 -12.5 -2.5t-2.5 -12.5h15v15zM50 590zM39 145zM43 251zM47 506q6 3 7 -2t-0.5 -10.5t4.5 -5.5q11 7 3 19q-8 9 -14 -1zM72 470q-2 -4 -8.5 -8.5t-10 -7.5t-5 -8.5t5.5 -12.5q1 3 0 7.5t-0.5 8t4.5 3.5q3 0 3.5 -5.5t3.5 -5.5q6 4 5.5 12t1.5 17zM72 258zM65 280h7v7
h-7v-7zM54 390q8 -4 8.5 7t-4.5 11q-5 -7 -4 -18zM54 262zM54 360v-2q0 -3 0.5 -4.5t2 -3t4.5 -1.5q1 9 -7 11zM65 76zM69 185zM76 18zM80 492zM80 587q-2 2 -0.5 4.5t3 4t1 3t-3.5 2.5q-7 -14 0 -14zM91 131zM91 39zM98 233q4 3 3 8.5t-7 5.5q0 -2 -1 -5l-1.5 -4.5t1 -2.5
t5.5 -2zM91 287q-1 -10 6 -9q9 1 12 9h-18zM109 448v7h-8v-7h8zM112 488v7h-7v-7h7zM112 557q4 4 3.5 9t-6.5 6v-6t0.5 -5.5t2.5 -3.5zM134 597q-3 -1 -6 0t-5 3t-4 1.5t-3 -4.5q8 0 5.5 -8t1.5 -10q1 4 6.5 8t4.5 10zM120 554q-2 -14 7 -15q0 4 5.5 9t8 8t-2.5 9
q-4 -15 -18 -11zM138 535zM123 506q0 -8 8 -11v2q-1 4 -1 5.5t-1.5 3t-5.5 0.5zM131 492q-4 -7 4 -8q7 -1 7 4v4h-11zM138 477zM138 448zM145 426v7h-7v-7h7zM145 510v7h-7v-7h7zM145 543q7 -5 8 5q-1 5 -4 6q-2 -3 -4 -4v-7zM156 244zM156 379zM160 419h7v7h-7v-7zM174 331
q-9 2 -10 -6t7 -8l2 5t1 9zM167 185q-1 -12 11 -11v11h-11zM182 156q1 14 -8 15q1 -1 0.5 -7t1 -8t6.5 0zM174 291zM182 382h3h-1h-1h-1h-1l-1 1l0.5 -0.5t1.5 -0.5zM189 295q7 -5 8 5q-1 5 -4 6q-1 -5 -4 -4v-7zM204 182zM207 218q-4 -3 -3 -8.5t7 -5.5v4v4.5t-1 4t-3 1.5z
M207 266zM379 433zM379 382zM380 344q-1 -1 -4 -6l1 1v1l1 1l1 1zM357 506zM360 466zM353 521zM346 601q-5 -4 -3 -13t10 -9q-4 5 -4.5 12t-2.5 10zM342 280zM342 222q-7 4 -8 -5q1 -5 5 -6q0 2 1 3.5l2 3t0 4.5zM339 364zM331 568zM277 411q-1 -2 -5 -6.5t-5 -6.5t2 -5
q1 3 7 6t7 4.5t-6 7.5zM266 430q-3 -1 -7.5 1t-6.5 3t-5 -4q5 -2 4 -8q5 0 11 4q2 -7 4 -7v11zM244 320q1 12 -11 19q0 -7 0.5 -10t3 -6t7.5 -3zM233 229zM240 287q-4 4 -9 3.5t-6 -6.5h6t6 0.5t3 2.5zM218 142zM222 218zM233 142q2 -1 4.5 -3t6.5 -1q-2 11 -4 11
q0 -3 -3.5 -4.5t-3.5 -2.5zM240 193q-1 -6 3 -7q3 -1 4 3q-1 10 -11 9q-10 0 -6 -9q1 -2 3 -4q1 9 7 8zM251 280q4 4 3.5 13t-7.5 9q-2 -5 -3 -6.5t2.5 -6t4.5 -5.5q-2 0 -2 -2zM255 400l2 -1q-1 1 -2 1zM262 251q3 -1 5 0t2.5 3t1.5 4.5t2 3.5q-7 2 -10 -1t-1 -10zM269 313
zM269 342q5 -2 8.5 2t3.5 9.5t-4 6.5q-1 -3 -5 -6.5t-5 -5t2 -6.5zM280 331zM284 477zM284 583zM295 568zM313 525zM320 185zM324 61zM339 452zM335 98zM335 112zM342 72zM342 36q-2 -16 11 -15q0 1 -0.5 4.5t-1 4.5l-1.5 3t-3 2.5t-5 0.5zM357 291v4v9.5t-3 6.5t-8 2
q1 -5 11 -22zM353 371q7 -4 8 5q-1 6 -4 6q-2 -3 -4 -3v-8zM368 561q9 -4 13 6q1 5 -2 5q0 -4 -7 -4t-4 -7zM371 481v-8h8v8h-8zM382 58zM375 204q1 -3 3 -10t4 -11t8 -5q0 14 -15 26zM386 244zM382 331h3q3 0 4.5 0.5t3 2t0.5 4.5q-8 1 -11 -7zM390 441h-6h1h5z" />
    <glyph glyph-name="n" unicode="n" horiz-adv-x="364" 
d="M327 276q-1 6 -3 8t-3 -1q0 -5 6 -10v-9q-3 -2 -3 -6h3v-223q-1 1 -3 1q-2 -7 1 -7q1 0 2 1v-21q-2 -3 -1 -4h-77l-9 26v8q-1 1 -3 0l-37 106q7 8 0 9q-2 0 -3 -1l-18 52q2 5 7 -7q1 0 1 -2l2 -3q-2 5 2.5 8t4.5 6q-4 5 -19 4l-21 60v2h-1l-12 36q2 -2 5.5 -1t-3.5 5
q-3 -1 -3 -3l-28 81v-145q-1 1 -2 1q2 -12 2 -13v-130q0 1 -0.5 1h-1.5q1 -6 -1 -7t-5 1t-5.5 2.5t-2.5 -3.5q2 -1 7 -4t9 -3v-38l-0.5 0.5t-1.5 0.5q-2 -3 -12.5 -1.5t-23.5 -5.5q-2 -22 18 -26q5 3 1.5 8.5t-7 9t1.5 8.5q3 -6 5 -8t6.5 -2t7.5 -1q-4 6 5 12v-43h-56v5
q-13 0 -13 -5h-8h-1v38q5 0 7 1t0 6q-3 1 -7 0v30q2 -2 4 3q0 2 -2 3q-1 1 -2 1v14h3v8h-3v112q1 -8 7 -6q0 8 -7 10v47v2v81q3 -1 3 -2q1 2 2.5 4.5t1 4t-3.5 2.5q0 -3 -3 -3v86v2v145h3v7h-3v9q2 -1 3 2q1 1 1 2h15q1 -5 6 -6v6h53l28 -82h-1v-7q2 -1 4 -1l18 -54
q-7 -14 0 -15q-1 3 2 8l38 -110q-2 -3 -2 -5.5t1.5 -3t3.5 0.5l43 -127v396h78v-338zM149 470zM138 441zM116 532zM105 605zM112 583q-2 1 -9 7t-13 7q2 -2 3.5 -6.5l2.5 -7.5t3.5 -6t5.5 -5q1 3 4 6t3 5zM69 138q-6 7 -5.5 9t5 0.5t7.5 1.5q-5 1 -4 7q-6 2 -12 -1t-10 -2
q0 -7 8.5 -10.5t10.5 -4.5zM72 123h-5.5h-5.5v-7l4 -4q0 3 3.5 6t3.5 5zM69 178q-8 5 -8 -5q1 -5 4 -6q0 2 2 5t2 6zM65 225zM72 466q1 -4 3.5 -6.5t8 -5t6.5 -2.5q-1 3 1.5 9t3.5 9t-5 7q0 -1 -1 -3q-3 -8 -5.5 -9.5t-11.5 1.5zM83 503q7 0 9 4t-1 8.5t-8 5.5v-18zM101 426
q0 -7 -8 -5t-10 -6q11 -11 18 -14q4 2 5 12.5t-5 12.5zM101 525zM90 561q-7 5 -8 -5q1 -5 5 -6q0 2 2 5t1 6zM80 594zM72 550zM65 535zM50 342v-7h8v7h-8zM54 404zM54 295zM54 247zM61 324zM58 488zM58 579q-12 1 -11 -11q4 -1 6 1t2.5 5.5t2.5 4.5zM54 207q3 -8 2 -9
t-5 -4.5t-4 -8.5q3 1 7 -1.5t7 -1.5q8 9 -3 23q-3 4 -4 2zM43 160zM54 32zM69 50v5.5v5.5q-4 0 -12 -1.5t-10 1.5q-1 -3 1.5 -7t1.5 -7q4 -1 8.5 2t10.5 1zM69 87zM80 69v7h-8v-7h8zM76 368zM101 397l-10.5 -7t-7.5 -19q8 2 15.5 11.5t2.5 14.5zM94 134zM94 174zM94 61
q0 5 4 11q-10 3 -10 -2.5t6 -8.5zM94 94q-5 3 -5 2l14 -10q3 0 -5 8h-2h-2zM87 309q14 -3 18 11q-15 -2 -18 -11zM98 240q3 -7 1 -14t-0.5 -12.5t10.5 -6.5q-2 4 -2 12.5t-1.5 14t-7.5 6.5zM109 171q5 9 4.5 13.5t-8.5 11.5q2 -6 1.5 -15t2.5 -10zM109 269zM112 426
q10 -2 11 7q1 7 -7 8q0 -1 -2.5 -5.5t-1.5 -9.5zM127 386v7h-7v-7h7zM112 477q14 -1 15 7q-1 0 -7 0.5t-7.5 -1t-0.5 -6.5zM138 346zM138 357zM138 364q5 1 10.5 5.5t7.5 5.5q-4 0 -4 4h-7q2 -6 -3.5 -7.5t-3.5 -7.5zM160 419zM189 287zM167 379v-8h7v8h-7zM174 287
q-11 2 -7 -11q2 -9 7 -10q3 -1 4 3q-3 0 -4 3.5t0 7.5t0 7zM182 236zM189 255zM196 244zM196 298zM196 335zM218 160zM320 488q-7 -14 0 -15q1 2 3 5q6 8 -3 10zM313 433q-7 5 -8 -4q1 -6 4 -7q0 2 2.5 5t1.5 6zM309 441q-1 5 1.5 13t2 12.5t-6.5 6.5q-5 -4 -5 -18t8 -14z
M295 404zM309 579zM302 557q1 10 -5.5 10t-9.5 -6q3 0 4.5 -1.5t3 -3.5t3.5 -2q3 3 4 3zM287 258zM287 597zM284 492zM280 349zM273 116zM262 123q9 0 7 11h-7v-11zM273 153zM273 167zM269 484zM273 258q-10 2 -11 -6t7 -8l2.5 5t1.5 9zM251 32zM255 58zM255 390zM262 448z
M266 18zM262 50q7 0 12.5 8.5t-1.5 13.5q-1 -4 -6 -10t-5 -12zM277 94q9 10 -8 15q1 -12 8 -15zM295 7q1 4 -0.5 7t-3 4t-4 3t-3.5 4q-6 -6 -2 -12.5t13 -5.5zM291 72zM302 368zM313 189zM317 196q0 1 2 5.5t1 9.5q-7 4 -8 -6q1 -8 5 -9zM324 415z" />
    <glyph glyph-name="o" unicode="o" horiz-adv-x="309" 
d="M271 369q-2 0 -11 6q-2 -4 2.5 -7.5t8.5 -3.5v-100q0 -1 -1 -2q1 0 1 -1v-46q-8 -3 -8 -4q2 -4 8 -2v-87q0 -41 -26 -74q-1 3 -4 2q-2 -3 -3 -3v-7q-35 -35 -84 -35q-26 0 -49 10q1 2 1 3q-4 2 -7 0q-12 7 -23 16l0.5 1l0.5 1h-3q-21 19 -31 46q2 2 1 5q-1 1 -3 1
q-5 17 -5 34v59q1 6 0 9v113q7 6 3 10h-2q0 -1 -1 -2v72q2 3 0 6v28q2 3 1 9h-1v70q0 8 1 18l1 1q6 42 39 70.5t77 28.5q5 0 11 -1v-1q3 0 5.5 -3.5t5.5 -3.5q1 3 -1 7q43 -8 70 -42q-3 3 -7.5 0.5t-3.5 -9.5q10 0 15 -4q1 5 0 9q22 -31 22 -70v-127zM245 371zM249 211
q9 -1 7 11h-7v-11zM249 193zM252 266v7h-7v-7h7zM241 430zM238 357zM230 331q0 -4 3 -8.5t1 -9.5q-2 0 -2 -1q1 -2 2 -3q13 6 -4 22zM234 375zM241 295q-11 4 -12 -9q0 -13 9 -14q2 0 3 1q0 4 -1.5 11.5t1.5 10.5zM238 244q-16 1 -15 -11q16 -2 15 11zM219 339zM227 317
q-12 1 -11 -11q4 -1 6 0.5t2.5 5t2.5 5.5zM216 287q-8 -3 -1 -12q5 -6 8 2q-3 0 -4 5t-3 5zM209 309q-9 5 -12 -4q-2 -9 4 -10q1 1 5.5 4.5t2.5 9.5zM194 94zM209 287h-8v-7h8v7zM201 211zM219 185q-3 4 -8 3.5t-6 -6.5q3 0 6.5 -1.5t5 -1t2.5 5.5zM212 262zM209 499z
M172 539zM125 594zM92 379q-2 -15 7 -21q4 -2 7 2q-3 1 -4.5 11t-9.5 8zM104 285l-0.5 -3t-0.5 -5q0 1 1 8zM110 156zM106 499zM106 411zM103 477q-1 -1 -7 -5.5t-4 -12.5q11 -5 12 11q0 6 -1 7zM99 568q-4 1 -6 -0.5t-2.5 -5t-2.5 -5.5q12 -1 11 11zM85 430v-15q9 -1 9 9
q1 7 -9 6zM85 393zM74 149q6 -3 10 4q1 5 -3 7q-1 -3 -4 -6t-3 -5zM74 174zM77 532zM66 441q-1 -18 8 -19q-1 2 -2 7t-2 7.5t-4 4.5zM70 411zM81 390q-3 13 -12 9t-5 -13l2 -4q4 8 5 9t10 -1zM74 375q-9 0 -11 -7h2h5t3 2t1 5zM63 503zM55 499zM59 444q-7 5 -8 -5q1 -5 4 -6
q0 2 2.5 5t1.5 6zM37 204zM37 477q0 -8 7 -11v2v5.5t-2 3t-5 0.5zM48 397q0 -10 -4 -15h11q0 12 -7 15zM52 156zM63 138zM59 291q0 2 1.5 4t2.5 3q-2 0 -4 2t-4 2q0 -2 -0.5 -3t-1.5 -2t-1 -2q2 0 4 -2t3 -2zM59 313q-1 -10 7.5 -10t10.5 6q-11 -1 -18 4zM66 109q9 -1 8 11
h-8v-11zM74 127h7v7h-7v-7zM85 109q2 1 2.5 5.5t-2.5 5.5q-6 1 -7 -5q2 -6 7 -6zM88 178q2 1 4.5 0t4.5 -2.5t3.5 -1.5t2.5 4q-4 1 -1.5 9.5t-6.5 8.5q3 -7 -2.5 -10t-4.5 -8zM103 39v8h-8v-8h8zM106 138v7h-7v-7h7zM114 105zM117 61zM128 25zM132 50zM139 72q-5 -7 0 -9
t7 7q0 1 1 2h-8zM150 36q-1 2 1.5 6.5t3 7t-4.5 4.5q-3 -3 -4 -9.5t4 -8.5zM161 10v8h-7v-8h7zM168 36v5.5v5.5q-10 -2 -11 -4q3 0 5 -4t6 -3zM157 76q0 4 7 4t4 7h-2q24 21 24 83v90v0v79q9 2 11 7q-7 1 -11 -2v105q0 12 -1 27q1 5 -2 11q-5 22 -14 36t-19 14
q-15 0 -26 -25.5t-11 -61.5v-1v0v-44q-4 -7 0 -8v-54v-2v-122v-2v-47q0 -47 16 -73q-1 0 -1 1q0 -6 2.5 -8.5t6.5 -1.5q6 -6 13 -6h1h1q-4 -6 1 -6zM190 36q7 -3 8 7q1 13 -4 15q1 -7 -1.5 -13t-2.5 -9zM201 178q-6 -5 -2 -11q6 -7 9 1q0 1 1 3q-3 0 -4.5 3.5t-3.5 3.5z
M205 109q-9 -5 1 -10q7 -4 10 2q-3 0 -5 1t-3.5 3.5t-2.5 3.5zM219 25q1 2 3 5t1 6q-7 4 -8 -5q1 -5 4 -6zM216 54q7 -1 9.5 3t1.5 12q-7 1 -8 -6.5t-3 -8.5zM227 189q2 5 7 -2q5 -5 7 -5q1 3 -1.5 7t-1.5 7q-9 4 -14 -3q-2 -3 3 -4zM238 149zM241 225q11 0 11 26v0
q-4 -1 -6 -5.5t-2.5 -11t-2.5 -9.5zM245 65zM249 116zM260 156q2 7 1.5 12.5t-9.5 5.5q-1 -17 8 -18zM263 178q3 1 3 5.5t-3 5.5q-5 2 -6 -5q1 -6 6 -6zM267 357zM271 284q-4 3 -11 1.5t-11 -5.5q5 -6 11.5 -5t10.5 9zM256 298zM263 331zM256 360zM267 448z" />
    <glyph glyph-name="p" unicode="p" horiz-adv-x="325" 
d="M288 473h-1q0 -2 -1.5 -5.5t-1 -5t3.5 -2.5v-75v1h-1q-6 -7 1 -7q-1 -15 -5 -30q-13 2 -14 -7q1 0 4.5 -1.5t5.5 -2.5q-19 -49 -67 -70q1 3 5 8q5 8 4 9q-1 0 -3 -1l-5 -5t-5 -6t0 -6q-20 -8 -42 -9q0 7 -3 8q-1 -5 -7 0q-2 -6 2 -8q-23 1 -44 10v-51l-2 1q0 -4 2 -7
v-206h-47q8 4 5 13q-11 1 -16 -13h-20v609h21q1 -3 3 0h52l2 -130v-44l-2 1q-1 -7 2 -7v-63q16 -37 48 -37q23 0 39 21t16 51v60q0 23 -10 42q5 2 7 6q-8 -1 -13 3q0 1 -2 2q-1 1 -1 2q-1 1 -3 4t-3.5 6t-2.5 4q-1 -1 -1 -6q-10 8 -22 9q-1 1 -3 1v-1l-1 1q-10 0 -20 -6v79
q11 2 20 2q17 0 34 -5q-1 -4 1 -3.5t3 2.5q14 -4 28 -13q0 -5 1 -6q1 -3 3 1q1 1 1 2q12 -8 22.5 -19.5t17.5 -24.5t11 -28.5t4 -31.5v-15zM159 543q3 10 -7 18q-3 3 -4 0q3 -1 3.5 -10.5t7.5 -7.5zM170 608q-11 3 -14 -8q0 -7 7 -10q-2 7 2.5 12t4.5 6zM167 568zM170 554z
M105 430zM105 550zM94 565zM65 550zM61 590zM79 521q-3 -2 -6.5 -1.5t-6.5 1.5t-5 2t-3 -0.5t-1 -5.5q2 -4 10.5 -1.5t11.5 5.5zM72 484q-6 7 -3 11.5t7.5 6.5t-0.5 8q-1 -2 -3 -4l-4 -4t-4 -4.5t-2.5 -4.5t-0.5 -3.5t2.5 -3t7.5 -2.5zM76 251h-8v-7h8v7zM61 233q0 8 -7 11
v-2v-5.5t2 -3t5 -0.5zM57 131q2 13 -7 14q1 -11 7 -14zM54 576zM50 521q4 3 3 8.5t-7 5.5q0 -2 0.5 -4t0.5 -4.5t0.5 -4t2.5 -1.5zM54 510zM43 455zM46 83q9 -2 14 7q4 5 -3 8q2 -6 -4.5 -8t-6.5 -7zM57 32zM65 43zM65 349q0 3 1.5 7t0.5 5.5t-6 2.5q-8 -8 4 -15zM72 32
q7 14 0 15q-7 -14 0 -15zM79 441zM86 116q0 2 3.5 5.5t4.5 5t-4 4.5q0 -2 -3 -5.5t-4 -5t3 -4.5zM94 222zM90 452zM90 492h7v7h-7v-7zM94 397zM92 405q-1 0 -2 -1l0.5 0.5t1.5 0.5zM97 255zM101 535zM90 539q0 3 6 5t5 6q-5 -2 -9.5 1t-8.5 3q1 -12 7 -15zM101 583zM105 174
zM112 353v7h-7v-7h7zM174 317zM181 298zM207 313zM218 317zM243 484zM243 437zM225 455zM229 554zM229 473zM232 404zM240 514q-6 0 -9 -5t-1.5 -11t6.5 -6q-1 6 1.5 12t2.5 10zM240 324zM240 408q6 -3 9 5q1 5 -2 6q-1 -5 -7 0v-11zM243 331q7 -1 9.5 3t1.5 12
q-8 -1 -10 -12zM254 401zM276 448zM258 441v-8h7v8h-7zM262 309zM273 335q-9 0 -11 -7h2h4.5t3 2t1.5 5zM269 535q0 -1 -0.5 -6.5t1 -7.5t6.5 0v14h-7zM283 426v5.5v5.5q-8 0 -11 -7q6 0 11 -4z" />
    <glyph glyph-name="q" unicode="q" horiz-adv-x="316" 
d="M253 59l56 -98h-68q0 5 -3 5q-6 2 -6 -5h-1l-3 6q1 0 3 2q2 4 -4 5q-1 -3 -1 -5l-26 45q-14 -6 -29 -8q3 2 -2 4q-6 -3 -4 -5h-11q-49 0 -83.5 34.5t-34.5 82.5v92q3 1 5 4q-3 0 -5 2v39q5 3 5.5 9t-4.5 9q0 -1 -1 -2v35v1v141h1q1 4 -1 6v38q0 49 34.5 83.5t83.5 34.5
q5 0 11 -1l-1.5 -3.5t-2.5 -4.5q7 -2 9 6v2q9 -2 16 -4q0 -4 1 -6q2 -3 4 3v2q41 -14 63 -51q-3 -3 -2 -12t4 -10q3 4 4 12q11 -24 11 -51v-59q-1 -2 0 -7v-308q0 -34 -18 -63zM41 349zM169 561q-5 -4 -3 -10t10 -5q1 14 -7 15zM110 590zM110 368zM110 277zM110 309z
M107 510q-8 4 -8.5 -7.5t4.5 -10.5q5 7 4 18zM96 561zM85 484zM92 342h-7v-7h7v7zM85 430q-1 -2 -5.5 -5t-6 -5t3.5 -5q6 1 10 13q1 3 0 3q0 1 -2 -1zM85 393zM81 404zM81 532zM74 492zM81 386q-3 7 -9 6.5t-6 -10.5q3 1 6 0.5t5.5 0.5t3.5 3zM63 339q14 -4 11 10
q-5 2 -6.5 0t-2.5 -5.5t-2 -4.5zM74 284zM66 422q-1 3 0 7.5t0.5 8t-3.5 3.5q0 -4 -3.5 -9t-2.5 -7t9 -3zM59 360zM55 506zM48 484zM48 390zM44 331zM37 160zM37 131zM44 167zM48 229q3 1 4 2h-5q-3 -2 -3 -6q6 -3 6.5 -2.5t-2.5 6.5zM59 98q3 -16 6 -18q3 -1 5 3
q-3 0 -3.5 3t0 6.5t-1 5.5t-6.5 0zM55 193q6 0 9 1t5 4.5t1 8.5q-12 -2 -15 -14zM59 225zM41 236q8 4 16 2.5t14.5 1.5t5.5 15q-6 1 -8 -5.5t-6 -5.5q2 7 -8 10q-6 2 -7 -3q9 -6 6 -5t-9 -1t-4 -9zM77 364q0 -1 1 -4l1.5 -4.5t1.5 -3.5t3 -2.5t4 -0.5q1 8 -11 15zM88 185z
M88 101zM99 131zM96 459zM110 324zM107 28zM121 18zM179 83zM190 98zM190 255q3 -2 4 3q1 2 -1 3l-3 1v40v147q0 36 -10.5 62t-25.5 26t-26 -26t-11 -62v-245v-2v-17q-10 -3 -11 -14q4 -1 6 1t3 5.5t2 5.5v-13v-5.5v-4.5q-1 -6 1 -7q2 -31 12 -51t24 -20q3 0 6 1q10 5 18 21
q12 26 12 66v85zM234 430zM212 207zM212 331zM220 488zM212 448zM227 346zM231 404zM231 313zM227 459zM223 525l3 -6q2 4 -3 13q-4 4 -7 3q-1 -3 0.5 -4.5t3.5 -3t3 -2.5zM212 583q-3 -7 5 -8q6 -1 7 4l-1 4h-11zM212 393q-5 2 -6 -5q2 -6 6 -6q3 1 3 5.5t-3 5.5zM209 302
q-8 5 -8 -5q1 -5 4 -6q0 2 2 5t2 6zM201 244zM201 101zM223 94q3 10 -6 16q-6 4 -8 -1q3 0 4.5 -2.5t1.5 -6t2 -5.5t6 -1zM231 269q0 1 2 5.5t1 9.5q-9 1 -9.5 -5.5t6.5 -9.5zM234 152zM256 178zM260 284zM260 229q-1 -8 7 -11q0 8 -7 11zM267 149zM263 247q8 -4 8 5
q-1 6 -4 6q-2 -3 -4 -3v-8zM263 335zM267 346zM256 411zM256 430zM252 466zM249 419zM249 521zM245 506zM245 346zM245 335zM238 189q11 1 14 7q-1 0 -6.5 0.5t-7.5 -1t0 -6.5zM260 320q-7 3 -11 -4q-3 -6 3 -7q1 3 4 6t4 5z" />
    <glyph glyph-name="r" unicode="r" horiz-adv-x="357" 
d="M319 5h-4q2 0 2 3.5t-4 5.5q-2 -8 0 -9h-72l-61 170q3 0 4.5 2t-3.5 5q-2 -2 -3 -4l-31 87q-4 0 -15 0.5t-18 2.5v-133q-5 -1 0 -6v-124h-78v217q8 -1 13 7q1 5 -3 7q0 -3 -4.5 -6.5t-5.5 -6.5v228q2 0 3 1q0 9 -3 15v39q1 -2 3 -3q7 8 0 8h-3v47q11 2 10 10q-6 1 -10 -4
v50h78v-97q-6 1 -11 -4.5t2 -9.5q0 4 9 3v-37l-2 1q-1 -7 2 -7v-47q-2 4 -4.5 5t-4.5 -2q8 -2 0 -11q7 -1 9 2v-39v0h-2q-2 -6 1 -7l3 3q3 -7 7 -12q-4 -7 4 -9q0 2 1 3q15 -15 34 -15q18 0 32 13.5t20 34.5q10 8 4 22h-1v1v1v34q3 0 4.5 4t0 8t-3.5 3l-1 -1v12q0 7 -1 15
q3 2 8 1t5 2q-3 1 -5.5 7t-9.5 4v-6q-8 30 -29 43v0q-11 7 -23 7q-1 0 -6 -1q7 2 0 5q-8 -5 -2 -6q-5 -1 -10 -3q-1 3 -3 4v74q11 2 21 2q26 0 49 -10t40 -27t27 -40t10 -49v-104q0 -35 -18 -65t-49 -46l36 -98q0 -5 2 -6zM145 576zM152 612zM163 594zM159 565zM170 612z
M170 546zM174 557q12 -1 11 11q-4 1 -6 -0.5t-3 -5t-2 -5.5zM185 546zM46 39zM101 382zM101 477zM97 528v-7h8v7h-8zM86 525zM75 481q10 -1 8 11h-8v-11zM54 608v2v-0.5v-1.5zM50 572v-11q9 -1 7 11h-7zM50 528zM50 510zM43 324zM50 266zM54 204zM50 466q-5 2 -6 2l9 -7
q4 -2 5 -2q2 1 -4 7h-2.5h-1.5zM64 185zM68 437zM61 576q1 0 6.5 -0.5t7.5 1t0 6.5q-13 2 -14 -7zM72 25zM75 368zM72 401q-4 -8 7.5 -8.5t10.5 4.5q-5 -2 -9.5 1t-8.5 3zM90 178zM90 273zM97 470zM101 320zM101 335zM112 87zM116 335v-7h7v7h-7zM152 306zM152 291zM174 222
zM185 225zM225 339l2.5 5t1.5 9q-8 4 -8 -6q0 -8 4 -8zM280 349zM280 452zM287 477q3 8 -4 13q-5 5 -7 -2q3 0 5 -5.5t6 -5.5zM272 433zM265 448zM265 375q2 -11 -4 -18q8 -4 8.5 7.5t-4.5 10.5zM251 324q2 -6 8 -2q4 6 -1 9q0 -2 -3.5 -3.5t-3.5 -3.5zM254 521zM258 353
q3 7 -5 10q-4 1 -6 -3q3 0 6 -3t5 -4zM247 561zM243 463zM232 448v-7h8v7h-8zM196 568zM199 554q0 -8 11 -15q0 1 -0.5 4.5t-1 4.5l-1.5 3t-3 2.5t-5 0.5zM207 568zM218 510q1 13 -8 15q-1 -14 8 -15zM203 579q7 -10 16 0q6 9 -1 15q0 -5 -7.5 -7.5t-7.5 -7.5zM225 525z
M229 546zM225 419q0 -5 -4 -4v-7q7 -5 8 5q-1 5 -4 6zM210 349q1 -10 4 -11h4q0 9 -8 11zM218 306q-4 -4 -3.5 -9t6.5 -6v6t-0.5 5.5t-2.5 3.5zM221 247zM239 145h1h-1zM269 101zM261 131q1 12 -10 11q-1 -12 10 -11zM243 98zM258 39q0 -3 5 -3t6 3q-4 1 -6 3l-4.5 4.5
t-4.5 3.5q1 -4 -0.5 -8t-4 -6t-1.5 -4t6 -4q2 11 4 11zM261 76q1 5 8 7.5t7 6.5q-11 -1 -16 -8q-3 -4 1 -6zM291 72z" />
    <glyph glyph-name="s" unicode="s" horiz-adv-x="318" 
d="M256 318q25 -37 25 -83v-98q0 -63 -27.5 -97.5t-101.5 -34.5q-72 0 -101 35.5t-29 96.5v39q3 -2 5 -2l2 4q1 4 -2 7q11 2 11 4l-4 1h72v-26q0 -27 14 -45.5t34 -18.5t34 18.5t14 45.5v47q0 31 -19 50q-13 14 -29 14q-5 0 -14 -2t-22 -2q-63 4 -80 30q-25 36 -25 83v97
q0 63 27.5 98t101.5 35q43 0 70 -11q-1 -3 1 -6l4 4q24 -11 37 -33h-1v-7h5q9 -20 12 -58q-1 0 -2.5 1.5t-3.5 1.5q0 -3 -4 -6t-3 -8q8 -1 13 8v-3l1 -4v-12v-44h-84v7q2 1 5 2q2 2 7 -2q1 4 -0.5 6t-5 2.5t-6.5 -0.5v6q0 17 -6 31q3 -1 7 -1q1 12 -11 11v-1v-1
q-10 17 -26 23q8 1 7 8q-15 0 -17 -7h-1q-8 0 -16 -3q-1 2 -2 3q-1 -3 -3 -6q-27 -17 -27 -57v-37q-1 0 -3 1q-6 -4 -3 -5q4 -1 6 2v-9q0 -33 20 -51q1 -1 4 -3q-9 -8 -1 -10q0 7 14 0v3q6 -2 11 -2q4 0 10 0.5t10.5 1t10.5 1t11 -0.5l28.5 -4.5t24 -8.5t21.5 -18zM228 463
q3 -1 3.5 2.5t-0.5 8t0 7.5q-9 5 -11 -6q-3 -12 5 -13q1 0 3 1zM246 452zM239 484zM228 550zM228 572zM217 583zM217 525zM202 470zM199 543v11q-12 -1 -15 -8l5 -2t10 -1zM180 598q-1 -7 0 -10t7 -10t8 -10q2 26 -15 30zM151 550zM111 554zM89 510q-4 -4 -2 -14.5t9 -11.5
q2 22 -7 26zM42 499zM27 510v7h-7v-7h7zM34 452v-8q8 -4 8 5q-1 6 -4 6q-2 -3 -4 -3zM42 401zM38 346q7 -3 10 4q3 6 -3 7q0 -3 -3 -6t-4 -5zM56 313v-2q1 -4 1 -5.5t1.5 -3t5.5 -0.5q0 8 -8 11zM53 539q13 -9 11 4q-11 -2 -11 -4zM67 576zM78 517h-7v-7h7v7zM71 466
q6 -3 9 8q2 9 0 9q-1 1 -2 -2q-1 -5 -7 -4v-11zM104 313v7h-8v-7h8zM115 298q11 1 14 8l-5 2t-9 1v-11zM148 339zM53 116zM89 87zM82 178zM60 109zM82 149q-14 -1 -5 -10q6 -6 8 -4q1 1 -3 7q-3 -7 -3 -2q-1 8 3 9zM86 43zM100 54q5 9 -5 11q-8 3 -9 -4q4 1 6 -0.5t3.5 -4
t4.5 -2.5zM115 120zM115 72zM151 43zM159 94zM199 36zM202 145zM224 105zM224 236zM228 284q1 4 -1 6t-5.5 2.5t-4.5 2.5q-1 -12 11 -11zM242 105v7h-7v-7h7zM239 247zM257 269zM261 127zM261 167z" />
    <glyph glyph-name="t" unicode="t" horiz-adv-x="354" 
d="M317 578q-6 -1 -10.5 -5t-9 -10.5t-7.5 -8.5q5 -4 9.5 -2t6.5 5.5t5 9.5t6 8v-33h-100v-41v-1v-495h-78v83q2 1 2.5 3t-2.5 3v448h-103v72h69l-0.5 -1l-0.5 -1h11v2h55q-1 -3 0 -4q1 -2 3 0t1 4h83h2h58v-36zM97 543q0 2 0.5 4t1.5 3t1.5 3t0.5 4q-8 5 -8 -6q0 -7 4 -8z
M119 579zM188 525q10 -1 8 10h-8v-10zM192 576zM199 481q-8 3 -13 -4q-4 -5 2 -7q0 4 5.5 6t5.5 5zM192 328zM174 313zM159 433zM152 463zM155 342zM159 324h-7q-5 -7 -1 -9q6 -2 8 7v2zM155 280q0 -1 -1.5 -3.5t-1 -4.5t2.5 -3q1 2 2.5 4.5t1 4t-3.5 2.5zM159 266zM155 506
zM148 550q-4 -8 6 -10h1t-1 1q0 1 -2 2q0 9 -2 9zM145 364v-7h7v7h-7zM145 25q4 0 7 -2t6.5 -4t7.5 -1q0 9 -12 12q-8 3 -9 -5zM166 543q7 -7 8 3q-1 7 -4 8l-0.5 -3t-1.5 -6t-2 -2zM174 200zM185 211zM181 101zM185 433zM192 262zM196 80v7h-8v-7h8zM196 156zM199 178z
M203 211zM210 236zM276 590z" />
    <glyph glyph-name="u" unicode="u" 
d="M307 609v-47v-86h-1v1q0 -3 -1.5 -6.5t-1 -5t3.5 -2.5v-128q-5 0 -5 -4q1 0 5 -1v-9l-0.5 -0.5l-0.5 -0.5h1v-37h-1q-7 -4 -4 -5h5v-84q-2 1 -5 2v-6.5t1 -7t4 -1.5v-46q0 -17 -6 -35q-6 3 -7 2q0 -3 5 -9q-16 -43 -56 -69h-3v-2q-34 -21 -68 -21q-51 0 -93 40t-42 94
v427v47h79v-53q-5 -1 -7 -6h7v-144q-3 1 -6 -2.5t-4.5 -8t-0.5 -9.5t4 -8q2 4 2.5 11.5t4.5 11.5v-195v-1v-3q0 -51 17.5 -86.5t38 -35.5t37 35.5t16.5 86.5v27q2 -1 3.5 0.5t1 5t-3.5 8.5h-1v175v2v189h82zM91 327q9 -5 11 5q2 9 -4 10l-2 -4t-2 -3.5t-2 -3.5t-1 -4z
M98 396q4 13 -3 21q-4 4 -8 -2q8 -2 6 -10t5 -9zM83 513zM80 407zM80 367zM69 535zM72 440zM69 305zM69 283zM58 400q0 -3 -4.5 -6t-2.5 -9q7 -2 9 9q0 5 -2 6zM43 440q7 0 2.5 -7t1.5 -7q0 1 4.5 6t2.5 12h-7q-3 -2 -4 -4zM40 404v-8h7v8h-7zM43 130zM40 243zM47 294z
M47 192q11 1 9.5 10t-9.5 12v-22zM51 94q3 3 2.5 8.5t-6.5 5.5v-6t0.5 -5.5t3.5 -2.5zM47 141q6 0 8 6t10 1q1 8 -11 15q0 -1 -4 -8t-3 -14zM61 189zM58 240zM51 243q7 1 8.5 15.5t5.5 17.5q-3 -1 -5.5 -3.5t-4 -6t-2 -7t-1.5 -8.5t-1 -8zM69 119zM72 203zM76 181zM72 316
h4.5h4.5t4 1t2 3q-4 -1 -5.5 1.5t-1.5 6t-1.5 6t-6.5 0.5q1 -3 2.5 -6.5t1 -6t-3.5 -5.5zM83 283q-1 -16 11 -14q2 16 -11 14zM83 39q6 0 9.5 5t5.5 6q-16 2 -15 -11zM94 61zM98 229q-6 -5 -2 -12q6 -7 9 2v2q-2 0 -3.5 3.5t-3.5 4.5zM91 316q4 -8 14 0q5 7 0 11
q0 -4 -7 -5.5t-7 -5.5zM105 375zM124 116zM153 39q1 0 6.5 -0.5t7.5 1t0 6.5q-13 2 -14 -7zM218 134zM193 79zM218 24zM218 79q7 -7 8 4q-1 6 -4 7l-0.5 -3t-1.5 -6t-2 -2zM266 302zM244 356zM244 280q-5 1 -4 7q5 -1 6 4v3q-1 0 -2 -3q-8 -4 -11 -8q4 0 0 -7h7q3 2 4 4z
M233 469l-1 1q2 -2 4 -3q-1 0 -3 2zM233 94q8 2 11.5 -5.5t10.5 -5.5q0 3 -0.5 6t-1.5 5t-3.5 3.5t-3.5 2.5t-5 2.5t-4 2.5q0 -6 -4 -11zM255 127zM266 123q0 -2 -3.5 -6.5t-4 -7t3.5 -4.5q1 2 4 5l5 5t1 4t-6 4zM266 75q-8 -5 -1 -11q9 -6 12 4q-8 -1 -9 0.5t0 4t-2 2.5z
M284 367zM288 396zM291 488zM302 305zM299 385zM302 422zM302 520z" />
    <glyph glyph-name="v" unicode="v" horiz-adv-x="372" 
d="M335 607q-1 1 -3 1q-1 -7 2 -7l-106 -601h-85v2q0 3 -1 5l-48 276h8q-1 11 -3 11q0 -1 -1 -2t-3 -2l-2 -1l-57 320h36q-1 -2 -1.5 -3.5l-0.5 -1.5q3 -3 5 -1t2 6h37l72 -407l9 55q6 3 6 4q-2 1 -5 2l49 276q2 0 3 3q1 2 -2 3l12 64h77v-2zM146 378zM110 539zM99 495
q-2 -4 -0.5 -7t2.5 -3.5t4.5 -2t4.5 -2.5q1 16 -11 15zM91 411q1 -1 0.5 -7t1 -7.5t6.5 -0.5q-1 12 -8 15zM77 557q0 3 -0.5 4.5t-2.5 3t-3 1.5t-4.5 1t-4.5 1q0 -3 0.5 -5t2.5 -3l3 -1.5t4.5 -1t4.5 -0.5zM59 557zM70 466v7h-8v-7h8zM73 466zM73 429v-2q1 -9 5 -9h2
q1 9 -7 11zM73 480v-2q0 -3 0.5 -5t2 -3t4.5 -1q1 9 -7 11zM73 575q7 -3 11 5q2 5 -4 6q0 -2 -4 -4t-3 -7zM83 446l0.5 -1l0.5 -1q2 -3 3 -5zM88 338zM95 375zM99 440q6 -2 7.5 6t3.5 9q-5 0 -7.5 -1.5t-3.5 -5t0 -8.5zM106 258zM117 170zM117 509q-6 3 -6 2l10 -7
q3 -2 4 -1t-4 6q-1 1 -2.5 0.5zM132 469zM142 294h-7v-7h7v7zM150 236q-14 2 -15 -7q14 -2 15 7zM146 159zM142 46q-1 -5 6 -6h5q0 1 -3 3q-2 0 -3 1t-2 3q0 2 -0.5 2t-2.5 -3zM153 316zM161 65zM175 24q0 -8 8 -11v2q-1 4 -1 5.5t-1.5 3t-5.5 0.5zM190 152q1 3 3.5 7.5
t3.5 7.5q-7 2 -10 -8q-2 -6 3 -7zM215 294zM208 287zM201 10zM204 189zM208 43q4 -1 5.5 0t2 3t1.5 4.5t2 3.5q-4 1 -6 -1t-3 -5.5t-2 -4.5zM215 196zM215 145zM215 243zM248 455zM245 364zM245 327zM245 305zM226 327zM241 156q6 -4 9.5 0.5t2.5 10.5t-5 7q0 -2 -4.5 -7
t-2.5 -11zM277 469v-7h8v7h-8zM263 502zM259 400zM266 444q1 2 3 3t4 2.5t1 5.5q-8 4 -11 -4q-1 -5 3 -7zM274 334zM281 345zM281 480zM292 433zM321 531v8h-7v-8h7z" />
    <glyph glyph-name="w" unicode="w" horiz-adv-x="547" 
d="M451 232h-3q0 -6 2 -6l-35 -226h-39q4 10 3 13q-4 3 -6 0.5t-2 -6.5t2 -7h-34l-66 420l-8 -51q-1 1 -3 2q-4 -2 -2.5 -4t5.5 -1l-58 -366h-75l-26 163q8 2 7 11q-5 0 -8 -2l-7 45l-41 256h1q1 5 -2 8l-20 128h69l19 -116q-4 2 -8 2v-7q6 -5 9 -2l45 -284l2 13q2 -2 3 2
q1 3 -2 4l61 388h79l64 -407l64 407h69zM481 608zM474 590zM467 520v-3v-12t3.5 -7.5t10.5 -2.5q-5 5 -7.5 13.5t-6.5 11.5zM459 550zM131 411zM127 291zM113 451zM65 477q11 -2 14 9q2 7 -6 9q-1 -3 -5 -6.5t-5 -5t2 -6.5zM80 433zM84 389zM87 418zM95 313l-0.5 -0.5
t-1.5 -0.5q1 0 2 1v0zM120 269q1 -4 7 -8q2 6 -0.5 9.5t-5 4t-8.5 1.5q1 -7 -8.5 -10t-9.5 -8q7 -2 11 0t7.5 6t6.5 5zM127 243zM124 203zM127 57q0 -8 8 -11q0 9 -8 11zM138 145v7h-7v-7h7zM135 389zM146 302zM153 221v-7h7v7h-7zM164 137q0 -2 -3.5 -7t-4.5 -7.5t4 -6.5
l2 2t3 3.5t2 4.5t1 4.5t-1 3.5t-3 3zM168 68zM219 491zM182 276zM193 90zM197 225q-1 4 4.5 6t6.5 5q-10 -1 -15 4v-6t0.5 -6t3.5 -3zM215 433q-4 -7 4 -8q7 -1 8 4l-1 4h-11zM226 192q2 1 2.5 5.5t-2.5 5.5q-6 2 -6 -5q1 -6 6 -6zM230 371v-5.5v-5.5q9 -1 7 11h-7zM233 320
v-7h7v7h-7zM240 305zM248 509zM244 593q1 4 6 7.5t5 7.5q-9 2 -14 -6q-1 -6 3 -9zM266 462zM266 480zM284 528v-8q7 -4 8 5q-1 6 -4 6q-2 -3 -4 -3zM288 345zM284 488q0 -1 1 -4.5t1 -4.5t1.5 -3t3 -2.5t4.5 -0.5q1 8 -11 15zM306 582zM332 411zM313 499zM321 283zM321 316
q4 -8 12 2q6 9 -1 13q-1 -4 -2.5 -6t-4.5 -4.5t-4 -4.5zM328 225v-7h7v7h-7zM332 127zM335 35zM346 54zM434 495zM419 418v-7h7v7h-7zM405 364zM412 261q4 10 -5 16q-4 2 -6 -1q3 0 3.5 -3t0 -6t1 -5.5t6.5 -0.5zM375 137zM379 214zM390 232q-4 -8 7 -11q6 -1 8 4q-2 0 -5 5
t-10 2zM408 83zM397 174q10 3 11.5 -8t7.5 -10q-4 21 -4 29q-1 0 -4.5 -1t-4.5 -1t-3 -1.5t-2.5 -3t-0.5 -4.5zM416 291zM426 338zM437 302q0 -1 1 -3v-4.5t2 -3t5 -0.5q0 8 -8 11zM426 440q0 -5 5.5 -7t11.5 0t5 7q-6 -6 -22 0z" />
    <glyph glyph-name="x" unicode="x" horiz-adv-x="306" 
d="M239 35q12 -1 18 10l12 -45h-37q0 1 -1 3q-9 -2 -10 -3h-12l-41 157q2 1 2 3t-4 3l-13 52l-5 -19q-1 2 -4 3q-7 -2 -1 -4q3 -1 4 -1l-21 -82v-0.5v-0.5l-18 -68q-1 0 -3 1.5t-4 2t-5 -0.5q0 -3 -1.5 -6.5t-0.5 -5t6 -2.5q-1 6 1 6.5t5 -2.5l-9 -36h-21q-2 2 -5 3v-3h-35
l56 216q1 -2 3 -1q3 4 -1 6l1 5q3 2 1 5l4 15q14 10 5 18l10 41l-79 305h61l22 -84q-1 2 -4 2q-1 -4 -1 -6q2 -3 5 3l34 -130l10 40q4 2 1 4l45 171h60l-37 -143q0 -1 -1 -1h1l-6 -24q-8 1 -6 -9h3l-32 -124q-10 0 -11 -4q5 -4 10 -2l46 -175l-1 -1q0 -1 1 -1l8 -30
q-7 -7 -9 -17q6 1 12 6l9 -33q-2 -7 -11.5 -6.5l-9.5 0.5q4 0 4 -11zM261 579zM250 550zM242 564zM213 499q9 -1 7 10h-7v-10zM210 561v-8h7v8h-7zM202 502q2 -9 0 -18q8 -4 9 7t-6 12q-1 0 -3 -1zM210 433q0 8 -8 11q0 -8 8 -11zM64 535q0 1 1.5 3.5t1.5 4.5t-3 3
q-1 -1 -2 -4t-1 -4.5t3 -2.5zM67 524zM86 601zM82 458q9 -2 13 4t-2 11q-6 1 -7.5 -2t-2.5 -9q-1 -2 -1 -4zM96 411zM64 17q-1 -8 7 -11q0 8 -7 11zM67 90zM82 65zM89 192q-1 -17 15 -18q1 14 -15 18zM100 163zM100 83zM111 61zM140 378v-7h8v7h-8zM118 283v-11q10 0 8 11
h-8zM122 254zM126 356zM133 247q0 1 2 4q2 5 -2 7q0 -2 -1.5 -4.5t-1.5 -4t3 -2.5zM140 254q8 -2 11 8q1 6 -3 7q1 -6 -4 -7q-2 -1 -4 3q0 1 1 2.5t2 2.5l3 3q4 3 4.5 4.5t-6.5 2.5q-1 -5 -3.5 -9.5t-3 -6.5t2.5 -10zM151 320zM158 280zM184 254zM169 189zM169 283zM169 378
zM180 145q0 2 2.5 4.5t1.5 6.5q-7 4 -8 -5q1 -6 4 -6zM184 199zM206 159q2 0 4 -1.5t3 -1.5q0 2 2 4t2 3q-2 0 -3 0.5t-2 1.5l-2 2q0 -2 -2 -4t-2 -4zM220 141v7h-7v-7h7z" />
    <glyph glyph-name="y" unicode="y" horiz-adv-x="309" 
d="M268 593h-3v-11h1l-8 -36q-6 -2 -8 -7h6l-22 -103q-3 3 -6 -3q2 0 5 -2l-32 -145q-2 3 -5 5q0 -11 4 -11l-1 -6q-1 1 -3 2q-7 -6 -2 -7l4 1l-3 -12q-8 1 -11 -3q-1 -2 2 -4q1 0 2 -1q1 4 6 2l-6 -28q-7 -6 -7 -14q3 1 6 3v-40q-2 -1 -2 -3h1v-46q-3 0 -4 -2.5t3 -5.5l1 1
l-1 -102q-5 -3 -4 -9q2 0 4 1v-6h-62v28q3 1 3 6h-3l-1 85q3 4 0 6l-1 43q5 0 9 5h-9v47l-61 280q10 -6 8 5l-9 -1l-8 36q3 4 6 5q-4 0 -8 2l-13 61h61l49 -225q-3 -2 -3.5 -6.5t2.5 -6.5h4l5 -21l33 152v2l6 23q0 -1 1.5 -5t3.5 -6t5 -3q0 5 4 11q-6 -3 -8 -0.5t-3.5 5
t-2.5 1.5l17 79h29q-1 -5 4 -8q1 5 1 8h28zM50 579v6.5t-1.5 7.5t-6.5 0q-1 -13 8 -14zM236 586zM207 491zM199 469zM177 389zM166 214zM156 338zM148 323q-1 -4 -7 0q0 -2 -2 -5t-4 -5t-3 -4.5t0 -4t5 -2.5q0 4 5 8t8 6t-2 7zM148 221v6.5t0.5 7t-0.5 6t-3 2.5
q0 -5 -0.5 -8.5t-1.5 -6t0 -4.5t5 -3zM148 250zM130 345q7 -4 8 6q0 8 -4 9q0 -4 -2 -8t-2 -7zM97 553v-7h7v7h-7zM79 509q0 4 2 8t2 7q-8 4 -8 -6q0 -8 4 -9zM97 360zM97 477zM104 393q2 4 6.5 2t8.5 -2v6t-0.5 5.5t-3.5 2.5q1 -4 -8 -9q-7 -3 -3 -5zM112 353q16 1 14 18
q-6 1 -8 -2t-3 -8.5t-3 -7.5zM119 455q-1 -12 11 -11q1 4 -1 6t-5.5 2.5t-4.5 2.5zM130 43q12 -1 11 11q-7 1 -10 -1.5t-1 -9.5zM145 10q0 1 1 3q8 14 -1 19q-1 -1 -2 -3q-8 -14 2 -19zM145 196q4 -1 8 -7t6 -8q3 3 3 5.5t-1.5 6t-1.5 6.5h-4.5h-4.5t-3.5 -0.5t-1.5 -2.5z
M156 97v-7h7v7h-7zM163 54zM163 24q0 -8 7 -11v3q0 3 -0.5 4.5t-2 3t-4.5 0.5zM174 39zM170 192q9 -1 7 11h-7v-11zM177 251zM174 291q10 -5 14 6t-3 16q-1 -3 -7 -8.5t-4 -13.5zM196 495zM192 447q7 -4 8 5q-1 6 -4 6q-3 -3 -4 -3v-8zM199 309zM203 389zM207 404zM207 458z
M218 469v8h-8v-8h8zM214 517zM229 444zM221 473q7 -3 11 5q3 5 -3 6q-1 -2 -5 -4.5t-3 -6.5zM236 524zM225 564q4 0 7.5 -8t10.5 -6v6t-0.5 5.5t-3.5 2.5q-2 -5 -6 1q-2 3 -3 4t-4 2.5t-5 -0.5q-1 -2 -4 -5.5t-5 -7t-2 -8.5q5 -2 6.5 0.5t1.5 6t1.5 6t5.5 1.5z" />
    <glyph glyph-name="z" unicode="z" horiz-adv-x="365" 
d="M288 499h-7v-8h4l-17 -48q-1 -1 -2 -3l-85 -235h40v-49h-58l-6 -17q-1 2 -4 2q0 -6 2 -6l-13 -36l-4 2q1 -7 2 -9l-11 -31h166v-61h-183q-1 4 -3 6q11 -1 15.5 2t2.5 13q-2 -1 -9.5 4.5t-13 6.5t-13.5 -8q4 0 4 -3q0 -5 3 -4q5 16 10 -5q1 -3 1 -6q-4 7 -11 7q1 -4 5 -13
h-38q12 6 15 32q-7 -3 -10.5 -16t-6.5 -16h-26l-1 1l34 93h3v7h-1l20 55h-47v11h2v7h-2v31h35q-1 -7 1 -8t3 3q1 3 -1 5h27l34 93q2 2 2 5l31 86q5 -5 9 4q-3 -1 -7 2l26 72q2 -1 3 -1q0 2 -1 5l25 69q2 2 1 4l2 4h-68q-1 4 -3 6q-2 1 -3 -2q0 -1 1 -4h-11q-1 2 -1.5 2
t-1.5 -2h-16q-1 4 -5 5v-5h-47v61h186q1 -1 4 -1q-1 0 -1 1h59l-22 -61zM84 608q-3 -13 7 -17q6 -2 7 6q-2 1 -5 7t-9 4zM109 564v7h-7v-7h7zM131 571zM80 167q9 7 -2 15q-10 7 -13 -4q2 -1 4.5 -1h4.5t4 -0.5t2 -2.5q-3 0 -3 -3.5t3 -3.5zM65 46zM69 50v7h-7v-7h7zM87 181
h8v8h-8v-8zM98 152zM277 54zM219 35zM204 61q-3 -6 6 -9q4 -1 5 2q-2 0 -4.5 4t-6.5 3zM182 50q-10 -4 -14.5 -19t-14.5 -18q5 1 9.5 0t6.5 -2t5.5 -0.5t7.5 2.5q-2 5 -3 9t-1 6t1.5 9t2.5 13zM142 17q-7 2 -8 -6t-3 -8q8 -3 10 1t1 13zM204 203q-2 -6 0.5 -9t5 -5.5
t1.5 -7.5q-11 -1 -14 -7q2 -1 6 -7.5t8 -7.5q1 6 2 12.5t2 10t0.5 7.5t-3 7.5t-8.5 6.5zM142 250v5v4.5t-1 4t-3 1.5q0 -2 0.5 -4.5t0.5 -4.5t0.5 -3.5t2.5 -2.5zM131 181v-7h7v7h-7zM116 134q5 0 8.5 2t5 4t4.5 6.5t4 5.5q-4 0 -7.5 -2.5t-5 -4.5l-4.5 -6t-5 -5zM138 119
q9 -6 11 4q-2 0 -3.5 1l-3 2t-4.5 1v-8zM153 232zM157 167q9 -1 7 11h-7v-11zM178 254zM178 283q1 2 2 5q3 3 2 6q-5 -3 -8 5q-1 4 -3 -1q2 -1 3 -7.5t4 -7.5zM189 334q10 0 8 11h-8v-11zM204 283l-3 -1h4q3 2 3 5q-6 3 -6.5 2.5t2.5 -6.5zM204 302zM197 382q10 0 14 -4
q1 10 -8 13q-5 2 -6 -5v-4zM222 375zM244 546zM164 597q-5 2 -6 2l9 -7q4 -2 5 -2q2 1 -4 7h-2.5h-1.5zM178 568zM208 571v6v5q-7 3 -12.5 -0.5t-6 -8.5t3.5 -9q5 18 15 7zM233 371zM233 437zM226 593q6 -8 11 -1q5 8 -4 12q0 -2 -4 -4t-3 -7zM240 582zM244 396zM248 488z
M262 451zM302 604zM284 608zM281 579q-7 4 -8 -5q1 -5 4 -6q0 2 2 5t2 6zM270 524q13 -9 11 4q-11 -2 -11 -4z" />
    <glyph glyph-name="braceleft" unicode="{" horiz-adv-x="270" 
d="M215 -8h1q8 -2 15 -2q-30 0 -51 2t-42.5 8.5t-34.5 18.5t-21 32t-8 48q0 15 3 36q2 2 0 5q2 14 6 36q9 52 9 77v5l2 1q-1 0 -2 1q2 34 2 39q2 -2 6 0t1 4q-1 1 -3 2l-4 -4q-1 7 -3 13q8 3 -1 7l-0.5 -0.5l-0.5 -0.5q-12 25 -53 25h7q1 -1 3.5 -0.5t4.5 1.5q14 2 24 8
q4 -3 5 -3.5t-3 4.5v0q9 7 13 19t4 22t-1 25.5t-1 20.5q0 27 -9 80.5t-9 78.5q0 65 44 84t116 -12l-19 -1q-24 -3 -40 -14q1 12 7 20q-7 1 -10 0t-7 -3t-8 -1q1 -6 7 -12.5t7 -7.5q-10 -9 -16 -23q-1 1 -2 1q-1 -6 0 -8q-4 -14 -4 -33q0 -27 7 -67q8 -42 8 -72q0 -20 -1 -36
l-2 2q-6 2 -7.5 -1.5t-1 -10.5t0.5 -9q4 -1 7 0q-10 -38 -52 -48v-2q34 -7 45.5 -30.5t10.5 -72.5q0 -22 -4 -47q-1 5 -7 7v-2q0 -11 7 -10q-2 -12 -4 -20q-7 -42 -7 -69q0 -40 16 -72.5t50 -38.5zM157 242zM86 95zM90 145zM90 212zM98 221zM94 246zM111 422zM119 443z
M124 485zM124 372zM136 581zM128 669q0 -1 -0.5 -7.5t1 -8.5t7.5 0q2 15 -8 16zM115 535q8 -11 13 2q5 15 -4 19q-3 -3 -2.5 -11t-6.5 -10zM124 657q-9 2 -10 -6q0 -10 6 -14q2 -2 4 3q-3 0 -4 1t0.5 2.5t2.5 3.5t1.5 4.5t-0.5 5.5zM90 338q7 2 9 6.5t2 10.5t2 8
q-11 1 -13 -25zM98 489zM104 51l3 -6q-2 2 -3 6zM111 556l-0.5 -3.5t-2 -6.5t-1.5 -2q7 -8 8 3q0 8 -4 9zM128 309zM124 288zM115 271zM119 229v-2q1 -4 1 -6t2 -3.5t6 -0.5q0 9 -9 12zM132 212zM140 166z" />
    <glyph glyph-name="verticalbar" unicode="|" horiz-adv-x="129" 
d="M92 508q-2 -1 -3 -2l-4 -4l7 6v-144q-7 0 -8 -5q-1 -2 2 -4h3q0 3 3 4v-320q-1 1 -2 1.5l-1 0.5q1 -5 3 -9v-33h-56v582q6 -2 7 5q0 7 -5 8q0 -4 -2 -4v101h56v-183zM38 179zM38 384zM84 28zM76 497zM63 573v-8h9v8h-9zM68 376zM63 414zM72 435zM55 460v-9h8v9h-8z
M51 447zM47 602zM47 497zM59 405zM55 187zM59 171zM63 204zM72 238z" />
    <glyph glyph-name="braceright" unicode="}" horiz-adv-x="271" 
d="M189 162q0 -2 1 -3q5 -37 5 -60q0 -33 -11 -56q-3 -5 -4 -8q-17 -27 -52 -36t-89 -9q7 0 15 2h1q33 6 49.5 38.5t16.5 72.5v5v3q4 0 6 5.5t0.5 11t-5.5 5.5q2 -6 -2 -12q-1 20 -7 51q-7 39 -7 72q-1 49 10 72.5t46 30.5v2q-25 6 -37 19t-16 36q3 3 3 6.5t-5 3.5
q-1 12 -1 29h4v8h-4v1v3.5v3.5q1 1 0 2q1 28 7 63q8 40 8 67q0 73 -66 81l-19 1q20 9 40 14q2 -1 5 -1v0.5v1.5q39 8 67 -2v0q47 -18 47 -85q0 -26 -8 -79q-5 -28 -7 -44q-1 2 -3 3q-8 -8 -1 -8q2 0 4 1q-2 -18 -2 -32q0 -5 -1 -18t-1.5 -22t2 -20.5t8 -19t17.5 -12.5t31 -5
q-30 0 -44 -12t-14 -28.5t1 -33.5h-5t-5.5 -1t-2.5 -3q12 -8 13 -1q1 -8 1 -13q0 -26 9 -77q1 -9 2 -14zM190 594zM110 644zM110 439zM139 468zM135 644zM152 669zM102 3zM177 640zM173 518zM139 334zM135 284q-8 5 -9 -5q0 -7 5 -8q0 2 2.5 5.5t1.5 7.5zM110 263
q-9 -20 4 -26q10 -5 15 10q1 4 2 7q-4 -2 -8.5 -0.5t-5.5 2t-3.5 3.5t-3.5 4zM135 171zM131 3q9 -5 9 9q1 12 -5 12q2 -13 -4 -21zM127 217l9 1.5t6 4.5t1 10q-5 0 -12 5q2 -13 -4 -21zM139 267zM156 108v8h-8v-8h8zM156 212zM152 271q8 -5 9 5q-1 7 -5 8q0 -5 -4 -4v-9z
M160 334q5 -6 3 -19t1 -15q3 4 5 9t3 10.5t-2 10t-10 4.5zM181 145z" />
    <glyph glyph-name="asciitilde" unicode="~" horiz-adv-x="287" 
d="M116 405q27 -16 45 -24t43 -6t46 20v-25q-9 -8 -20 -13l-1 -1q-31 -15 -73 2q1 3 0 5h-10q-8 4 -16 9q1 -1 1 0q0 9 -8 12q0 -8 1 -9q-1 1 -8 5q-34 20 -69 -14q-1 1 -4 1q-1 -3 0 -5l-7 -9v25q1 2 2.5 3.5t6 6.5t9.5 9t12 8.5t14.5 6t17 0t18.5 -6.5zM47 380zM211 367z
M236 380z" />
    <glyph glyph-name="nonbreakingspace" unicode="&#xa0;" horiz-adv-x="205" 
 />
    <glyph glyph-name="sterling" unicode="&#xa3;" horiz-adv-x="469" 
d="M429 567q4 -18 4 -36v-48h-54v2h-8v-2h-6q-5 46 -21.5 80t-39.5 44q3 -1 4 3q1 3 -2 4l-2 1q-2 -6 0 -8q-9 4 -17 4q-34 0 -57.5 -48t-23.5 -117v-31h157v-44h-143v5h-8v-5h-6v-35h157v-44h-110v4h-8v-4h-20h-1h-18v-250q0 -23 4 -46q-40 28 -58 75q4 0 5 2t-4 5l-2 -2
q-10 28 -10 58v158h-59h-1h-45v43h105v36h-104q3 6 3 9h-4v18q10 -5 8 7h-4h-4v10h4q-1 -3 0 -6q12 -1 11 6h90v116q0 68 42.5 115.5t103.5 47.5q5 0 12 -1q0 -5 2 -5q3 -1 3 4q67 -8 104 -71q1 -4 3 -5q4 -7 8 -15q-2 -1 -2 -3q3 0 4.5 -5.5t2.5 -6.5q2 -6 4 -14q-1 1 -3 1
q-1 -6 0.5 -7.5t3.5 1.5zM61 401zM90 405zM115 380zM136 376zM44 326zM61 317zM165 594zM165 510zM165 351zM165 606zM149 246zM157 401zM153 539q9 1 11 9t-3 16t-12 9q-2 -8 1.5 -17t2.5 -17zM170 187zM161 292q2 0 5 -1.5t4.5 -1.5t3.5 3q-2 0 -5 2t-4.5 1.5t-3.5 -3.5z
M178 527v8h-8v-8h8zM174 556q0 2 2.5 5.5t1.5 7.5q-8 5 -9 -5q0 -7 5 -8zM182 514zM337 305zM316 334zM207 317zM333 401zM304 397zM304 389zM274 397zM249 409zM199 489zM203 280v-1l-5 -5q-1 -1 -2 -3l-1 -1q1 1 3 4q4 4 5 6zM199 523h2q4 0 6 0.5t3.5 2t1.5 5.5
q-10 0 -13 -8zM216 590zM245 657h3q3 0 5 0.5t3.5 2t1.5 5.5q-10 0 -13 -8zM258 615zM274 669zM279 623zM312 690zM337 678zM354 657zM371 535zM375 648z" />
    <glyph glyph-name="copyright" unicode="&#xa9;" horiz-adv-x="769" 
d="M384 578q19 0 36.5 -7.5t30 -20t20 -30t7.5 -36.5v-44h-61v19q0 19 -4.5 35.5t-12.5 26t-17 9.5q-14 0 -24.5 -21t-10.5 -50v-141q-4 0 -4 -3q3 0 4 -4v-76q0 -30 10.5 -51t24.5 -21t24 21t10 51v8h61v-51q0 -31 -19 -55.5t-48 -33.5q-1 2 -5 2v-4q-3 -1 -9 -1q6 6 -3 9
q-2 -7 0 -10q-9 -1 -10 -1q-25 0 -47 12.5t-34.5 34t-12.5 47.5v292q0 32 20 57t50 33q13 4 24 4zM302 491zM310 340zM314 365zM352 139zM335 352zM331 545zM339 114zM339 160zM356 507v7v6h-12q-2 -14 12 -13zM419 545zM406 533q3 -3 3.5 -8t0 -10t2 -8.5t7.5 -3.5
q-2 6 2 21q2 6 1 6q0 2 -3 -2q-2 -8 -7 -1q-4 5 -6 6zM423 461zM432 554zM448 520zM493 686q99 0 169 -70t70 -169v-219q0 -98 -70 -168t-169 -70h-136v1q-1 0 -1 1l-3 7q2 -6 4 -9h-37q2 3 2 6t-2 5.5t-6 3.5q1 -3 0.5 -5.5t0 -5.5t1.5 -4h-42q-15 0 -35 3q1 7 -4 7
q0 -3 -2 -6q-10 1 -20 4q-4 12 -11 3q-11 4 -21 8q0 4 -2 5q-2 2 -3 -3q-30 14 -55 35v0l1 1l-1 -1q-40 33 -62.5 80.5t-22.5 101.5v8q2 1 2 3q-1 0 -2 1v97q4 2 0 5v36q4 17 0 23v46q0 53 23 101v-1v-4.5t1 -3.5t2.5 -2.5t4.5 0.5q0 9 -8 12q18 38 48 68t69.5 47.5
t83.5 20.5v-6h8v7h3h3h48q-1 -8 1.5 -9t3.5 3q1 3 -2 6h168zM662 478zM629 549zM616 629q2 15 -17 13q0 -4 0.5 -6t3 -3t3.5 -1.5t5 -1.5t5 -1zM616 616zM490 650v2v4.5t-1 3.5t-2.5 2.5t-4.5 0.5q0 -10 8 -13zM474 633zM457 663zM448 650zM440 629zM402 654zM348 637z
M306 616zM218 654zM189 658l-2 1q4 -2 5 -2h-1zM147 642q-5 -8 5 -9q7 0 7 4q-2 1 -5.5 3t-6.5 2zM127 629zM109 239zM71 533zM80 440q-6 6 -9.5 4t-4.5 -3t-2 -6.5t-1 -6.5q1 0 5 0.5t5 1t3.5 2t3 3.5t0.5 5zM42 218zM42 315zM54 495zM59 319zM67 164zM63 252q2 0 4.5 0.5
t3.5 1t3 2.5t2 2.5t2 3l2 2.5q-3 1 -5 0t-3.5 -1t-3 -2t-2 -2.5t-2 -3.5zM80 114zM80 378q0 2 2 5t2 7q-8 5 -9 -5q0 -7 5 -7zM83 459l4 -3q-1 1 -4 3zM109 122q-1 5 0.5 7.5t4 3t5 2t3.5 4.5q-14 4 -20 -6q-5 -8 7 -11zM122 72v8h-9v-8h9zM122 122zM138 63zM147 30
q9 -5 9 9q0 12 -5 12q2 -7 -1.5 -12t-2.5 -9zM147 105zM159 105zM168 30zM168 46zM168 105zM180 59zM201 30q2 5 8.5 12t8.5 13q-4 -6 -14.5 -9.5t-16.5 -6t-3 -9.5q7 7 11 -3q2 -10 -4 -11l2.5 -4t7.5 -3q0 5 1.5 9t3 5.5t2 2.5t-0.5 2t-6 2zM214 67zM281 21zM314 55z
M352 34zM373 34zM381 17zM398 0zM402 21zM402 55zM411 0zM465 67zM515 72zM468 71q76 0 129.5 53.5t53.5 129.5v168q0 50 -24.5 92t-66.5 66.5t-92 24.5h-11h-1h-129q0 3 -4 3q-1 -1 -1 -3h-22q-57 0 -104 -32q0 4 -3 6q-6 1 -7 -2q0 -3 7 -2v-5q-35 -25 -55.5 -64
t-20.5 -84v-29q-1 1 -4 1q-1 -6 0 -7l4 1v-39q-2 0 -4 -1q-2 -8 4 -13v-81q0 -76 53.5 -129.5t129.5 -53.5h2h53q-3 -4 -4 -5.5t-1.5 -4t1 -4t5.5 -2.5q-1 5 2 7t7.5 2t8 1t3.5 6h91zM650 231zM662 331zM666 260zM675 327zM679 411zM691 424zM683 482q-5 -7 5 -9q7 1 8 5
q-3 0 -6 2.5t-7 1.5zM704 189zM708 348z" />
    <glyph glyph-name="softhyphen" unicode="&#xad;" horiz-adv-x="0" 
 />
    <glyph glyph-name="plusminus" unicode="&#xb1;" horiz-adv-x="262" 
d="M188 241q-2 -3 -2 -6q1 -4 6 -2t-1 8h34v-26l-4 -2h-150q-2 2 -8 0h-27v28h152zM210 222q-2 -5 -3 -6l5 8l-0.5 -1t-1.5 -1zM145 360h80v-28h-80v-80h-29v80h-2v20q-8 3 -8 -5.5t-5 -7.5v3q-1 5 -4 5q-10 -9 1 -15h-62v28h80v80h29v-80zM76 352zM177 339q15 -10 12 4
h-3.5h-4t-3 -1t-1.5 -3z" />
    <glyph glyph-name="Agrave" unicode="&#xc0;" horiz-adv-x="431" 
d="M374 111l21 -115h-90l-11 62h-83v5h-9v-5h-66l-1 -9q-2 1 -4 1q0 -7 3 -7l-9 -47h-76q8 1 7 8q-10 0 -13 -8h-7l123 700h18q0 -3 2 -3t3 3h89l17 -95q-4 -4 1 -9l8 -44q-1 0 -2 1q0 -12 4 -13l75 -423h-8v-8h8v6zM52 54zM81 130zM68 50zM68 113zM81 0q0 2 2.5 5.5
t1.5 6.5q-8 5 -9 -5q0 -7 5 -7zM85 172q6 -3 10 2t3.5 11t-5.5 8q3 -8 -2 -13.5t-6 -7.5zM98 285zM106 109zM106 218zM299 335q0 10 -9 13q0 -10 9 -13zM286 381v-8h9v8h-9zM269 268zM274 222zM265 536zM261 461q-5 0 -7.5 -1t-4 -4t-1.5 -8q14 -1 13 13zM253 402zM223 482z
M211 633zM211 507zM207 486zM165 348zM148 276zM131 117zM135 105zM135 222l1 1h1l-1.5 -1l-1.5 -1l0.5 0.5zM135 318zM135 343zM144 465zM144 490zM148 130zM165 79q6 1 12 -4v5.5v5t-1 4.5t-3 2q0 -2 -2 -4l-4 -4t-2 -5zM169 134v-4t0.5 -4.5t1 -2.5t2.5 -2q0 4 1 6t4 4
t3 3h-12zM177 109zM181 63zM215 105q3 8 -8 11q-4 -1 -5 -3q3 0 5.5 -5t7.5 -3zM228 113zM248 79q8 1 11.5 12t5.5 14q-16 -4 -17 -26zM145 148h140l-70 358l-30 -155l-7 -37h-1v-5l-2 -11q-1 1 -3 2l3 -2zM299 251q-3 7 -2.5 11.5t2.5 7t1.5 5.5t-5.5 6q2 -8 -3 -12t-6 -5
q5 1 7 -5.5t6 -7.5zM336 205zM336 167zM324 247q-4 -8 4.5 -9t8.5 5q1 2 -1 4h-12zM332 331zM332 293zM320 369zM307 79zM307 121zM307 163zM307 293zM311 356zM320 29zM320 193zM332 38zM336 84q0 -10 9 -13q0 10 -9 13zM349 214zM353 96zM378 8zM259 778h-85l-82 65l70 60
z" />
    <glyph glyph-name="Aacute" unicode="&#xc1;" horiz-adv-x="431" 
d="M374 111l21 -115h-90l-11 62h-83v5h-9v-5h-66l-1 -9q-2 1 -4 1q0 -7 3 -7l-9 -47h-76q8 1 7 8q-10 0 -13 -8h-7l123 700h18q0 -3 2 -3t3 3h89l17 -95q-4 -4 1 -9l8 -44q-1 0 -2 1q0 -12 4 -13l75 -423h-8v-8h8v6zM52 54zM81 130zM68 50zM68 113zM81 0q0 2 2.5 5.5
t1.5 6.5q-8 5 -9 -5q0 -7 5 -7zM85 172q6 -3 10 2t3.5 11t-5.5 8q3 -8 -2 -13.5t-6 -7.5zM98 285zM106 109zM106 218zM299 335q0 10 -9 13q0 -10 9 -13zM286 381v-8h9v8h-9zM269 268zM274 222zM265 536zM261 461q-4 0 -7 -1t-4.5 -4t-0.5 -8q13 -1 12 13zM253 402zM223 482z
M211 633zM211 507zM207 486zM169 465zM165 348zM148 276zM131 117zM135 105zM135.5 222q0.5 0 1 0.5l0.5 0.5l-1 -1l-2 -1q1 1 1.5 1zM135 318zM135 343zM144 465zM144 490zM148 130zM165 79q6 1 12 -4v5.5v5t-1 4.5t-3 2q0 -3 -4 -6.5t-4 -6.5zM169 134v-5t1 -5.5t3 -2.5
q0 4 1 6t4 4t3 3h-12zM177 109zM181 63zM215 105q3 8 -8 11q-4 -1 -5 -3q3 0 5.5 -5t7.5 -3zM228 113zM249 79q7 1 10.5 12t5.5 14q-16 -4 -16 -26zM274 67zM145 148h140l-70 358l-30 -155l-7 -37h-1v-5l-2 -11q-1 1 -3 2l3 -2zM299 251q-3 7 -2.5 11.5t2.5 7t1.5 5.5
t-5.5 6q2 -8 -3 -12t-6 -5q5 1 7 -5.5t6 -7.5zM336 205zM336 167zM324 247q-4 -8 4.5 -9t8.5 5q1 2 0 4h-13zM332 331zM332 293zM320 369zM307 79zM307 121zM307 163zM307 293zM311 356zM320 29zM320 193zM332 38zM336 84q0 -10 9 -13q0 10 -9 13zM349 214zM353 96zM378 8z
M338 843l-82 -65h-84l97 125z" />
    <glyph glyph-name="Acircumflex" unicode="&#xc2;" horiz-adv-x="431" 
d="M374 111l21 -115h-90l-11 62h-83v5h-9v-5h-66l-1 -9q-2 1 -4 1q0 -7 3 -7l-9 -47h-76q8 1 7 8q-10 0 -13 -8h-7l123 700h18q0 -3 2 -3t3 3h89l17 -95q-4 -4 1 -9l8 -44q-1 0 -2 1q0 -12 4 -13l75 -423h-8v-8h8v6zM52 54zM81 130zM68 50zM68 113zM81 0q0 2 2.5 5.5
t1.5 6.5q-8 5 -9 -5q0 -7 5 -7zM85 172q6 -3 10 2t3.5 11t-5.5 8q2 -5 1 -8t-2.5 -4.5t-3.5 -4t-3 -4.5zM98 285zM106 109zM106 218zM299 335q0 10 -9 13q0 -10 9 -13zM286 381v-8h9v8h-9zM269 268zM274 222zM265 536zM261 461q-5 0 -7.5 -1t-4 -4t-1.5 -8q14 -1 13 13z
M253 402zM223 482zM211 633zM211 507zM207 486zM169 465zM165 348zM148 276zM131 117zM135 105zM135 222l1 1h1l-1.5 -1l-1.5 -1zM135 318zM135 343zM144 465zM144 490zM148 130zM165 79q6 1 12 -4v5.5v5t-1 4.5t-3 2q0 -2 -2 -4l-4 -4t-2 -5zM169 134v-5t1 -5.5t3 -2.5
q0 4 1 6t4 4t3 3h-12zM177 109zM181 63zM215 105q3 8 -8 11q-4 -1 -5 -3q3 0 5.5 -5t7.5 -3zM228 113zM249 79q7 1 10.5 12t5.5 14q-16 -4 -16 -26zM274 67zM145 148h140l-70 358l-30 -155l-7 -37h-1v-5l-2 -11q-1 1 -3 2l3 -2zM299 251q-3 7 -2.5 11.5t2.5 7t1.5 5.5
t-5.5 6q2 -8 -3 -12t-6 -5q5 1 7 -5.5t6 -7.5zM336 205zM336 167zM324 247q-4 -8 4.5 -9t8.5 5q1 2 -1 4h-12zM332 331zM332 293zM320 369zM307 79zM307 121zM307 163zM307 293zM311 356zM320 29zM320 193zM332 38zM336 84q0 -10 9 -13q0 10 -9 13zM349 214zM353 96zM378 8z
M215 843l-50 -61h-78l82 117h93l82 -117h-78z" />
    <glyph glyph-name="Atilde" unicode="&#xc3;" horiz-adv-x="431" 
d="M374 111l21 -115h-90l-11 62h-83v5h-9v-5h-66l-1 -9q-2 1 -4 1q0 -7 3 -7l-9 -47h-76q8 1 7 8q-10 0 -13 -8h-7l123 700h18q0 -3 2 -3t3 3h89l17 -95q-4 -4 1 -9l8 -44q-1 0 -2 1q0 -12 4 -13l75 -423h-8v-8h8v6zM52 54zM81 130zM68 50zM68 113zM81 0q0 2 2.5 5.5
t1.5 6.5q-8 5 -9 -5q0 -7 5 -7zM85 172q6 -3 10 2t3.5 11t-5.5 8q3 -8 -2 -13.5t-6 -7.5zM98 285zM106 109zM106 218zM299 335q0 10 -9 13q0 -10 9 -13zM286 381v-8h9v8h-9zM269 268zM274 222zM265 536zM261 461q-4 0 -7 -1t-4.5 -4t-0.5 -8q13 -1 12 13zM253 402zM223 482z
M211 633zM211 507zM207 486zM169 465zM165 348zM148 276zM131 117zM135 105zM135.5 222q0.5 0 1 0.5l0.5 0.5l-1 -1l-2 -1q1 1 1.5 1zM135 318zM135 343zM144 465zM144 490zM148 130zM165 79q6 1 12 -4v5.5v5t-1 4.5t-3 2q0 -3 -4 -6.5t-4 -6.5zM169 134v-5t1 -5.5t3 -2.5
q0 4 1 6t4 4t3 3h-12zM177 109zM181 63zM215 105q3 8 -8 11q-4 -1 -5 -3q3 0 5.5 -5t7.5 -3zM228 113zM249 79q7 1 10.5 12t5.5 14q-16 -4 -16 -26zM274 67zM145 148h140l-70 358l-30 -155l-7 -37h-1v-5l-2 -11q-1 1 -3 2l3 -2zM299 251q-3 7 -2.5 11.5t2.5 7t1.5 5.5
t-5.5 6q2 -8 -3 -12t-6 -5q5 1 7 -5.5t6 -7.5zM336 205zM336 167zM324 247q-4 -8 4.5 -9t8.5 5q1 2 0 4h-13zM332 331zM332 293zM320 369zM307 79zM307 121zM307 163zM307 293zM311 356zM320 29zM320 193zM332 38zM336 84q0 -10 9 -13q0 10 -9 13zM349 214zM353 96zM378 8z
M170 824q-24 0 -32 -50l-58 30q10 48 31.5 73t52.5 25q21 0 37.5 -12t30.5 -24t28 -12q32 0 35 52l56 -27q-21 -100 -86 -100q-22 0 -39.5 11.5t-31 22.5t-24.5 11z" />
    <glyph glyph-name="Adieresis" unicode="&#xc4;" horiz-adv-x="431" 
d="M374 111l21 -115h-90l-11 62h-83v5h-9v-5h-66l-1 -9q-2 1 -4 1q0 -7 3 -7l-9 -47h-76q8 1 7 8q-10 0 -13 -8h-7l123 700h18q0 -3 2 -3t3 3h89l17 -95q-4 -4 1 -9l8 -44q-1 0 -2 1q0 -12 4 -13l75 -423h-8v-8h8v6zM52 54zM81 130zM68 50zM68 113zM81 0q0 2 2.5 5.5
t1.5 6.5q-8 5 -9 -5q0 -7 5 -7zM85 172q6 -3 10 2t3.5 11t-5.5 8q3 -8 -2 -13.5t-6 -7.5zM98 285zM106 109zM106 218zM299 335q0 10 -9 13q0 -10 9 -13zM286 381v-8h9v8h-9zM269 268zM274 222zM265 536zM261 461q-4 0 -7 -1t-4.5 -4t-0.5 -8q13 -1 12 13zM253 402zM223 482z
M211 633zM211 507zM207 486zM169 465zM165 348zM148 276zM131 117zM135 105zM135 222l1 1h1l-1.5 -1l-1.5 -1l0.5 0.5zM135 318zM135 343zM144 465zM144 490zM148 130zM165 79q6 1 12 -4v5.5v5t-1 4.5t-3 2q0 -2 -2 -4l-4 -4t-2 -5zM169 134v-5t1 -5.5t3 -2.5q0 4 1 6t4 4
t3 3h-12zM177 109zM181 63zM215 105q3 8 -8 11q-4 -1 -5 -3q3 0 5.5 -5t7.5 -3zM228 113zM249 79q7 1 10.5 12t5.5 14q-16 -4 -16 -26zM274 67zM145 148h140l-70 358l-30 -155l-7 -37h-1v-5l-2 -11q-1 1 -3 2l3 -2zM299 251q-3 7 -2.5 11.5t2.5 7t1.5 5.5t-5.5 6
q2 -8 -3 -12t-6 -5q5 1 7 -5.5t6 -7.5zM337 205zM337 167zM324 247q-4 -8 4.5 -9t8.5 5q1 2 0 4h-13zM332 331zM332 293zM320 369zM307 121zM307 163zM307 293zM311 356zM320 29zM320 193zM332 38zM337 84q-1 -10 8 -13q0 10 -8 13zM349 214zM353 96zM378 8zM140 789
q-21 0 -36 15.5t-15 36.5q0 13 7 25t18.5 19t25.5 7q21 0 36 -15t15 -36t-15 -36.5t-36 -15.5zM291 789q-21 0 -36 15.5t-15 36.5t15 36t36 15t36 -15t15 -36t-15 -36.5t-36 -15.5z" />
    <glyph glyph-name="Aring" unicode="&#xc5;" horiz-adv-x="431" 
d="M374 111l21 -115h-90l-11 62h-83v5h-9v-5h-66l-1 -9q-2 1 -4 1q0 -7 3 -7l-9 -47h-76q8 1 7 8q-10 0 -13 -8h-7l123 700h18q0 -3 2 -3t3 3h89l17 -95q-4 -4 1 -9l8 -44q-1 0 -2 1q0 -12 4 -13l75 -423h-8v-8h8v6zM52 54zM81 130zM68 50zM68 113zM81 0q0 2 2.5 5.5
t1.5 6.5q-8 5 -9 -5q0 -7 5 -7zM85 172q6 -3 10 2t3.5 11t-5.5 8q2 -5 1 -8t-2.5 -4.5t-3.5 -4t-3 -4.5zM98 285zM106 109zM106 218zM299 335q0 10 -9 13q0 -10 9 -13zM286 381v-8h9v8h-9zM269 268zM274 222zM265 536zM261 461q-7 0 -10 -3t-3 -10q14 -1 13 13zM253 402z
M223 482zM211 633zM211 507zM207 486zM169 465zM165 348zM148 276zM131 117zM135 105zM135.5 222q0.5 0 1 0.5l0.5 0.5l-1.5 -1l-1.5 -1l0.5 0.5t1 0.5zM135 318zM135 343zM144 465zM144 490zM148 130zM165 79q6 1 12 -4v5.5v5t-1 4.5t-3 2q0 -2 -2 -4l-4 -4t-2 -5zM169 134
v-5t1 -5.5t3 -2.5q0 4 1 6t4 4t3 3h-12zM177 109zM181 63zM215 105q3 8 -8 11q-4 -1 -5 -3q3 0 5.5 -5t7.5 -3zM228 113zM249 79q7 1 10.5 12t5.5 14q-16 -4 -16 -26zM274 67zM145 148h140l-70 358l-30 -155l-7 -37h-1v-5l-2 -11q-1 1 -3 2l3 -2zM299 251q-3 7 -2.5 11.5
t2.5 7t1.5 5.5t-5.5 6q2 -8 -3 -12t-6 -5q5 1 7 -5.5t6 -7.5zM336 205zM336 167zM324 247q-4 -8 4.5 -9t8.5 5q1 2 0 4h-13zM332 331zM332 293zM320 369zM307 79zM307 121zM307 163zM307 293zM311 356zM320 29zM320 193zM332 38zM336 84q0 -10 9 -13q0 10 -9 13zM349 214z
M353 96zM378 8zM215 723q-48 0 -83 34t-35 83t34 83.5t84 34.5q49 0 83.5 -34t34.5 -84q0 -49 -34 -83t-84 -34zM215 896q-23 0 -39.5 -16t-16.5 -40q0 -23 16 -39.5t40 -16.5q23 0 39.5 16.5t16.5 39.5q0 24 -16 40t-40 16z" />
    <glyph glyph-name="AE" unicode="&#xc6;" horiz-adv-x="552" 
d="M331 603h-1h-1v-8h2v-208h95l30 -82h-125v-153q-1 -2 0 -3v-71h34h1h12q-3 -1 -3 -3q13 -8 13 1q0 1 -1 2h128v-82h-274v25h8v8h-8v29h-30v2.5v2.5h-8v-2.5v-2.5h-66l-2 -9q-1 1 -3 1q-1 -7 2 -7l-9 -47h-76q8 1 7 8q-10 0 -13 -8h-7l129 700h310h9h31v-82h-51l-1 2
q0 -1 -2 -2h-130v-11zM496 654zM475 662zM442 691zM429 679q1 9 -8 12v-2q0 -4 0.5 -6t2.5 -3.5t5 -0.5zM417 628zM387 645zM379 670q0 -2 -2 -5l-2 -3q2 0 4.5 -2t3.5 -2q0 2 2 4.5t2 3.5q-2 0 -4.5 2t-3.5 2zM354 637q-9 5 -10 -7q1 -9 6 -10q-1 4 1.5 8.5t2.5 8.5z
M337 695v-9q2 -2 4 -3q0 11 -4 12zM52 54zM82 130zM69 50zM69 113zM81 0q0 2 2.5 5.5t1.5 6.5q-8 5 -9 -5q0 -7 5 -7zM87 172q5 -3 9 2t4 11t-5 8q2 -8 -3 -13.5t-5 -7.5zM100 285zM107 109zM108 218zM132 117zM500 12zM496 33q4 9 -3 16q-4 3 -5 -3q3 0 4 -6t4 -7zM488 71z
M475 29zM471 63q2 -5 -0.5 -10.5t-4 -8.5t4.5 -6q0 2 2 13q3 13 1 14q-1 0 -3 -2zM467 12zM454 17zM433 54zM429 42zM442 327zM429 318zM425 339zM424 359q0 -1 -2 -4q2 4 2.5 4.5l0.5 0.5l1 2l-0.5 -1t-1.5 -2zM383 327zM320 247zM320 452zM312 432zM312 272zM308 281z
M303 545zM291 381zM295 109q0 9 -1 11zM291 310zM283 549zM270 469zM266 587zM266 415h-5.5t-5 -0.5t-4.5 -1t-2 -2.5l7.5 -2.5t6 -0.5t3.5 7zM253 289h9v8h-9v-8zM253 247zM208 508zM173 465zM168 348zM150 276zM148 490zM148 465zM136 105zM137 222q1 1 2 1l-1.5 -1
t-2.5 -1q1 0 1.5 0.5zM138 318zM138 343zM149 130zM165 79q6 1 13 -4v5.5v5t-1 4.5t-3 2q-1 -3 -4.5 -6.5t-4.5 -6.5zM178 109zM182 63zM174 121q0 4 1 6t4 4t4 3h-13v-5t1 -5.5t3 -2.5zM216 105q3 8 -8 11q-4 -1 -5 -3q3 0 5.5 -5t7.5 -3zM229 113zM242 269q2 -4 3 -5
q0 3 4.5 9t3.5 12q-7 -6 -11 -2v331h-11l-18 -107l-26 -156l-7 -37q-1 -3 -1 -5l-2 -11l-2 2h-1l3 -2l-30 -150h95v121zM262 29v9h-9v-9h9zM259 58q3 -4 7 0h-7zM257 148h9v7h-9v-7zM249 235q-3 -16 9 -15q10 0 10 6q0 3 -2 4q-3 -5 -5 -4t-6 5t-6 4zM270 17zM278 33v9h-8
v-9h8zM283 511q-5 -4 -2.5 -10.5t10.5 -6.5q2 16 -8 17zM299 46q2 2 1 7t-2.5 9.5t-5 9t-8.5 6.5q1 -2 1 -5v-2q2 -3 6.5 -12t7.5 -13zM303 205zM308 79zM312 96v9h-9v-9h9zM312 260v-9h8v9h-8zM316 222zM337 25q7 1 10 2t5.5 4.5t1.5 10.5q-6 0 -13 4q2 -13 -4 -21zM366 21
zM350 75zM341 63q-4 -3 -8 -1t-5 2t-4 3.5t-4 3.5q-8 -20 4 -26q11 -5 16 11q1 3 1 7z" />
    <glyph glyph-name="Ccedilla" unicode="&#xc7;" horiz-adv-x="347" 
d="M51 92q-2 0 -3 -6.5t0 -8.5q-4 9 -7 19q5 0 10 -4zM244 17zM309 559v-3q-3 0 -6 -3q3 0 6 -4v-31q-6 0 -10 -11q6 1 10 3v-10q-2 -2 -3 -5h-45h-39v27q0 29 -7 53t-18.5 38t-25.5 14q-12 0 -23 -12t-18 -32.5t-9 -45.5l-3 -3q-7 -8 1 -10q-1 1 2 4v-3v-3v-124
q-5 -2 -6.5 -6.5t4.5 -6.5q0 3 2 5v-124q-4 -5 -7 -6q5 -2 5 -9l0.5 0.5t1.5 0.5v-57q0 -43 14.5 -73.5t35.5 -30.5q20 0 35 29q1 -4 3 -1q6 4 -1 6q14 30 14 70v12h44q-4 -3 -5 -6q11 1 17 -4q-2 7 3 10h28v-20q-1 1 -2 1q1 -8 2 -10v-45q0 -21 -6 -41q1 12 -4 13
q1 -3 0 -12t0 -11q-1 -2 -2 -6q-8 1 -10 -4t1 -12l-6 -10q-4 0 -6.5 -3.5t-1.5 -5.5q-13 -14 -30 -24q0 9 -8 12v-2q0 -4 0.5 -6t2 -3.5t5.5 -0.5q-21 -14 -44 -18l-19 -21q36 -5 57.5 -29.5t21.5 -60.5q0 -38 -25 -64t-68 -26q-51 0 -82 34l36 48q18 -27 46 -27
q14 0 24 9.5t10 25.5q0 18 -10.5 27.5t-24.5 9.5q-20 0 -30 -13l-38 37l38 52q-21 6 -38 18v2h-4q-23 16 -38 41v1h-1q-4 6 -7 13l3 3q4 13 0 26q-7 1 -12 1q-3 13 -3 27v339q3 -3 7 -3q1 14 -7 20v70q0 57 40 97t97 40q19 0 38 -6v-3q3 0 6 2q7 -3 15 -7q-2 -6 0 -7
q3 0 4 5q50 -26 67 -80v-1q6 -19 6 -40zM295 167q-10 1 -12 -11q-1 -10 7 -9q-1 6 0.5 8t3 5t1.5 7zM274 134zM269 159zM265 96zM265 75q-1 -5 -8 0q1 -4 0 -9.5t-0.5 -10.5t4.5 -5q-1 4 2 10.5t4.5 9.5t-2.5 5zM248 155v-21q12 -2 12 8q-2 11 -12 13zM248 84q5 4 4 10t-8 6
v-4.5t0.5 -5t1 -4.5t2.5 -2zM236 134zM244 75h-5h-5t-4 -1t-3 -3q4 0 7 -4t6 -4q1 5 4 4v8zM202 100zM156 71v-8h9v8h-9zM152 21zM148 79zM123 12q1 4 4 9t4 8q-8 3 -12 -9q0 -6 4 -8zM119 46zM127 75zM135 96zM131 109zM123 105q-1 -2 -5.5 -10t-3.5 -16q6 5 10.5 3.5
t8 -1.5t2.5 7q-5 -3 -7 -0.5t-1 6.5t0 7.5t-4 3.5zM110 603zM98 603zM89 666zM85 641zM85 553zM72 499zM72 452q-2 -14 0 -29q3 1 6 0t5 -3t3.5 -1.5t2.5 4.5q-11 6 -17 17q9 -2 9 4q-2 8 -9 8zM81 356zM72 398q1 0 0 -3.5t-2 -6.5t-2 -3q8 -7 9 4q-1 8 -5 9zM77 281z
M56 455zM51 616zM39 570q15 -10 12 4h-3.5t-4 -0.5l-3 -1t-1.5 -2.5zM43 499zM43 427zM43 411zM43 239zM43 130zM51 364zM60 151v8h-9v-8h9zM56 184zM60 599zM64 293q0 -9 8 -12v2v6t-2 3.5t-6 0.5zM72 222zM72 184zM77 84zM85 67zM77 230q11 -2 12 8q1 9 -8 9q-1 -3 -4 -6
t-3.5 -4.5t3.5 -6.5zM85 264zM93 591zM93 134zM98 235zM102 268q-1 -9 8 -12q0 9 -8 12zM110 134zM106 92zM114 432zM114 490h-8v-8h8v8zM152 670v9h-8v-9h8zM219 670zM219 645zM240 507zM248 612q2 2 4.5 5t4 5t3 5t0.5 6.5t-3 7.5q-6 1 -8.5 -6t-2.5 -15t2 -8zM269 637z
M265 574q8 -3 10 9q1 17 -6 20q2 -7 -1.5 -15t-2.5 -14zM274 553zM282 536v9h-8v-9h8zM286 616q4 8 -4 15q-2 3 -4 0v-3q3 0 4 -6t4 -6z" />
    <glyph glyph-name="Egrave" unicode="&#xc8;" horiz-adv-x="347" 
d="M125 603h-1h-1v-8h2v-208h96l30 -82h-126v-153v-3v-71h35h1h11q-3 -1 -3 -3l4 -2t4.5 -1.5t4 1t0.5 5.5h127v-82h-273v25h7v8h-7v240q2 -4 3 -5q1 3 5 9t4 12q-7 -6 -12 -2v413h234h8h31v-82h-50q-1 0 -1 0.5t-1 1.5q0 -1 -1 -2h-131v-11zM291 654zM270 662zM236 691z
M224 679q0 9 -9 12v-2q1 -4 1 -6t2 -3.5t6 -0.5zM211 628zM182 645zM173 670q0 -2 -1.5 -4.5t-2.5 -3.5q3 0 5 -2t4 -2q0 2 1.5 4.5t2.5 3.5q-3 0 -5 2t-4 2zM148 637q-8 5 -9 -7q0 -9 5 -10q0 4 2 8.5t2 8.5zM136 683v2q-1 4 -1 6t-2 3.5t-6 1.5q0 -10 9 -13zM295 12z
M291 33q3 9 -4 16q-4 3 -5 -3q3 0 4 -2t1 -4t1 -4t3 -3zM282 71zM270 29zM266 63q1 -5 -1.5 -10.5t-3.5 -8.5t5 -6q-1 2 2 13q3 13 1 14q-1 0 -3 -2zM261 12zM249 17zM228 54zM224 42zM236 327zM224 318zM219 339zM219 359q-2 -3 -3 -4l3 4v1q1 0 2 2l-1 -1t-1 -2zM178 327z
M115 628zM115 247zM115 452zM106 432zM106 272zM102 281zM98 545zM85 381zM85 310zM94 670q-1 1 -2 1q1 -1 3 -1h-1zM90 628zM85 494q2 16 -8 17q-5 -4 -2.5 -10.5t10.5 -6.5zM77 549zM73 624zM64 469zM60 587zM43 411q4 -1 8.5 -2.5t6 -0.5t2.5 7h-5t-5 -0.5l-4 -1t-3 -2.5
zM56 297h-8v-8h8v8zM48 247zM43 235q-3 -16 10 -15q9 0 10 6q0 3 -3 4q-3 -5 -5 -4t-5.5 5t-6.5 4zM60 130zM52 147h8v8h-8v-8zM56 29v9h-8v-9h8zM56 67q-5 -7 -1 -10q5 -3 8 5q1 2 1 5h-8zM64 17zM73 33v9h-9v-9h9zM94 46q2 4 0 12t-8 14.5t-13 7.5q5 -5 11.5 -17.5
t9.5 -16.5zM98 205zM102 79zM106 96v9h-8v-9h8zM106 260v-9h9v9h-9zM111 222zM131 25q7 1 10 2t6 4.5t1 10.5q-6 0 -12 4q1 -13 -5 -21zM161 21zM144 75zM136 63q-4 -3 -8.5 -1t-5.5 2t-4 3.5l-3 3.5q-9 -20 3 -26q11 -5 16 11zM216 778h-84l-82 65l69 60z" />
    <glyph glyph-name="Eacute" unicode="&#xc9;" horiz-adv-x="346" 
d="M125 603h-1h-1v-8h2v-208h96l30 -82h-126v-153v-3v-71h35h1h11q-3 -1 -3 -3l4 -2t4.5 -1.5t4 1t0.5 5.5h127v-82h-273v25h7v8h-7v240q2 -4 3 -5q1 3 5 9t4 12q-7 -6 -12 -2v413h234h8h31v-82h-50q-1 0 -1 0.5t-1 1.5q0 -1 -1 -2h-131v-11zM291 654zM270 662zM236 691z
M224 679q0 9 -9 12v-2q1 -4 1 -6t2 -3.5t6 -0.5zM211 628zM182 645zM173 670q0 -2 -1.5 -4.5t-2.5 -3.5q2 0 4.5 -2t4.5 -2q0 2 1.5 4.5t2.5 3.5q-3 0 -5 2t-4 2zM148 637q-8 5 -9 -7q0 -9 5 -10q0 4 2.5 8.5t1.5 8.5zM136 683v2q-1 4 -1 6t-2 3.5t-6 1.5q0 -10 9 -13z
M295 12zM291 33q3 9 -4 16q-4 3 -5 -3q3 0 4 -2t1 -4t1 -4t3 -3zM282 71zM270 29zM266 63q1 -5 -1.5 -10.5t-3.5 -8.5t5 -6q-1 2 2 13q3 13 1 14q-1 0 -3 -2zM261 12zM249 17zM228 54zM224 42zM236 327zM224 318zM219 339zM219 359q-1 -1 -3 -4l3 4q0 1 0.5 1t1.5 2l-1 -1
t-1 -2zM178 327zM115 628zM115 247zM115 452zM106 432zM106 272zM102 281zM98 545zM85 381zM85 310zM94 670q-1 1 -2 1q1 -1 3 -1h-1zM90 628zM85 494q2 16 -8 17q-5 -4 -2.5 -10.5t10.5 -6.5zM77 549zM73 624zM64 469zM60 587zM43 411q4 -1 8.5 -2.5t6 -0.5t2.5 7h-5
t-5 -0.5l-4 -1t-3 -2.5zM56 297h-8v-8h8v8zM48 247zM43 235q-3 -16 10 -15q9 0 10 6q0 3 -3 4q-3 -5 -5 -4t-5.5 5t-6.5 4zM60 130zM52 147h8v8h-8v-8zM56 29v9h-8v-9h8zM56 67q-5 -7 -1 -10q5 -3 8 5q1 2 1 5h-8zM64 17zM73 33v9h-9v-9h9zM94 46q3 7 -3.5 20t-17.5 14
q5 -5 11.5 -17.5t9.5 -16.5zM98 205zM102 79zM106 96v9h-8v-9h8zM106 260v-9h9v9h-9zM111 222zM131 25q7 1 10 2t6 4.5t1 10.5q-6 0 -12 4q1 -13 -5 -21zM161 21zM144 75zM136 63q-4 -3 -8.5 -1t-5.5 2t-4 3.5l-3 3.5q-9 -20 3 -26q11 -5 16 11zM296 843l-83 -65h-84l97 125
z" />
    <glyph glyph-name="Ecircumflex" unicode="&#xca;" horiz-adv-x="347" 
d="M125 603h-1h-1v-8h2v-208h96l30 -82h-126v-153v-3v-71h35h1h11q-3 -1 -3 -3l4 -2t4.5 -1.5t4 1t0.5 5.5h127v-82h-273v25h7v8h-7v240q2 -4 3 -5q1 3 5 9t4 12q-7 -6 -12 -2v413h234h8h31v-82h-50q-1 0 -1 0.5t-1 1.5q0 -1 -1 -2h-131v-11zM291 654zM270 662zM236 691z
M224 679q0 9 -9 12v-2q1 -4 1 -6t2 -3.5t6 -0.5zM211 628zM182 645zM173 670q0 -2 -1.5 -4.5t-2.5 -3.5q3 0 5 -2t4 -2q0 2 1.5 4.5t2.5 3.5q-3 0 -5 2t-4 2zM148 637q-8 5 -9 -7q0 -9 5 -10q0 4 2 8.5t2 8.5zM136 683v2q-1 4 -1 6t-2 3.5t-6 1.5q0 -10 9 -13zM295 12z
M291 33q3 9 -4 16q-4 3 -5 -3q3 0 4 -2t1 -4t1 -4t3 -3zM282 71zM270 29zM266 63q1 -5 -1.5 -10.5t-3.5 -8.5t5 -6q-1 2 2 13q3 13 1 14q-1 0 -3 -2zM261 12zM249 17zM228 54zM224 42zM236 327zM224 318zM219 339zM219 359q-2 -3 -3 -4l3 4v1q1 0 2 2l-1 -1t-1 -2zM178 327z
M115 628zM115 247zM115 452zM106 432zM106 272zM102 281zM98 545zM85 381zM90 109q-1 9 -1 11zM85 310zM94 670q-1 1 -2 1q1 -1 3 -1h-1zM90 628zM85 494q2 16 -8 17q-5 -4 -2.5 -10.5t10.5 -6.5zM77 549zM73 624zM64 469zM60 587zM43 411q4 -1 8.5 -2.5t6 -0.5t2.5 7h-5
t-5 -0.5l-4 -1t-3 -2.5zM56 297h-8v-8h8v8zM48 247zM43 235q-3 -16 10 -15q9 0 10 6q0 3 -3 4q-3 -5 -5 -4t-5.5 5t-6.5 4zM60 130zM52 147h8v8h-8v-8zM56 29v9h-8v-9h8zM56 67q-5 -7 -1 -10q5 -3 8 5l1 5h-8zM64 17zM73 33v9h-9v-9h9zM94 46q3 7 -3.5 20t-17.5 13
q5 -4 11.5 -16.5t9.5 -16.5zM98 205zM102 79zM106 96v9h-8v-9h8zM106 260v-9h9v9h-9zM111 222zM131 25q7 1 10 2t6 4.5t1 10.5q-6 0 -12 4q1 -13 -5 -21zM161 21zM144 75zM136 63q-4 -3 -8.5 -1.5t-5.5 2t-4 3.5t-3 4q-9 -20 3 -26q11 -5 16 11zM173 843l-51 -61h-78l82 117
h93l82 -117h-78z" />
    <glyph glyph-name="Edieresis" unicode="&#xcb;" horiz-adv-x="347" 
d="M125 603h-1h-1v-8h2v-208h96l30 -82h-126v-153v-3v-71h35h1h11q-3 -1 -3 -3l4 -2t4.5 -1.5t4 1t0.5 5.5h127v-82h-273v25h7v8h-7v240q2 -4 3 -5q1 3 5 9t4 12q-7 -6 -12 -2v413h234h8h31v-82h-50q-1 0 -1 0.5t-1 1.5q0 -1 -1 -2h-131v-11zM291 654zM270 662zM236 691z
M224 679q0 9 -9 12v-2q1 -4 1 -6t2 -3.5t6 -0.5zM211 628zM182 645zM173 670q0 -2 -1.5 -4.5t-2.5 -3.5q3 0 5 -2t4 -2q0 2 1.5 4.5t2.5 3.5q-3 0 -5 2t-4 2zM148 637q-8 5 -9 -7q0 -9 5 -10q0 4 2.5 8.5t1.5 8.5zM136 683v2q-1 4 -1 6t-2 3.5t-6 1.5q0 -10 9 -13zM295 12z
M291 33q3 9 -4 16q-4 3 -5 -3q3 0 4 -3t1.5 -6t3.5 -4zM282 71zM270 29zM266 63q1 -5 -1.5 -10.5t-3.5 -8.5t5 -6q-1 2 2 13q3 13 1 14q-1 0 -3 -2zM261 12zM249 17zM228 54zM224 42zM236 327zM224 318zM220 339zM219 359q-1 -1 -3 -4l3 4q0 1 0.5 1t1.5 2l-1 -1t-1 -2z
M178 327zM115 628zM115 247zM115 452zM106 432zM106 272zM102 281zM98 545zM85 381zM85 310zM94 670q-1 1 -2 1q1 -1 3 -1h-1zM85 494q2 16 -8 17q-5 -4 -2.5 -10.5t10.5 -6.5zM77 549zM73 624zM64 469zM60 587zM43 411q4 -1 7 -2l4.5 -1.5t3 1t2.5 6.5h-5t-5 -0.5l-4 -1
t-3 -2.5zM56 297h-8v-8h8v8zM48 247zM43 235q-3 -16 10 -15q9 0 10 6q0 3 -3 4q-3 -5 -5 -4t-5.5 5t-6.5 4zM60 130zM52 147h8v8h-8v-8zM56 29v9h-8v-9h8zM56 67q-5 -7 -1 -10q5 -3 8 5q1 2 1 5h-8zM64 17zM73 33v9h-9v-9h9zM94 46q3 7 -3.5 20t-17.5 14q5 -5 11.5 -17.5
t9.5 -16.5zM98 205zM102 79zM106 96v9h-8v-9h8zM106 260v-9h9v9h-9zM111 222zM131 25q7 1 10 2t6 4.5t1 10.5q-6 0 -12 4q1 -13 -5 -21zM161 21zM144 75zM136 63q-4 -3 -8.5 -1t-5.5 2t-4 3.5l-3 3.5q-9 -20 3 -26q11 -5 16 11zM98 789q-22 0 -37 15.5t-15 36.5q0 13 7 25
t19 19t26 7q13 0 25 -7t18.5 -19t6.5 -25q0 -21 -15 -36.5t-35 -15.5zM248 789q-21 0 -36 15.5t-15 36.5t15 36t36 15t36 -15t15 -36t-15 -36.5t-36 -15.5z" />
    <glyph glyph-name="Igrave" unicode="&#xcc;" horiz-adv-x="241" 
d="M114 272v424h90v-198q-1 -2 0 -3v-272q-11 5 -12 -5q7 -2 12 -4v-31q-2 1 -4 1q-2 -8 1 -8q2 1 3 2v-8q-3 2 -4 2q-1 -7 4 -14v-80q-1 -2 -4 -7t-4 -8q4 -3 8 -1v-66h-90v270l2 -2q33 31 9 33q0 -4 -2 -8.5t-5 -9.5t-4 -7zM183 364zM183 218zM183 201q-3 5 -10 2.5
t-6 -10.5q13 1 16 8zM162 247zM167 184zM171 226zM171 251zM175 314zM175 574q-3 0 -5 3t-4.5 5t-7.5 0q1 -3 0.5 -6.5t0.5 -6.5t3 -3q0 3 6.5 4t6.5 4zM162 427q0 -2 -1.5 -4t-3.5 -3t-3 -3.5t0 -5.5h13q-1 2 -1 4.5v5t-1 4.5t-3 2zM154 461zM137 515zM129 683zM129 670z
M133 561v3q0 4 -0.5 6t-2.5 3.5t-5 0.5q-1 -9 8 -13zM131 338q3 -1 5 -2q-2 1 -5 2q-1 1 -1.5 1h-0.5h0.5t1.5 -1zM133 369zM120 385q10 -8 18 7q9 17 -5 23q4 -13 -4 -19.5t-9 -10.5zM137 339zM125 260q-4 -8 4.5 -9.5t8.5 5.5q0 2 -1 4h-12zM136 111q-5 3 -9 6v-1
q3 -1 6 -3q1 -1 2 -1zM116 201zM125 180zM125 8zM137 75q0 2 1 3.5t2 2.5t1 3q-2 0 -4.5 2t-3.5 2q0 -2 -2 -4.5t-2 -4.5q2 0 5 -2zM141 545q0 -10 9 -13q0 10 -9 13zM146 302zM146 193zM146 239zM146 251zM154 364q-5 -7 5 -9q7 1 8 5q-3 0 -6 2.5t-7 1.5zM154 159z
M162 100zM162 29q10 -3 12 2t1 15q-8 2 -9 -7t-4 -10zM188 50zM183 180zM188 452zM200 696zM200 654zM196 612zM196 339zM202 778h-84l-82 65l69 60z" />
    <glyph glyph-name="Iacute" unicode="&#xcd;" horiz-adv-x="242" 
d="M36 272v424h89v-198v-3v-271q-10 4 -12 -6q7 -2 12 -4v-31q-1 1 -3 1q-2 -8 1 -8l2 2v-8q-2 2 -3 2q-2 -7 3 -14v-80q-1 -2 -2.5 -4.5t-2.5 -5.5t-2 -5q4 -3 7 -1v-66h-89v270l2 -2q33 31 8 33q1 -5 -4.5 -14.5t-5.5 -10.5zM118 339zM122 696zM122 654zM118 612zM52 338
q4 -1 5 -2q-2 1 -5 2l-1 1h0.5t0.5 -1zM55 369zM46 260q-3 -8 5.5 -9.5t8.5 5.5q0 2 -1 4h-13zM59 339zM58 111l-10 6q1 0 1 -1q3 -1 6 -3zM38 201zM46 180zM46 8zM67 193zM67 239zM76 159zM84 100zM84 247zM88 184zM84 29q7 -2 10 0t3 6.5v10.5q-8 2 -9.5 -7t-3.5 -10z
M109 50zM105 180zM109 452zM105 364zM105 218zM105 201q-4 5 -10.5 2.5t-6.5 -10.5q13 1 17 8zM93 226zM93 251zM97 314zM97 574q-4 0 -7.5 5t-9.5 3v-6.5t1 -6.5t3 -3q0 3 6 4t7 4zM84 427q0 -3 -5 -6.5t-3 -9.5h12v4.5v5t-1 4.5t-3 2zM76 461zM76 364q-5 -7 5 -9q7 1 7 5
q-2 0 -5 2.5t-7 1.5zM67 251zM67 302zM72 532q0 10 -9 13q0 -10 9 -13zM59 75q0 3 2 5t2 4q-2 0 -3 0.5t-2.5 2t-2.5 1.5q0 -2 -1 -3.5t-2 -2.5t-1 -3q2 0 4.5 -1.5t3.5 -2.5zM51 683zM51 670zM55 561v3q0 3 -0.5 4.5t-1 3.5t-2.5 2.5t-5 -0.5q0 -9 9 -13zM55 415
q3 -12 0.5 -15t-7.5 -6.5t-6 -8.5q10 -8 18 7q9 17 -5 23zM204 843l-82 -65h-85l97 125z" />
    <glyph glyph-name="Icircumflex" unicode="&#xce;" horiz-adv-x="330" 
d="M120 272v424h89v-198v-3v-271q-11 4 -12 -6q7 -2 12 -4v-31q-1 1 -3 1q-2 -8 1 -8l2 2v-8l-3 2q-2 -7 3 -14v-80q-1 -2 -4 -7t-4 -8q5 -3 8 -1v-66h-89v270q0 -1 2 -2q33 31 8 33q1 -5 -4.5 -14.5t-5.5 -10.5zM201 339zM206 696zM206 654zM201 612zM136 338q3 -1 5 -2
q-2 1 -5 2q-1 1 -2 1h1.5t0.5 -1zM138 369zM130 260q-4 -8 4.5 -9.5t9.5 5.5q0 2 -1 4h-13zM143 339zM142 111q-1 0 -5 2.5t-5 3.5l1 -1q3 -1 5.5 -3t3.5 -2zM122 201zM130 180zM130 8zM151 193zM151 239zM159 159zM168 100zM168 247zM172 184zM168 29q6 -2 9.5 0t3.5 6.5
t-1 10.5q-7 2 -8.5 -7t-3.5 -10zM180 117zM193 50zM189 180zM193 452zM189 364zM189 218zM189 201q-4 5 -10.5 2.5t-6.5 -10.5q13 1 17 8zM176 226zM176 251zM180 314zM180 574q-3 0 -6.5 5t-9.5 3q0 -3 -0.5 -6.5t0.5 -6.5t4 -3q0 3 6 4t6 4zM168 427q0 -3 -5 -6.5t-4 -9.5
h13v4.5v5t-1 4.5t-3 2zM159 461zM159 364q-4 -7 5 -9q7 1 8 5q-2 0 -5.5 2.5t-7.5 1.5zM151 251zM151 302zM155 532q1 10 -8 13q0 -10 8 -13zM143 75q0 2 0.5 3.5t2 2.5t1.5 3q-2 0 -4.5 2t-4.5 2q0 -2 -0.5 -3.5t-1.5 -2.5t-2 -3q3 0 5 -1.5t4 -2.5zM143 515zM134 683z
M134 670zM138 561v3v6t-2 3.5t-6 0.5q0 -9 8 -13zM138 415q3 -12 1 -15t-7.5 -6.5t-5.5 -8.5q9 -8 18 7q8 17 -6 23zM211 899l82 -117h-78l-51 61l-50 -61h-78l82 117h93z" />
    <glyph glyph-name="Idieresis" unicode="&#xcf;" horiz-adv-x="327" 
d="M118 272v424h89v-198v-3v-271q-11 4 -12 -6q7 -2 12 -4v-31q-1 1 -3 1q-2 -8 1 -8l2 2v-8q-2 2 -3 2q-2 -7 3 -14v-80q-1 -2 -2.5 -4.5t-3 -5.5l-2.5 -5q5 -3 8 -1v-66h-89v270l2 -2q33 31 8 33q1 -5 -4.5 -14.5t-5.5 -10.5zM200 339zM204 696zM204 654zM200 612z
M134 338q4 -2 5 -2q-2 1 -5 2q0 1 -0.5 1h-1.5h1.5t0.5 -1zM137 369zM128 260q-4 -8 4.5 -9.5t9.5 5.5q0 2 -1 4h-13zM141 339zM140 111q-6 3 -10 6l1 -1q3 -1 6 -3q1 -1 2 -1q0 -1 1 -1zM120 201zM128 180zM128 8zM149 193zM149 239zM158 159zM166 100zM166 247zM170 184z
M166 29q9 -3 11.5 2t1.5 15q-8 2 -9.5 -7t-3.5 -10zM179 117zM191 50zM187 180zM191 452zM187 364zM187 218zM187 201q-4 5 -10.5 2.5t-6.5 -10.5q13 1 17 8zM174 226zM174 251zM179 314zM179 574q-4 0 -7.5 5t-9.5 3v-6.5t0.5 -6.5t3.5 -3q0 3 6 4t7 4zM166 427
q0 -3 -5 -6.5t-3 -9.5h12v4.5v5t-1 4.5t-3 2zM158 461zM158 364q-5 -7 5 -9q7 1 7 5q-2 0 -5.5 2.5t-6.5 1.5zM149 251zM149 302zM153 532q1 10 -8 13q0 -10 8 -13zM141 75q0 3 2 5t2 4q-2 0 -4.5 2t-3.5 2q0 -2 -1 -3.5t-2 -2.5t-2 -3q3 0 5 -1.5t4 -2.5zM141 515zM132 683
zM132 670zM137 561v3q-1 4 -1 6t-2 3.5t-6 0.5q0 -9 9 -13zM137 415q4 -13 -4 -19.5t-9 -10.5q9 -8 18 7q8 17 -5 23zM138 841q0 -21 -15 -36.5t-35 -15.5q-22 0 -37 15.5t-15 36.5t15 36t37 15q13 0 25 -7t18.5 -19t6.5 -25zM238 892q21 0 36 -15t15 -36t-15 -36.5
t-36 -15.5t-36 15.5t-15 36.5t15 36t36 15z" />
    <glyph glyph-name="Eth" unicode="&#xd0;" horiz-adv-x="431" 
d="M394 419q-12 1 -9 -13q6 0 9 3v-53q-2 0 -3.5 2t-1.5 4.5t-0.5 5t-2.5 4t-5 1.5v-21q3 1 8 -1.5l5 -2.5v-135q0 -1 -1 -4q1 -3 -2 -10q-1 -2 -0.5 -1.5t2.5 3.5h1v-41q0 -56 -34 -100v3h-8v-9h4q-35 -41 -88 -53v3q-7 2 -10 -5q-14 -3 -28 -3h-10h-15q-1 2 -4 4
q-5 -2 -4 -4h-26h-90v17q2 2 2.5 4t-2.5 3v284h-45v84h45v262q2 0 2 -1q1 8 6.5 0.5t6.5 -0.5q-3 0 -5 1t-2.5 3.5t-0.5 5v5t-1 4.5t-4 2q3 -5 -2 -12v38h61v0q4 -1 8 0h21v-308h103v-84h-103v-233q9 -3 58 -3l1 -1l1 1q28 0 51 23t33 60q5 0 7 8q-3 0 -5 -1q4 20 4 41v183
q4 0 5.5 2.5t-4.5 5.5q0 -1 -0.5 -1.5l-0.5 -0.5v73h1q1 7 -1 12v23q0 38 -14 70q4 0 3 8h-4h-3q-5 10 -9 15q-26 39 -64 39q-9 0 -19 -4v71q9 1 19 1h13l-1 -1l1 1q31 -3 58 -16q0 -9 4 -10q3 3 4 6q20 -11 37 -28q7 -7 15 -16q-1 -2 1 -3q32 -43 32 -97v-113zM264 662
q-9 -4 -7 -11t11 -10q-4 5 -2 12t-2 9zM272 616zM310 616zM301 616q1 4 7.5 9t5.5 12q-5 1 -10.5 -3t-6.5 -9.5t4 -8.5zM318 549zM142 666v5.5v5t-1 4.5t-3 2v-5v-5.5t1 -4t3 -2.5zM138 465v-13q0 1 4.5 1t6 0.5t1.5 3.5q-3 0 -6.5 3.5t-5.5 4.5zM142 193zM121 549zM121 624
l-4 -2q1 1 4 2zM113 235zM113 427zM104 637zM104 520zM104 486q-4 5 -8.5 2.5t-3.5 -10.5q9 -1 12 8zM83 276v-16q10 3 15.5 -3t9.5 -6q0 3 0.5 5t1.5 3.5t1 2.5t-3 2q-4 -5 -6 -1t-7.5 9.5t-11.5 3.5zM83 50zM104 218q-6 1 -10 -1.5t-5 -5.5t-1 -10q16 1 16 17zM96 105z
M96 130zM100 46zM108 54zM121 151v6v6q-20 -1 -21 -21q5 -1 7 2.5t4.5 6t9.5 0.5zM125 29zM125 184zM138 256q-7 -6 -8 -15.5t8 -14.5q-2 5 -0.5 13t2.5 11.5t-2 5.5zM138 142zM142 100zM146 4zM150 33zM159 675zM163 214zM163 415zM163 624zM188 0q6 9 0 13q-7 5 -9 -4
q-1 -3 1 -9h8zM196 42q-1 4 0.5 9.5t0.5 10.5t-5 5l-3 -7t-9 -6q0 3 -2 3l-2 -3q2 -4 20 -12zM255 63q-1 -8 5 -6q3 1 9 5l11 5q-5 1 -4 8q-8 3 -11 -5.5t-10 -6.5zM276 21zM284 29zM280 54zM301 79zM305 38q1 -1 1 -3v-6t2 -3.5t6 -0.5q0 9 -9 13zM310 96zM314 117z
M385 473zM381 578zM381 532q-2 1 -2 -1q0 -10 6 -16q3 3 0.5 9.5t-4.5 7.5zM368 486q-7 2 -14 -1t-11 -3q2 -6 8.5 -13t8.5 -12q1 3 1.5 8.5t1.5 10.5t5 10zM360 394zM347 419zM331 138zM339 654zM339 608zM339 553zM339 440zM343 50zM343 159zM339 205q10 -2 12 7t-4 14
q-6 2 -7.5 -1t-0.5 -10t0 -10zM356 84zM356 138zM356 188zM364 264zM377 214zM377 255zM389 180v8h-8v-8h8zM381 306zM377 448q10 -1 11 6q1 5 -5 6q-1 1 -2 1q0 -6 -4 -13z" />
    <glyph glyph-name="Ntilde" unicode="&#xd1;" horiz-adv-x="408" 
d="M370 313q-1 9 -4 10q-5 0 -1 -7q2 -3 5 -6v-11q-3 -3 -3 -6q0 -1 3 -1v-256q-1 1 -3 1q-2 -9 1 -8q1 0 2 2v-25q-2 -3 -1 -5h-88l-10 30q0 5 -1 10h-3l-43 122q7 8 1 9q-2 1 -4 0l-21 59q2 6 9 -8q2 -5 3 -6q-2 6 3 9.5t5 7.5q-5 5 -22 4l-24 69v2h-1l-14 42q4 -4 7 -1
q2 1 -5 5q-3 -1 -3 -3l-33 94v-167l-1 1l1 -15v-149h-1q1 -7 -1.5 -8t-5.5 1.5t-6 3t-4 -4.5q3 -1 8.5 -4.5t9.5 -3.5v-43l-1 1q-3 -3 -15 -2t-27 -7q-3 -24 21 -29q6 4 -3 14.5t-1 14.5q1 -5 3.5 -7.5t4.5 -2.5t6 -0.5t7 -1.5q-4 7 5 14v-50h-64v7q-14 -1 -14 -7h-10h-1v44
q5 0 7.5 1.5t0.5 7.5q-4 0 -8 -1v35q2 -2 4 2t-2 5h-2v17h4v9h-4v128q1 -8 8 -7q0 10 -8 13v53q1 2 0 3v93q3 -2 4 -3q0 2 2 5t1.5 5t-3.5 3q0 -3 -4 -4v100q1 1 0 2v166h4v8h-4v11q2 -2 4 2v2h17q2 -5 8 -6v6h60l33 -94h-1v-9q2 -1 4 -1l21 -62q-8 -16 0 -16q-1 3 3 9
l43 -127q-3 -4 -3 -6.5t2 -3t4 0.5l50 -145v454h89v-388zM166 536zM153 502zM128 607zM115 691zM124 665q-4 2 -11.5 9t-13.5 8q1 -2 3 -7.5t3.5 -9t4 -7t5.5 -5.5q1 3 4.5 6.5t4.5 5.5zM73 154q-7 12 -3 11h2q7 0 10 2q-5 1 -4 8q-8 2 -15 -1t-10 -3q-1 -8 9 -11.5t11 -5.5
zM78 137h-6.5h-6.5v-8q1 -5 4 -4q1 2 2.5 4t3.5 4t3 4zM73 200q-7 5 -9 -5q1 -7 5 -7q0 2 2.5 5.5t1.5 6.5zM69 255zM78 531q0 -5 3 -7.5t9.5 -5t8.5 -3.5q-1 3 -0.5 6t2 6.5t2.5 6.5t0 5.5t-4 4.5q-1 -1 -2.5 -4.5t-2 -4.5t-2 -3t-2.5 -2.5t-3 -1t-4 0.5t-5 2zM90 573
q8 1 10.5 5.5t-1 9.5t-9.5 6v-21zM111 485q-1 -8 -10 -5.5t-11 -6.5q13 -13 21 -17q4 3 5 15t-5 14zM111 598zM99 640q-8 5 -9 -5q0 -7 4 -7q1 2 3 5.5t2 6.5zM86 678zM78 628zM69 611zM71 439q-1 0 -4 1h-2q-4 1 -5 1q1 0 5 -1l1.5 -0.5t2.5 -0.5h1.5h0.5zM53 389v-9h8v9
h-8zM57 460zM57 334zM57 280zM65 368zM61 557zM61 661q-14 1 -13 -12q5 -2 7 0.5t3 6.5t3 5zM57 234q4 -6 3 -9.5t-3 -4t-5 -4t-4 -7.5q4 0 8.5 -2.5t8.5 -2.5q9 11 -3 27q-4 5 -5 3zM44 179zM57 33zM73 54v12q-4 0 -8 -0.5t-5.5 -1t-4 0l-7.5 1.5q0 -4 2.5 -8.5t2.5 -8.5
q4 0 9 3t11 2zM73 96zM86 75v8h-8v-8h8zM82 418zM111 452q-2 -4 -9 -7t-10.5 -8t-1.5 -15q10 2 18 13t3 17zM103 150zM103 196zM103 66q0 6 4 13q-12 2 -11.5 -3.5t7.5 -9.5zM103 104q-2 1 -3 1q-2 1 -3 1l11 -9q6 -3 6 -1.5t-7 8.5h-2h-2zM94 351q17 -4 21 13
q-17 -3 -21 -13zM107 272q2 -6 2 -12.5t-1 -11.5t1.5 -9t10.5 -5q-3 4 -3 13.5t-1.5 16.5t-8.5 8zM120 192q5 11 5 16t-10 13q3 -7 2 -17t3 -12zM120 305zM124 485q11 -2 12 8q1 9 -8 9q-1 -2 -2.5 -4.5t-2 -5.5t0.5 -7zM141 439v9h-9v-9h9zM124 544q15 -2 17 8
q-2 0 -8.5 0.5t-8.5 -1t0 -7.5zM153 393zM153 406zM153 414q5 1 12 6t9 7q-5 0 -4 4h-9q3 -7 -4 -8.5t-4 -8.5zM178 477zM212 326zM187 431v-9h8v9h-8zM195 326q-12 1 -9 -12q3 -12 9 -13q3 0 4 4q-4 0 -4.5 4t0.5 9t0 8zM203 267zM212 288zM220 276zM220 339zM220 380z
M245 179zM363 557q-6 -16 0 -17q1 2 3 5l3 4.5t0 3.5t-6 4zM354 494q-8 5 -9 -5q1 -7 5 -8q0 2 2.5 5.5t1.5 7.5zM350 502q-2 7 1 15.5t3 14t-8 8.5q-5 -5 -5 -21t9 -17zM333 460zM350 661zM342 636q1 11 -6.5 11.5t-10.5 -7.5q3 0 6.5 -3.5t5.5 -4.5q1 5 5 4zM325 293z
M325 682zM321 561zM317 397zM308 129zM296 137q10 0 8 13h-8v-13zM308 171zM308 188zM304 552zM308 293q-11 2 -12 -8q1 -8 8 -9l2.5 5.5t1.5 11.5zM283 33zM287 62zM287 443zM296 510zM300 16zM296 54q8 0 14 9.5t-2 15.5q-1 -5 -6.5 -12t-5.5 -13zM312 104q12 11 -8 17
q1 -13 8 -17zM333 3q1 5 0 8.5t-3.5 5t-5 3.5t-3.5 4q-7 -6 -2 -13.5t14 -7.5zM329 79zM342 418zM354 213zM358 221q1 1 3.5 6.5t1.5 10.5q-9 5 -10 -7q1 -9 5 -10zM367 473zM158 824q-24 0 -32 -50l-58 30q10 48 31.5 73t52.5 25q21 0 37.5 -12t30.5 -24t28 -12q32 0 35 52
l56 -27q-21 -100 -86 -100q-14 0 -26.5 4.5t-21 11.5t-16.5 13.5t-15.5 11t-15.5 4.5z" />
    <glyph glyph-name="Ograve" unicode="&#xd2;" 
d="M307 420q-3 0 -14 7q-2 -5 3 -9t11 -4v-116q-1 -1 -2 -1q1 -1 2 -1v-53l-10 -5q2 -5 10 -2v-100q0 -48 -31 -85q-1 3 -4 3q-1 -5 -4 -5v-7q-40 -41 -97 -41q-29 0 -56 12q1 2 2 3q-5 2 -9 1q-14 7 -26 18l0.5 0.5t0.5 1.5h-3q-24 22 -35 53q1 2 1 5q-2 2 -4 2
q-6 19 -6 39v67q1 7 0 11v130q6 6 4 10q-1 2 -3 1q0 -1 -1 -2v83q2 3 0 7v32q2 3 1 10h-1v81q0 9 2 20v1q8 49 45.5 81.5t87.5 32.5q7 0 13 -1v-1q3 -1 6.5 -4.5t5.5 -3.5q2 3 -1 8q50 -9 82 -48q-5 3 -9.5 0t-3.5 -11q11 1 16 -4q2 5 0 10q27 -36 27 -80v-146zM276 422z
M280 238q11 -1 9 13h-9v-13zM280 217zM285 301v8h-9v-8h9zM268 406zM259 376q0 -3 1 -5.5t2 -4t2 -4.5t0 -7q-3 0 -3 -2l3 -2q15 7 -5 25zM264 427zM272 334q-13 5 -14 -9q-1 -15 9 -16q3 -1 5 0q0 5 -1 8.5t-1 5v4.5t2 7zM268 276q-19 2 -17 -13q18 -2 17 13zM247 385z
M255 360q-13 1 -12 -13q5 -1 7 1t3 6t2 6zM243 326q-9 -4 -2 -14q6 -8 10 1q-2 0 -3 2t-1.5 4.5t-1 4.5t-2.5 2zM234 351q-10 6 -13 -5q-2 -10 5 -12q0 2 5.5 5.5t2.5 11.5zM218 104zM234 326h-8v-8h8v8zM226 238zM247 209q-4 4 -10 3t-7 -8q3 0 7.5 -1.5t6 -0.5t3.5 7z
M238 297zM234 569zM192 615zM138 678zM121 175zM100 431q-2 -14 8 -23q5 -4 9 2q-3 1 -5 12.5t-12 8.5zM117 569zM117 468zM113 544q-1 -1 -8 -6.5t-5 -14.5q13 -6 15 13q0 7 -2 8zM109 649q-4 1 -6.5 -0.5t-3 -3.5t-1.5 -5t-2 -4q14 -1 13 13zM92 489v-8v-8q9 -1 11 8
q2 8 -7 9q-2 0 -4 -1zM92 448zM79 167q7 -3 12 5q4 6 -3 7q-1 -3 -4.5 -6.5t-4.5 -5.5zM79 196zM83 607zM71 502q-1 -20 8 -21q0 2 -1 7.5t-2.5 8.5t-4.5 5zM75 468zM88 443q-3 17 -14 11.5t-6 -16.5l3 -3q4 9 5 10t12 -2zM79 427q-9 0 -12 -9h2q4 0 6 0.5t3.5 2.5t0.5 6z
M58 569zM62 506q-7 5 -9 -5q1 -7 5 -7q0 2 1.5 3.5t2.5 3.5t0 5zM37 230zM37 544q0 -10 9 -13v3q-1 4 -1 6t-2 3.5t-6 0.5zM50 452q0 -12 -4 -17h12q-1 13 -8 17zM54 175zM67 154zM62 330q0 2 1 3.5t2 2.5t2 3q-3 0 -5 1.5t-4 2.5q0 -3 -2 -5t-2 -4q2 0 4.5 -1.5t3.5 -2.5z
M62 355q-1 -11 8.5 -11.5t12.5 7.5q-12 -2 -21 4zM71 121q10 -1 8 12h-8v-12zM79 142h9v8h-9v-8zM92 121q3 1 3 6t-3 6q-6 2 -7 -5q1 -8 7 -7zM96 200q3 2 5.5 0.5t4.5 -3.5t4 -1.5t3 4.5q-5 2 -2 11.5t-7 9.5q4 -8 -2.5 -11.5t-5.5 -9.5zM113 41v8h-9v-8h9zM117 154v9h-8
v-9h8zM125 116zM129 66zM142 24zM146 54zM155 79q-6 -7 -2 -10q6 -4 9 5l1 5h-8zM167 37q-1 3 1.5 8t3.5 7.5t-5 5.5q-3 -3 -4.5 -11t4.5 -10zM180 8v8h-9v-8h9zM188 37v6v6h-3.5h-4t-3 -1t-1.5 -3q2 0 4.5 -4.5t7.5 -3.5zM176 83q-1 3 1.5 4t6 0.5t5 1t-0.5 7.5h-2
q12 11 20 36.5t8 58.5v103l-1 1h1v90q9 2 12 8q-8 1 -12 -2v120q0 15 -3 31q2 6 -2 13q-5 26 -15 41.5t-23 15.5q-17 0 -29.5 -29t-12.5 -71v-0.5v-0.5v-49q-5 -9 0 -10v-62v-3v-139v-3v-54q0 -54 19 -84q-1 0 -2 1q0 -7 3 -9.5t7 -1.5q8 -7 15 -7h2h1q-4 -7 2 -7zM213 37
q8 -4 10 8q1 15 -5 17q1 -7 -2 -14t-3 -11zM226 200q-9 -7 -1 -14q6 -5 9 4v2q-3 0 -4.5 4t-3.5 4zM230 121q-10 -6 1 -12q8 -3 12 3q-4 0 -6 1.5t-3.5 4t-3.5 3.5zM247 24q0 2 2.5 5.5t1.5 7.5q-8 5 -9 -5q0 -7 5 -8zM243 58q7 -1 10 3.5t2 13.5q-7 2 -8.5 -7t-3.5 -10z
M255 213q3 5 4.5 2.5t5.5 -7t7 -4.5q0 5 -2 9.5t-2 7.5q-9 4 -15 -3q-4 -4 2 -5zM268 167zM272 255q12 -1 12 29h1h-1q-5 -1 -7 -6.5t-2.5 -12.5t-2.5 -10zM276 70zM280 129zM293 175q3 7 2 13.5t-10 7.5q-2 -20 8 -21zM297 200q3 1 3.5 6.5t-3.5 6.5q-6 2 -7 -5q1 -8 7 -8z
M301 406zM305 322q-3 3 -11.5 1.5t-13.5 -5.5q6 -8 13.5 -6.5t11.5 10.5zM289 339zM297 376zM289 410zM301 510zM215 778h-85l-82 65l70 60z" />
    <glyph glyph-name="Oacute" unicode="&#xd3;" 
d="M307 420q-3 0 -14 7q-2 -5 3 -9t11 -4v-116q-1 -1 -2 -1q1 -1 2 -1v-53l-10 -5q2 -5 10 -2v-100q0 -48 -31 -85q-1 3 -4 3q-1 -5 -4 -5v-7q-40 -41 -97 -41q-29 0 -56 12q1 2 2 3q-5 2 -9 1q-14 7 -26 18l0.5 0.5t0.5 1.5h-3q-24 22 -35 53q1 2 1 5q-2 2 -4 2
q-6 19 -6 39v67q1 7 0 11v130q6 6 4 10q-1 2 -3 1q0 -1 -1 -2v83q2 3 0 7v32q2 3 1 10h-1v81q0 9 2 20v1q8 49 45.5 81.5t87.5 32.5q7 0 13 -1v-1q3 -1 6.5 -4.5t5.5 -3.5q2 3 -1 8q50 -9 82 -48q-5 3 -9.5 0t-3.5 -11q11 1 16 -4q2 5 0 10q27 -36 27 -80v-146zM276 422z
M280 238q11 -1 9 13h-9v-13zM280 217zM285 301v8h-9v-8h9zM268 406zM259 376q0 -3 1 -5.5t2 -4t2 -4.5t0 -7q-3 0 -3 -2l3 -2q15 7 -5 25zM264 427zM272 334q-13 5 -14 -9q-1 -15 9 -16q3 -1 5 0q0 5 -1 8.5t-1 5v4.5t2 7zM268 276q-19 2 -17 -13q18 -2 17 13zM247 385z
M255 360q-13 1 -12 -13q5 -1 7 1t3 6t2 6zM243 326q-9 -4 -2 -14q6 -8 10 1q-4 0 -4.5 6.5t-3.5 6.5zM234 351q-10 6 -13 -5q-2 -10 5 -12q0 2 5.5 5.5t2.5 11.5zM218 104zM234 326h-8v-8h8v8zM226 238zM247 209q-4 4 -10 3t-7 -8q3 0 7.5 -1.5t6 -0.5t3.5 7zM238 297z
M234 569zM192 615zM138 678zM121 175zM100 431q-2 -14 8 -23q5 -4 9 2q-3 1 -5 12.5t-12 8.5zM117 569zM117 468zM113 544q-1 -1 -8 -6.5t-5 -14.5q13 -6 15 13q0 7 -2 8zM109 649q-5 1 -7.5 -1t-3.5 -6.5t-2 -5.5q14 -1 13 13zM92 489v-8v-8q9 -1 11 8q2 8 -7 9q-2 0 -4 -1
zM92 448zM79 167q7 -3 12 5q4 6 -3 7q-1 -3 -4.5 -6.5t-4.5 -5.5zM79 196zM83 607zM71 502q-1 -20 8 -21q0 2 -1 7.5t-2.5 8.5t-4.5 5zM75 468zM88 443q-3 17 -14 11.5t-6 -16.5l3 -3q4 9 5 10t12 -2zM79 427q-9 0 -12 -9h2q4 0 6 0.5t3.5 2.5t0.5 6zM58 569zM62 506
q-7 5 -9 -5q1 -7 5 -7q0 2 1.5 3.5t2.5 3.5t0 5zM37 230zM37 544q0 -10 9 -13v3q-1 4 -1 6t-2 3.5t-6 0.5zM50 452q0 -12 -4 -17h12q-1 13 -8 17zM54 175zM67 154zM62 330q0 2 1 3.5t2 2.5t2 3q-2 0 -3.5 0.5t-2.5 1.5t-3 2q0 -3 -2 -5t-2 -4q2 0 4.5 -1.5t3.5 -2.5zM62 355
q-1 -11 8.5 -11.5t12.5 7.5q-12 -2 -21 4zM71 121q10 -1 8 12h-8v-12zM79 142h9v8h-9v-8zM92 121q3 1 3 6t-3 6q-6 2 -7 -5q1 -8 7 -7zM96 200q2 2 5 0.5t5 -3.5t4 -1.5t3 4.5q-5 2 -2 11.5t-7 9.5q4 -8 -2.5 -11.5t-5.5 -9.5zM113 41v8h-9v-8h9zM117 154v9h-8v-9h8z
M125 116zM129 66zM142 24zM146 54zM155 79q-6 -7 -2 -10q6 -4 9 5l1 5h-8zM167 37q-1 3 1.5 8t3.5 7.5t-5 5.5q-3 -3 -4.5 -11t4.5 -10zM180 8v8h-9v-8h9zM188 37v6v6h-3.5h-4t-3 -1t-1.5 -3q2 0 4.5 -4.5t7.5 -3.5zM176 83q-1 3 1.5 4t6 0.5t5.5 1t-1 7.5h-2q12 11 20 36.5
t8 58.5v103v1v90q9 2 12 8q-8 1 -12 -2v120q0 15 -3 31q2 6 -2 13q-5 26 -15 41.5t-23 15.5q-17 0 -29.5 -29t-12.5 -71v-0.5v-0.5v-49q-5 -9 0 -10v-62v-3v-139v-3v-54q0 -54 19 -84q-1 0 -2 1q0 -7 3 -9.5t7 -1.5q8 -7 15 -7h2h1q-4 -7 2 -7zM213 37q8 -4 10 8q1 15 -5 17
q1 -7 -2 -14t-3 -11zM226 200q-9 -7 -1 -14q6 -5 9 4v2q-3 0 -4.5 4t-3.5 4zM230 121q-10 -6 1 -12q8 -3 12 3q-4 0 -6 1.5t-4 4t-3 3.5zM247 24q0 2 2.5 5.5t1.5 7.5q-8 5 -9 -5q0 -7 5 -8zM243 58q7 -1 10 3.5t2 13.5q-7 2 -8.5 -7t-3.5 -10zM255 213q3 5 4.5 2.5t5.5 -7
t7 -4.5q0 5 -2 9.5t-2 7.5q-9 4 -15 -3q-4 -4 2 -5zM268 167zM272 255q12 -1 12 29h1h-1q-5 -1 -7 -6.5t-2.5 -12.5t-2.5 -10zM276 70zM280 129zM293 175q3 7 2 13.5t-10 7.5q-2 -20 8 -21zM297 200q3 1 3.5 6.5t-3.5 6.5q-6 2 -7 -5q1 -8 7 -8zM301 406zM305 322
q-3 3 -11.5 1.5t-13.5 -5.5q6 -8 13.5 -6.5t11.5 10.5zM289 339zM297 376zM289 410zM301 510zM294 843l-82 -65h-84l97 125z" />
    </font>
</defs>
</svg>
