<?xml version="1.0" standalone="no"?>
<!DOCTYPE svg PUBLIC "-//W3C//DTD SVG 1.1//EN" "http://www.w3.org/Graphics/SVG/1.1/DTD/svg11.dtd" >
<svg xmlns="http://www.w3.org/2000/svg" xmlns:xlink="http://www.w3.org/1999/xlink" version="1.1">
<metadata>
Created by FontForge 20170731 at Fri Jun 28 13:01:09 2019
 By Aleksey,,,
(c) Edri Studio
</metadata>
<defs>
<font id="ONNICRegular" horiz-adv-x="346" >
  <font-face 
    font-family="ONNIC"
    font-weight="400"
    font-stretch="normal"
    units-per-em="1000"
    panose-1="0 0 0 0 0 0 0 0 0 0"
    ascent="800"
    descent="-200"
    x-height="613"
    cap-height="700"
    bbox="14 -198 708.25 960"
    underline-thickness="50"
    underline-position="-200"
    unicode-range="U+000A-2265"
  />
<missing-glyph horiz-adv-x="527" 
d="M50 700h427v-700h-427v700zM78 680l185 -309l186 309h-371zM251 350l-180 300v-601zM264 329l-185 -308h370zM276 350l181 -303v605z" />
    <glyph glyph-name=".notdef" horiz-adv-x="527" 
d="M50 700h427v-700h-427v700zM78 680l185 -309l186 309h-371zM251 350l-180 300v-601zM264 329l-185 -308h370zM276 350l181 -303v605z" />
    <glyph glyph-name=".null" horiz-adv-x="0" 
 />
    <glyph glyph-name=".null" horiz-adv-x="0" 
 />
    <glyph glyph-name="nonmarkingreturn" horiz-adv-x="333" 
 />
    <glyph glyph-name="controlLF" unicode="&#xa;" horiz-adv-x="0" 
 />
    <glyph glyph-name="controlCR" unicode="&#xd;" horiz-adv-x="0" 
 />
    <glyph glyph-name="space" unicode=" " horiz-adv-x="205" 
 />
    <glyph glyph-name="exclam" unicode="!" horiz-adv-x="151" 
d="M114 114h-78v582h78v-582zM114 0h-78v76h78v-76z" />
    <glyph glyph-name="quotedbl" unicode="&#x22;" horiz-adv-x="131" 
d="M43 660v40h20v-53h-27zM75 700h20v-53h-27q2 1 4 4.5t2 6.5l1 2v40z" />
    <glyph glyph-name="quotedbl" unicode="&#x201d;" horiz-adv-x="131" 
d="M43 660v40h20v-53h-27zM75 700h20v-53h-27q2 1 4 4.5t2 6.5l1 2v40z" />
    <glyph glyph-name="quotedbl" unicode="&#x201c;" horiz-adv-x="131" 
d="M43 660v40h20v-53h-27zM75 700h20v-53h-27q2 1 4 4.5t2 6.5l1 2v40z" />
    <glyph glyph-name="numbersign" unicode="#" horiz-adv-x="420" 
d="M383 549h-36v-405h36v-59h-36v-85h-60v85h-132v-85h-60v85h-59v59h59v405h-59v60h59v91h60v-91h132v91h60v-91h36v-60zM287 144v405h-132v-405h132z" />
    <glyph glyph-name="dollar" unicode="$" horiz-adv-x="307" 
d="M246 351q24 -36 24 -83v-98q0 -46 -24 -82t-60 -47v-41h-65v44q-33 14 -54 48.5t-21 77.5v53h67v-27q0 -26 14 -45t33.5 -19t33.5 19t14 45v48q0 31 -18 50q-13 14 -30 14q-5 0 -14 -2t-21 -1q-46 2 -64 30q-25 36 -25 83v98q0 41 19.5 75t51.5 48v59h65v-52
q36 -9 60.5 -42t27.5 -77q1 -5 1 -11v-45h-67v21q0 20 -8 35q-14 29 -40 29q-20 0 -34 -19t-14 -45v-48q0 -33 20 -52q12 -12 28 -12q4 0 19 2t23 0q22 -2 34 -8t24 -23z" />
    <glyph glyph-name="percent" unicode="%" horiz-adv-x="412" 
d="M98.5 477q-17.5 0 -30 12.5t-12.5 29.5v137q0 17 12.5 29.5t30 12.5t30 -12.5t12.5 -29.5v-137q0 -17 -12.5 -29.5t-30 -12.5zM79 637v-99q0 -13 5.5 -22.5t14 -9.5t14 9.5t5.5 22.5v99q0 7 -1.5 12.5t-4 10t-6.5 7t-8 2.5q-8 0 -13.5 -9.5t-5.5 -22.5zM332 222
q18 0 30.5 -12.5t12.5 -30.5v-136q0 -18 -12.5 -30.5t-30.5 -12.5t-30.5 12.5t-12.5 30.5v136q0 18 12.5 30.5t30.5 12.5zM352 61v100q0 8 -2.5 15.5t-7 11.5t-10.5 4q-8 0 -13.5 -9t-5.5 -22v-100q0 -13 5.5 -22t13.5 -9t14 9t6 22zM290 698h73l-254 -698h-73z" />
    <glyph glyph-name="ampersand" unicode="&#x26;" horiz-adv-x="503" 
d="M383 135q9 -13 84 -118h-79q-18 24 -47 66q-63 -77 -149 -77q-71 0 -113.5 54.5t-42.5 133.5q0 108 76 177l29 -51q-42 -48 -42 -113q0 -58 29.5 -96.5t74.5 -38.5q63 0 105 60q-93 136 -143 212l-41 71q-31 60 -31 119q0 66 34.5 116t94.5 50q49 0 81 -39.5t32 -103.5
q0 -96 -89 -163l-29 48q60 52 60 111q0 35 -15 61t-44 26q-16 0 -28 -8t-20 -21.5t-12 -31t-4 -37.5q0 -44 21 -88l60 -98q80 -122 112 -169q2 5 10 21t10 20.5t8 17.5t9 23t7.5 25.5t8.5 34.5l45 -17q-11 -58 -17.5 -83t-15.5 -43.5t-29 -50.5z" />
    <glyph glyph-name="quotesingle" unicode="'" horiz-adv-x="99" 
d="M43 700h20v-53h-27q2 1 4 4.5t3 6.5v2v40z" />
    <glyph glyph-name="quotesingle" unicode="&#x2019;" horiz-adv-x="99" 
d="M43 700h20v-53h-27q2 1 4 4.5t3 6.5v2v40z" />
    <glyph glyph-name="quotesingle" unicode="&#x2018;" horiz-adv-x="99" 
d="M43 700h20v-53h-27q2 1 4 4.5t3 6.5v2v40z" />
    <glyph glyph-name="parenleft" unicode="(" horiz-adv-x="311" 
d="M76 379.5q0 -65.5 17.5 -129.5t39.5 -105.5t50 -79.5t39.5 -49.5t18.5 -17.5h-32q-7 6 -19 17t-41.5 49.5t-52.5 80t-41.5 105.5t-18.5 129.5t21.5 122.5t51.5 91.5t60.5 59.5t51.5 36l21 10h33q-8 -3 -21.5 -10.5t-48 -35t-60.5 -60.5t-47.5 -90.5t-21.5 -123z" />
    <glyph glyph-name="parenright" unicode=")" horiz-adv-x="311" 
d="M68 699q5 -2 12 -5.5t28.5 -17t41 -29.5t43.5 -43.5t41 -58.5t29 -74.5t12 -91.5q0 -65 -18 -128.5t-43.5 -107t-50.5 -78t-43 -51.5l-18 -16h-32q3 3 9 8.5t23.5 25.5t33 42t34.5 57t32.5 71t23 83t9.5 94.5t-11 91t-28.5 74.5t-38.5 58t-42.5 44t-39 29.5t-28.5 17.5
l-11 5h32z" />
    <glyph glyph-name="asterisk" unicode="*" horiz-adv-x="194" 
d="M158 615v-24h-42l28 -49h-24l-11 19v-19h-24v19l-11 -19h-24l28 49h-42v24h42l-28 49h24l11 -19v19h24v-19l11 19h24l-28 -49h42z" />
    <glyph glyph-name="plus" unicode="+" horiz-adv-x="403" 
d="M226 328h140v-49h-140v-141h-50v141h-140v49h140v141h50v-141z" />
    <glyph glyph-name="comma" unicode="," horiz-adv-x="151" 
d="M36 106h78v-67l-2.5 -5t-7.5 -10t-13.5 -12.5t-20.5 -9t-28 -2.5q4 2 7.5 5t3 13t-16.5 21v67z" />
    <glyph glyph-name="hyphen" unicode="-" horiz-adv-x="403" 
d="M366 279h-330v49h330v-49z" />
    <glyph glyph-name="period" unicode="." horiz-adv-x="151" 
d="M114 0h-78v67h78v-67z" />
    <glyph glyph-name="slash" unicode="/" horiz-adv-x="400" 
d="M290 697h73l-254 -698h-73z" />
    <glyph glyph-name="zero" unicode="0" horiz-adv-x="330" 
d="M164.5 700q53.5 0 91 -42.5t37.5 -102.5v-407q0 -60 -37.5 -102.5t-91 -42.5t-91 42.5t-37.5 102.5v407q0 60 37.5 102.5t91 42.5zM113 511v-212l96 265q-6 25 -18 40t-26 15q-22 0 -37 -31.5t-15 -76.5zM216 210v194l-93 -256q15 -45 42 -45q14 0 25.5 14t18.5 39t7 54z
" />
    <glyph glyph-name="one" unicode="1" horiz-adv-x="281" 
d="M243 702l2 -4v-696h-90v548l-30 -52h-89l118 204h89z" />
    <glyph glyph-name="two" unicode="2" horiz-adv-x="374" 
d="M253 307l-121 -210h205v-85h-301v85l119 206l43 75l1 1l38 66l7 12q7 16 7 34v60q0 26 -13 45t-31.5 19t-31.5 -19t-13 -45v-28h-102v40q0 58 41 98.5t98 40.5t98 -41q40 -40 40 -98q3 -82 -4 -108q-5 -18 -25 -55t-38 -65z" />
    <glyph glyph-name="three" unicode="3" horiz-adv-x="356" 
d="M281 389q38 -48 38 -116v-103q0 -70 -39 -119t-94.5 -49t-95 49t-39.5 119v75h89v-45q0 -30 13 -50.5t32 -20.5t32 20.5t13 50.5v43q0 30 -13 51t-32 21q-60 0 -70 -5v144q7 -4 55 -4q19 0 32.5 18.5t13.5 44.5v39q0 26 -13.5 44t-32.5 18q-16 0 -29 -14.5t-15 -36.5h-90
q0 41 18 75t49 53.5t67 19.5q56 0 95 -43t39 -105v-91q0 -46 -23 -83z" />
    <glyph glyph-name="four" unicode="4" horiz-adv-x="338" 
d="M302 700v-9v-8v-680h-73v286q-28 -18 -60 -18q-55 0 -94 48t-39 116v210v55h94l-1 -199q0 -59 14.5 -101t35.5 -42t35.5 42t14.5 101v182q0 2 0.5 5.5t0.5 6.5t-1 5h73z" />
    <glyph glyph-name="five" unicode="5" horiz-adv-x="321" 
d="M284 619h-172v-104q23 10 48 10q52 0 88 -36.5t36 -87.5v-275q0 -51 -36 -87.5t-87.5 -36.5t-88 36.5t-36.5 87.5v113h75v-75q0 -37 14.5 -63.5t35 -26.5t35 26.5t14.5 63.5v199q0 37 -14.5 63t-35.5 26q-17 0 -30.5 -19.5t-17.5 -49.5h-76v318h248v-82z" />
    <glyph glyph-name="six" unicode="6" horiz-adv-x="334" 
d="M168 621q-21 0 -35.5 -29.5t-14.5 -70.5v-67q24 10 49 10q54 0 92.5 -38.5t38.5 -92.5v-195q0 -54 -38.5 -92.5t-92.5 -38.5t-92.5 38t-38.5 93v438q0 54 38.5 92.5t92.5 38.5t92.5 -38.5t38.5 -92.5v-15h-85q-6 27 -18 43.5t-27 16.5zM167 391q-13 0 -23.5 -10.5
t-17.5 -29.5t-8 -41v-125q0 -27 6.5 -51t18 -39t24.5 -15q20 0 34.5 26t14.5 63v133q0 37 -14.5 63t-34.5 26z" />
    <glyph glyph-name="seven" unicode="7" horiz-adv-x="360" 
d="M301 415l23 -63h-74l-61 -350h-89l62 350h-45l-23 63h79l34 195h-171v92h276l-16 -92l-34 -195h39z" />
    <glyph glyph-name="eight" unicode="8" 
d="M309 564v-91q0 -55 -39 -94q28 -45 28 -104v-117q0 -70 -38 -119t-92.5 -49t-93 49t-38.5 119v117q0 69 38 118q-27 36 -27 80v91q0 55 38.5 93.5t92.5 38.5t92.5 -38.5t38.5 -93.5zM213 198v51q0 31 -13 52.5t-31.5 21.5t-32 -21.5t-13.5 -52.5v-51q0 -31 13.5 -52.5
t32 -21.5t31.5 21.5t13 52.5zM224 504v40q0 24 -13 41t-32 17t-32 -17t-13 -41v-40q0 -24 13 -41t32 -17t32 17t13 41z" />
    <glyph glyph-name="nine" unicode="9" horiz-adv-x="338" 
d="M169 698q55 0 94 -38.5t39 -94.5v-445q0 -55 -39 -94t-94 -39t-94 39t-39 94v16h86q4 -18 10.5 -32t16 -21.5t19.5 -7.5t19.5 8t16 21.5t10.5 32.5t4 39v68q-24 -10 -49 -10q-55 0 -94 39t-39 94v198q0 56 39 94.5t94 38.5zM218 391v127q0 42 -14.5 74t-34.5 33
q-21 0 -35.5 -27t-14.5 -64v-136q0 -37 14.5 -63.5t35.5 -26.5q19 0 33.5 24t15.5 59z" />
    <glyph glyph-name="colon" unicode=":" horiz-adv-x="151" 
d="M114 409h-78v67h78v-67zM114 241h-78v67h78v-67z" />
    <glyph glyph-name="semicolon" unicode=";" horiz-adv-x="151" 
d="M114 409h-78v67h78v-67zM36 260v67h78v-67l-2.5 -5t-7.5 -10t-13.5 -12.5t-20.5 -9t-28 -1.5q4 1 7.5 4t3 13t-16.5 21z" />
    <glyph glyph-name="less" unicode="&#x3c;" horiz-adv-x="390" 
d="M354 523l-220 -191l220 -169l-70 1l-248 168l248 191h70z" />
    <glyph glyph-name="equal" unicode="=" horiz-adv-x="395" 
d="M358 345h-322v43h322v-43zM358 266h-322v43h322v-43z" />
    <glyph glyph-name="greater" unicode="&#x3e;" horiz-adv-x="390" 
d="M105 523l249 -191l-249 -168l-69 -1l220 169l-220 191h69z" />
    <glyph glyph-name="question" unicode="?" horiz-adv-x="338" 
d="M169 686q55 0 94 -39t39 -94v-200q0 -52 -35.5 -90.5t-87.5 -41.5v-117h-78v196h78q29 8 29 33v231q0 16 -11.5 28t-27.5 12q-11 0 -20 -5.5t-14 -14.5t-5 -20v-58h-94v47q0 55 39 94t94 39zM179 0h-78v67h78v-67z" />
    <glyph glyph-name="at" unicode="@" horiz-adv-x="744" 
d="M617 621q50 -61 72.5 -123.5t18 -115t-26.5 -98t-60 -76t-85 -43.5q-41 -11 -62.5 15t-26.5 79l-7 -8q-60 -59 -131.5 -71t-113.5 30t-29.5 113.5t72.5 130.5q55 55 121.5 70t109.5 -17l2 9l64 -12q-12 -43 -21 -81q-10 -36 -16 -88q-15 -121 38 -123q11 0 19 4
q3 1 8.5 4.5t19.5 16t25 28t21.5 42.5t13.5 57.5t-5 74t-28 92.5q-29 69 -96.5 100t-144 16.5t-146 -56t-108 -124t-24.5 -182.5q9 -60 28 -106.5t44.5 -73t56 -43.5t62.5 -21.5t63 -4t58 6.5t48 12t33 11l12 6l16 -38q-18 -12 -51 -21.5t-76.5 -13t-90 1t-92 24.5t-81.5 52
t-59.5 89t-25.5 132q-2 87 28.5 163t81 126.5t116 82t130 37.5t125 -16t100.5 -70zM385 306q27 27 33 60t-13 52.5t-52 13.5t-60.5 -33t-33 -59.5t13.5 -52t52 -14t60 32.5z" />
    <glyph glyph-name="A" unicode="A" horiz-adv-x="431" 
d="M271 700l124 -700h-90l-11 62h-158l-11 -62h-89l123 700h112zM145 152h140l-70 358z" />
    <glyph glyph-name="B" unicode="B" horiz-adv-x="342" 
d="M305 485q0 -17 -4 -33t-11 -30t-17.5 -26t-23.5 -21q26 -21 41 -54.5t15 -71.5v-92q0 -38 -7 -66t-18.5 -45t-29.5 -27t-36.5 -14t-42.5 -4q-7 0 -21.5 -0.5t-24.5 -0.5h-89v700h89v-251q18 -30 46 -30q16 0 29.5 11t21 29.5t7.5 41.5v48q0 34 -17 58t-41 24h-5v69h2h3
q56 0 95 -39.5t39 -95.5v-80zM229 175v56q0 39 -17 66.5t-41 27.5q-28 0 -46 -35v-174q18 -35 46 -35q24 0 41 27.5t17 66.5z" />
    <glyph glyph-name="C" unicode="C" 
d="M309 563v-64h-87v27q0 44 -15 74.5t-36 30.5t-35.5 -30.5t-14.5 -74.5v-327q0 -12 1 -24t3.5 -22t6 -19t8 -16.5t9.5 -12.5t10.5 -7.5t11.5 -2.5q21 0 36 30.5t15 73.5v12h87v-74q0 -57 -40 -97t-96.5 -40t-96.5 40t-40 97v426q0 57 40 97t97 40q37 0 68.5 -18.5
t49.5 -49.5t18 -69z" />
    <glyph glyph-name="D" unicode="D" horiz-adv-x="386" 
d="M301 652q48 -48 48 -116v-372q0 -68 -48 -116t-116 -48h-60h-89v700h89v-625q11 -3 60 -3q38 0 64.5 38.5t26.5 92.5v297q0 55 -26.5 93.5t-64.5 38.5q-10 0 -20 -4v71q10 1 20 1q68 0 116 -48z" />
    <glyph glyph-name="E" unicode="E" 
d="M309 618h-184v-227h96l30 -82h-126v-227h184v-82h-273v700h273v-82z" />
    <glyph glyph-name="F" unicode="F" horiz-adv-x="391" 
d="M355 620h-173v-215h116l30 -80h-146v-325h-90v325h-27l-29 80h56v295h263v-80z" />
    <glyph glyph-name="G" unicode="G" horiz-adv-x="392" 
d="M308 368h48v-77h-48v-155q0 -56 -40 -96t-96 -40t-96 40t-40 96v428q0 56 40 96t96 40q27 0 52.5 -11t43.5 -29t29 -43t11 -53v-43h-93q0 44 -14.5 75.5t-35.5 31.5t-36 -31.5t-15 -75.5v-338q0 -44 15 -75.5t36 -31.5t35.5 31.5t14.5 75.5v108h-56v77h149z" />
    <glyph glyph-name="H" unicode="H" horiz-adv-x="351" 
d="M226 700h89v-700h-89v195h-101v-195h-89v700h89v-430h101v430z" />
    <glyph glyph-name="I" unicode="I" horiz-adv-x="162" 
d="M125 0h-89v700h89v-700z" />
    <glyph glyph-name="J" unicode="J" horiz-adv-x="374" 
d="M337 699q-1 0 -0.5 -20t0.5 -21v-518q0 -56 -45 -97.5t-97 -41.5h-11.5h-12h-11t-12 1t-11 2.5t-12 3.5t-10.5 5t-11.5 7t-10.5 9q-57 54 -57 110v8l90 1q4 -12 10 -24q18 -36 43.5 -36t43.5 36t18 87v454v34h96z" />
    <glyph glyph-name="K" unicode="K" horiz-adv-x="412" 
d="M162 370l214 -370h-90l-161 279v-279h-89v700h89v-239l139 239h89z" />
    <glyph glyph-name="L" unicode="L" horiz-adv-x="326" 
d="M125 86h164v-86h-253v700h89v-614z" />
    <glyph glyph-name="M" unicode="M" horiz-adv-x="485" 
d="M310 700h138v-700h-89v513l-77 -400h-82l-75 394v-507h-89v700h136l69 -392z" />
    <glyph glyph-name="N" unicode="N" horiz-adv-x="407" 
d="M281 700h89v-700h-89l-156 444v-444h-89v700h89l156 -454v454z" />
    <glyph glyph-name="O" unicode="O" horiz-adv-x="343" 
d="M171 700q37 0 68 -18t49.5 -49.5t18.5 -67.5v-430q0 -56 -40 -95.5t-96 -39.5t-95.5 39.5t-39.5 95.5v430q0 56 39.5 95.5t95.5 39.5zM213 190v320q0 42 -12 71.5t-29.5 29.5t-30 -29.5t-12.5 -71.5v-320q0 -42 12.5 -71.5t30 -29.5t29.5 29.5t12 71.5z" />
    <glyph glyph-name="P" unicode="P" horiz-adv-x="362" 
d="M181 700q60 0 102 -42.5t42 -102.5v-119q0 -60 -42 -102.5t-102 -42.5q-29 0 -56 11v-302h-89v700h88l1 -149v-130q9 -19 23.5 -31t32.5 -12q13 0 24.5 6.5t20 18t13.5 26.5t5 32v69q0 35 -18.5 59t-44.5 24q-12 0 -24 -6v91q13 2 24 2z" />
    <glyph glyph-name="Q" unicode="Q" horiz-adv-x="356" 
d="M285 62l64 -112h-89l-35 61q-26 -11 -54 -11q-56 0 -95.5 39.5t-39.5 95.5v430q0 56 39.5 95.5t95.5 39.5t96 -39.5t40 -95.5v-430q0 -40 -22 -73zM213 190v320q0 42 -12 71.5t-29.5 29.5t-30 -29.5t-12.5 -71.5v-320q0 -42 12.5 -71.5t29.5 -29.5q4 0 8 2q11 4 20 23
q14 30 14 76z" />
    <glyph glyph-name="R" unicode="R" horiz-adv-x="398" 
d="M249 309l112 -309h-89l-108 299q-6 1 -13 1t-13 0.5t-13 1.5v-302h-89v700h89v-279q4 -9 10 -17t13 -14t15.5 -9t17.5 -3q26 0 44.5 24.5t18.5 58.5v69q0 35 -18.5 59t-44.5 24q-12 0 -24 -6v91q13 2 24 2q60 0 102 -42.5t42 -102.5v-119q0 -41 -20.5 -75t-55.5 -52z" />
    <glyph glyph-name="S" unicode="S" horiz-adv-x="380" 
d="M315 360q29 -42 29 -95v-113q0 -34 -6 -59.5t-21.5 -47.5t-46 -33.5t-75.5 -11.5q-82 0 -115 41t-33 111v61h96v-30q0 -31 16 -52t39 -21t39 21t16 52v54q0 35 -21 58q-15 15 -34 15q-6 0 -16.5 -2t-24.5 -1q-72 3 -93 34q-28 41 -28 94v113q0 34 6 59.5t21.5 47.5
t46 33.5t74.5 11.5q38 0 65 -7.5t42 -18.5t24 -31t12 -37t5 -45q1 -6 1 -13v-52h-97v24q0 23 -9 41q-16 33 -45 33q-23 0 -39 -21.5t-16 -52.5v-54q0 -38 23 -59q14 -14 32 -14q4 0 21.5 2t26.5 0q22 -2 33 -4.5t27.5 -10.5t24.5 -20z" />
    <glyph glyph-name="T" unicode="T" horiz-adv-x="395" 
d="M36 700h323v-82h-115v-618h-90v618h-118v82z" />
    <glyph glyph-name="U" unicode="U" horiz-adv-x="384" 
d="M347 699v-27v-27v-490q0 -62 -48.5 -108t-106.5 -46t-106.5 46t-48.5 108v490v54h91v-467q0 -59 20 -99.5t44 -40.5q23 0 42 40.5t19 99.5v467h94z" />
    <glyph glyph-name="V" unicode="V" horiz-adv-x="416" 
d="M291 700h89l-123 -700h-98l-123 700h89l83 -468z" />
    <glyph glyph-name="W" unicode="W" horiz-adv-x="617" 
d="M501 700h80l-110 -700h-87l-75 482l-76 -482h-87l-110 700h80l73 -468l74 468h91l74 -468z" />
    <glyph glyph-name="X" unicode="X" horiz-adv-x="340" 
d="M304 701l-91 -351l91 -351h-70l-64 247l-64 -247h-70l91 351l-91 351h70l64 -247l64 247h70z" />
    <glyph glyph-name="Y" unicode="Y" horiz-adv-x="344" 
d="M236 700h71l-97 -446l-3 -254h-71l-3 254l-97 446h70l65 -299z" />
    <glyph glyph-name="Z" unicode="Z" horiz-adv-x="409" 
d="M372 700l-25 -70l-144 -395h46v-56h-67l-39 -109h191v-70h-298l65 179h-55v56h76l143 395h-178v70h285z" />
    <glyph glyph-name="bracketleft" unicode="[" horiz-adv-x="364" 
d="M328 701v-60l-217 -2l1 -574h216v-66h-292v702h292z" />
    <glyph glyph-name="backslash" unicode="\" horiz-adv-x="400" 
d="M109 697l254 -698h-73l-254 698h73z" />
    <glyph glyph-name="bracketright" unicode="]" horiz-adv-x="364" 
d="M36 696h292v-702h-292v65h216l1 575l-217 1v61z" />
    <glyph glyph-name="asciicircum" unicode="^" horiz-adv-x="249" 
d="M147 700l66 -182h-45l-44 121l-43 -121h-45l66 182h45z" />
    <glyph glyph-name="underscore" unicode="_" horiz-adv-x="355" 
d="M319 2h-283v33h283v-33z" />
    <glyph glyph-name="grave" unicode="`" horiz-adv-x="104" 
d="M58 623q-1 -10 4 -14l-7 1l-19 5l12 51l19 -4z" />
    <glyph glyph-name="a" unicode="a" horiz-adv-x="387" 
d="M242 613l108 -613h-78l-10 55h-138l-10 -55h-78l108 613h98zM132 133h122l-61 313z" />
    <glyph glyph-name="b" unicode="b" horiz-adv-x="309" 
d="M272 425q0 -61 -49 -96q49 -41 49 -111v-81q0 -79 -31 -107.5t-87 -28.5q-6 0 -18.5 -0.5t-21.5 -0.5h-78v613h78v-219q16 -27 40 -27q21 0 36 21t15 50v43q0 30 -15 51t-36 21h-4v60h4q49 0 83.5 -34.5t34.5 -83.5v-70zM205 153v49q0 34 -15 58.5t-36 24.5
q-24 0 -40 -31v-153q16 -31 40 -31q14 0 26 11.5t18.5 30.5t6.5 41z" />
    <glyph glyph-name="c" unicode="c" horiz-adv-x="312" 
d="M275 437h-76v24q0 38 -13 65t-32 27q-7 0 -13.5 -5t-12 -13.5t-9.5 -19.5t-6.5 -25t-2.5 -29v-287q0 -38 13 -64.5t31.5 -26.5t31.5 26.5t13 64.5v11h76v-65q0 -50 -35 -85t-84.5 -35t-84.5 35t-35 85v374q0 49 35 84t84.5 35t84.5 -35t35 -84v-57z" />
    <glyph glyph-name="d" unicode="d" horiz-adv-x="347" 
d="M268 571q42 -42 42 -101v-326q0 -60 -42 -102t-101 -42h-11.5h-21.5h-20h-78v613h78v-547q9 -3 53 -3q32 0 55.5 33.5t23.5 81.5v260q0 48 -23.5 81.5t-55.5 33.5q-9 0 -18 -2v61q9 1 18 1q59 0 101 -42z" />
    <glyph glyph-name="e" unicode="e" horiz-adv-x="312" 
d="M275 541h-161v-198h84l26 -73h-110v-198h161v-72h-239v613h239v-72z" />
    <glyph glyph-name="f" unicode="f" horiz-adv-x="352" 
d="M315 543h-151v-188h102l26 -71h-128v-284h-79v284h-23l-26 71h49v258h230v-70z" />
    <glyph glyph-name="g" unicode="g" horiz-adv-x="353" 
d="M144 322h172v-67h-42v-136q0 -49 -35 -84t-84 -35t-84 35t-35 84v375q0 50 35 84.5t84 34.5t84 -34.5t35 -84.5v-38h-81q0 39 -13 66.5t-31.5 27.5t-31.5 -27.5t-13 -66.5v-296q0 -25 6 -47t16.5 -34.5t22.5 -12.5q9 0 17 7.5t14 20t9.5 30t3.5 36.5v95h-49v67z" />
    <glyph glyph-name="h" unicode="h" horiz-adv-x="317" 
d="M202 613h78v-613h-78v171h-88v-171h-78v613h78v-377h88v377z" />
    <glyph glyph-name="i" unicode="i" horiz-adv-x="151" 
d="M114 0h-78v613h78v-613z" />
    <glyph glyph-name="j" unicode="j" horiz-adv-x="336" 
d="M300 613q-1 -1 -0.5 -18.5t0.5 -18.5v-453q0 -49 -39.5 -86t-85.5 -37h-10t-10 0.5t-9.5 0.5t-10.5 0.5t-9.5 2t-10.5 3.5t-9.5 4.5t-10.5 6t-9 7.5q-50 48 -50 96v8l79 1q3 -11 8 -21q16 -32 38.5 -32t38.5 31.5t16 76.5v398v9.5v11v9.5h84z" />
    <glyph glyph-name="k" unicode="k" horiz-adv-x="370" 
d="M147 324l187 -324h-79l-141 244v-244h-78v613h78v-209l121 209h79z" />
    <glyph glyph-name="l" unicode="l" horiz-adv-x="295" 
d="M114 75h144v-75h-222v613h78v-538z" />
    <glyph glyph-name="m" unicode="m" horiz-adv-x="434" 
d="M276 613h121v-613h-78v449l-68 -350h-71l-66 345v-444h-78v613h119l61 -344z" />
    <glyph glyph-name="n" unicode="n" horiz-adv-x="365" 
d="M251 613h78v-613h-78l-137 389v-389h-78v613h78l137 -398v398z" />
    <glyph glyph-name="o" unicode="o" horiz-adv-x="310" 
d="M154.5 613q49.5 0 84 -34.5t34.5 -83.5v-377q0 -49 -34.5 -83.5t-84 -34.5t-84 34.5t-34.5 83.5v377q0 49 34.5 83.5t84 34.5zM192 166v281q0 37 -11 62.5t-26.5 25.5t-26 -25.5t-10.5 -62.5v-281q0 -24 4.5 -44.5t13.5 -32t19 -11.5q15 0 26 25.5t11 62.5z" />
    <glyph glyph-name="p" unicode="p" horiz-adv-x="326" 
d="M163 613q34 0 63.5 -17t46.5 -46t17 -64v-104q0 -53 -37.5 -90t-89.5 -37q-25 0 -49 10v-265h-78v613h77l1 -130v-114q16 -38 49 -38q15 0 28 10t20 26.5t7 36.5v60q0 31 -16 52t-39 21q-11 0 -21 -5v79q12 2 21 2z" />
    <glyph glyph-name="q" unicode="q" horiz-adv-x="317" 
d="M254 54l57 -98h-79l-30 54q-23 -10 -47 -10q-50 0 -84.5 34.5t-34.5 83.5v377q0 49 34.5 83.5t84 34.5t84 -34.5t34.5 -83.5v-377q0 -34 -19 -64zM192 166v281q0 37 -11 62.5t-26.5 25.5t-26 -25.5t-10.5 -62.5v-281q0 -24 5 -44.5t13.5 -32t18.5 -11.5q3 0 6 1
q10 4 18 20q13 27 13 67z" />
    <glyph glyph-name="r" unicode="r" horiz-adv-x="358" 
d="M223 270l98 -270h-78l-95 262q-4 0 -15 0.5t-19 2.5v-265h-78v613h78v-244q16 -38 49 -38q15 0 28 10t20 26.5t7 36.5v60q0 31 -16 52t-39 21q-11 0 -21 -5v79q11 2 21 2q52 0 89.5 -37t37.5 -90v-104q0 -24 -8.5 -45.5t-23.5 -38.5t-35 -28z" />
    <glyph glyph-name="s" unicode="s" horiz-adv-x="320" 
d="M259 315q24 -37 24 -83v-99q0 -63 -27 -98t-103 -35q-71 0 -100.5 36t-29.5 97v53h85v-26q0 -27 14 -45.5t34 -18.5t34 18.5t14 45.5v48q0 31 -19 50q-13 14 -29 14q-5 0 -14.5 -2t-21.5 -2q-63 4 -81 30q-25 37 -25 83v99q0 63 27.5 98t102.5 35q41 0 67 -8.5
t38.5 -27.5t17 -37t6.5 -48q1 -6 1 -12v-45h-85v21q0 20 -8 35q-14 29 -40 29q-20 0 -34 -19t-14 -45v-48q0 -33 21 -52q12 -12 27 -12q4 0 19.5 1.5t23.5 0.5q19 -2 28.5 -4t24 -9t22.5 -18z" />
    <glyph glyph-name="t" unicode="t" horiz-adv-x="355" 
d="M36 613h283v-72h-101v-541h-78v541h-104v72z" />
    <glyph glyph-name="u" unicode="u" horiz-adv-x="345" 
d="M309 613v-24v-24v-429q0 -55 -43 -95.5t-93.5 -40.5t-93 40.5t-42.5 95.5v429v48h79v-410q0 -35 9 -63.5t21.5 -43.5t25.5 -15q21 0 37.5 35t16.5 87v410h83z" />
    <glyph glyph-name="v" unicode="v" horiz-adv-x="374" 
d="M259 613h78l-108 -613h-85l-108 613h78l73 -410z" />
    <glyph glyph-name="w" unicode="w" horiz-adv-x="550" 
d="M444 613h70l-97 -613h-76l-66 422l-67 -422h-76l-96 613h70l64 -410l65 410h80l64 -410z" />
    <glyph glyph-name="x" unicode="x" horiz-adv-x="307" 
d="M271 614l-80 -307l80 -308h-61l-57 217l-56 -217h-61l80 308l-80 307h61l56 -217l57 217h61z" />
    <glyph glyph-name="y" unicode="y" horiz-adv-x="310" 
d="M212 613h61l-85 -391l-2 -222h-62l-3 222l-85 391h62l57 -261z" />
    <glyph glyph-name="z" unicode="z" horiz-adv-x="367" 
d="M330 613l-22 -61l-126 -346h40v-49h-58l-34 -96h167v-61h-261l57 157h-48v49h66l126 346h-156v61h249z" />
    <glyph glyph-name="braceleft" unicode="{" horiz-adv-x="270" 
d="M215 -1h1q8 -1 15 -1q-25 0 -43 1.5t-37 5t-32 11.5t-23.5 19.5t-16 29.5t-5.5 41q0 27 9 78t9 77q0 4 1.5 20t0.5 25.5t-5 22t-17.5 18.5t-35.5 6q18 0 30.5 5t18 12t8 19t2 21t-1.5 21.5t-1 18.5q0 27 -9 80t-9 78q0 65 44 84.5t116 -11.5l-19 -2q-66 -7 -66 -80
q0 -27 7 -67q8 -42 8 -73q1 -32 -3 -51t-16.5 -32t-36.5 -19v-2q34 -7 45.5 -31t10.5 -72q0 -33 -8 -73q-7 -41 -7 -68q0 -41 16 -73t50 -39z" />
    <glyph glyph-name="verticalbar" unicode="|" horiz-adv-x="128" 
d="M92 6h-56v693h56v-693z" />
    <glyph glyph-name="braceright" unicode="}" horiz-adv-x="270" 
d="M178 261q0 -26 8.5 -77t8.5 -78q0 -28 -8 -48t-21 -31.5t-34 -18t-42 -8.5t-51 -2q7 0 15 1h1q33 7 49.5 39t16.5 73q0 27 -8 68q-7 40 -7 73q-1 32 3 51.5t16.5 33t36.5 18.5v2q-35 8 -46 31t-10 71q0 31 7 73q8 40 8 67q0 73 -66 80l-19 2q72 31 115.5 11.5t43.5 -83.5
q0 -26 -8.5 -79t-8.5 -80q0 -6 -1 -18.5t-1.5 -21.5t2 -21t8 -19t17.5 -12t31 -5q-22 0 -35.5 -6t-17.5 -18.5t-5 -22t0.5 -25.5t1.5 -20z" />
    <glyph glyph-name="asciitilde" unicode="~" horiz-adv-x="286" 
d="M116 409q27 -16 45 -23.5t43 -6t46 20.5v-26q-16 -14 -33 -19t-35 -0.5t-32 11t-34 18.5q-23 11 -40.5 5t-28.5 -19l-11 -13v26q1 1 2.5 3t6 6.5t9.5 9t12 8.5t14.5 5.5t17 0.5t18.5 -7z" />
    <glyph glyph-name="nonbreakingspace" unicode="&#xa0;" horiz-adv-x="205" 
 />
    <glyph glyph-name="sterling" unicode="&#xa3;" horiz-adv-x="469" 
d="M286.5 701q60.5 0 103.5 -47.5t43 -114.5v-49h-68q-4 37 -15 66.5t-27.5 46t-35.5 16.5q-34 0 -57.5 -48.5t-23.5 -116.5v-31h157v-44h-157v-36h157v-43h-157v-251q0 -23 4 -45q-32 22 -50.5 58.5t-18.5 79.5v158h-105v43h105v36h-105v44h105v116q0 67 42.5 114.5
t103 47.5z" />
    <glyph glyph-name="copyright" unicode="&#xa9;" horiz-adv-x="664" 
d="M332 548q33 0 56 -23t23 -56v-38h-51v16q0 25 -8.5 43t-20.5 18t-21 -18t-9 -43v-190q0 -25 9 -43t21 -18t20.5 18t8.5 43v7h51v-44q0 -33 -23 -56t-56 -23q-16 0 -31 6t-25.5 17t-17 25.5t-6.5 30.5v249q0 33 23.5 56t56.5 23zM425 640q84 0 143 -59t59 -143v-186
q0 -55 -27 -102t-73.5 -74t-101.5 -27h-186q-55 0 -102 27t-74 73.5t-27 102.5v186q0 84 59.5 143t143.5 59h186zM559 273v143q0 65 -45.5 110.5t-110.5 45.5h-143q-64 0 -109.5 -45.5t-45.5 -110.5v-143q0 -64 45.5 -109.5t109.5 -45.5h143q65 0 110.5 45.5t45.5 109.5z
" />
    <glyph glyph-name="softhyphen" unicode="&#xad;" horiz-adv-x="0" 
 />
    <glyph glyph-name="plusminus" unicode="&#xb1;" horiz-adv-x="261" 
d="M145 362h80v-28h-80v-80h-29v80h-80v28h80v80h29v-80zM225 215h-189v28h189v-28z" />
    <glyph glyph-name="Agrave" unicode="&#xc0;" horiz-adv-x="431" 
d="M271 700l124 -700h-90l-11 62h-158l-11 -62h-89l123 700h112zM145 152h140l-70 358zM259 779h-85l-82 65l70 60z" />
    <glyph glyph-name="Aacute" unicode="&#xc1;" horiz-adv-x="431" 
d="M271 700l124 -700h-90l-11 62h-158l-11 -62h-89l123 700h112zM145 152h140l-70 358zM338 844l-82 -65h-84l97 125z" />
    <glyph glyph-name="Acircumflex" unicode="&#xc2;" horiz-adv-x="431" 
d="M271 700l124 -700h-90l-11 62h-158l-11 -62h-89l123 700h112zM145 152h140l-70 358zM215 844l-50 -61h-78l82 117h93l82 -117h-78z" />
    <glyph glyph-name="Atilde" unicode="&#xc3;" horiz-adv-x="431" 
d="M271 700l124 -700h-90l-11 62h-158l-11 -62h-89l123 700h112zM145 152h140l-70 358zM170 826q-24 0 -32 -50l-58 29q5 24 13 43t19 31t24 18t28 6q21 0 37.5 -12t30.5 -24t28 -12q32 0 35 53l56 -28q-21 -100 -86 -100q-12 0 -23 3.5t-18.5 8.5t-15 11t-13 11t-12.5 8.5
t-13 3.5z" />
    <glyph glyph-name="Adieresis" unicode="&#xc4;" horiz-adv-x="431" 
d="M271 700l124 -700h-90l-11 62h-158l-11 -62h-89l123 700h112zM145 152h140l-70 358zM140 791q-21 0 -36 15t-15 36t15 36t36 15q14 0 25.5 -7t18.5 -18.5t7 -25.5q0 -21 -15 -36t-36 -15zM291 791q-14 0 -26 7t-18.5 18.5t-6.5 25.5q0 21 15 36t36 15t36 -15t15 -36
t-15 -36t-36 -15z" />
    <glyph glyph-name="Aring" unicode="&#xc5;" horiz-adv-x="431" 
d="M271 700l124 -700h-90l-11 62h-158l-11 -62h-89l123 700h112zM145 152h140l-70 358zM215 724q-48 0 -83 34t-35 84q0 48 34 83t84 35q49 0 83.5 -34t34.5 -84q0 -49 -34 -83.5t-84 -34.5zM215 898q-23 0 -39.5 -16t-16.5 -40q0 -23 16 -39.5t40 -16.5q23 0 39.5 16
t16.5 40q0 15 -7 28t-20 20.5t-29 7.5z" />
    <glyph glyph-name="AE" unicode="&#xc6;" horiz-adv-x="556" 
d="M519 618h-183v-227h95l30 -82h-125v-227h183v-82h-273v62h-109l-12 -62h-89l135 700h348v-82zM246 152v466h-8l-90 -466h98z" />
    <glyph glyph-name="Ccedilla" unicode="&#xc7;" 
d="M309 563v-64h-87v27q0 44 -15 74.5t-36 30.5t-35.5 -30.5t-14.5 -74.5v-327q0 -28 6.5 -52t18 -38t25.5 -14q21 0 36 30.5t15 73.5v12h87v-74q0 -50 -31 -87.5t-78 -46.5l-19 -21q36 -5 57.5 -29.5t21.5 -60.5q0 -38 -25.5 -64t-67.5 -26q-51 0 -82 34l36 48
q18 -27 45 -27q15 0 25 9.5t10 25.5q0 18 -10.5 27.5t-24.5 9.5q-20 0 -30 -13l-38 37l38 52q-44 12 -72 48.5t-28 83.5v426q0 57 40 97t96.5 40t96.5 -40t40 -97z" />
    <glyph glyph-name="Egrave" unicode="&#xc8;" 
d="M309 618h-184v-227h96l30 -82h-126v-227h184v-82h-273v700h273v-82zM216 779h-84l-82 65l69 60z" />
    <glyph glyph-name="Eacute" unicode="&#xc9;" 
d="M309 618h-184v-227h96l30 -82h-126v-227h184v-82h-273v700h273v-82zM296 844l-83 -65h-84l97 125z" />
    <glyph glyph-name="Ecircumflex" unicode="&#xca;" 
d="M309 618h-184v-227h96l30 -82h-126v-227h184v-82h-273v700h273v-82zM173 844l-51 -61h-78l82 117h93l82 -117h-78z" />
    <glyph glyph-name="Edieresis" unicode="&#xcb;" 
d="M309 618h-184v-227h96l30 -82h-126v-227h184v-82h-273v700h273v-82zM98 791q-22 0 -37 15t-15 36t15 36t37 15q13 0 25 -7t18.5 -18.5t6.5 -25.5q0 -21 -15 -36t-35 -15zM248 791q-21 0 -36 15t-15 36t15 36t36 15t36 -15t15 -36t-15 -36t-36 -15z" />
    <glyph glyph-name="Igrave" unicode="&#xcc;" horiz-adv-x="241" 
d="M204 0h-90v700h90v-700zM202 779h-84l-82 65l69 60z" />
    <glyph glyph-name="Iacute" unicode="&#xcd;" horiz-adv-x="241" 
d="M125 0h-89v700h89v-700zM204 844l-82 -65h-85l97 125z" />
    <glyph glyph-name="Icircumflex" unicode="&#xce;" horiz-adv-x="330" 
d="M209 0h-89v700h89v-700zM211 900l82 -117h-78l-51 61l-50 -61h-78l82 117h93z" />
    <glyph glyph-name="Idieresis" unicode="&#xcf;" horiz-adv-x="326" 
d="M207 0h-89v700h89v-700zM138 842q0 -21 -15 -36t-35 -15q-22 0 -37 15t-15 36t15 36t37 15q13 0 25 -7t18.5 -18.5t6.5 -25.5zM238 893q21 0 36 -15t15 -36t-15 -36t-36 -15t-36 15t-15 36t15 36t36 15z" />
    <glyph glyph-name="Eth" unicode="&#xd0;" horiz-adv-x="431" 
d="M346 652q48 -48 48 -116v-372q0 -68 -48 -116t-116 -48h-59h-90v308h-45v84h45v308h90v-308h103v-84h-103v-233q10 -3 59 -3q38 0 64.5 38.5t26.5 92.5v297q0 55 -26.5 93.5t-64.5 38.5q-9 0 -19 -4v71q9 1 19 1q68 0 116 -48z" />
    <glyph glyph-name="Ntilde" unicode="&#xd1;" horiz-adv-x="407" 
d="M281 700h89v-700h-89l-156 444v-444h-89v700h89l156 -454v454zM158 826q-24 0 -32 -50l-59 29q6 24 14 43t19 31t24 18t28 6q21 0 37.5 -12t30.5 -24t28 -12q32 0 34 53l57 -28q-21 -100 -86 -100q-14 0 -26.5 5t-21 11.5t-16.5 13t-16 11.5t-15 5z" />
    <glyph glyph-name="Ograve" unicode="&#xd2;" horiz-adv-x="343" 
d="M171 700q56 0 96 -39.5t40 -95.5v-430q0 -56 -40 -95.5t-96 -39.5t-95.5 39.5t-39.5 95.5v430q0 56 39.5 95.5t95.5 39.5zM213 190v320q0 42 -12 71.5t-30 29.5q-8 0 -16 -8t-13.5 -21.5t-9 -32t-3.5 -39.5v-320q0 -42 12.5 -71.5t30 -29.5t29.5 29.5t12 71.5zM215 779
h-85l-82 65l70 60z" />
    <glyph glyph-name="Oacute" unicode="&#xd3;" horiz-adv-x="343" 
d="M171 700q56 0 96 -39.5t40 -95.5v-430q0 -56 -40 -95.5t-96 -39.5t-95.5 39.5t-39.5 95.5v430q0 56 39.5 95.5t95.5 39.5zM213 190v320q0 42 -12 71.5t-30 29.5q-8 0 -16 -8t-13.5 -21.5t-9 -32t-3.5 -39.5v-320q0 -42 12.5 -71.5t30 -29.5t29.5 29.5t12 71.5zM294 844
l-82 -65h-84l97 125z" />
    <glyph glyph-name="Ocircumflex" unicode="&#xd4;" horiz-adv-x="343" 
d="M171 700q56 0 96 -39.5t40 -95.5v-430q0 -56 -40 -95.5t-96 -39.5t-95.5 39.5t-39.5 95.5v430q0 56 39.5 95.5t95.5 39.5zM213 190v320q0 42 -12 71.5t-30 29.5q-8 0 -16 -8t-13.5 -21.5t-9 -32t-3.5 -39.5v-320q0 -42 12.5 -71.5t30 -29.5t29.5 29.5t12 71.5zM171 844
l-50 -61h-78l82 117h93l82 -117h-78z" />
    <glyph glyph-name="Otilde" unicode="&#xd5;" horiz-adv-x="344" 
d="M172 700q56 0 95.5 -39.5t39.5 -95.5v-430q0 -56 -39.5 -95.5t-95.5 -39.5t-96 39.5t-40 95.5v430q0 56 40 95.5t96 39.5zM214 190v320q0 42 -12.5 71.5t-30 29.5t-29.5 -29.5t-12 -71.5v-320q0 -28 5.5 -51t15 -36.5t21.5 -13.5q17 0 29.5 29.5t12.5 71.5zM126 826
q-24 0 -32 -50l-58 29q7 33 19 55t28.5 32.5t36.5 10.5q21 0 37.5 -12t30.5 -24t28 -12q32 0 35 53l56 -28q-20 -100 -86 -100q-14 0 -26.5 5t-21 11.5t-16 13t-15.5 11.5t-16 5z" />
    <glyph glyph-name="Odieresis" unicode="&#xd6;" horiz-adv-x="343" 
d="M171 700q56 0 96 -39.5t40 -95.5v-430q0 -56 -40 -95.5t-96 -39.5t-95.5 39.5t-39.5 95.5v430q0 56 39.5 95.5t95.5 39.5zM213 190v320q0 42 -12 71.5t-30 29.5q-8 0 -16 -8t-13.5 -21.5t-9 -32t-3.5 -39.5v-320q0 -42 12.5 -71.5t30 -29.5t29.5 29.5t12 71.5zM96 791
q-21 0 -36 15t-15 36q0 14 7 25.5t18.5 18.5t25.5 7q21 0 36 -15t15 -36t-15 -36t-36 -15zM247 791q-21 0 -36 15t-15 36t15 36t36 15t36 -15t15 -36t-15 -36t-36 -15z" />
    <glyph glyph-name="multiply" unicode="&#xd7;" horiz-adv-x="342" 
d="M306 427l-100 -99l99 -99l-36 -35l-98 99l-100 -98l-35 35l100 99l-99 99l35 35l99 -99l100 98z" />
    <glyph glyph-name="Oslash" unicode="&#xd8;" horiz-adv-x="571" 
d="M482 693l52 -35l-114 -166v-357q0 -36 -18 -67.5t-49 -49.5t-68 -18q-47 0 -83.5 29t-47.5 74l-66 -96l-52 35l114 166v357q0 56 39.5 95.5t95.5 39.5q47 0 83.5 -29t47.5 -74zM327 190v166l-84 -123v-43q0 -42 12.5 -71.5t30 -29.5t29.5 29.5t12 71.5zM327 467v43
q0 42 -12 71.5t-29.5 29.5t-30 -29.5t-12.5 -71.5v-166z" />
    <glyph glyph-name="Ugrave" unicode="&#xd9;" horiz-adv-x="384" 
d="M347 699v-27v-27v-490q0 -62 -48.5 -108t-106.5 -46t-106.5 46t-48.5 108v490v54h91v-467q0 -59 20 -99.5t44 -40.5q14 0 28 17.5t23.5 50t9.5 72.5v467h94zM235 779h-84l-82 65l69 60z" />
    <glyph glyph-name="Uacute" unicode="&#xda;" horiz-adv-x="384" 
d="M347 699v-27v-27v-490q0 -62 -48.5 -108t-106.5 -46t-106.5 46t-48.5 108v490v54h91v-467q0 -59 20 -99.5t44 -40.5q14 0 28 17.5t23.5 50t9.5 72.5v467h94zM315 844l-82 -65h-85l97 125z" />
    <glyph glyph-name="Ucircumflex" unicode="&#xdb;" horiz-adv-x="384" 
d="M347 699v-26.5v-27.5v-490q0 -62 -48.5 -108t-106.5 -46t-106.5 46t-48.5 108v490v54h91v-467q0 -59 20 -99.5t44 -40.5q23 0 42 40.5t19 99.5v467h94zM192 844l-51 -61h-78l82 117h93l82 -117h-78z" />
    <glyph glyph-name="Udieresis" unicode="&#xdc;" horiz-adv-x="384" 
d="M347 699v-26.5v-27.5v-490q0 -62 -48.5 -108t-106.5 -46t-106.5 46t-48.5 108v490v54h91v-467q0 -59 20 -99.5t44 -40.5q23 0 42 40.5t19 99.5v467h94zM117 791q-14 0 -26 7t-19 18.5t-7 25.5q0 21 15 36t37 15q20 0 35 -15t15 -36q0 -14 -6.5 -26t-18.5 -18.5t-25 -6.5z
M267 791q-21 0 -36 15t-15 36t15 36t36 15t36 -15t15 -36t-15 -36t-36 -15z" />
    <glyph glyph-name="Yacute" unicode="&#xdd;" horiz-adv-x="343" 
d="M236 700h71l-97 -446l-3 -254h-71l-3 254l-97 446h70l65 -299zM294 844l-82 -65h-84l97 125z" />
    <glyph glyph-name="Thorn" unicode="&#xde;" horiz-adv-x="467" 
d="M210 580q92 -4 156 -71t64 -159q0 -93 -65 -160t-157 -70h-83v-120h-89v700h89v-120h85zM210 210q21 1 41 9t36.5 21t28.5 30t18.5 37.5t6.5 42.5q0 56 -39 97t-94 44h-83v-282q82 0 85 1z" />
    <glyph glyph-name="agrave" unicode="&#xe0;" horiz-adv-x="387" 
d="M242 613l108 -613h-78l-10 55h-138l-10 -55h-78l108 613h98zM132 133h122l-61 313zM237 695h-85l-82 65l70 60z" />
    <glyph glyph-name="aacute" unicode="&#xe1;" horiz-adv-x="387" 
d="M242 613l108 -613h-78l-10 55h-138l-10 -55h-78l108 613h98zM132 133h122l-61 313zM316 760l-82 -65h-84l97 125z" />
    <glyph glyph-name="acircumflex" unicode="&#xe2;" horiz-adv-x="387" 
d="M242 613l108 -613h-78l-10 55h-138l-10 -55h-78l108 613h98zM132 133h122l-61 313zM193 760l-51 -61h-77l82 117h92l82 -117h-77z" />
    <glyph glyph-name="atilde" unicode="&#xe3;" horiz-adv-x="387" 
d="M242 613l108 -613h-78l-10 55h-138l-10 -55h-78l108 613h98zM132 133h122l-61 313zM148 741q-24 0 -32 -50l-59 30q10 48 32 73t53 25q20 0 37 -12t31 -24t28 -12q31 0 34 53l57 -28q-21 -100 -86 -100q-14 0 -26.5 4.5t-21.5 11.5t-16.5 13.5t-15.5 11t-15 4.5z" />
    <glyph glyph-name="adieresis" unicode="&#xe4;" horiz-adv-x="387" 
d="M242 613l108 -613h-78l-10 55h-138l-10 -55h-78l108 613h98zM132 133h122l-61 313zM118 706q-21 0 -36 15.5t-15 36.5t15 36t36 15q14 0 25.5 -7t18.5 -19t7 -25q0 -21 -15 -36.5t-36 -15.5zM269 706q-21 0 -36.5 15.5t-15.5 36.5t15.5 36t36.5 15t36 -15t15 -36
t-15 -36.5t-36 -15.5z" />
    <glyph glyph-name="aring" unicode="&#xe5;" horiz-adv-x="387" 
d="M242 613l108 -613h-78l-10 55h-138l-10 -55h-78l108 613h98zM132 133h122l-61 313zM193 640q-32 0 -59 15t-43 42.5t-16 60.5q0 48 34 82.5t84 34.5q24 0 45.5 -9t37.5 -24.5t25.5 -37.5t9.5 -46q0 -50 -34.5 -84t-83.5 -34zM193 814q-23 0 -39.5 -16.5t-16.5 -39.5
q0 -24 16 -40t40 -16q23 0 39.5 16t16.5 40q0 23 -16 39.5t-40 16.5z" />
    <glyph glyph-name="ae" unicode="&#xe6;" horiz-adv-x="500" 
d="M463 545h-163v-200h84l27 -73h-111v-199h163v-73h-241v55h-96l-11 -55h-79l119 617h308v-72zM221 134v411h-6l-80 -411h86z" />
    <glyph glyph-name="ccedilla" unicode="&#xe7;" horiz-adv-x="312" 
d="M275 494v-57h-76v24q0 38 -13 65t-31.5 27t-31.5 -27t-13 -65v-287q0 -38 13 -64.5t31.5 -26.5t31.5 26.5t13 64.5v11h76v-65q0 -43 -26 -75.5t-66 -41.5l-19 -21q36 -5 57.5 -29.5t21.5 -60.5q0 -38 -25 -64t-68 -26q-51 0 -82 34l36 48q18 -27 46 -27q14 0 24.5 9.5
t10.5 25.5q0 18 -11 27.5t-25 9.5q-20 0 -30 -13l-38 37l38 52q-36 12 -59.5 43.5t-23.5 71.5v374q0 49 35 84t84.5 35t84.5 -35t35 -84z" />
    <glyph glyph-name="egrave" unicode="&#xe8;" horiz-adv-x="316" 
d="M279 541h-161v-198h83l26 -73h-109v-198h161v-72h-240v613h240v-72zM202 695h-84l-82 65l69 60z" />
    <glyph glyph-name="eacute" unicode="&#xe9;" horiz-adv-x="316" 
d="M279 760l-82 -65h-85l97 125zM36 613h239v-72h-161v-198h84l26 -73h-110v-198h161v-72h-239v613z" />
    <glyph glyph-name="ecircumflex" unicode="&#xea;" horiz-adv-x="330" 
d="M164 760l-50 -61h-78l82 117h93l82 -117h-78zM45 613h239v-72h-161v-198h83l27 -73h-110v-198h161v-72h-239v613z" />
    <glyph glyph-name="edieresis" unicode="&#xeb;" horiz-adv-x="326" 
d="M88 706q-22 0 -37 15.5t-15 36.5q0 14 7 25.5t19 18.5t26 7q13 0 25 -7t18.5 -19t6.5 -25q0 -21 -15 -36.5t-35 -15.5zM238 706q-21 0 -36 15.5t-15 36.5t15 36t36 15t36 -15t15 -36t-15 -36.5t-36 -15.5zM43 613h239v-72h-161v-198h84l26 -73h-110v-198h161v-72h-239
v613z" />
    <glyph glyph-name="igrave" unicode="&#xec;" horiz-adv-x="239" 
d="M198 0h-78v613h78v-613zM105 820l97 -125h-84l-82 65z" />
    <glyph glyph-name="iacute" unicode="&#xed;" horiz-adv-x="239" 
d="M119 0h-79v613h79v-613zM133 820l69 -60l-82 -65h-84z" />
    <glyph glyph-name="icircumflex" unicode="&#xee;" horiz-adv-x="330" 
d="M204 0h-79v613h79v-613zM211 816l82 -117h-78l-51 61l-50 -61h-78l82 117h93z" />
    <glyph glyph-name="idieresis" unicode="&#xef;" horiz-adv-x="326" 
d="M202 0h-79v613h79v-613zM88 809q13 0 24.5 -7t18.5 -19t7 -25q0 -21 -15 -36.5t-35 -15.5q-22 0 -37 15.5t-15 36.5q0 14 7 25.5t19 18.5t26 7zM238 809q21 0 36 -15t15 -36t-15 -36.5t-36 -15.5t-36 15.5t-15 36.5t15 36t36 15z" />
    <glyph glyph-name="eth" unicode="&#xf0;" horiz-adv-x="343" 
d="M306 772l-72 -53q49 -67 49 -224v-377q0 -49 -35 -83.5t-84 -34.5t-83.5 34.5t-34.5 83.5v377q0 49 34.5 83.5t83.5 34.5q17 0 33 -5q-9 37 -30 63l-83 -60l-29 39l75 54q-24 16 -94 54l44 62q85 -37 119 -65l78 56zM201 166v281q0 37 -10.5 62.5t-26 25.5t-26.5 -25.5
t-11 -62.5v-281q0 -37 11 -63t26.5 -26t26 26t10.5 63z" />
    <glyph glyph-name="ntilde" unicode="&#xf1;" horiz-adv-x="365" 
d="M251 613h78v-613h-78l-137 389v-389h-78v613h78l137 -398v398zM137 741q-24 0 -32 -50l-58 30q10 48 32 73t52 25q21 0 37.5 -12t30.5 -24t28 -12q32 0 35 53l56 -28q-20 -100 -86 -100q-22 0 -39.5 11.5t-31 22.5t-24.5 11z" />
    <glyph glyph-name="ograve" unicode="&#xf2;" horiz-adv-x="314" 
d="M159 613q49 0 83.5 -34.5t34.5 -83.5v-377q0 -49 -34.5 -83.5t-83.5 -34.5t-84 34.5t-35 83.5v377q0 49 35 83.5t84 34.5zM196 166v281q0 37 -11 62.5t-26 25.5t-26 -25.5t-11 -62.5v-281q0 -37 11 -63t26 -26t26 26t11 63zM202 695h-84l-82 65l69 60z" />
    <glyph glyph-name="oacute" unicode="&#xf3;" horiz-adv-x="315" 
d="M154.5 613q49.5 0 84 -34.5t34.5 -83.5v-377q0 -49 -34.5 -83.5t-84 -34.5t-84 34.5t-34.5 83.5v377q0 49 34.5 83.5t84 34.5zM192 166v281q0 37 -11 62.5t-26.5 25.5t-26 -25.5t-10.5 -62.5v-281q0 -37 10.5 -63t26 -26t26.5 26t11 63zM278 760l-83 -65h-84l97 125z" />
    <glyph glyph-name="ocircumflex" unicode="&#xf4;" horiz-adv-x="330" 
d="M164 613q49 0 84 -34.5t35 -83.5v-377q0 -49 -35 -83.5t-84 -34.5t-83.5 34.5t-34.5 83.5v377q0 49 34.5 83.5t83.5 34.5zM201 166v281q0 37 -10.5 62.5t-26 25.5t-26.5 -25.5t-11 -62.5v-281q0 -37 11 -63t26.5 -26t26 26t10.5 63zM164 760l-50 -61h-78l82 117h93
l82 -117h-78z" />
    <glyph glyph-name="otilde" unicode="&#xf5;" horiz-adv-x="344" 
d="M172 613q49 0 83.5 -34.5t34.5 -83.5v-377q0 -49 -34.5 -83.5t-83.5 -34.5t-84 34.5t-35 83.5v377q0 49 35 83.5t84 34.5zM209 166v281q0 37 -11 62.5t-26.5 25.5t-26 -25.5t-10.5 -62.5v-281q0 -37 10.5 -63t26 -26t26.5 26t11 63zM126 741q-24 0 -32 -50l-58 30
q10 48 32 73t52 25q21 0 37.5 -12t30.5 -24t28 -12q32 0 35 53l56 -28q-20 -100 -86 -100q-22 0 -39.5 11.5t-31 22.5t-24.5 11z" />
    <glyph glyph-name="odieresis" unicode="&#xf6;" horiz-adv-x="326" 
d="M162.5 613q49.5 0 84 -34.5t34.5 -83.5v-377q0 -49 -34.5 -83.5t-84 -34.5t-84 34.5t-34.5 83.5v377q0 49 34.5 83.5t84 34.5zM199 166v281q0 37 -10.5 62.5t-26 25.5t-26 -25.5t-10.5 -62.5v-281q0 -37 10.5 -63t26 -26t26 26t10.5 63zM88 706q-22 0 -37 15.5t-15 36.5
t15 36t37 15q20 0 35 -15t15 -36t-15 -36.5t-35 -15.5zM238 706q-21 0 -36 15.5t-15 36.5t15 36t36 15t36 -15t15 -36t-15 -36.5t-36 -15.5z" />
    <glyph glyph-name="divide" unicode="&#xf7;" horiz-adv-x="403" 
d="M366 304h-330v49h330v-49zM201 383q-25 0 -42 17.5t-17 42t17 42t42 17.5t42.5 -17.5t17.5 -42t-17.5 -42t-42.5 -17.5zM201 155q-25 0 -42 17.5t-17 42t17 42t42 17.5t42.5 -17.5t17.5 -42t-17.5 -42t-42.5 -17.5z" />
    <glyph glyph-name="oslash" unicode="&#xf8;" horiz-adv-x="515" 
d="M426 609l52 -35l-102 -150v-306q0 -49 -35 -83.5t-84 -34.5q-40 0 -71.5 24t-42.5 61l-55 -81l-52 35l103 150v306q0 49 34.5 83.5t83.5 34.5q40 0 71.5 -24t42.5 -61zM294 166v139l-74 -108v-31q0 -37 11 -63t26 -26t26 26t11 63zM294 416v31q0 37 -11 62.5t-26 25.5
t-26 -25.5t-11 -62.5v-139z" />
    <glyph glyph-name="ugrave" unicode="&#xf9;" horiz-adv-x="345" 
d="M309 613v-24v-24v-429q0 -55 -43 -95.5t-93.5 -40.5t-93 40.5t-42.5 95.5v429v48h79v-410q0 -51 18 -86.5t38 -35.5q21 0 37.5 35t16.5 87v410h83zM216 695h-84l-83 65l70 60z" />
    <glyph glyph-name="uacute" unicode="&#xfa;" horiz-adv-x="345" 
d="M309 613v-24v-24v-429q0 -55 -43 -95.5t-93.5 -40.5t-93 40.5t-42.5 95.5v429v48h79v-410q0 -51 18 -86.5t38 -35.5q21 0 37.5 35t16.5 87v410h83zM295 760l-82 -65h-84l97 125z" />
    <glyph glyph-name="ucircumflex" unicode="&#xfb;" horiz-adv-x="345" 
d="M309 613v-24v-24v-429q0 -55 -43 -95.5t-93.5 -40.5t-93 40.5t-42.5 95.5v429v48h79v-410q0 -51 18 -86.5t38 -35.5q21 0 37.5 35t16.5 87v410h83zM172 760l-50 -61h-78l82 117h93l82 -117h-78z" />
    <glyph glyph-name="udieresis" unicode="&#xfc;" horiz-adv-x="345" 
d="M309 613v-24v-24v-429q0 -55 -43 -95.5t-93.5 -40.5t-93 40.5t-42.5 95.5v429v48h79v-410q0 -51 18 -86.5t38 -35.5q21 0 37.5 35t16.5 87v410h83zM97 706q-21 0 -36 15.5t-15 36.5q0 14 7 25.5t18.5 18.5t25.5 7t25.5 -7t18.5 -19t7 -25q0 -21 -15 -36.5t-36 -15.5z
M248 706q-21 0 -36 15.5t-15 36.5t15 36t36 15t36 -15t15 -36t-15 -36.5t-36 -15.5z" />
    <glyph glyph-name="yacute" unicode="&#xfd;" horiz-adv-x="315" 
d="M155 352l57 261h61l-85 -391l-2 -222h-62l-3 222l-85 391h62zM278 760l-83 -65h-84l97 125z" />
    <glyph glyph-name="thorn" unicode="&#xfe;" horiz-adv-x="419" 
d="M189 509q81 -3 137 -62t56 -140q0 -82 -57 -140.5t-138 -61.5h-72v-105h-79v615h79v-105q71 0 74 -1zM188 184q49 3 82.5 38.5t33.5 84.5q0 50 -34 85.5t-83 38.5h-72v-247h73z" />
    <glyph glyph-name="ydieresis" unicode="&#xff;" horiz-adv-x="326" 
d="M162 352l57 261h62l-85 -391l-2 -222h-63l-2 222l-85 391h62zM88 706q-22 0 -37 15.5t-15 36.5q0 14 7 25.5t19 18.5t26 7q13 0 25 -7t18.5 -19t6.5 -25q0 -21 -15 -36.5t-35 -15.5zM238 706q-21 0 -36 15.5t-15 36.5t15 36t36 15t36 -15t15 -36t-15 -36.5t-36 -15.5z
" />
    <glyph glyph-name="Amacron" unicode="&#x100;" horiz-adv-x="431" 
d="M271 700l124 -700h-90l-11 62h-158l-11 -62h-89l123 700h112zM145 152h140l-70 358zM334 803h-237v78h237v-78z" />
    <glyph glyph-name="amacron" unicode="&#x101;" horiz-adv-x="387" 
d="M242 613l108 -613h-78l-10 55h-138l-10 -55h-78l108 613h98zM132 133h122l-61 313zM312 719h-238v77h238v-77z" />
    <glyph glyph-name="Abreve" unicode="&#x102;" horiz-adv-x="431" 
d="M271 700l124 -700h-90l-11 62h-158l-11 -62h-89l123 700h112zM145 152h140l-70 358zM221 766q-59 0 -98 38t-39 95v18h73v-18q0 -24 17 -41.5t41 -17.5t41 17t17 42v18h74v-18q0 -36 -17 -66.5t-46 -48.5t-63 -18z" />
    <glyph glyph-name="abreve" unicode="&#x103;" horiz-adv-x="387" 
d="M242 613l108 -613h-78l-10 55h-138l-10 -55h-78l108 613h98zM132 133h122l-61 313zM199 682q-60 0 -99 38t-39 94v19h74v-19q0 -24 17 -41t41 -17t41 17t17 41v19h74v-19q0 -54 -37.5 -93t-88.5 -39z" />
    <glyph glyph-name="Aogonek" unicode="&#x104;" horiz-adv-x="481" 
d="M394 -86l51 -58q-46 -54 -91 -54q-41 0 -72 29.5t-31 73.5q0 60 54 95l-11 62h-158l-11 -62h-89l123 700h112l124 -700q-78 -9 -78 -75q0 -17 9 -26t23 -9q24 0 45 24zM145 152h140l-70 358z" />
    <glyph glyph-name="aogonek" unicode="&#x105;" horiz-adv-x="449" 
d="M361 -86l51 -58q-46 -54 -91 -54q-26 0 -49.5 13t-38.5 37t-15 53q0 60 54 95l-10 55h-138l-10 -55h-78l108 613h98l108 -613q-23 -3 -37.5 -10t-20 -19t-7 -21t-1.5 -25q0 -17 9 -26t23 -9q24 0 45 24zM132 133h122l-61 313z" />
    <glyph glyph-name="Cacute" unicode="&#x106;" 
d="M309 563v-64h-87v27q0 44 -15 74.5t-36 30.5t-35.5 -30.5t-14.5 -74.5v-327q0 -43 14.5 -73.5t35.5 -30.5t36 30.5t15 73.5v12h87v-74q0 -57 -40 -97t-96.5 -40t-96.5 40t-40 97v426q0 57 40 97t96.5 40t96.5 -40t40 -97zM296 844l-83 -65h-84l97 125z" />
    <glyph glyph-name="cacute" unicode="&#x107;" horiz-adv-x="316" 
d="M155.5 613q49.5 0 84.5 -35t35 -84v-57h-76v24q0 38 -13 65t-31.5 27t-31.5 -27t-13 -65v-287q0 -25 6 -46t16 -33t22 -12q19 0 32 26.5t13 64.5v11h76v-65q0 -50 -35 -85t-84.5 -35t-84.5 35t-35 85v374q0 49 35 84t84.5 35zM279 760l-82 -65h-85l97 125z" />
    <glyph glyph-name="Ccaron" unicode="&#x10c;" 
d="M309 563v-64h-87v27q0 44 -15 74.5t-36 30.5t-35.5 -30.5t-14.5 -74.5v-327q0 -43 14.5 -73.5t35.5 -30.5t36 30.5t15 73.5v12h87v-74q0 -57 -40 -97t-96.5 -40t-96.5 40t-40 97v426q0 57 40 97t96.5 40t96.5 -40t40 -97zM219 779h-93l-82 125h78l51 -69l50 69h78z" />
    <glyph glyph-name="ccaron" unicode="&#x10d;" horiz-adv-x="330" 
d="M164.5 613q49.5 0 84.5 -35t35 -84v-57h-77v24q0 38 -13 65t-31 27t-31 -27t-13 -65v-287q0 -25 6 -46t16 -33t22 -12q18 0 31 26.5t13 64.5v11h77v-65q0 -50 -35 -85t-84.5 -35t-84.5 35t-35 85v374q0 49 35 84t84.5 35zM211 695h-93l-82 125h78l50 -69l51 69h78z" />
    <glyph glyph-name="Dcaron" unicode="&#x10e;" horiz-adv-x="386" 
d="M301 652q48 -48 48 -116v-372q0 -68 -48 -116t-116 -48h-60h-89v700h89v-625q11 -3 60 -3q38 0 64.5 38.5t26.5 92.5v297q0 55 -26.5 93.5t-64.5 38.5q-10 0 -20 -4v71q10 1 20 1q68 0 116 -48zM239 779h-93l-82 125h78l50 -69l51 69h78z" />
    <glyph glyph-name="dcaron" unicode="&#x10f;" horiz-adv-x="495" 
d="M167 613q59 0 101 -42t42 -101v-326q0 -60 -42 -102t-101 -42h-53h-78v613h78v-547q9 -3 53 -3q32 0 55.5 33.5t23.5 81.5v260q0 48 -23.5 81.5t-55.5 33.5q-9 0 -18 -2v61q9 1 18 1zM363 613h95l-62 -183h-51z" />
    <glyph glyph-name="dmacron" unicode="&#x111;" horiz-adv-x="347" 
d="M268 571q42 -42 42 -101v-326q0 -60 -42 -102t-101 -42h-53h-78v613h78v-547q9 -3 53 -3q32 0 55.5 33.5t23.5 81.5v260q0 48 -23.5 81.5t-55.5 33.5q-9 0 -18 -2v61q9 1 18 1q59 0 101 -42zM292 719h-238v77h238v-77z" />
    <glyph glyph-name="Emacron" unicode="&#x112;" 
d="M309 618h-184v-227h96l30 -82h-126v-227h184v-82h-273v700h273v-82zM291 803h-237v78h237v-78z" />
    <glyph glyph-name="emacron" unicode="&#x113;" horiz-adv-x="312" 
d="M274 719h-237v77h237v-77zM275 541h-161v-198h84l26 -73h-110v-198h161v-72h-239v613h239v-72z" />
    <glyph glyph-name="Edot" unicode="&#x116;" 
d="M173 791q-21 0 -36.5 15t-15.5 36t15.5 36t36.5 15t36 -15t15 -36q0 -14 -7 -26t-18.5 -18.5t-25.5 -6.5zM309 618h-184v-227h96l30 -82h-126v-227h184v-82h-273v700h273v-82z" />
    <glyph glyph-name="edot" unicode="&#x117;" horiz-adv-x="312" 
d="M156 706q-21 0 -36 15.5t-15 36.5t15 36t36 15q14 0 25.5 -7t18.5 -19t7 -25q0 -21 -15 -36.5t-36 -15.5zM275 541h-161v-198h84l26 -73h-110v-198h161v-72h-239v613h239v-72z" />
    <glyph glyph-name="Eogonek" unicode="&#x118;" horiz-adv-x="396" 
d="M308 -86l51 -58q-45 -54 -90 -54q-27 0 -50.5 13t-38.5 37t-15 53q0 60 55 95h-184v700h273v-82h-184v-227h96l30 -82h-126v-227h184v-82q-77 -9 -77 -75q0 -17 9 -26t23 -9q24 0 44 24z" />
    <glyph glyph-name="eogonek" unicode="&#x119;" horiz-adv-x="363" 
d="M274 -86l52 -58q-46 -54 -91 -54q-26 0 -49.5 13t-38.5 37t-15 53q0 60 54 95h-150v613h239v-72h-161v-198h84l26 -73h-110v-198h161v-72q-77 -9 -77 -75q0 -17 9 -26t23 -9q24 0 44 24z" />
    <glyph glyph-name="Ecaron" unicode="&#x11a;" 
d="M309 618h-184v-227h96l30 -82h-126v-227h184v-82h-273v700h273v-82zM219 779h-93l-82 125h78l51 -69l50 69h78z" />
    <glyph glyph-name="ecaron" unicode="&#x11b;" horiz-adv-x="330" 
d="M211 695h-93l-82 125h78l50 -69l51 69h78zM45 613h239v-72h-161v-198h83l27 -73h-110v-198h161v-72h-239v613z" />
    <glyph glyph-name="Gbreve" unicode="&#x11e;" horiz-adv-x="392" 
d="M159 368h197v-77h-48v-155q0 -56 -40 -96t-96 -40t-96 40t-40 96v428q0 56 40 96t96 40t96 -40t40 -96v-43h-93q0 44 -14.5 75.5t-35.5 31.5q-11 0 -20.5 -8.5t-16 -23t-10.5 -34t-4 -41.5v-338q0 -44 15 -75.5t36 -31.5t35.5 31.5t14.5 75.5v108h-56v77zM182 766
q-60 0 -99 38t-39 95v18h74v-18q0 -24 17 -41.5t41 -17.5t41 17t17 42v18h74v-18q0 -55 -37.5 -94t-88.5 -39z" />
    <glyph glyph-name="gbreve" unicode="&#x11f;" horiz-adv-x="365" 
d="M155 322h173v-67h-43v-136q0 -49 -34.5 -84t-84 -35t-84.5 35t-35 84v375q0 50 35 84.5t84.5 34.5t84 -34.5t34.5 -84.5v-38h-80q0 39 -13 66.5t-31.5 27.5t-31.5 -27.5t-13 -66.5v-296q0 -39 13 -66.5t31.5 -27.5t31.5 27.5t13 66.5v95h-50v67zM173 682q-59 0 -98 38
t-39 94v19h74v-19q0 -24 17 -41t40 -17q24 0 41.5 17t17.5 41v19h73v-19q0 -54 -37 -93t-89 -39z" />
    <glyph glyph-name="Imacron" unicode="&#x12a;" horiz-adv-x="310" 
d="M199 0h-89v700h89v-700zM273 803h-237v78h237v-78z" />
    <glyph glyph-name="imacron" unicode="&#x12b;" horiz-adv-x="310" 
d="M194 0h-79v613h79v-613zM273 719h-237v77h237v-77z" />
    <glyph glyph-name="Idot" unicode="&#x130;" horiz-adv-x="175" 
d="M132 0h-90v700h90v-700zM88 791q-22 0 -37 15t-15 36t15 36t37 15q20 0 35 -15t15 -36t-15 -36t-35 -15z" />
    <glyph glyph-name="dotlessi" unicode="&#x131;" horiz-adv-x="151" 
d="M114 0h-78v613h78v-613z" />
    <glyph glyph-name="Lslash" unicode="&#x141;" horiz-adv-x="372" 
d="M171 86h164v-86h-253v246l-46 -36v73l46 37v380h89v-309l124 99v-73l-124 -100v-231z" />
    <glyph glyph-name="lslash" unicode="&#x142;" horiz-adv-x="334" 
d="M153 75h144v-75h-222v206l-39 -30v74l39 30v333h78v-272l122 96v-74l-122 -95v-193z" />
    <glyph glyph-name="Nacute" unicode="&#x143;" horiz-adv-x="407" 
d="M281 700h89v-700h-89l-156 444v-444h-89v700h89l156 -454v454zM326 844l-82 -65h-84l97 125z" />
    <glyph glyph-name="nacute" unicode="&#x144;" horiz-adv-x="365" 
d="M251 613h78v-613h-78l-137 389v-389h-78v613h78l137 -398v398zM305 760l-82 -65h-84l97 125z" />
    <glyph glyph-name="Ncaron" unicode="&#x147;" horiz-adv-x="407" 
d="M281 700h89v-700h-89l-156 444v-444h-89v700h89l156 -454v454zM249 779h-92l-82 125h77l51 -69l51 69h78z" />
    <glyph glyph-name="ncaron" unicode="&#x148;" horiz-adv-x="365" 
d="M251 613h78v-613h-78l-137 389v-389h-78v613h78l137 -398v398zM229 695h-93l-82 125h78l50 -69l51 69h78z" />
    <glyph glyph-name="Omacron" unicode="&#x14c;" horiz-adv-x="343" 
d="M171 700q56 0 96 -39.5t40 -95.5v-430q0 -56 -40 -95.5t-96 -39.5t-95.5 39.5t-39.5 95.5v430q0 56 39.5 95.5t95.5 39.5zM213 190v320q0 42 -12 71.5t-30 29.5q-8 0 -16 -8t-13.5 -21.5t-9 -32t-3.5 -39.5v-320q0 -42 12.5 -71.5t30 -29.5t29.5 29.5t12 71.5zM290 803
h-237v78h237v-78z" />
    <glyph glyph-name="Ohungarumlaut" unicode="&#x150;" horiz-adv-x="385" 
d="M192 700q56 0 96 -39.5t40 -95.5v-430q0 -56 -40 -95.5t-96 -39.5t-95.5 39.5t-39.5 95.5v430q0 56 39.5 95.5t95.5 39.5zM234 190v320q0 42 -12 71.5t-30 29.5q-8 0 -16 -8t-13.5 -21.5t-9 -32t-3.5 -39.5v-320q0 -42 12.5 -71.5t30 -29.5t29.5 29.5t12 71.5zM267 779
h-85l97 125l70 -60zM202 844l-82 -65h-84l97 125z" />
    <glyph glyph-name="ohungarumlaut" unicode="&#x151;" horiz-adv-x="386" 
d="M192 613q49 0 84 -34.5t35 -83.5v-377q0 -49 -35 -83.5t-84 -34.5q-32 0 -59.5 16t-43 43t-15.5 59v377q0 49 34.5 83.5t83.5 34.5zM229 166v281q0 37 -10.5 62.5t-26 25.5t-26.5 -25.5t-11 -62.5v-281q0 -37 11 -63t26.5 -26t26 26t10.5 63zM267 695h-85l97 125l70 -60z
M202 760l-82 -65h-84l97 125z" />
    <glyph glyph-name="OE" unicode="&#x152;" horiz-adv-x="526" 
d="M490 618h-184v-42q1 -6 1 -11v-174h94l30 -82h-124v-174q0 -5 -1 -11v-42h184v-82h-313h-3h-3q-56 0 -95.5 39.5t-39.5 95.5v430q0 56 39.5 95.5t95.5 39.5h3h3h313v-82zM213 190v320q0 42 -12 71.5t-29.5 29.5t-30 -29.5t-12.5 -71.5v-320q0 -42 12.5 -71.5t30 -29.5
t29.5 29.5t12 71.5z" />
    <glyph glyph-name="oe" unicode="&#x153;" horiz-adv-x="471" 
d="M434 541h-161v-36v-10v-152h83l26 -73h-109v-152v-10v-36h161v-72h-275h1h-2.5h-2.5q-50 0 -84.5 34.5t-34.5 83.5v377q0 49 34.5 83.5t84.5 34.5h2h2h275v-72zM191 166v281q0 37 -10.5 62.5t-26 25.5t-26 -25.5t-10.5 -62.5v-281q0 -37 10.5 -62.5t26 -25.5t26 25.5
t10.5 62.5z" />
    <glyph glyph-name="Racute" unicode="&#x154;" horiz-adv-x="398" 
d="M249 309l112 -309h-89l-108 299q-5 1 -17.5 1.5t-21.5 1.5v-302h-89v700h89v-279q9 -19 23.5 -31t32.5 -12q17 0 31.5 11t23 30.5t8.5 41.5v69q0 35 -18.5 59t-44.5 24q-12 0 -24 -6v91q13 2 24 2q39 0 72.5 -19.5t52.5 -52.5t19 -73v-119q0 -41 -20.5 -75t-55.5 -52z
M282 844l-82 -65h-85l97 125z" />
    <glyph glyph-name="racute" unicode="&#x155;" horiz-adv-x="358" 
d="M223 270l98 -270h-78l-95 262q-4 0 -15 0.5t-19 2.5v-265h-78v613h78v-244q16 -38 49 -38q23 0 39 21.5t16 51.5v60q0 31 -16 52t-39 21q-11 0 -21 -5v79q11 2 21 2q34 0 63.5 -17t46.5 -46t17 -64v-104q0 -36 -18.5 -65.5t-48.5 -46.5zM262 760l-82 -65h-85l97 125z" />
    <glyph glyph-name="Rcaron" unicode="&#x158;" horiz-adv-x="404" 
d="M254 309l113 -309h-90l-108 299q-5 1 -12 1t-13.5 0.5t-12.5 1.5v-302h-89v700h89v-279q8 -19 23 -31t32 -12q27 0 45.5 24.5t18.5 58.5v69q0 35 -18.5 59t-45.5 24q-12 0 -23 -6v91q12 2 23 2q40 0 73 -19.5t52.5 -52.5t19.5 -73v-119q0 -41 -21 -75t-56 -52zM211 779
h-93l-82 125h78l50 -69l51 69h78z" />
    <glyph glyph-name="rcaron" unicode="&#x159;" horiz-adv-x="384" 
d="M248 270l99 -270h-79l-95 262q-4 1 -10 1t-11.5 0.5t-11.5 1.5v-265h-78v613h78v-244q16 -38 48 -38q23 0 39.5 21.5t16.5 51.5v60q0 31 -16.5 52t-39.5 21q-10 0 -20 -5v79q11 2 20 2q35 0 64 -17t46 -46t17 -64v-104q0 -36 -18 -65.5t-49 -46.5zM211 695h-93l-82 125
h78l50 -69l51 69h78z" />
    <glyph glyph-name="Sacute" unicode="&#x15a;" horiz-adv-x="380" 
d="M315 360q29 -42 29 -95v-113q0 -34 -6 -59.5t-21.5 -47.5t-46 -33.5t-75.5 -11.5q-82 0 -115 41t-33 111v61h96v-30q0 -31 16 -52t39 -21t39 21t16 52v54q0 36 -21 58q-15 15 -34 15q-6 0 -16.5 -2t-24.5 -1q-72 3 -93 34q-28 41 -28 94v113q0 34 6 59.5t21.5 47.5
t46 33.5t74.5 11.5q32 0 56 -4.5t39.5 -14.5t25.5 -21t15.5 -28.5t8 -32.5t3.5 -38q1 -6 1 -13v-52h-97v24q0 23 -9 41q-16 33 -46 33q-22 0 -38 -21.5t-16 -52.5v-54q0 -38 23 -59q14 -14 31 -14q5 0 22.5 2t26.5 0q22 -2 33 -4.5t27.5 -10.5t24.5 -20zM313 844l-82 -65
h-85l97 125z" />
    <glyph glyph-name="sacute" unicode="&#x15b;" horiz-adv-x="343" 
d="M281 315q25 -37 25 -83v-99q0 -63 -27.5 -98t-102.5 -35q-72 0 -101 35.5t-29 97.5v53h84v-26q0 -27 14 -45.5t34 -18.5t34 18.5t14 45.5v47q0 32 -19 51q-13 14 -29 14q-5 0 -14 -2t-22 -2q-63 4 -81 30q-25 37 -25 83v99q0 63 27.5 98t102.5 35q41 0 67 -8.5
t38.5 -27.5t17 -37t7.5 -49v-11v-45h-84v21q0 20 -9 35q-14 29 -39 29q-13 0 -24.5 -8.5t-17.5 -23.5t-6 -32v-48q0 -33 20 -52q12 -12 28 -12q4 0 19 1.5t23 0.5q10 -1 14 -1.5t13 -2.5t14.5 -4t12.5 -5t12 -7.5t9 -10.5zM274 760l-82 -65h-85l97 125z" />
    <glyph glyph-name="Scedilla" unicode="&#x15e;" horiz-adv-x="380" 
d="M315 360q29 -42 29 -96v-112q0 -32 -5.5 -56t-19 -45.5t-39.5 -34t-65 -15.5l-17 -19q36 -5 57.5 -29.5t21.5 -60.5q0 -38 -25 -64t-67 -26q-52 0 -82 34l35 48q18 -27 46 -27q14 0 24.5 9.5t10.5 25.5q0 18 -11 27.5t-25 9.5q-20 0 -30 -13l-37 37l36 51
q-105 19 -105 148v61h96v-30q0 -31 16 -52t39 -21t39 21t16 52v54q0 36 -21 58q-15 15 -34 15q-6 0 -16.5 -2t-24.5 -1q-72 3 -93 34q-28 41 -28 94v113q0 34 6 59.5t21.5 47.5t46 33.5t74.5 11.5q32 0 56 -4.5t39.5 -14.5t25.5 -21t15.5 -28.5t8 -32.5t3.5 -38q1 -6 1 -13
v-52h-97v24q0 23 -9 41q-16 33 -46 33q-22 0 -38 -21.5t-16 -52.5v-54q0 -38 23 -59q14 -14 31 -14q5 0 22.5 2t26.5 0q22 -2 33 -4.5t27.5 -10.5t24.5 -20z" />
    <glyph glyph-name="scedilla" unicode="&#x15f;" horiz-adv-x="343" 
d="M281 315q25 -37 25 -83v-99q0 -59 -23.5 -93t-85.5 -39l-18 -19q36 -5 57.5 -29.5t21.5 -60.5q0 -39 -25 -64.5t-67 -25.5q-52 0 -82 34l35 48q18 -27 46 -27q14 0 24.5 9.5t10.5 25.5q0 18 -11 27.5t-25 9.5q-20 0 -30 -13l-37 37l37 51q-88 19 -88 129v53h84v-26
q0 -27 14 -45.5t34 -18.5t34 18.5t14 45.5v47q0 32 -19 51q-13 14 -29 14q-5 0 -14 -2t-22 -2q-63 4 -81 30q-25 37 -25 83v99q0 63 27.5 98t102.5 35q41 0 67 -8.5t38.5 -27.5t17 -37t7.5 -49v-11v-45h-84v21q0 20 -9 35q-14 29 -39 29q-13 0 -24.5 -8.5t-17.5 -23.5
t-6 -32v-48q0 -33 20 -52q12 -12 28 -12q4 0 19 1.5t23 0.5q10 -1 14 -1.5t13 -2.5t14.5 -4t12.5 -5t12 -7.5t9 -10.5z" />
    <glyph glyph-name="Scaron" unicode="&#x160;" horiz-adv-x="380" 
d="M315 360q29 -42 29 -95v-113q0 -34 -6 -59.5t-21.5 -47.5t-46 -33.5t-75.5 -11.5q-82 0 -115 41t-33 111v61h96v-30q0 -31 16 -52t39 -21t39 21t16 52v54q0 36 -21 58q-15 15 -34 15q-6 0 -16.5 -2t-24.5 -1q-72 3 -93 34q-28 41 -28 94v113q0 34 6 59.5t21.5 47.5
t46 33.5t74.5 11.5q32 0 56 -4.5t39.5 -14.5t25.5 -21t15.5 -28.5t8 -32.5t3.5 -38q1 -6 1 -13v-52h-97v24q0 23 -9 41q-16 33 -46 33q-22 0 -38 -21.5t-16 -52.5v-54q0 -38 23 -59q14 -14 31 -14q5 0 22.5 2t26.5 0q22 -2 33 -4.5t27.5 -10.5t24.5 -20zM236 779h-93
l-82 125h78l51 -69l50 69h78z" />
    <glyph glyph-name="scaron" unicode="&#x161;" horiz-adv-x="343" 
d="M281 315q25 -37 25 -83v-99q0 -63 -27.5 -98t-102.5 -35q-72 0 -101 35.5t-29 97.5v53h84v-26q0 -27 14 -45.5t34 -18.5t34 18.5t14 45.5v47q0 32 -19 51q-13 14 -29 14q-5 0 -14 -2t-22 -2q-63 4 -81 30q-25 37 -25 83v99q0 63 27.5 98t102.5 35q41 0 67 -8.5
t38.5 -27.5t17 -37t7.5 -49v-11v-45h-84v21q0 20 -9 35q-14 29 -39 29q-13 0 -24.5 -8.5t-17.5 -23.5t-6 -32v-48q0 -33 20 -52q12 -12 28 -12q4 0 19 1.5t23 0.5q10 -1 14 -1.5t13 -2.5t14.5 -4t12.5 -5t12 -7.5t9 -10.5zM217 695h-92l-83 125h78l51 -69l51 69h77z" />
    <glyph glyph-name="Umacron" unicode="&#x16a;" horiz-adv-x="384" 
d="M347 699v-26.5v-27.5v-490q0 -62 -48.5 -108t-106.5 -46t-106.5 46t-48.5 108v490v54h91v-467q0 -59 20 -99.5t44 -40.5q23 0 42 40.5t19 99.5v467h94zM310 803h-237v78h237v-78z" />
    <glyph glyph-name="umacron" unicode="&#x16b;" horiz-adv-x="345" 
d="M309 613v-24v-24v-429q0 -55 -43 -95.5t-93.5 -40.5t-93 40.5t-42.5 95.5v429v48h79v-410q0 -51 18 -86.5t38 -35.5q21 0 37.5 35t16.5 87v410h83zM291 719h-237v77h237v-77z" />
    <glyph glyph-name="Uring" unicode="&#x16e;" horiz-adv-x="384" 
d="M347 699v-27v-27v-490q0 -62 -48.5 -108t-106.5 -46t-106.5 46t-48.5 108v490v54h91v-467q0 -59 20 -99.5t44 -40.5q14 0 28 17.5t23.5 50t9.5 72.5v467h94zM192 724q-49 0 -83.5 34t-34.5 84q0 48 34 83t84 35q15 0 30.5 -4t28.5 -11.5t24 -18.5t18.5 -24t12 -28.5
t4.5 -31.5q0 -49 -34.5 -83.5t-83.5 -34.5zM192 898q-24 0 -40 -16t-16 -40q0 -23 16 -39.5t40 -16.5q23 0 39.5 16t16.5 40q0 23 -16.5 39.5t-39.5 16.5z" />
    <glyph glyph-name="uring" unicode="&#x16f;" horiz-adv-x="345" 
d="M309 613v-24v-24v-429q0 -55 -43 -95.5t-93.5 -40.5t-93 40.5t-42.5 95.5v429v48h79v-410q0 -51 18 -86.5t38 -35.5q21 0 37.5 35t16.5 87v410h83zM172 640q-48 0 -83 34t-35 84q0 48 34.5 82.5t83.5 34.5t83.5 -34t34.5 -83q0 -50 -34 -84t-84 -34zM172 814
q-23 0 -39.5 -16.5t-16.5 -39.5q0 -24 16.5 -40t39.5 -16q24 0 40 16t16 40q0 15 -7 27.5t-20 20.5t-29 8z" />
    <glyph glyph-name="Uhungarumlaut" unicode="&#x170;" horiz-adv-x="425" 
d="M253 699h94v-54v-490q0 -62 -48.5 -108t-106.5 -46t-106.5 46t-48.5 108v490v54h91v-467q0 -59 20 -99.5t44 -40.5q14 0 28 17.5t23.5 50t9.5 72.5v467zM306 779h-85l97 125l70 -60zM242 844l-83 -65h-84l97 125z" />
    <glyph glyph-name="uhungarumlaut" unicode="&#x171;" horiz-adv-x="385" 
d="M246 613h83v-48v-429q0 -55 -43 -95.5t-93 -40.5q-25 0 -49.5 11t-43.5 29t-31 43t-12 53v429v48h79v-410q0 -51 18 -86.5t38 -35.5q21 0 37.5 35t16.5 87v410zM267 695h-85l97 125l70 -60zM202 760l-82 -65h-84l97 125z" />
    <glyph glyph-name="Uogonek" unicode="&#x172;" horiz-adv-x="384" 
d="M347 699v-54v-490q0 -26 -10 -51.5t-27 -45t-39 -33.5h1h-1q-19 -12 -41 -19q-31 -9 -50 -34t-19 -47q0 -17 9 -26t23 -9q24 0 44 24l52 -58q-46 -54 -91 -54q-41 0 -72 29.5t-31 73.5q0 57 50 92q0 1 14 8q-50 13 -86 55t-36 95v490v54h91v-467q0 -59 20 -99.5t44 -40.5
q23 0 42 40.5t19 99.5v467h94z" />
    <glyph glyph-name="uogonek" unicode="&#x173;" horiz-adv-x="345" 
d="M258 -86l51 -58q-46 -54 -91 -54q-41 0 -72 29.5t-31 73.5q0 57 50 92l6 4q-50 0 -92 40.5t-42 94.5v429v48h79v-410q0 -35 9 -63.5t21.5 -43.5t25.5 -15q21 0 37.5 35t16.5 87v410h83v-24v-24v-429q0 -27 -12 -52v0q0 -1 -3 -6q-15 -29 -44 -62.5t-49 -56.5t-20 -34
q0 -17 9 -26t23 -9q24 0 45 24z" />
    <glyph glyph-name="Ydieresis" unicode="&#x178;" horiz-adv-x="343" 
d="M236 700h71l-97 -446l-3 -254h-71l-3 254l-97 446h70l65 -299zM96 791q-21 0 -36 15t-15 36q0 14 7 25.5t18.5 18.5t25.5 7t25.5 -7t18.5 -18.5t7 -25.5q0 -21 -15 -36t-36 -15zM247 791q-21 0 -36 15t-15 36t15 36t36 15t36 -15t15 -36t-15 -36t-36 -15z" />
    <glyph glyph-name="Zacute" unicode="&#x179;" horiz-adv-x="409" 
d="M372 700l-25 -70l-144 -395h46v-56h-67l-39 -109h191v-70h-298l65 179h-55v56h76l143 395h-178v70h285zM327 844l-82 -65h-84l97 125z" />
    <glyph glyph-name="zacute" unicode="&#x17a;" horiz-adv-x="367" 
d="M330 613l-22 -61l-126 -346h40v-49h-58l-34 -96h167v-61h-261l57 157h-48v49h66l126 346h-156v61h249zM326 760l-82 -65h-84l97 125z" />
    <glyph glyph-name="Zdot" unicode="&#x17b;" horiz-adv-x="409" 
d="M372 700l-25 -70l-144 -395h46v-56h-67l-39 -109h191v-70h-298l65 179h-55v56h76l143 395h-178v70h285zM244 791q-21 0 -36 15t-15 36t15 36t36 15t36 -15t15 -36t-15 -36t-36 -15z" />
    <glyph glyph-name="zdot" unicode="&#x17c;" horiz-adv-x="367" 
d="M330 613l-22 -61l-126 -346h40v-49h-58l-34 -96h167v-61h-261l57 157h-48v49h66l126 346h-156v61h249zM223 706q-21 0 -36 15.5t-15 36.5t15 36t36 15q14 0 25.5 -7t18.5 -19t7 -25q0 -21 -15 -36.5t-36 -15.5z" />
    <glyph glyph-name="zcaron" unicode="&#x17e;" horiz-adv-x="388" 
d="M81 613h249l-22 -61l-126 -346h40v-49h-58l-34 -96h167v-61h-261l57 157h-48v49h66l126 346h-156v61zM269 695h-92l-82 125h77l51 -69l51 69h77z" />
    <glyph glyph-name="Euro" unicode="&#x20ac;" horiz-adv-x="505" 
d="M314 602q-27 0 -46.5 -32.5t-19.5 -79.5v-60h110v-43h-110v-36h110v-43h-110v-97q0 -46 19.5 -78.5t46.5 -32.5q23 0 40.5 23t23.5 59h90v-22q0 -63 -45 -108.5t-109 -45.5t-109 45.5t-45 108.5v148h-124v43h124v36h-124v43h124v115q0 64 45 109t109 45t109 -45t45 -109
v-31h-89q-5 38 -23 63t-42 25z" />
    <glyph glyph-name="notequal" unicode="&#x2260;" horiz-adv-x="395" 
d="M358 362h-119l-28 -35h147v-43h-182l-63 -78l-34 27l42 51h-85v43h119l29 35h-148v43h182l64 79l33 -27l-41 -52h84v-43z" />
    <glyph glyph-name="lessequal" unicode="&#x2264;" horiz-adv-x="556" 
d="M519 666l-367 -508h343v-60h-459l435 603zM495 5h-455v60h455v-60z" />
    <glyph glyph-name="greaterequal" unicode="&#x2265;" horiz-adv-x="556" 
d="M60 158h343l-367 508l48 35l435 -603h-459v60zM516 5h-456v60h456v-60z" />
    </font>
</defs>
</svg>
